%FSLAX45Y45*%
G04 Gerber Fmt 4.5, Leading zero omitted, Abs format (unit mm)*
G04 Created by KiCad (PCBNEW (5.1.10)-1) date 2021-09-15 22:42:11*
%MOMM*%
%LPD*%
G01*
G04 APERTURE LIST*
%TA.AperFunction,Profile*%
%ADD10C,0.050000*%
%TD*%
%ADD11C,0.200000*%
%ADD12C,0.300000*%
G04 APERTURE END LIST*
D10*
X11429000Y-10802500D02*
G75*
G02*
X11379000Y-10852500I-50000J0D01*
G01*
X9349000Y-10852500D02*
G75*
G02*
X9299000Y-10802500I0J50000D01*
G01*
X9299000Y-5772500D02*
G75*
G02*
X9349000Y-5722500I50000J0D01*
G01*
X11379000Y-5722500D02*
G75*
G02*
X11429000Y-5772500I0J-50000D01*
G01*
X11429000Y-10802500D02*
X11429000Y-5772500D01*
X9349000Y-5722500D02*
X11379000Y-5722500D01*
X9299000Y-10802500D02*
X9299000Y-5772500D01*
X9349000Y-10852500D02*
X11379000Y-10852500D01*
D11*
X10038500Y-6285000D02*
X10103500Y-6350000D01*
X10103500Y-6285000D02*
X10038500Y-6350000D01*
X10616500Y-6285000D02*
X10681500Y-6350000D01*
X10681500Y-6285000D02*
X10616500Y-6350000D01*
D12*
X9582928Y-11320714D02*
X9582928Y-11020714D01*
X9654357Y-11020714D01*
X9697214Y-11035000D01*
X9725786Y-11063572D01*
X9740071Y-11092143D01*
X9754357Y-11149286D01*
X9754357Y-11192143D01*
X9740071Y-11249286D01*
X9725786Y-11277857D01*
X9697214Y-11306429D01*
X9654357Y-11320714D01*
X9582928Y-11320714D01*
X9882928Y-11320714D02*
X9882928Y-11120714D01*
X9882928Y-11177857D02*
X9897214Y-11149286D01*
X9911500Y-11135000D01*
X9940071Y-11120714D01*
X9968643Y-11120714D01*
X10068643Y-11320714D02*
X10068643Y-11120714D01*
X10068643Y-11020714D02*
X10054357Y-11035000D01*
X10068643Y-11049286D01*
X10082928Y-11035000D01*
X10068643Y-11020714D01*
X10068643Y-11049286D01*
X10254357Y-11320714D02*
X10225786Y-11306429D01*
X10211500Y-11277857D01*
X10211500Y-11020714D01*
X10411500Y-11320714D02*
X10382928Y-11306429D01*
X10368643Y-11277857D01*
X10368643Y-11020714D01*
X10754357Y-11320714D02*
X10754357Y-11020714D01*
X10854357Y-11235000D01*
X10954357Y-11020714D01*
X10954357Y-11320714D01*
X11225786Y-11320714D02*
X11225786Y-11163572D01*
X11211500Y-11135000D01*
X11182928Y-11120714D01*
X11125786Y-11120714D01*
X11097214Y-11135000D01*
X11225786Y-11306429D02*
X11197214Y-11320714D01*
X11125786Y-11320714D01*
X11097214Y-11306429D01*
X11082928Y-11277857D01*
X11082928Y-11249286D01*
X11097214Y-11220714D01*
X11125786Y-11206429D01*
X11197214Y-11206429D01*
X11225786Y-11192143D01*
X11368643Y-11120714D02*
X11368643Y-11420714D01*
X11368643Y-11135000D02*
X11397214Y-11120714D01*
X11454357Y-11120714D01*
X11482928Y-11135000D01*
X11497214Y-11149286D01*
X11511500Y-11177857D01*
X11511500Y-11263571D01*
X11497214Y-11292143D01*
X11482928Y-11306429D01*
X11454357Y-11320714D01*
X11397214Y-11320714D01*
X11368643Y-11306429D01*
X11640071Y-11292143D02*
X11654357Y-11306429D01*
X11640071Y-11320714D01*
X11625786Y-11306429D01*
X11640071Y-11292143D01*
X11640071Y-11320714D01*
X11640071Y-11135000D02*
X11654357Y-11149286D01*
X11640071Y-11163572D01*
X11625786Y-11149286D01*
X11640071Y-11135000D01*
X11640071Y-11163572D01*
X9231500Y-11782500D02*
X9296500Y-11847500D01*
X9296500Y-11782500D02*
X9231500Y-11847500D01*
X9640071Y-11650714D02*
X9668643Y-11650714D01*
X9697214Y-11665000D01*
X9711500Y-11679286D01*
X9725786Y-11707857D01*
X9740071Y-11765000D01*
X9740071Y-11836429D01*
X9725786Y-11893571D01*
X9711500Y-11922143D01*
X9697214Y-11936429D01*
X9668643Y-11950714D01*
X9640071Y-11950714D01*
X9611500Y-11936429D01*
X9597214Y-11922143D01*
X9582928Y-11893571D01*
X9568643Y-11836429D01*
X9568643Y-11765000D01*
X9582928Y-11707857D01*
X9597214Y-11679286D01*
X9611500Y-11665000D01*
X9640071Y-11650714D01*
X9868643Y-11922143D02*
X9882928Y-11936429D01*
X9868643Y-11950714D01*
X9854357Y-11936429D01*
X9868643Y-11922143D01*
X9868643Y-11950714D01*
X10140071Y-11650714D02*
X10082928Y-11650714D01*
X10054357Y-11665000D01*
X10040071Y-11679286D01*
X10011500Y-11722143D01*
X9997214Y-11779286D01*
X9997214Y-11893571D01*
X10011500Y-11922143D01*
X10025786Y-11936429D01*
X10054357Y-11950714D01*
X10111500Y-11950714D01*
X10140071Y-11936429D01*
X10154357Y-11922143D01*
X10168643Y-11893571D01*
X10168643Y-11822143D01*
X10154357Y-11793571D01*
X10140071Y-11779286D01*
X10111500Y-11765000D01*
X10054357Y-11765000D01*
X10025786Y-11779286D01*
X10011500Y-11793571D01*
X9997214Y-11822143D01*
X10440071Y-11650714D02*
X10297214Y-11650714D01*
X10282928Y-11793571D01*
X10297214Y-11779286D01*
X10325786Y-11765000D01*
X10397214Y-11765000D01*
X10425786Y-11779286D01*
X10440071Y-11793571D01*
X10454357Y-11822143D01*
X10454357Y-11893571D01*
X10440071Y-11922143D01*
X10425786Y-11936429D01*
X10397214Y-11950714D01*
X10325786Y-11950714D01*
X10297214Y-11936429D01*
X10282928Y-11922143D01*
X10640071Y-11650714D02*
X10668643Y-11650714D01*
X10697214Y-11665000D01*
X10711500Y-11679286D01*
X10725786Y-11707857D01*
X10740071Y-11765000D01*
X10740071Y-11836429D01*
X10725786Y-11893571D01*
X10711500Y-11922143D01*
X10697214Y-11936429D01*
X10668643Y-11950714D01*
X10640071Y-11950714D01*
X10611500Y-11936429D01*
X10597214Y-11922143D01*
X10582928Y-11893571D01*
X10568643Y-11836429D01*
X10568643Y-11765000D01*
X10582928Y-11707857D01*
X10597214Y-11679286D01*
X10611500Y-11665000D01*
X10640071Y-11650714D01*
X10868643Y-11950714D02*
X10868643Y-11750714D01*
X10868643Y-11779286D02*
X10882928Y-11765000D01*
X10911500Y-11750714D01*
X10954357Y-11750714D01*
X10982928Y-11765000D01*
X10997214Y-11793571D01*
X10997214Y-11950714D01*
X10997214Y-11793571D02*
X11011500Y-11765000D01*
X11040071Y-11750714D01*
X11082928Y-11750714D01*
X11111500Y-11765000D01*
X11125786Y-11793571D01*
X11125786Y-11950714D01*
X11268643Y-11950714D02*
X11268643Y-11750714D01*
X11268643Y-11779286D02*
X11282928Y-11765000D01*
X11311500Y-11750714D01*
X11354357Y-11750714D01*
X11382928Y-11765000D01*
X11397214Y-11793571D01*
X11397214Y-11950714D01*
X11397214Y-11793571D02*
X11411500Y-11765000D01*
X11440071Y-11750714D01*
X11482928Y-11750714D01*
X11511500Y-11765000D01*
X11525786Y-11793571D01*
X11525786Y-11950714D01*
X12111500Y-11636429D02*
X11854357Y-12022143D01*
X12497214Y-11650714D02*
X12525786Y-11650714D01*
X12554357Y-11665000D01*
X12568643Y-11679286D01*
X12582928Y-11707857D01*
X12597214Y-11765000D01*
X12597214Y-11836429D01*
X12582928Y-11893571D01*
X12568643Y-11922143D01*
X12554357Y-11936429D01*
X12525786Y-11950714D01*
X12497214Y-11950714D01*
X12468643Y-11936429D01*
X12454357Y-11922143D01*
X12440071Y-11893571D01*
X12425786Y-11836429D01*
X12425786Y-11765000D01*
X12440071Y-11707857D01*
X12454357Y-11679286D01*
X12468643Y-11665000D01*
X12497214Y-11650714D01*
X12725786Y-11922143D02*
X12740071Y-11936429D01*
X12725786Y-11950714D01*
X12711500Y-11936429D01*
X12725786Y-11922143D01*
X12725786Y-11950714D01*
X12925786Y-11650714D02*
X12954357Y-11650714D01*
X12982928Y-11665000D01*
X12997214Y-11679286D01*
X13011500Y-11707857D01*
X13025786Y-11765000D01*
X13025786Y-11836429D01*
X13011500Y-11893571D01*
X12997214Y-11922143D01*
X12982928Y-11936429D01*
X12954357Y-11950714D01*
X12925786Y-11950714D01*
X12897214Y-11936429D01*
X12882928Y-11922143D01*
X12868643Y-11893571D01*
X12854357Y-11836429D01*
X12854357Y-11765000D01*
X12868643Y-11707857D01*
X12882928Y-11679286D01*
X12897214Y-11665000D01*
X12925786Y-11650714D01*
X13140071Y-11679286D02*
X13154357Y-11665000D01*
X13182928Y-11650714D01*
X13254357Y-11650714D01*
X13282928Y-11665000D01*
X13297214Y-11679286D01*
X13311500Y-11707857D01*
X13311500Y-11736429D01*
X13297214Y-11779286D01*
X13125786Y-11950714D01*
X13311500Y-11950714D01*
X13582928Y-11650714D02*
X13440071Y-11650714D01*
X13425786Y-11793571D01*
X13440071Y-11779286D01*
X13468643Y-11765000D01*
X13540071Y-11765000D01*
X13568643Y-11779286D01*
X13582928Y-11793571D01*
X13597214Y-11822143D01*
X13597214Y-11893571D01*
X13582928Y-11922143D01*
X13568643Y-11936429D01*
X13540071Y-11950714D01*
X13468643Y-11950714D01*
X13440071Y-11936429D01*
X13425786Y-11922143D01*
X13854357Y-11650714D02*
X13797214Y-11650714D01*
X13768643Y-11665000D01*
X13754357Y-11679286D01*
X13725786Y-11722143D01*
X13711500Y-11779286D01*
X13711500Y-11893571D01*
X13725786Y-11922143D01*
X13740071Y-11936429D01*
X13768643Y-11950714D01*
X13825786Y-11950714D01*
X13854357Y-11936429D01*
X13868643Y-11922143D01*
X13882928Y-11893571D01*
X13882928Y-11822143D01*
X13868643Y-11793571D01*
X13854357Y-11779286D01*
X13825786Y-11765000D01*
X13768643Y-11765000D01*
X13740071Y-11779286D01*
X13725786Y-11793571D01*
X13711500Y-11822143D01*
X13997214Y-11650714D02*
X13997214Y-11707857D01*
X14111500Y-11650714D02*
X14111500Y-11707857D01*
X14554357Y-12065000D02*
X14540071Y-12050714D01*
X14511500Y-12007857D01*
X14497214Y-11979286D01*
X14482928Y-11936429D01*
X14468643Y-11865000D01*
X14468643Y-11807857D01*
X14482928Y-11736429D01*
X14497214Y-11693571D01*
X14511500Y-11665000D01*
X14540071Y-11622143D01*
X14554357Y-11607857D01*
X14654357Y-11679286D02*
X14668643Y-11665000D01*
X14697214Y-11650714D01*
X14768643Y-11650714D01*
X14797214Y-11665000D01*
X14811500Y-11679286D01*
X14825786Y-11707857D01*
X14825786Y-11736429D01*
X14811500Y-11779286D01*
X14640071Y-11950714D01*
X14825786Y-11950714D01*
X15182928Y-11950714D02*
X15182928Y-11650714D01*
X15311500Y-11950714D02*
X15311500Y-11793571D01*
X15297214Y-11765000D01*
X15268643Y-11750714D01*
X15225786Y-11750714D01*
X15197214Y-11765000D01*
X15182928Y-11779286D01*
X15497214Y-11950714D02*
X15468643Y-11936429D01*
X15454357Y-11922143D01*
X15440071Y-11893571D01*
X15440071Y-11807857D01*
X15454357Y-11779286D01*
X15468643Y-11765000D01*
X15497214Y-11750714D01*
X15540071Y-11750714D01*
X15568643Y-11765000D01*
X15582928Y-11779286D01*
X15597214Y-11807857D01*
X15597214Y-11893571D01*
X15582928Y-11922143D01*
X15568643Y-11936429D01*
X15540071Y-11950714D01*
X15497214Y-11950714D01*
X15768643Y-11950714D02*
X15740071Y-11936429D01*
X15725786Y-11907857D01*
X15725786Y-11650714D01*
X15997214Y-11936429D02*
X15968643Y-11950714D01*
X15911500Y-11950714D01*
X15882928Y-11936429D01*
X15868643Y-11907857D01*
X15868643Y-11793571D01*
X15882928Y-11765000D01*
X15911500Y-11750714D01*
X15968643Y-11750714D01*
X15997214Y-11765000D01*
X16011500Y-11793571D01*
X16011500Y-11822143D01*
X15868643Y-11850714D01*
X16125786Y-11936429D02*
X16154357Y-11950714D01*
X16211500Y-11950714D01*
X16240071Y-11936429D01*
X16254357Y-11907857D01*
X16254357Y-11893571D01*
X16240071Y-11865000D01*
X16211500Y-11850714D01*
X16168643Y-11850714D01*
X16140071Y-11836429D01*
X16125786Y-11807857D01*
X16125786Y-11793571D01*
X16140071Y-11765000D01*
X16168643Y-11750714D01*
X16211500Y-11750714D01*
X16240071Y-11765000D01*
X16354357Y-12065000D02*
X16368643Y-12050714D01*
X16397214Y-12007857D01*
X16411500Y-11979286D01*
X16425786Y-11936429D01*
X16440071Y-11865000D01*
X16440071Y-11807857D01*
X16425786Y-11736429D01*
X16411500Y-11693571D01*
X16397214Y-11665000D01*
X16368643Y-11622143D01*
X16354357Y-11607857D01*
X16897214Y-12065000D02*
X16882928Y-12050714D01*
X16854357Y-12007857D01*
X16840071Y-11979286D01*
X16825786Y-11936429D01*
X16811500Y-11865000D01*
X16811500Y-11807857D01*
X16825786Y-11736429D01*
X16840071Y-11693571D01*
X16854357Y-11665000D01*
X16882928Y-11622143D01*
X16897214Y-11607857D01*
X17011500Y-11750714D02*
X17011500Y-11950714D01*
X17011500Y-11779286D02*
X17025786Y-11765000D01*
X17054357Y-11750714D01*
X17097214Y-11750714D01*
X17125786Y-11765000D01*
X17140071Y-11793571D01*
X17140071Y-11950714D01*
X17325786Y-11950714D02*
X17297214Y-11936429D01*
X17282928Y-11922143D01*
X17268643Y-11893571D01*
X17268643Y-11807857D01*
X17282928Y-11779286D01*
X17297214Y-11765000D01*
X17325786Y-11750714D01*
X17368643Y-11750714D01*
X17397214Y-11765000D01*
X17411500Y-11779286D01*
X17425786Y-11807857D01*
X17425786Y-11893571D01*
X17411500Y-11922143D01*
X17397214Y-11936429D01*
X17368643Y-11950714D01*
X17325786Y-11950714D01*
X17511500Y-11750714D02*
X17625786Y-11750714D01*
X17554357Y-11650714D02*
X17554357Y-11907857D01*
X17568643Y-11936429D01*
X17597214Y-11950714D01*
X17625786Y-11950714D01*
X17954357Y-11750714D02*
X17954357Y-12050714D01*
X17954357Y-11765000D02*
X17982928Y-11750714D01*
X18040071Y-11750714D01*
X18068643Y-11765000D01*
X18082928Y-11779286D01*
X18097214Y-11807857D01*
X18097214Y-11893571D01*
X18082928Y-11922143D01*
X18068643Y-11936429D01*
X18040071Y-11950714D01*
X17982928Y-11950714D01*
X17954357Y-11936429D01*
X18268643Y-11950714D02*
X18240071Y-11936429D01*
X18225786Y-11907857D01*
X18225786Y-11650714D01*
X18511500Y-11950714D02*
X18511500Y-11793571D01*
X18497214Y-11765000D01*
X18468643Y-11750714D01*
X18411500Y-11750714D01*
X18382928Y-11765000D01*
X18511500Y-11936429D02*
X18482928Y-11950714D01*
X18411500Y-11950714D01*
X18382928Y-11936429D01*
X18368643Y-11907857D01*
X18368643Y-11879286D01*
X18382928Y-11850714D01*
X18411500Y-11836429D01*
X18482928Y-11836429D01*
X18511500Y-11822143D01*
X18611500Y-11750714D02*
X18725786Y-11750714D01*
X18654357Y-11650714D02*
X18654357Y-11907857D01*
X18668643Y-11936429D01*
X18697214Y-11950714D01*
X18725786Y-11950714D01*
X18940071Y-11936429D02*
X18911500Y-11950714D01*
X18854357Y-11950714D01*
X18825786Y-11936429D01*
X18811500Y-11907857D01*
X18811500Y-11793571D01*
X18825786Y-11765000D01*
X18854357Y-11750714D01*
X18911500Y-11750714D01*
X18940071Y-11765000D01*
X18954357Y-11793571D01*
X18954357Y-11822143D01*
X18811500Y-11850714D01*
X19211500Y-11950714D02*
X19211500Y-11650714D01*
X19211500Y-11936429D02*
X19182928Y-11950714D01*
X19125786Y-11950714D01*
X19097214Y-11936429D01*
X19082928Y-11922143D01*
X19068643Y-11893571D01*
X19068643Y-11807857D01*
X19082928Y-11779286D01*
X19097214Y-11765000D01*
X19125786Y-11750714D01*
X19182928Y-11750714D01*
X19211500Y-11765000D01*
X19325786Y-12065000D02*
X19340071Y-12050714D01*
X19368643Y-12007857D01*
X19382928Y-11979286D01*
X19397214Y-11936429D01*
X19411500Y-11865000D01*
X19411500Y-11807857D01*
X19397214Y-11736429D01*
X19382928Y-11693571D01*
X19368643Y-11665000D01*
X19340071Y-11622143D01*
X19325786Y-11607857D01*
M02*
