G04 #@! TF.GenerationSoftware,KiCad,Pcbnew,(5.1.10)-1*
G04 #@! TF.CreationDate,2021-09-15T22:42:09+01:00*
G04 #@! TF.ProjectId,32u4-Pico,33327534-2d50-4696-936f-2e6b69636164,REV1*
G04 #@! TF.SameCoordinates,Original*
G04 #@! TF.FileFunction,Legend,Top*
G04 #@! TF.FilePolarity,Positive*
%FSLAX46Y46*%
G04 Gerber Fmt 4.6, Leading zero omitted, Abs format (unit mm)*
G04 Created by KiCad (PCBNEW (5.1.10)-1) date 2021-09-15 22:42:09*
%MOMM*%
%LPD*%
G01*
G04 APERTURE LIST*
%ADD10C,0.100000*%
%ADD11C,0.153000*%
%ADD12C,0.500000*%
%ADD13C,0.120000*%
%ADD14O,1.802000X1.802000*%
%ADD15C,1.802000*%
%ADD16C,0.752000*%
G04 APERTURE END LIST*
D10*
X108059047Y-106298809D02*
X108059047Y-106108333D01*
X107868571Y-106089285D01*
X107887619Y-106108333D01*
X107906666Y-106146428D01*
X107906666Y-106241666D01*
X107887619Y-106279761D01*
X107868571Y-106298809D01*
X107830476Y-106317857D01*
X107735238Y-106317857D01*
X107697142Y-106298809D01*
X107678095Y-106279761D01*
X107659047Y-106241666D01*
X107659047Y-106146428D01*
X107678095Y-106108333D01*
X107697142Y-106089285D01*
X108059047Y-106432142D02*
X107659047Y-106565476D01*
X108059047Y-106698809D01*
X99190000Y-106679761D02*
X99170952Y-106717857D01*
X99170952Y-106775000D01*
X99190000Y-106832142D01*
X99228095Y-106870238D01*
X99266190Y-106889285D01*
X99342380Y-106908333D01*
X99399523Y-106908333D01*
X99475714Y-106889285D01*
X99513809Y-106870238D01*
X99551904Y-106832142D01*
X99570952Y-106775000D01*
X99570952Y-106736904D01*
X99551904Y-106679761D01*
X99532857Y-106660714D01*
X99399523Y-106660714D01*
X99399523Y-106736904D01*
X99570952Y-106489285D02*
X99170952Y-106489285D01*
X99570952Y-106260714D01*
X99170952Y-106260714D01*
X99570952Y-106070238D02*
X99170952Y-106070238D01*
X99170952Y-105975000D01*
X99190000Y-105917857D01*
X99228095Y-105879761D01*
X99266190Y-105860714D01*
X99342380Y-105841666D01*
X99399523Y-105841666D01*
X99475714Y-105860714D01*
X99513809Y-105879761D01*
X99551904Y-105917857D01*
X99570952Y-105975000D01*
X99570952Y-106070238D01*
D11*
X100526595Y-97966904D02*
X100259928Y-97585952D01*
X100069452Y-97966904D02*
X100069452Y-97166904D01*
X100374214Y-97166904D01*
X100450404Y-97205000D01*
X100488500Y-97243095D01*
X100526595Y-97319285D01*
X100526595Y-97433571D01*
X100488500Y-97509761D01*
X100450404Y-97547857D01*
X100374214Y-97585952D01*
X100069452Y-97585952D01*
X100869452Y-97547857D02*
X101136119Y-97547857D01*
X101250404Y-97966904D02*
X100869452Y-97966904D01*
X100869452Y-97166904D01*
X101250404Y-97166904D01*
X101555166Y-97928809D02*
X101669452Y-97966904D01*
X101859928Y-97966904D01*
X101936119Y-97928809D01*
X101974214Y-97890714D01*
X102012309Y-97814523D01*
X102012309Y-97738333D01*
X101974214Y-97662142D01*
X101936119Y-97624047D01*
X101859928Y-97585952D01*
X101707547Y-97547857D01*
X101631357Y-97509761D01*
X101593261Y-97471666D01*
X101555166Y-97395476D01*
X101555166Y-97319285D01*
X101593261Y-97243095D01*
X101631357Y-97205000D01*
X101707547Y-97166904D01*
X101898023Y-97166904D01*
X102012309Y-97205000D01*
X102355166Y-97547857D02*
X102621833Y-97547857D01*
X102736119Y-97966904D02*
X102355166Y-97966904D01*
X102355166Y-97166904D01*
X102736119Y-97166904D01*
X102964690Y-97166904D02*
X103421833Y-97166904D01*
X103193261Y-97966904D02*
X103193261Y-97166904D01*
X110115809Y-66736904D02*
X110115809Y-65936904D01*
X110572952Y-66736904D01*
X110572952Y-65936904D01*
X111411047Y-66660714D02*
X111372952Y-66698809D01*
X111258666Y-66736904D01*
X111182476Y-66736904D01*
X111068190Y-66698809D01*
X110992000Y-66622619D01*
X110953904Y-66546428D01*
X110915809Y-66394047D01*
X110915809Y-66279761D01*
X110953904Y-66127380D01*
X110992000Y-66051190D01*
X111068190Y-65975000D01*
X111182476Y-65936904D01*
X111258666Y-65936904D01*
X111372952Y-65975000D01*
X111411047Y-66013095D01*
X108523333Y-58186904D02*
X108790000Y-58986904D01*
X109056666Y-58186904D01*
X109590000Y-58567857D02*
X109704285Y-58605952D01*
X109742380Y-58644047D01*
X109780476Y-58720238D01*
X109780476Y-58834523D01*
X109742380Y-58910714D01*
X109704285Y-58948809D01*
X109628095Y-58986904D01*
X109323333Y-58986904D01*
X109323333Y-58186904D01*
X109590000Y-58186904D01*
X109666190Y-58225000D01*
X109704285Y-58263095D01*
X109742380Y-58339285D01*
X109742380Y-58415476D01*
X109704285Y-58491666D01*
X109666190Y-58529761D01*
X109590000Y-58567857D01*
X109323333Y-58567857D01*
X110123333Y-58186904D02*
X110123333Y-58834523D01*
X110161428Y-58910714D01*
X110199523Y-58948809D01*
X110275714Y-58986904D01*
X110428095Y-58986904D01*
X110504285Y-58948809D01*
X110542380Y-58910714D01*
X110580476Y-58834523D01*
X110580476Y-58186904D01*
X110923333Y-58948809D02*
X111037619Y-58986904D01*
X111228095Y-58986904D01*
X111304285Y-58948809D01*
X111342380Y-58910714D01*
X111380476Y-58834523D01*
X111380476Y-58758333D01*
X111342380Y-58682142D01*
X111304285Y-58644047D01*
X111228095Y-58605952D01*
X111075714Y-58567857D01*
X110999523Y-58529761D01*
X110961428Y-58491666D01*
X110923333Y-58415476D01*
X110923333Y-58339285D01*
X110961428Y-58263095D01*
X110999523Y-58225000D01*
X111075714Y-58186904D01*
X111266190Y-58186904D01*
X111380476Y-58225000D01*
X110115809Y-69286904D02*
X110115809Y-68486904D01*
X110572952Y-69286904D01*
X110572952Y-68486904D01*
X111411047Y-69210714D02*
X111372952Y-69248809D01*
X111258666Y-69286904D01*
X111182476Y-69286904D01*
X111068190Y-69248809D01*
X110992000Y-69172619D01*
X110953904Y-69096428D01*
X110915809Y-68944047D01*
X110915809Y-68829761D01*
X110953904Y-68677380D01*
X110992000Y-68601190D01*
X111068190Y-68525000D01*
X111182476Y-68486904D01*
X111258666Y-68486904D01*
X111372952Y-68525000D01*
X111411047Y-68563095D01*
X110092000Y-71765666D02*
X110092000Y-71065666D01*
X110492000Y-71765666D01*
X110492000Y-71065666D01*
X111225333Y-71699000D02*
X111192000Y-71732333D01*
X111092000Y-71765666D01*
X111025333Y-71765666D01*
X110925333Y-71732333D01*
X110858666Y-71665666D01*
X110825333Y-71599000D01*
X110792000Y-71465666D01*
X110792000Y-71365666D01*
X110825333Y-71232333D01*
X110858666Y-71165666D01*
X110925333Y-71099000D01*
X111025333Y-71065666D01*
X111092000Y-71065666D01*
X111192000Y-71099000D01*
X111225333Y-71132333D01*
X108464095Y-84501189D02*
X108197428Y-84120237D01*
X108006952Y-84501189D02*
X108006952Y-83701189D01*
X108311714Y-83701189D01*
X108387904Y-83739285D01*
X108426000Y-83777380D01*
X108464095Y-83853570D01*
X108464095Y-83967856D01*
X108426000Y-84044046D01*
X108387904Y-84082142D01*
X108311714Y-84120237D01*
X108006952Y-84120237D01*
X108806952Y-84082142D02*
X109073619Y-84082142D01*
X109187904Y-84501189D02*
X108806952Y-84501189D01*
X108806952Y-83701189D01*
X109187904Y-83701189D01*
X109492666Y-84463094D02*
X109606952Y-84501189D01*
X109797428Y-84501189D01*
X109873619Y-84463094D01*
X109911714Y-84424999D01*
X109949809Y-84348808D01*
X109949809Y-84272618D01*
X109911714Y-84196427D01*
X109873619Y-84158332D01*
X109797428Y-84120237D01*
X109645047Y-84082142D01*
X109568857Y-84044046D01*
X109530761Y-84005951D01*
X109492666Y-83929761D01*
X109492666Y-83853570D01*
X109530761Y-83777380D01*
X109568857Y-83739285D01*
X109645047Y-83701189D01*
X109835523Y-83701189D01*
X109949809Y-83739285D01*
X110292666Y-84082142D02*
X110559333Y-84082142D01*
X110673619Y-84501189D02*
X110292666Y-84501189D01*
X110292666Y-83701189D01*
X110673619Y-83701189D01*
X110902190Y-83701189D02*
X111359333Y-83701189D01*
X111130761Y-84501189D02*
X111130761Y-83701189D01*
X109530476Y-101539284D02*
X109454285Y-101501188D01*
X109340000Y-101501188D01*
X109225714Y-101539284D01*
X109149523Y-101615474D01*
X109111428Y-101691664D01*
X109073333Y-101844045D01*
X109073333Y-101958331D01*
X109111428Y-102110712D01*
X109149523Y-102186903D01*
X109225714Y-102263093D01*
X109340000Y-102301188D01*
X109416190Y-102301188D01*
X109530476Y-102263093D01*
X109568571Y-102224998D01*
X109568571Y-101958331D01*
X109416190Y-101958331D01*
X109911428Y-102301188D02*
X109911428Y-101501188D01*
X110368571Y-102301188D01*
X110368571Y-101501188D01*
X110749523Y-102301188D02*
X110749523Y-101501188D01*
X110940000Y-101501188D01*
X111054285Y-101539284D01*
X111130476Y-101615474D01*
X111168571Y-101691664D01*
X111206666Y-101844045D01*
X111206666Y-101958331D01*
X111168571Y-102110712D01*
X111130476Y-102186903D01*
X111054285Y-102263093D01*
X110940000Y-102301188D01*
X110749523Y-102301188D01*
X109530476Y-88824999D02*
X109454285Y-88786903D01*
X109340000Y-88786903D01*
X109225714Y-88824999D01*
X109149523Y-88901189D01*
X109111428Y-88977379D01*
X109073333Y-89129760D01*
X109073333Y-89244046D01*
X109111428Y-89396427D01*
X109149523Y-89472618D01*
X109225714Y-89548808D01*
X109340000Y-89586903D01*
X109416190Y-89586903D01*
X109530476Y-89548808D01*
X109568571Y-89510713D01*
X109568571Y-89244046D01*
X109416190Y-89244046D01*
X109911428Y-89586903D02*
X109911428Y-88786903D01*
X110368571Y-89586903D01*
X110368571Y-88786903D01*
X110749523Y-89586903D02*
X110749523Y-88786903D01*
X110940000Y-88786903D01*
X111054285Y-88824999D01*
X111130476Y-88901189D01*
X111168571Y-88977379D01*
X111206666Y-89129760D01*
X111206666Y-89244046D01*
X111168571Y-89396427D01*
X111130476Y-89472618D01*
X111054285Y-89548808D01*
X110940000Y-89586903D01*
X110749523Y-89586903D01*
X109530476Y-76110714D02*
X109454285Y-76072618D01*
X109340000Y-76072618D01*
X109225714Y-76110714D01*
X109149523Y-76186904D01*
X109111428Y-76263094D01*
X109073333Y-76415475D01*
X109073333Y-76529761D01*
X109111428Y-76682142D01*
X109149523Y-76758333D01*
X109225714Y-76834523D01*
X109340000Y-76872618D01*
X109416190Y-76872618D01*
X109530476Y-76834523D01*
X109568571Y-76796428D01*
X109568571Y-76529761D01*
X109416190Y-76529761D01*
X109911428Y-76872618D02*
X109911428Y-76072618D01*
X110368571Y-76872618D01*
X110368571Y-76072618D01*
X110749523Y-76872618D02*
X110749523Y-76072618D01*
X110940000Y-76072618D01*
X111054285Y-76110714D01*
X111130476Y-76186904D01*
X111168571Y-76263094D01*
X111206666Y-76415475D01*
X111206666Y-76529761D01*
X111168571Y-76682142D01*
X111130476Y-76758333D01*
X111054285Y-76834523D01*
X110940000Y-76872618D01*
X110749523Y-76872618D01*
X96680476Y-63414472D02*
X96604285Y-63376376D01*
X96490000Y-63376376D01*
X96375714Y-63414472D01*
X96299523Y-63490662D01*
X96261428Y-63566852D01*
X96223333Y-63719233D01*
X96223333Y-63833519D01*
X96261428Y-63985900D01*
X96299523Y-64062091D01*
X96375714Y-64138281D01*
X96490000Y-64176376D01*
X96566190Y-64176376D01*
X96680476Y-64138281D01*
X96718571Y-64100186D01*
X96718571Y-63833519D01*
X96566190Y-63833519D01*
X97061428Y-64176376D02*
X97061428Y-63376376D01*
X97518571Y-64176376D01*
X97518571Y-63376376D01*
X97899523Y-64176376D02*
X97899523Y-63376376D01*
X98090000Y-63376376D01*
X98204285Y-63414472D01*
X98280476Y-63490662D01*
X98318571Y-63566852D01*
X98356666Y-63719233D01*
X98356666Y-63833519D01*
X98318571Y-63985900D01*
X98280476Y-64062091D01*
X98204285Y-64138281D01*
X98090000Y-64176376D01*
X97899523Y-64176376D01*
X96630476Y-76138152D02*
X96554285Y-76100056D01*
X96440000Y-76100056D01*
X96325714Y-76138152D01*
X96249523Y-76214342D01*
X96211428Y-76290532D01*
X96173333Y-76442913D01*
X96173333Y-76557199D01*
X96211428Y-76709580D01*
X96249523Y-76785771D01*
X96325714Y-76861961D01*
X96440000Y-76900056D01*
X96516190Y-76900056D01*
X96630476Y-76861961D01*
X96668571Y-76823866D01*
X96668571Y-76557199D01*
X96516190Y-76557199D01*
X97011428Y-76900056D02*
X97011428Y-76100056D01*
X97468571Y-76900056D01*
X97468571Y-76100056D01*
X97849523Y-76900056D02*
X97849523Y-76100056D01*
X98040000Y-76100056D01*
X98154285Y-76138152D01*
X98230476Y-76214342D01*
X98268571Y-76290532D01*
X98306666Y-76442913D01*
X98306666Y-76557199D01*
X98268571Y-76709580D01*
X98230476Y-76785771D01*
X98154285Y-76861961D01*
X98040000Y-76900056D01*
X97849523Y-76900056D01*
X96530476Y-88861832D02*
X96454285Y-88823736D01*
X96340000Y-88823736D01*
X96225714Y-88861832D01*
X96149523Y-88938022D01*
X96111428Y-89014212D01*
X96073333Y-89166593D01*
X96073333Y-89280879D01*
X96111428Y-89433260D01*
X96149523Y-89509451D01*
X96225714Y-89585641D01*
X96340000Y-89623736D01*
X96416190Y-89623736D01*
X96530476Y-89585641D01*
X96568571Y-89547546D01*
X96568571Y-89280879D01*
X96416190Y-89280879D01*
X96911428Y-89623736D02*
X96911428Y-88823736D01*
X97368571Y-89623736D01*
X97368571Y-88823736D01*
X97749523Y-89623736D02*
X97749523Y-88823736D01*
X97940000Y-88823736D01*
X98054285Y-88861832D01*
X98130476Y-88938022D01*
X98168571Y-89014212D01*
X98206666Y-89166593D01*
X98206666Y-89280879D01*
X98168571Y-89433260D01*
X98130476Y-89509451D01*
X98054285Y-89585641D01*
X97940000Y-89623736D01*
X97749523Y-89623736D01*
X96530476Y-101585512D02*
X96454285Y-101547416D01*
X96340000Y-101547416D01*
X96225714Y-101585512D01*
X96149523Y-101661702D01*
X96111428Y-101737892D01*
X96073333Y-101890273D01*
X96073333Y-102004559D01*
X96111428Y-102156940D01*
X96149523Y-102233131D01*
X96225714Y-102309321D01*
X96340000Y-102347416D01*
X96416190Y-102347416D01*
X96530476Y-102309321D01*
X96568571Y-102271226D01*
X96568571Y-102004559D01*
X96416190Y-102004559D01*
X96911428Y-102347416D02*
X96911428Y-101547416D01*
X97368571Y-102347416D01*
X97368571Y-101547416D01*
X97749523Y-102347416D02*
X97749523Y-101547416D01*
X97940000Y-101547416D01*
X98054285Y-101585512D01*
X98130476Y-101661702D01*
X98168571Y-101737892D01*
X98206666Y-101890273D01*
X98206666Y-102004559D01*
X98168571Y-102156940D01*
X98130476Y-102233131D01*
X98054285Y-102309321D01*
X97940000Y-102347416D01*
X97749523Y-102347416D01*
X96249524Y-58667857D02*
X96516190Y-58667857D01*
X96630476Y-59086904D02*
X96249524Y-59086904D01*
X96249524Y-58286904D01*
X96630476Y-58286904D01*
X97316190Y-58286904D02*
X97163809Y-58286904D01*
X97087619Y-58325000D01*
X97049524Y-58363095D01*
X96973333Y-58477380D01*
X96935238Y-58629761D01*
X96935238Y-58934523D01*
X96973333Y-59010714D01*
X97011428Y-59048809D01*
X97087619Y-59086904D01*
X97240000Y-59086904D01*
X97316190Y-59048809D01*
X97354285Y-59010714D01*
X97392381Y-58934523D01*
X97392381Y-58744047D01*
X97354285Y-58667857D01*
X97316190Y-58629761D01*
X97240000Y-58591666D01*
X97087619Y-58591666D01*
X97011428Y-58629761D01*
X96973333Y-58667857D01*
X96935238Y-58744047D01*
X96516190Y-61212593D02*
X96630476Y-61250688D01*
X96668571Y-61288783D01*
X96706666Y-61364974D01*
X96706666Y-61479259D01*
X96668571Y-61555450D01*
X96630476Y-61593545D01*
X96554285Y-61631640D01*
X96249523Y-61631640D01*
X96249523Y-60831640D01*
X96516190Y-60831640D01*
X96592380Y-60869736D01*
X96630476Y-60907831D01*
X96668571Y-60984021D01*
X96668571Y-61060212D01*
X96630476Y-61136402D01*
X96592380Y-61174497D01*
X96516190Y-61212593D01*
X96249523Y-61212593D01*
X97201904Y-60831640D02*
X97278095Y-60831640D01*
X97354285Y-60869736D01*
X97392380Y-60907831D01*
X97430476Y-60984021D01*
X97468571Y-61136402D01*
X97468571Y-61326878D01*
X97430476Y-61479259D01*
X97392380Y-61555450D01*
X97354285Y-61593545D01*
X97278095Y-61631640D01*
X97201904Y-61631640D01*
X97125714Y-61593545D01*
X97087619Y-61555450D01*
X97049523Y-61479259D01*
X97011428Y-61326878D01*
X97011428Y-61136402D01*
X97049523Y-60984021D01*
X97087619Y-60907831D01*
X97125714Y-60869736D01*
X97201904Y-60831640D01*
X96516190Y-66302065D02*
X96630476Y-66340160D01*
X96668571Y-66378255D01*
X96706666Y-66454446D01*
X96706666Y-66568731D01*
X96668571Y-66644922D01*
X96630476Y-66683017D01*
X96554285Y-66721112D01*
X96249523Y-66721112D01*
X96249523Y-65921112D01*
X96516190Y-65921112D01*
X96592380Y-65959208D01*
X96630476Y-65997303D01*
X96668571Y-66073493D01*
X96668571Y-66149684D01*
X96630476Y-66225874D01*
X96592380Y-66263969D01*
X96516190Y-66302065D01*
X96249523Y-66302065D01*
X97468571Y-66721112D02*
X97011428Y-66721112D01*
X97240000Y-66721112D02*
X97240000Y-65921112D01*
X97163809Y-66035398D01*
X97087619Y-66111588D01*
X97011428Y-66149684D01*
X96516190Y-68846801D02*
X96630476Y-68884896D01*
X96668571Y-68922991D01*
X96706666Y-68999182D01*
X96706666Y-69113467D01*
X96668571Y-69189658D01*
X96630476Y-69227753D01*
X96554285Y-69265848D01*
X96249523Y-69265848D01*
X96249523Y-68465848D01*
X96516190Y-68465848D01*
X96592380Y-68503944D01*
X96630476Y-68542039D01*
X96668571Y-68618229D01*
X96668571Y-68694420D01*
X96630476Y-68770610D01*
X96592380Y-68808705D01*
X96516190Y-68846801D01*
X96249523Y-68846801D01*
X97011428Y-68542039D02*
X97049523Y-68503944D01*
X97125714Y-68465848D01*
X97316190Y-68465848D01*
X97392380Y-68503944D01*
X97430476Y-68542039D01*
X97468571Y-68618229D01*
X97468571Y-68694420D01*
X97430476Y-68808705D01*
X96973333Y-69265848D01*
X97468571Y-69265848D01*
X96516190Y-71391537D02*
X96630476Y-71429632D01*
X96668571Y-71467727D01*
X96706666Y-71543918D01*
X96706666Y-71658203D01*
X96668571Y-71734394D01*
X96630476Y-71772489D01*
X96554285Y-71810584D01*
X96249523Y-71810584D01*
X96249523Y-71010584D01*
X96516190Y-71010584D01*
X96592380Y-71048680D01*
X96630476Y-71086775D01*
X96668571Y-71162965D01*
X96668571Y-71239156D01*
X96630476Y-71315346D01*
X96592380Y-71353441D01*
X96516190Y-71391537D01*
X96249523Y-71391537D01*
X96973333Y-71010584D02*
X97468571Y-71010584D01*
X97201904Y-71315346D01*
X97316190Y-71315346D01*
X97392380Y-71353441D01*
X97430476Y-71391537D01*
X97468571Y-71467727D01*
X97468571Y-71658203D01*
X97430476Y-71734394D01*
X97392380Y-71772489D01*
X97316190Y-71810584D01*
X97087619Y-71810584D01*
X97011428Y-71772489D01*
X96973333Y-71734394D01*
X96516190Y-73936273D02*
X96630476Y-73974368D01*
X96668571Y-74012463D01*
X96706666Y-74088654D01*
X96706666Y-74202939D01*
X96668571Y-74279130D01*
X96630476Y-74317225D01*
X96554285Y-74355320D01*
X96249523Y-74355320D01*
X96249523Y-73555320D01*
X96516190Y-73555320D01*
X96592380Y-73593416D01*
X96630476Y-73631511D01*
X96668571Y-73707701D01*
X96668571Y-73783892D01*
X96630476Y-73860082D01*
X96592380Y-73898177D01*
X96516190Y-73936273D01*
X96249523Y-73936273D01*
X96973333Y-73555320D02*
X97506666Y-73555320D01*
X97163809Y-74355320D01*
X96249523Y-79444792D02*
X96249523Y-78644792D01*
X96440000Y-78644792D01*
X96554285Y-78682888D01*
X96630476Y-78759078D01*
X96668571Y-78835268D01*
X96706666Y-78987649D01*
X96706666Y-79101935D01*
X96668571Y-79254316D01*
X96630476Y-79330507D01*
X96554285Y-79406697D01*
X96440000Y-79444792D01*
X96249523Y-79444792D01*
X97201904Y-78644792D02*
X97278095Y-78644792D01*
X97354285Y-78682888D01*
X97392380Y-78720983D01*
X97430476Y-78797173D01*
X97468571Y-78949554D01*
X97468571Y-79140030D01*
X97430476Y-79292411D01*
X97392380Y-79368602D01*
X97354285Y-79406697D01*
X97278095Y-79444792D01*
X97201904Y-79444792D01*
X97125714Y-79406697D01*
X97087619Y-79368602D01*
X97049523Y-79292411D01*
X97011428Y-79140030D01*
X97011428Y-78949554D01*
X97049523Y-78797173D01*
X97087619Y-78720983D01*
X97125714Y-78682888D01*
X97201904Y-78644792D01*
X96249523Y-81989528D02*
X96249523Y-81189528D01*
X96440000Y-81189528D01*
X96554285Y-81227624D01*
X96630476Y-81303814D01*
X96668571Y-81380004D01*
X96706666Y-81532385D01*
X96706666Y-81646671D01*
X96668571Y-81799052D01*
X96630476Y-81875243D01*
X96554285Y-81951433D01*
X96440000Y-81989528D01*
X96249523Y-81989528D01*
X97468571Y-81989528D02*
X97011428Y-81989528D01*
X97240000Y-81989528D02*
X97240000Y-81189528D01*
X97163809Y-81303814D01*
X97087619Y-81380004D01*
X97011428Y-81418100D01*
X96249523Y-84534264D02*
X96249523Y-83734264D01*
X96440000Y-83734264D01*
X96554285Y-83772360D01*
X96630476Y-83848550D01*
X96668571Y-83924740D01*
X96706666Y-84077121D01*
X96706666Y-84191407D01*
X96668571Y-84343788D01*
X96630476Y-84419979D01*
X96554285Y-84496169D01*
X96440000Y-84534264D01*
X96249523Y-84534264D01*
X97011428Y-83810455D02*
X97049523Y-83772360D01*
X97125714Y-83734264D01*
X97316190Y-83734264D01*
X97392380Y-83772360D01*
X97430476Y-83810455D01*
X97468571Y-83886645D01*
X97468571Y-83962836D01*
X97430476Y-84077121D01*
X96973333Y-84534264D01*
X97468571Y-84534264D01*
X96249523Y-87079000D02*
X96249523Y-86279000D01*
X96440000Y-86279000D01*
X96554285Y-86317096D01*
X96630476Y-86393286D01*
X96668571Y-86469476D01*
X96706666Y-86621857D01*
X96706666Y-86736143D01*
X96668571Y-86888524D01*
X96630476Y-86964715D01*
X96554285Y-87040905D01*
X96440000Y-87079000D01*
X96249523Y-87079000D01*
X96973333Y-86279000D02*
X97468571Y-86279000D01*
X97201904Y-86583762D01*
X97316190Y-86583762D01*
X97392380Y-86621857D01*
X97430476Y-86659953D01*
X97468571Y-86736143D01*
X97468571Y-86926619D01*
X97430476Y-87002810D01*
X97392380Y-87040905D01*
X97316190Y-87079000D01*
X97087619Y-87079000D01*
X97011428Y-87040905D01*
X96973333Y-87002810D01*
X96249523Y-92168472D02*
X96249523Y-91368472D01*
X96440000Y-91368472D01*
X96554285Y-91406568D01*
X96630476Y-91482758D01*
X96668571Y-91558948D01*
X96706666Y-91711329D01*
X96706666Y-91825615D01*
X96668571Y-91977996D01*
X96630476Y-92054187D01*
X96554285Y-92130377D01*
X96440000Y-92168472D01*
X96249523Y-92168472D01*
X97430476Y-91368472D02*
X97049523Y-91368472D01*
X97011428Y-91749425D01*
X97049523Y-91711329D01*
X97125714Y-91673234D01*
X97316190Y-91673234D01*
X97392380Y-91711329D01*
X97430476Y-91749425D01*
X97468571Y-91825615D01*
X97468571Y-92016091D01*
X97430476Y-92092282D01*
X97392380Y-92130377D01*
X97316190Y-92168472D01*
X97125714Y-92168472D01*
X97049523Y-92130377D01*
X97011428Y-92092282D01*
X96249523Y-94713208D02*
X96249523Y-93913208D01*
X96440000Y-93913208D01*
X96554285Y-93951304D01*
X96630476Y-94027494D01*
X96668571Y-94103684D01*
X96706666Y-94256065D01*
X96706666Y-94370351D01*
X96668571Y-94522732D01*
X96630476Y-94598923D01*
X96554285Y-94675113D01*
X96440000Y-94713208D01*
X96249523Y-94713208D01*
X97392380Y-94179875D02*
X97392380Y-94713208D01*
X97201904Y-93875113D02*
X97011428Y-94446542D01*
X97506666Y-94446542D01*
X96249523Y-97257944D02*
X96249523Y-96457944D01*
X96440000Y-96457944D01*
X96554285Y-96496040D01*
X96630476Y-96572230D01*
X96668571Y-96648420D01*
X96706666Y-96800801D01*
X96706666Y-96915087D01*
X96668571Y-97067468D01*
X96630476Y-97143659D01*
X96554285Y-97219849D01*
X96440000Y-97257944D01*
X96249523Y-97257944D01*
X97392380Y-96457944D02*
X97240000Y-96457944D01*
X97163809Y-96496040D01*
X97125714Y-96534135D01*
X97049523Y-96648420D01*
X97011428Y-96800801D01*
X97011428Y-97105563D01*
X97049523Y-97181754D01*
X97087619Y-97219849D01*
X97163809Y-97257944D01*
X97316190Y-97257944D01*
X97392380Y-97219849D01*
X97430476Y-97181754D01*
X97468571Y-97105563D01*
X97468571Y-96915087D01*
X97430476Y-96838897D01*
X97392380Y-96800801D01*
X97316190Y-96762706D01*
X97163809Y-96762706D01*
X97087619Y-96800801D01*
X97049523Y-96838897D01*
X97011428Y-96915087D01*
X96249523Y-99802680D02*
X96249523Y-99002680D01*
X96440000Y-99002680D01*
X96554285Y-99040776D01*
X96630476Y-99116966D01*
X96668571Y-99193156D01*
X96706666Y-99345537D01*
X96706666Y-99459823D01*
X96668571Y-99612204D01*
X96630476Y-99688395D01*
X96554285Y-99764585D01*
X96440000Y-99802680D01*
X96249523Y-99802680D01*
X96973333Y-99002680D02*
X97506666Y-99002680D01*
X97163809Y-99802680D01*
X96516190Y-104473105D02*
X96630476Y-104511200D01*
X96668571Y-104549295D01*
X96706666Y-104625486D01*
X96706666Y-104739771D01*
X96668571Y-104815962D01*
X96630476Y-104854057D01*
X96554285Y-104892152D01*
X96249523Y-104892152D01*
X96249523Y-104092152D01*
X96516190Y-104092152D01*
X96592380Y-104130248D01*
X96630476Y-104168343D01*
X96668571Y-104244533D01*
X96668571Y-104320724D01*
X96630476Y-104396914D01*
X96592380Y-104435009D01*
X96516190Y-104473105D01*
X96249523Y-104473105D01*
X97392380Y-104358819D02*
X97392380Y-104892152D01*
X97201904Y-104054057D02*
X97011428Y-104625486D01*
X97506666Y-104625486D01*
X96516190Y-107017857D02*
X96630476Y-107055952D01*
X96668571Y-107094047D01*
X96706666Y-107170238D01*
X96706666Y-107284523D01*
X96668571Y-107360714D01*
X96630476Y-107398809D01*
X96554285Y-107436904D01*
X96249523Y-107436904D01*
X96249523Y-106636904D01*
X96516190Y-106636904D01*
X96592380Y-106675000D01*
X96630476Y-106713095D01*
X96668571Y-106789285D01*
X96668571Y-106865476D01*
X96630476Y-106941666D01*
X96592380Y-106979761D01*
X96516190Y-107017857D01*
X96249523Y-107017857D01*
X97430476Y-106636904D02*
X97049523Y-106636904D01*
X97011428Y-107017857D01*
X97049523Y-106979761D01*
X97125714Y-106941666D01*
X97316190Y-106941666D01*
X97392380Y-106979761D01*
X97430476Y-107017857D01*
X97468571Y-107094047D01*
X97468571Y-107284523D01*
X97430476Y-107360714D01*
X97392380Y-107398809D01*
X97316190Y-107436904D01*
X97125714Y-107436904D01*
X97049523Y-107398809D01*
X97011428Y-107360714D01*
X110254285Y-106967857D02*
X110368571Y-107005952D01*
X110406666Y-107044047D01*
X110444761Y-107120238D01*
X110444761Y-107234523D01*
X110406666Y-107310714D01*
X110368571Y-107348809D01*
X110292380Y-107386904D01*
X109987618Y-107386904D01*
X109987618Y-106586904D01*
X110254285Y-106586904D01*
X110330475Y-106625000D01*
X110368571Y-106663095D01*
X110406666Y-106739285D01*
X110406666Y-106815476D01*
X110368571Y-106891666D01*
X110330475Y-106929761D01*
X110254285Y-106967857D01*
X109987618Y-106967857D01*
X111130475Y-106586904D02*
X110978095Y-106586904D01*
X110901904Y-106625000D01*
X110863809Y-106663095D01*
X110787618Y-106777380D01*
X110749523Y-106929761D01*
X110749523Y-107234523D01*
X110787618Y-107310714D01*
X110825714Y-107348809D01*
X110901904Y-107386904D01*
X111054285Y-107386904D01*
X111130475Y-107348809D01*
X111168571Y-107310714D01*
X111206666Y-107234523D01*
X111206666Y-107044047D01*
X111168571Y-106967857D01*
X111130475Y-106929761D01*
X111054285Y-106891666D01*
X110901904Y-106891666D01*
X110825714Y-106929761D01*
X110787618Y-106967857D01*
X110749523Y-107044047D01*
X110444761Y-104767855D02*
X110406666Y-104805950D01*
X110292380Y-104844045D01*
X110216190Y-104844045D01*
X110101904Y-104805950D01*
X110025714Y-104729760D01*
X109987618Y-104653569D01*
X109949523Y-104501188D01*
X109949523Y-104386902D01*
X109987618Y-104234521D01*
X110025714Y-104158331D01*
X110101904Y-104082141D01*
X110216190Y-104044045D01*
X110292380Y-104044045D01*
X110406666Y-104082141D01*
X110444761Y-104120236D01*
X111130475Y-104044045D02*
X110978095Y-104044045D01*
X110901904Y-104082141D01*
X110863809Y-104120236D01*
X110787618Y-104234521D01*
X110749523Y-104386902D01*
X110749523Y-104691664D01*
X110787618Y-104767855D01*
X110825714Y-104805950D01*
X110901904Y-104844045D01*
X111054285Y-104844045D01*
X111130475Y-104805950D01*
X111168571Y-104767855D01*
X111206666Y-104691664D01*
X111206666Y-104501188D01*
X111168571Y-104424998D01*
X111130475Y-104386902D01*
X111054285Y-104348807D01*
X110901904Y-104348807D01*
X110825714Y-104386902D01*
X110787618Y-104424998D01*
X110749523Y-104501188D01*
X110444761Y-99682141D02*
X110406666Y-99720236D01*
X110292380Y-99758331D01*
X110216190Y-99758331D01*
X110101904Y-99720236D01*
X110025714Y-99644046D01*
X109987618Y-99567855D01*
X109949523Y-99415474D01*
X109949523Y-99301188D01*
X109987618Y-99148807D01*
X110025714Y-99072617D01*
X110101904Y-98996427D01*
X110216190Y-98958331D01*
X110292380Y-98958331D01*
X110406666Y-98996427D01*
X110444761Y-99034522D01*
X110711428Y-98958331D02*
X111244761Y-98958331D01*
X110901904Y-99758331D01*
X110063810Y-96796427D02*
X110330476Y-96796427D01*
X110444762Y-97215474D02*
X110063810Y-97215474D01*
X110063810Y-96415474D01*
X110444762Y-96415474D01*
X110749524Y-96491665D02*
X110787619Y-96453570D01*
X110863810Y-96415474D01*
X111054286Y-96415474D01*
X111130476Y-96453570D01*
X111168571Y-96491665D01*
X111206667Y-96567855D01*
X111206667Y-96644046D01*
X111168571Y-96758331D01*
X110711429Y-97215474D01*
X111206667Y-97215474D01*
X110368571Y-94253570D02*
X110101904Y-94253570D01*
X110101904Y-94672617D02*
X110101904Y-93872617D01*
X110482857Y-93872617D01*
X110711428Y-93872617D02*
X111244761Y-93872617D01*
X110901904Y-94672617D01*
X110368571Y-91710713D02*
X110101904Y-91710713D01*
X110101904Y-92129760D02*
X110101904Y-91329760D01*
X110482857Y-91329760D01*
X111130476Y-91329760D02*
X110978095Y-91329760D01*
X110901904Y-91367856D01*
X110863809Y-91405951D01*
X110787618Y-91520236D01*
X110749523Y-91672617D01*
X110749523Y-91977379D01*
X110787618Y-92053570D01*
X110825714Y-92091665D01*
X110901904Y-92129760D01*
X111054285Y-92129760D01*
X111130476Y-92091665D01*
X111168571Y-92053570D01*
X111206666Y-91977379D01*
X111206666Y-91786903D01*
X111168571Y-91710713D01*
X111130476Y-91672617D01*
X111054285Y-91634522D01*
X110901904Y-91634522D01*
X110825714Y-91672617D01*
X110787618Y-91710713D01*
X110749523Y-91786903D01*
X110368571Y-86624999D02*
X110101904Y-86624999D01*
X110101904Y-87044046D02*
X110101904Y-86244046D01*
X110482857Y-86244046D01*
X111168571Y-86244046D02*
X110787618Y-86244046D01*
X110749523Y-86624999D01*
X110787618Y-86586903D01*
X110863809Y-86548808D01*
X111054285Y-86548808D01*
X111130476Y-86586903D01*
X111168571Y-86624999D01*
X111206666Y-86701189D01*
X111206666Y-86891665D01*
X111168571Y-86967856D01*
X111130476Y-87005951D01*
X111054285Y-87044046D01*
X110863809Y-87044046D01*
X110787618Y-87005951D01*
X110749523Y-86967856D01*
X110368571Y-81539285D02*
X110101904Y-81539285D01*
X110101904Y-81958332D02*
X110101904Y-81158332D01*
X110482857Y-81158332D01*
X111130476Y-81424999D02*
X111130476Y-81958332D01*
X110939999Y-81120237D02*
X110749523Y-81691666D01*
X111244761Y-81691666D01*
X110368571Y-78996428D02*
X110101904Y-78996428D01*
X110101904Y-79415475D02*
X110101904Y-78615475D01*
X110482857Y-78615475D01*
X111206666Y-79415475D02*
X110749523Y-79415475D01*
X110978095Y-79415475D02*
X110978095Y-78615475D01*
X110901904Y-78729761D01*
X110825714Y-78805951D01*
X110749523Y-78844047D01*
X110368571Y-73910714D02*
X110101904Y-73910714D01*
X110101904Y-74329761D02*
X110101904Y-73529761D01*
X110482857Y-73529761D01*
X110939999Y-73529761D02*
X111016190Y-73529761D01*
X111092380Y-73567857D01*
X111130476Y-73605952D01*
X111168571Y-73682142D01*
X111206666Y-73834523D01*
X111206666Y-74024999D01*
X111168571Y-74177380D01*
X111130476Y-74253571D01*
X111092380Y-74291666D01*
X111016190Y-74329761D01*
X110939999Y-74329761D01*
X110863809Y-74291666D01*
X110825714Y-74253571D01*
X110787618Y-74177380D01*
X110749523Y-74024999D01*
X110749523Y-73834523D01*
X110787618Y-73682142D01*
X110825714Y-73605952D01*
X110863809Y-73567857D01*
X110939999Y-73529761D01*
D12*
X103631891Y-76180000D02*
G75*
G03*
X103631891Y-76180000I-41891J0D01*
G01*
D11*
X99970952Y-68271357D02*
X100237619Y-68271357D01*
X100351904Y-68690404D02*
X99970952Y-68690404D01*
X99970952Y-67890404D01*
X100351904Y-67890404D01*
X100694761Y-68157071D02*
X100694761Y-68690404D01*
X100694761Y-68233261D02*
X100732857Y-68195166D01*
X100809047Y-68157071D01*
X100923333Y-68157071D01*
X100999523Y-68195166D01*
X101037619Y-68271357D01*
X101037619Y-68690404D01*
X101342380Y-68157071D02*
X101532857Y-68690404D01*
X101723333Y-68157071D01*
X102180476Y-67890404D02*
X102332857Y-67890404D01*
X102409047Y-67928500D01*
X102485238Y-68004690D01*
X102523333Y-68157071D01*
X102523333Y-68423738D01*
X102485238Y-68576119D01*
X102409047Y-68652309D01*
X102332857Y-68690404D01*
X102180476Y-68690404D01*
X102104285Y-68652309D01*
X102028095Y-68576119D01*
X101990000Y-68423738D01*
X101990000Y-68157071D01*
X102028095Y-68004690D01*
X102104285Y-67928500D01*
X102180476Y-67890404D01*
X102866190Y-68157071D02*
X102866190Y-68957071D01*
X102866190Y-68195166D02*
X102942380Y-68157071D01*
X103094761Y-68157071D01*
X103170952Y-68195166D01*
X103209047Y-68233261D01*
X103247142Y-68309452D01*
X103247142Y-68538023D01*
X103209047Y-68614214D01*
X103170952Y-68652309D01*
X103094761Y-68690404D01*
X102942380Y-68690404D01*
X102866190Y-68652309D01*
X103894761Y-68652309D02*
X103818571Y-68690404D01*
X103666190Y-68690404D01*
X103590000Y-68652309D01*
X103551904Y-68576119D01*
X103551904Y-68271357D01*
X103590000Y-68195166D01*
X103666190Y-68157071D01*
X103818571Y-68157071D01*
X103894761Y-68195166D01*
X103932857Y-68271357D01*
X103932857Y-68347547D01*
X103551904Y-68423738D01*
X104275714Y-68157071D02*
X104275714Y-68690404D01*
X104275714Y-68233261D02*
X104313809Y-68195166D01*
X104390000Y-68157071D01*
X104504285Y-68157071D01*
X104580476Y-68195166D01*
X104618571Y-68271357D01*
X104618571Y-68690404D01*
X104999523Y-68690404D02*
X104999523Y-67890404D01*
X105304285Y-67890404D01*
X105380476Y-67928500D01*
X105418571Y-67966595D01*
X105456666Y-68042785D01*
X105456666Y-68157071D01*
X105418571Y-68233261D01*
X105380476Y-68271357D01*
X105304285Y-68309452D01*
X104999523Y-68309452D01*
X105799523Y-68690404D02*
X105799523Y-68157071D01*
X105799523Y-67890404D02*
X105761428Y-67928500D01*
X105799523Y-67966595D01*
X105837619Y-67928500D01*
X105799523Y-67890404D01*
X105799523Y-67966595D01*
X106523333Y-68652309D02*
X106447142Y-68690404D01*
X106294761Y-68690404D01*
X106218571Y-68652309D01*
X106180476Y-68614214D01*
X106142380Y-68538023D01*
X106142380Y-68309452D01*
X106180476Y-68233261D01*
X106218571Y-68195166D01*
X106294761Y-68157071D01*
X106447142Y-68157071D01*
X106523333Y-68195166D01*
X106980476Y-68690404D02*
X106904285Y-68652309D01*
X106866190Y-68614214D01*
X106828095Y-68538023D01*
X106828095Y-68309452D01*
X106866190Y-68233261D01*
X106904285Y-68195166D01*
X106980476Y-68157071D01*
X107094761Y-68157071D01*
X107170952Y-68195166D01*
X107209047Y-68233261D01*
X107247142Y-68309452D01*
X107247142Y-68538023D01*
X107209047Y-68614214D01*
X107170952Y-68652309D01*
X107094761Y-68690404D01*
X106980476Y-68690404D01*
X99932857Y-69814833D02*
X100313809Y-69814833D01*
X99856666Y-70043404D02*
X100123333Y-69243404D01*
X100390000Y-70043404D01*
X100542380Y-69243404D02*
X100999523Y-69243404D01*
X100770952Y-70043404D02*
X100770952Y-69243404D01*
X101266190Y-70043404D02*
X101266190Y-69510071D01*
X101266190Y-69586261D02*
X101304285Y-69548166D01*
X101380476Y-69510071D01*
X101494761Y-69510071D01*
X101570952Y-69548166D01*
X101609047Y-69624357D01*
X101609047Y-70043404D01*
X101609047Y-69624357D02*
X101647142Y-69548166D01*
X101723333Y-69510071D01*
X101837619Y-69510071D01*
X101913809Y-69548166D01*
X101951904Y-69624357D01*
X101951904Y-70043404D01*
X102637619Y-70005309D02*
X102561428Y-70043404D01*
X102409047Y-70043404D01*
X102332857Y-70005309D01*
X102294761Y-69929119D01*
X102294761Y-69624357D01*
X102332857Y-69548166D01*
X102409047Y-69510071D01*
X102561428Y-69510071D01*
X102637619Y-69548166D01*
X102675714Y-69624357D01*
X102675714Y-69700547D01*
X102294761Y-69776738D01*
X103361428Y-69510071D02*
X103361428Y-70157690D01*
X103323333Y-70233880D01*
X103285238Y-70271976D01*
X103209047Y-70310071D01*
X103094761Y-70310071D01*
X103018571Y-70271976D01*
X103361428Y-70005309D02*
X103285238Y-70043404D01*
X103132857Y-70043404D01*
X103056666Y-70005309D01*
X103018571Y-69967214D01*
X102980476Y-69891023D01*
X102980476Y-69662452D01*
X103018571Y-69586261D01*
X103056666Y-69548166D01*
X103132857Y-69510071D01*
X103285238Y-69510071D01*
X103361428Y-69548166D01*
X104085238Y-70043404D02*
X104085238Y-69624357D01*
X104047142Y-69548166D01*
X103970952Y-69510071D01*
X103818571Y-69510071D01*
X103742380Y-69548166D01*
X104085238Y-70005309D02*
X104009047Y-70043404D01*
X103818571Y-70043404D01*
X103742380Y-70005309D01*
X103704285Y-69929119D01*
X103704285Y-69852928D01*
X103742380Y-69776738D01*
X103818571Y-69738642D01*
X104009047Y-69738642D01*
X104085238Y-69700547D01*
X104390000Y-69243404D02*
X104885238Y-69243404D01*
X104618571Y-69548166D01*
X104732857Y-69548166D01*
X104809047Y-69586261D01*
X104847142Y-69624357D01*
X104885238Y-69700547D01*
X104885238Y-69891023D01*
X104847142Y-69967214D01*
X104809047Y-70005309D01*
X104732857Y-70043404D01*
X104504285Y-70043404D01*
X104428095Y-70005309D01*
X104390000Y-69967214D01*
X105190000Y-69319595D02*
X105228095Y-69281500D01*
X105304285Y-69243404D01*
X105494761Y-69243404D01*
X105570952Y-69281500D01*
X105609047Y-69319595D01*
X105647142Y-69395785D01*
X105647142Y-69471976D01*
X105609047Y-69586261D01*
X105151904Y-70043404D01*
X105647142Y-70043404D01*
X105990000Y-69243404D02*
X105990000Y-69891023D01*
X106028095Y-69967214D01*
X106066190Y-70005309D01*
X106142380Y-70043404D01*
X106294761Y-70043404D01*
X106370952Y-70005309D01*
X106409047Y-69967214D01*
X106447142Y-69891023D01*
X106447142Y-69243404D01*
X107170952Y-69510071D02*
X107170952Y-70043404D01*
X106980476Y-69205309D02*
X106790000Y-69776738D01*
X107285238Y-69776738D01*
D13*
X107520000Y-102495000D02*
X107520000Y-103825000D01*
X106190000Y-102495000D02*
X107520000Y-102495000D01*
X107520000Y-105095000D02*
X107520000Y-107695000D01*
X104920000Y-105095000D02*
X107520000Y-105095000D01*
X104920000Y-102495000D02*
X104920000Y-105095000D01*
X107520000Y-107695000D02*
X99780000Y-107695000D01*
X104920000Y-102495000D02*
X99780000Y-102495000D01*
X99780000Y-102495000D02*
X99780000Y-107695000D01*
X108940000Y-63755000D02*
X108940000Y-59855000D01*
X110940000Y-63755000D02*
X110940000Y-59855000D01*
X108940000Y-63755000D02*
X110940000Y-63755000D01*
X104130000Y-87255000D02*
X100830000Y-87255000D01*
X100830000Y-87255000D02*
X100830000Y-91255000D01*
X99042164Y-88775000D02*
X99257836Y-88775000D01*
X99042164Y-89495000D02*
X99257836Y-89495000D01*
X99042164Y-87795000D02*
X99257836Y-87795000D01*
X99042164Y-88515000D02*
X99257836Y-88515000D01*
X102642000Y-92506359D02*
X102642000Y-92813641D01*
X103402000Y-92506359D02*
X103402000Y-92813641D01*
X103822000Y-98327000D02*
X103822000Y-98627000D01*
X99682000Y-101467000D02*
X99682000Y-101167000D01*
X99682000Y-98627000D02*
X99682000Y-98327000D01*
X103822000Y-101467000D02*
X99682000Y-101467000D01*
X103822000Y-101167000D02*
X103822000Y-101467000D01*
X99682000Y-98327000D02*
X103822000Y-98327000D01*
X105635810Y-74433693D02*
X105483307Y-74281190D01*
X105126693Y-74942810D02*
X104974190Y-74790307D01*
X102940307Y-75000810D02*
X103092810Y-74848307D01*
X102431190Y-74491693D02*
X102583693Y-74339190D01*
X98392693Y-83067190D02*
X98240190Y-83219693D01*
X98901810Y-83576307D02*
X98749307Y-83728810D01*
X108824190Y-79662307D02*
X108976693Y-79814810D01*
X109333307Y-79153190D02*
X109485810Y-79305693D01*
X104360000Y-73272836D02*
X104360000Y-73057164D01*
X103640000Y-73272836D02*
X103640000Y-73057164D01*
X105095601Y-86046718D02*
X105248104Y-86199221D01*
X105604718Y-85537601D02*
X105757221Y-85690104D01*
X100522307Y-76452810D02*
X100674810Y-76300307D01*
X100013190Y-75943693D02*
X100165693Y-75791190D01*
X106360307Y-76112810D02*
X106512810Y-75960307D01*
X105851190Y-75603693D02*
X106003693Y-75451190D01*
X107745580Y-65729000D02*
X107464420Y-65729000D01*
X107745580Y-66749000D02*
X107464420Y-66749000D01*
X103759000Y-66383164D02*
X103759000Y-66598836D01*
X104479000Y-66383164D02*
X104479000Y-66598836D01*
X102440000Y-66638641D02*
X102440000Y-66331359D01*
X101680000Y-66638641D02*
X101680000Y-66331359D01*
X105530000Y-66648641D02*
X105530000Y-66341359D01*
X104770000Y-66648641D02*
X104770000Y-66341359D01*
X102694000Y-66376164D02*
X102694000Y-66591836D01*
X103414000Y-66376164D02*
X103414000Y-66591836D01*
X104102652Y-75932341D02*
X103590000Y-75419689D01*
X103590000Y-85630311D02*
X104102652Y-85117659D01*
X103077348Y-85117659D02*
X103590000Y-85630311D01*
X98484689Y-80525000D02*
X98997341Y-80012348D01*
X98997341Y-81037652D02*
X98484689Y-80525000D01*
X108695311Y-80525000D02*
X108182659Y-81037652D01*
X108182659Y-80012348D02*
X108695311Y-80525000D01*
%LPC*%
D14*
X101110000Y-106365000D03*
X101110000Y-103825000D03*
X103650000Y-106365000D03*
X103650000Y-103825000D03*
X106190000Y-106365000D03*
G36*
G01*
X105340000Y-102924000D02*
X107040000Y-102924000D01*
G75*
G02*
X107091000Y-102975000I0J-51000D01*
G01*
X107091000Y-104675000D01*
G75*
G02*
X107040000Y-104726000I-51000J0D01*
G01*
X105340000Y-104726000D01*
G75*
G02*
X105289000Y-104675000I0J51000D01*
G01*
X105289000Y-102975000D01*
G75*
G02*
X105340000Y-102924000I51000J0D01*
G01*
G37*
G36*
G01*
X110540000Y-60356000D02*
X109340000Y-60356000D01*
G75*
G02*
X109289000Y-60305000I0J51000D01*
G01*
X109289000Y-59405000D01*
G75*
G02*
X109340000Y-59354000I51000J0D01*
G01*
X110540000Y-59354000D01*
G75*
G02*
X110591000Y-59405000I0J-51000D01*
G01*
X110591000Y-60305000D01*
G75*
G02*
X110540000Y-60356000I-51000J0D01*
G01*
G37*
G36*
G01*
X110540000Y-63656000D02*
X109340000Y-63656000D01*
G75*
G02*
X109289000Y-63605000I0J51000D01*
G01*
X109289000Y-62705000D01*
G75*
G02*
X109340000Y-62654000I51000J0D01*
G01*
X110540000Y-62654000D01*
G75*
G02*
X110591000Y-62705000I0J-51000D01*
G01*
X110591000Y-63605000D01*
G75*
G02*
X110540000Y-63656000I-51000J0D01*
G01*
G37*
G36*
G01*
X102729999Y-87404000D02*
X103930001Y-87404000D01*
G75*
G02*
X103981000Y-87454999I0J-50999D01*
G01*
X103981000Y-88855001D01*
G75*
G02*
X103930001Y-88906000I-50999J0D01*
G01*
X102729999Y-88906000D01*
G75*
G02*
X102679000Y-88855001I0J50999D01*
G01*
X102679000Y-87454999D01*
G75*
G02*
X102729999Y-87404000I50999J0D01*
G01*
G37*
G36*
G01*
X102729999Y-89604000D02*
X103930001Y-89604000D01*
G75*
G02*
X103981000Y-89654999I0J-50999D01*
G01*
X103981000Y-91055001D01*
G75*
G02*
X103930001Y-91106000I-50999J0D01*
G01*
X102729999Y-91106000D01*
G75*
G02*
X102679000Y-91055001I0J50999D01*
G01*
X102679000Y-89654999D01*
G75*
G02*
X102729999Y-89604000I50999J0D01*
G01*
G37*
G36*
G01*
X101029999Y-89604000D02*
X102230001Y-89604000D01*
G75*
G02*
X102281000Y-89654999I0J-50999D01*
G01*
X102281000Y-91055001D01*
G75*
G02*
X102230001Y-91106000I-50999J0D01*
G01*
X101029999Y-91106000D01*
G75*
G02*
X100979000Y-91055001I0J50999D01*
G01*
X100979000Y-89654999D01*
G75*
G02*
X101029999Y-89604000I50999J0D01*
G01*
G37*
G36*
G01*
X101029999Y-87404000D02*
X102230001Y-87404000D01*
G75*
G02*
X102281000Y-87454999I0J-50999D01*
G01*
X102281000Y-88855001D01*
G75*
G02*
X102230001Y-88906000I-50999J0D01*
G01*
X101029999Y-88906000D01*
G75*
G02*
X100979000Y-88855001I0J50999D01*
G01*
X100979000Y-87454999D01*
G75*
G02*
X101029999Y-87404000I50999J0D01*
G01*
G37*
G36*
G01*
X99299000Y-89330500D02*
X99299000Y-88939500D01*
G75*
G02*
X99464500Y-88774000I165500J0D01*
G01*
X99795500Y-88774000D01*
G75*
G02*
X99961000Y-88939500I0J-165500D01*
G01*
X99961000Y-89330500D01*
G75*
G02*
X99795500Y-89496000I-165500J0D01*
G01*
X99464500Y-89496000D01*
G75*
G02*
X99299000Y-89330500I0J165500D01*
G01*
G37*
G36*
G01*
X98339000Y-89330500D02*
X98339000Y-88939500D01*
G75*
G02*
X98504500Y-88774000I165500J0D01*
G01*
X98835500Y-88774000D01*
G75*
G02*
X99001000Y-88939500I0J-165500D01*
G01*
X99001000Y-89330500D01*
G75*
G02*
X98835500Y-89496000I-165500J0D01*
G01*
X98504500Y-89496000D01*
G75*
G02*
X98339000Y-89330500I0J165500D01*
G01*
G37*
G36*
G01*
X99299000Y-88350500D02*
X99299000Y-87959500D01*
G75*
G02*
X99464500Y-87794000I165500J0D01*
G01*
X99795500Y-87794000D01*
G75*
G02*
X99961000Y-87959500I0J-165500D01*
G01*
X99961000Y-88350500D01*
G75*
G02*
X99795500Y-88516000I-165500J0D01*
G01*
X99464500Y-88516000D01*
G75*
G02*
X99299000Y-88350500I0J165500D01*
G01*
G37*
G36*
G01*
X98339000Y-88350500D02*
X98339000Y-87959500D01*
G75*
G02*
X98504500Y-87794000I165500J0D01*
G01*
X98835500Y-87794000D01*
G75*
G02*
X99001000Y-87959500I0J-165500D01*
G01*
X99001000Y-88350500D01*
G75*
G02*
X98835500Y-88516000I-165500J0D01*
G01*
X98504500Y-88516000D01*
G75*
G02*
X98339000Y-88350500I0J165500D01*
G01*
G37*
G36*
G01*
X102811500Y-92849000D02*
X103232500Y-92849000D01*
G75*
G02*
X103393000Y-93009500I0J-160500D01*
G01*
X103393000Y-93330500D01*
G75*
G02*
X103232500Y-93491000I-160500J0D01*
G01*
X102811500Y-93491000D01*
G75*
G02*
X102651000Y-93330500I0J160500D01*
G01*
X102651000Y-93009500D01*
G75*
G02*
X102811500Y-92849000I160500J0D01*
G01*
G37*
G36*
G01*
X102811500Y-91829000D02*
X103232500Y-91829000D01*
G75*
G02*
X103393000Y-91989500I0J-160500D01*
G01*
X103393000Y-92310500D01*
G75*
G02*
X103232500Y-92471000I-160500J0D01*
G01*
X102811500Y-92471000D01*
G75*
G02*
X102651000Y-92310500I0J160500D01*
G01*
X102651000Y-91989500D01*
G75*
G02*
X102811500Y-91829000I160500J0D01*
G01*
G37*
G36*
G01*
X99201000Y-100722500D02*
X99201000Y-99071500D01*
G75*
G02*
X99426500Y-98846000I225500J0D01*
G01*
X99877500Y-98846000D01*
G75*
G02*
X100103000Y-99071500I0J-225500D01*
G01*
X100103000Y-100722500D01*
G75*
G02*
X99877500Y-100948000I-225500J0D01*
G01*
X99426500Y-100948000D01*
G75*
G02*
X99201000Y-100722500I0J225500D01*
G01*
G37*
G36*
G01*
X103401000Y-100722500D02*
X103401000Y-99071500D01*
G75*
G02*
X103626500Y-98846000I225500J0D01*
G01*
X104077500Y-98846000D01*
G75*
G02*
X104303000Y-99071500I0J-225500D01*
G01*
X104303000Y-100722500D01*
G75*
G02*
X104077500Y-100948000I-225500J0D01*
G01*
X103626500Y-100948000D01*
G75*
G02*
X103401000Y-100722500I0J225500D01*
G01*
G37*
G36*
G01*
X105337881Y-74368402D02*
X105061402Y-74644881D01*
G75*
G02*
X104827350Y-74644881I-117026J117026D01*
G01*
X104593297Y-74410828D01*
G75*
G02*
X104593297Y-74176776I117026J117026D01*
G01*
X104869776Y-73900297D01*
G75*
G02*
X105103828Y-73900297I117026J-117026D01*
G01*
X105337881Y-74134350D01*
G75*
G02*
X105337881Y-74368402I-117026J-117026D01*
G01*
G37*
G36*
G01*
X106016703Y-75047224D02*
X105740224Y-75323703D01*
G75*
G02*
X105506172Y-75323703I-117026J117026D01*
G01*
X105272119Y-75089650D01*
G75*
G02*
X105272119Y-74855598I117026J117026D01*
G01*
X105548598Y-74579119D01*
G75*
G02*
X105782650Y-74579119I117026J-117026D01*
G01*
X106016703Y-74813172D01*
G75*
G02*
X106016703Y-75047224I-117026J-117026D01*
G01*
G37*
G36*
G01*
X103005598Y-74702881D02*
X102729119Y-74426402D01*
G75*
G02*
X102729119Y-74192350I117026J117026D01*
G01*
X102963172Y-73958297D01*
G75*
G02*
X103197224Y-73958297I117026J-117026D01*
G01*
X103473703Y-74234776D01*
G75*
G02*
X103473703Y-74468828I-117026J-117026D01*
G01*
X103239650Y-74702881D01*
G75*
G02*
X103005598Y-74702881I-117026J117026D01*
G01*
G37*
G36*
G01*
X102326776Y-75381703D02*
X102050297Y-75105224D01*
G75*
G02*
X102050297Y-74871172I117026J117026D01*
G01*
X102284350Y-74637119D01*
G75*
G02*
X102518402Y-74637119I117026J-117026D01*
G01*
X102794881Y-74913598D01*
G75*
G02*
X102794881Y-75147650I-117026J-117026D01*
G01*
X102560828Y-75381703D01*
G75*
G02*
X102326776Y-75381703I-117026J117026D01*
G01*
G37*
G36*
G01*
X98327402Y-83365119D02*
X98603881Y-83641598D01*
G75*
G02*
X98603881Y-83875650I-117026J-117026D01*
G01*
X98369828Y-84109703D01*
G75*
G02*
X98135776Y-84109703I-117026J117026D01*
G01*
X97859297Y-83833224D01*
G75*
G02*
X97859297Y-83599172I117026J117026D01*
G01*
X98093350Y-83365119D01*
G75*
G02*
X98327402Y-83365119I117026J-117026D01*
G01*
G37*
G36*
G01*
X99006224Y-82686297D02*
X99282703Y-82962776D01*
G75*
G02*
X99282703Y-83196828I-117026J-117026D01*
G01*
X99048650Y-83430881D01*
G75*
G02*
X98814598Y-83430881I-117026J117026D01*
G01*
X98538119Y-83154402D01*
G75*
G02*
X98538119Y-82920350I117026J117026D01*
G01*
X98772172Y-82686297D01*
G75*
G02*
X99006224Y-82686297I117026J-117026D01*
G01*
G37*
G36*
G01*
X109122119Y-79727598D02*
X109398598Y-79451119D01*
G75*
G02*
X109632650Y-79451119I117026J-117026D01*
G01*
X109866703Y-79685172D01*
G75*
G02*
X109866703Y-79919224I-117026J-117026D01*
G01*
X109590224Y-80195703D01*
G75*
G02*
X109356172Y-80195703I-117026J117026D01*
G01*
X109122119Y-79961650D01*
G75*
G02*
X109122119Y-79727598I117026J117026D01*
G01*
G37*
G36*
G01*
X108443297Y-79048776D02*
X108719776Y-78772297D01*
G75*
G02*
X108953828Y-78772297I117026J-117026D01*
G01*
X109187881Y-79006350D01*
G75*
G02*
X109187881Y-79240402I-117026J-117026D01*
G01*
X108911402Y-79516881D01*
G75*
G02*
X108677350Y-79516881I-117026J117026D01*
G01*
X108443297Y-79282828D01*
G75*
G02*
X108443297Y-79048776I117026J117026D01*
G01*
G37*
G36*
G01*
X104195500Y-73016000D02*
X103804500Y-73016000D01*
G75*
G02*
X103639000Y-72850500I0J165500D01*
G01*
X103639000Y-72519500D01*
G75*
G02*
X103804500Y-72354000I165500J0D01*
G01*
X104195500Y-72354000D01*
G75*
G02*
X104361000Y-72519500I0J-165500D01*
G01*
X104361000Y-72850500D01*
G75*
G02*
X104195500Y-73016000I-165500J0D01*
G01*
G37*
G36*
G01*
X104195500Y-73976000D02*
X103804500Y-73976000D01*
G75*
G02*
X103639000Y-73810500I0J165500D01*
G01*
X103639000Y-73479500D01*
G75*
G02*
X103804500Y-73314000I165500J0D01*
G01*
X104195500Y-73314000D01*
G75*
G02*
X104361000Y-73479500I0J-165500D01*
G01*
X104361000Y-73810500D01*
G75*
G02*
X104195500Y-73976000I-165500J0D01*
G01*
G37*
G36*
G01*
X105393530Y-86112009D02*
X105670009Y-85835530D01*
G75*
G02*
X105904061Y-85835530I117026J-117026D01*
G01*
X106138114Y-86069583D01*
G75*
G02*
X106138114Y-86303635I-117026J-117026D01*
G01*
X105861635Y-86580114D01*
G75*
G02*
X105627583Y-86580114I-117026J117026D01*
G01*
X105393530Y-86346061D01*
G75*
G02*
X105393530Y-86112009I117026J117026D01*
G01*
G37*
G36*
G01*
X104714708Y-85433187D02*
X104991187Y-85156708D01*
G75*
G02*
X105225239Y-85156708I117026J-117026D01*
G01*
X105459292Y-85390761D01*
G75*
G02*
X105459292Y-85624813I-117026J-117026D01*
G01*
X105182813Y-85901292D01*
G75*
G02*
X104948761Y-85901292I-117026J117026D01*
G01*
X104714708Y-85667239D01*
G75*
G02*
X104714708Y-85433187I117026J117026D01*
G01*
G37*
G36*
G01*
X100587598Y-76154881D02*
X100311119Y-75878402D01*
G75*
G02*
X100311119Y-75644350I117026J117026D01*
G01*
X100545172Y-75410297D01*
G75*
G02*
X100779224Y-75410297I117026J-117026D01*
G01*
X101055703Y-75686776D01*
G75*
G02*
X101055703Y-75920828I-117026J-117026D01*
G01*
X100821650Y-76154881D01*
G75*
G02*
X100587598Y-76154881I-117026J117026D01*
G01*
G37*
G36*
G01*
X99908776Y-76833703D02*
X99632297Y-76557224D01*
G75*
G02*
X99632297Y-76323172I117026J117026D01*
G01*
X99866350Y-76089119D01*
G75*
G02*
X100100402Y-76089119I117026J-117026D01*
G01*
X100376881Y-76365598D01*
G75*
G02*
X100376881Y-76599650I-117026J-117026D01*
G01*
X100142828Y-76833703D01*
G75*
G02*
X99908776Y-76833703I-117026J117026D01*
G01*
G37*
G36*
G01*
X106425598Y-75814881D02*
X106149119Y-75538402D01*
G75*
G02*
X106149119Y-75304350I117026J117026D01*
G01*
X106383172Y-75070297D01*
G75*
G02*
X106617224Y-75070297I117026J-117026D01*
G01*
X106893703Y-75346776D01*
G75*
G02*
X106893703Y-75580828I-117026J-117026D01*
G01*
X106659650Y-75814881D01*
G75*
G02*
X106425598Y-75814881I-117026J117026D01*
G01*
G37*
G36*
G01*
X105746776Y-76493703D02*
X105470297Y-76217224D01*
G75*
G02*
X105470297Y-75983172I117026J117026D01*
G01*
X105704350Y-75749119D01*
G75*
G02*
X105938402Y-75749119I117026J-117026D01*
G01*
X106214881Y-76025598D01*
G75*
G02*
X106214881Y-76259650I-117026J-117026D01*
G01*
X105980828Y-76493703D01*
G75*
G02*
X105746776Y-76493703I-117026J117026D01*
G01*
G37*
G36*
G01*
X107331000Y-65963500D02*
X107331000Y-66514500D01*
G75*
G02*
X107080500Y-66765000I-250500J0D01*
G01*
X106579500Y-66765000D01*
G75*
G02*
X106329000Y-66514500I0J250500D01*
G01*
X106329000Y-65963500D01*
G75*
G02*
X106579500Y-65713000I250500J0D01*
G01*
X107080500Y-65713000D01*
G75*
G02*
X107331000Y-65963500I0J-250500D01*
G01*
G37*
G36*
G01*
X108881000Y-65963500D02*
X108881000Y-66514500D01*
G75*
G02*
X108630500Y-66765000I-250500J0D01*
G01*
X108129500Y-66765000D01*
G75*
G02*
X107879000Y-66514500I0J250500D01*
G01*
X107879000Y-65963500D01*
G75*
G02*
X108129500Y-65713000I250500J0D01*
G01*
X108630500Y-65713000D01*
G75*
G02*
X108881000Y-65963500I0J-250500D01*
G01*
G37*
G36*
G01*
X103923500Y-66640000D02*
X104314500Y-66640000D01*
G75*
G02*
X104480000Y-66805500I0J-165500D01*
G01*
X104480000Y-67136500D01*
G75*
G02*
X104314500Y-67302000I-165500J0D01*
G01*
X103923500Y-67302000D01*
G75*
G02*
X103758000Y-67136500I0J165500D01*
G01*
X103758000Y-66805500D01*
G75*
G02*
X103923500Y-66640000I165500J0D01*
G01*
G37*
G36*
G01*
X103923500Y-65680000D02*
X104314500Y-65680000D01*
G75*
G02*
X104480000Y-65845500I0J-165500D01*
G01*
X104480000Y-66176500D01*
G75*
G02*
X104314500Y-66342000I-165500J0D01*
G01*
X103923500Y-66342000D01*
G75*
G02*
X103758000Y-66176500I0J165500D01*
G01*
X103758000Y-65845500D01*
G75*
G02*
X103923500Y-65680000I165500J0D01*
G01*
G37*
G36*
G01*
X102270500Y-66296000D02*
X101849500Y-66296000D01*
G75*
G02*
X101689000Y-66135500I0J160500D01*
G01*
X101689000Y-65814500D01*
G75*
G02*
X101849500Y-65654000I160500J0D01*
G01*
X102270500Y-65654000D01*
G75*
G02*
X102431000Y-65814500I0J-160500D01*
G01*
X102431000Y-66135500D01*
G75*
G02*
X102270500Y-66296000I-160500J0D01*
G01*
G37*
G36*
G01*
X102270500Y-67316000D02*
X101849500Y-67316000D01*
G75*
G02*
X101689000Y-67155500I0J160500D01*
G01*
X101689000Y-66834500D01*
G75*
G02*
X101849500Y-66674000I160500J0D01*
G01*
X102270500Y-66674000D01*
G75*
G02*
X102431000Y-66834500I0J-160500D01*
G01*
X102431000Y-67155500D01*
G75*
G02*
X102270500Y-67316000I-160500J0D01*
G01*
G37*
G36*
G01*
X105360500Y-66306000D02*
X104939500Y-66306000D01*
G75*
G02*
X104779000Y-66145500I0J160500D01*
G01*
X104779000Y-65824500D01*
G75*
G02*
X104939500Y-65664000I160500J0D01*
G01*
X105360500Y-65664000D01*
G75*
G02*
X105521000Y-65824500I0J-160500D01*
G01*
X105521000Y-66145500D01*
G75*
G02*
X105360500Y-66306000I-160500J0D01*
G01*
G37*
G36*
G01*
X105360500Y-67326000D02*
X104939500Y-67326000D01*
G75*
G02*
X104779000Y-67165500I0J160500D01*
G01*
X104779000Y-66844500D01*
G75*
G02*
X104939500Y-66684000I160500J0D01*
G01*
X105360500Y-66684000D01*
G75*
G02*
X105521000Y-66844500I0J-160500D01*
G01*
X105521000Y-67165500D01*
G75*
G02*
X105360500Y-67326000I-160500J0D01*
G01*
G37*
G36*
G01*
X102858500Y-66633000D02*
X103249500Y-66633000D01*
G75*
G02*
X103415000Y-66798500I0J-165500D01*
G01*
X103415000Y-67129500D01*
G75*
G02*
X103249500Y-67295000I-165500J0D01*
G01*
X102858500Y-67295000D01*
G75*
G02*
X102693000Y-67129500I0J165500D01*
G01*
X102693000Y-66798500D01*
G75*
G02*
X102858500Y-66633000I165500J0D01*
G01*
G37*
G36*
G01*
X102858500Y-65673000D02*
X103249500Y-65673000D01*
G75*
G02*
X103415000Y-65838500I0J-165500D01*
G01*
X103415000Y-66169500D01*
G75*
G02*
X103249500Y-66335000I-165500J0D01*
G01*
X102858500Y-66335000D01*
G75*
G02*
X102693000Y-66169500I0J165500D01*
G01*
X102693000Y-65838500D01*
G75*
G02*
X102858500Y-65673000I165500J0D01*
G01*
G37*
G36*
G01*
X99876981Y-80488938D02*
X103553938Y-76811981D01*
G75*
G02*
X103626062Y-76811981I36062J-36062D01*
G01*
X107303019Y-80488938D01*
G75*
G02*
X107303019Y-80561062I-36062J-36062D01*
G01*
X103626062Y-84238019D01*
G75*
G02*
X103553938Y-84238019I-36062J36062D01*
G01*
X99876981Y-80561062D01*
G75*
G02*
X99876981Y-80488938I36062J36062D01*
G01*
G37*
G36*
G01*
X103703845Y-76626721D02*
X104411659Y-75918907D01*
G75*
G02*
X104536109Y-75918907I62225J-62225D01*
G01*
X104660559Y-76043357D01*
G75*
G02*
X104660559Y-76167807I-62225J-62225D01*
G01*
X103952745Y-76875621D01*
G75*
G02*
X103828295Y-76875621I-62225J62225D01*
G01*
X103703845Y-76751171D01*
G75*
G02*
X103703845Y-76626721I62225J62225D01*
G01*
G37*
G36*
G01*
X104057398Y-76980275D02*
X104765212Y-76272461D01*
G75*
G02*
X104889662Y-76272461I62225J-62225D01*
G01*
X105014112Y-76396911D01*
G75*
G02*
X105014112Y-76521361I-62225J-62225D01*
G01*
X104306298Y-77229175D01*
G75*
G02*
X104181848Y-77229175I-62225J62225D01*
G01*
X104057398Y-77104725D01*
G75*
G02*
X104057398Y-76980275I62225J62225D01*
G01*
G37*
G36*
G01*
X104410952Y-77333828D02*
X105118766Y-76626014D01*
G75*
G02*
X105243216Y-76626014I62225J-62225D01*
G01*
X105367666Y-76750464D01*
G75*
G02*
X105367666Y-76874914I-62225J-62225D01*
G01*
X104659852Y-77582728D01*
G75*
G02*
X104535402Y-77582728I-62225J62225D01*
G01*
X104410952Y-77458278D01*
G75*
G02*
X104410952Y-77333828I62225J62225D01*
G01*
G37*
G36*
G01*
X104764505Y-77687381D02*
X105472319Y-76979567D01*
G75*
G02*
X105596769Y-76979567I62225J-62225D01*
G01*
X105721219Y-77104017D01*
G75*
G02*
X105721219Y-77228467I-62225J-62225D01*
G01*
X105013405Y-77936281D01*
G75*
G02*
X104888955Y-77936281I-62225J62225D01*
G01*
X104764505Y-77811831D01*
G75*
G02*
X104764505Y-77687381I62225J62225D01*
G01*
G37*
G36*
G01*
X105118058Y-78040935D02*
X105825872Y-77333121D01*
G75*
G02*
X105950322Y-77333121I62225J-62225D01*
G01*
X106074772Y-77457571D01*
G75*
G02*
X106074772Y-77582021I-62225J-62225D01*
G01*
X105366958Y-78289835D01*
G75*
G02*
X105242508Y-78289835I-62225J62225D01*
G01*
X105118058Y-78165385D01*
G75*
G02*
X105118058Y-78040935I62225J62225D01*
G01*
G37*
G36*
G01*
X105471612Y-78394488D02*
X106179426Y-77686674D01*
G75*
G02*
X106303876Y-77686674I62225J-62225D01*
G01*
X106428326Y-77811124D01*
G75*
G02*
X106428326Y-77935574I-62225J-62225D01*
G01*
X105720512Y-78643388D01*
G75*
G02*
X105596062Y-78643388I-62225J62225D01*
G01*
X105471612Y-78518938D01*
G75*
G02*
X105471612Y-78394488I62225J62225D01*
G01*
G37*
G36*
G01*
X105825165Y-78748042D02*
X106532979Y-78040228D01*
G75*
G02*
X106657429Y-78040228I62225J-62225D01*
G01*
X106781879Y-78164678D01*
G75*
G02*
X106781879Y-78289128I-62225J-62225D01*
G01*
X106074065Y-78996942D01*
G75*
G02*
X105949615Y-78996942I-62225J62225D01*
G01*
X105825165Y-78872492D01*
G75*
G02*
X105825165Y-78748042I62225J62225D01*
G01*
G37*
G36*
G01*
X106178719Y-79101595D02*
X106886533Y-78393781D01*
G75*
G02*
X107010983Y-78393781I62225J-62225D01*
G01*
X107135433Y-78518231D01*
G75*
G02*
X107135433Y-78642681I-62225J-62225D01*
G01*
X106427619Y-79350495D01*
G75*
G02*
X106303169Y-79350495I-62225J62225D01*
G01*
X106178719Y-79226045D01*
G75*
G02*
X106178719Y-79101595I62225J62225D01*
G01*
G37*
G36*
G01*
X106532272Y-79455148D02*
X107240086Y-78747334D01*
G75*
G02*
X107364536Y-78747334I62225J-62225D01*
G01*
X107488986Y-78871784D01*
G75*
G02*
X107488986Y-78996234I-62225J-62225D01*
G01*
X106781172Y-79704048D01*
G75*
G02*
X106656722Y-79704048I-62225J62225D01*
G01*
X106532272Y-79579598D01*
G75*
G02*
X106532272Y-79455148I62225J62225D01*
G01*
G37*
G36*
G01*
X106885825Y-79808702D02*
X107593639Y-79100888D01*
G75*
G02*
X107718089Y-79100888I62225J-62225D01*
G01*
X107842539Y-79225338D01*
G75*
G02*
X107842539Y-79349788I-62225J-62225D01*
G01*
X107134725Y-80057602D01*
G75*
G02*
X107010275Y-80057602I-62225J62225D01*
G01*
X106885825Y-79933152D01*
G75*
G02*
X106885825Y-79808702I62225J62225D01*
G01*
G37*
G36*
G01*
X107239379Y-80162255D02*
X107947193Y-79454441D01*
G75*
G02*
X108071643Y-79454441I62225J-62225D01*
G01*
X108196093Y-79578891D01*
G75*
G02*
X108196093Y-79703341I-62225J-62225D01*
G01*
X107488279Y-80411155D01*
G75*
G02*
X107363829Y-80411155I-62225J62225D01*
G01*
X107239379Y-80286705D01*
G75*
G02*
X107239379Y-80162255I62225J62225D01*
G01*
G37*
G36*
G01*
X107239379Y-80763295D02*
X107363829Y-80638845D01*
G75*
G02*
X107488279Y-80638845I62225J-62225D01*
G01*
X108196093Y-81346659D01*
G75*
G02*
X108196093Y-81471109I-62225J-62225D01*
G01*
X108071643Y-81595559D01*
G75*
G02*
X107947193Y-81595559I-62225J62225D01*
G01*
X107239379Y-80887745D01*
G75*
G02*
X107239379Y-80763295I62225J62225D01*
G01*
G37*
G36*
G01*
X106885825Y-81116848D02*
X107010275Y-80992398D01*
G75*
G02*
X107134725Y-80992398I62225J-62225D01*
G01*
X107842539Y-81700212D01*
G75*
G02*
X107842539Y-81824662I-62225J-62225D01*
G01*
X107718089Y-81949112D01*
G75*
G02*
X107593639Y-81949112I-62225J62225D01*
G01*
X106885825Y-81241298D01*
G75*
G02*
X106885825Y-81116848I62225J62225D01*
G01*
G37*
G36*
G01*
X106532272Y-81470402D02*
X106656722Y-81345952D01*
G75*
G02*
X106781172Y-81345952I62225J-62225D01*
G01*
X107488986Y-82053766D01*
G75*
G02*
X107488986Y-82178216I-62225J-62225D01*
G01*
X107364536Y-82302666D01*
G75*
G02*
X107240086Y-82302666I-62225J62225D01*
G01*
X106532272Y-81594852D01*
G75*
G02*
X106532272Y-81470402I62225J62225D01*
G01*
G37*
G36*
G01*
X106178719Y-81823955D02*
X106303169Y-81699505D01*
G75*
G02*
X106427619Y-81699505I62225J-62225D01*
G01*
X107135433Y-82407319D01*
G75*
G02*
X107135433Y-82531769I-62225J-62225D01*
G01*
X107010983Y-82656219D01*
G75*
G02*
X106886533Y-82656219I-62225J62225D01*
G01*
X106178719Y-81948405D01*
G75*
G02*
X106178719Y-81823955I62225J62225D01*
G01*
G37*
G36*
G01*
X105825165Y-82177508D02*
X105949615Y-82053058D01*
G75*
G02*
X106074065Y-82053058I62225J-62225D01*
G01*
X106781879Y-82760872D01*
G75*
G02*
X106781879Y-82885322I-62225J-62225D01*
G01*
X106657429Y-83009772D01*
G75*
G02*
X106532979Y-83009772I-62225J62225D01*
G01*
X105825165Y-82301958D01*
G75*
G02*
X105825165Y-82177508I62225J62225D01*
G01*
G37*
G36*
G01*
X105471612Y-82531062D02*
X105596062Y-82406612D01*
G75*
G02*
X105720512Y-82406612I62225J-62225D01*
G01*
X106428326Y-83114426D01*
G75*
G02*
X106428326Y-83238876I-62225J-62225D01*
G01*
X106303876Y-83363326D01*
G75*
G02*
X106179426Y-83363326I-62225J62225D01*
G01*
X105471612Y-82655512D01*
G75*
G02*
X105471612Y-82531062I62225J62225D01*
G01*
G37*
G36*
G01*
X105118058Y-82884615D02*
X105242508Y-82760165D01*
G75*
G02*
X105366958Y-82760165I62225J-62225D01*
G01*
X106074772Y-83467979D01*
G75*
G02*
X106074772Y-83592429I-62225J-62225D01*
G01*
X105950322Y-83716879D01*
G75*
G02*
X105825872Y-83716879I-62225J62225D01*
G01*
X105118058Y-83009065D01*
G75*
G02*
X105118058Y-82884615I62225J62225D01*
G01*
G37*
G36*
G01*
X104764505Y-83238169D02*
X104888955Y-83113719D01*
G75*
G02*
X105013405Y-83113719I62225J-62225D01*
G01*
X105721219Y-83821533D01*
G75*
G02*
X105721219Y-83945983I-62225J-62225D01*
G01*
X105596769Y-84070433D01*
G75*
G02*
X105472319Y-84070433I-62225J62225D01*
G01*
X104764505Y-83362619D01*
G75*
G02*
X104764505Y-83238169I62225J62225D01*
G01*
G37*
G36*
G01*
X104410952Y-83591722D02*
X104535402Y-83467272D01*
G75*
G02*
X104659852Y-83467272I62225J-62225D01*
G01*
X105367666Y-84175086D01*
G75*
G02*
X105367666Y-84299536I-62225J-62225D01*
G01*
X105243216Y-84423986D01*
G75*
G02*
X105118766Y-84423986I-62225J62225D01*
G01*
X104410952Y-83716172D01*
G75*
G02*
X104410952Y-83591722I62225J62225D01*
G01*
G37*
G36*
G01*
X104057398Y-83945275D02*
X104181848Y-83820825D01*
G75*
G02*
X104306298Y-83820825I62225J-62225D01*
G01*
X105014112Y-84528639D01*
G75*
G02*
X105014112Y-84653089I-62225J-62225D01*
G01*
X104889662Y-84777539D01*
G75*
G02*
X104765212Y-84777539I-62225J62225D01*
G01*
X104057398Y-84069725D01*
G75*
G02*
X104057398Y-83945275I62225J62225D01*
G01*
G37*
G36*
G01*
X103703845Y-84298829D02*
X103828295Y-84174379D01*
G75*
G02*
X103952745Y-84174379I62225J-62225D01*
G01*
X104660559Y-84882193D01*
G75*
G02*
X104660559Y-85006643I-62225J-62225D01*
G01*
X104536109Y-85131093D01*
G75*
G02*
X104411659Y-85131093I-62225J62225D01*
G01*
X103703845Y-84423279D01*
G75*
G02*
X103703845Y-84298829I62225J62225D01*
G01*
G37*
G36*
G01*
X102519441Y-84882193D02*
X103227255Y-84174379D01*
G75*
G02*
X103351705Y-84174379I62225J-62225D01*
G01*
X103476155Y-84298829D01*
G75*
G02*
X103476155Y-84423279I-62225J-62225D01*
G01*
X102768341Y-85131093D01*
G75*
G02*
X102643891Y-85131093I-62225J62225D01*
G01*
X102519441Y-85006643D01*
G75*
G02*
X102519441Y-84882193I62225J62225D01*
G01*
G37*
G36*
G01*
X102165888Y-84528639D02*
X102873702Y-83820825D01*
G75*
G02*
X102998152Y-83820825I62225J-62225D01*
G01*
X103122602Y-83945275D01*
G75*
G02*
X103122602Y-84069725I-62225J-62225D01*
G01*
X102414788Y-84777539D01*
G75*
G02*
X102290338Y-84777539I-62225J62225D01*
G01*
X102165888Y-84653089D01*
G75*
G02*
X102165888Y-84528639I62225J62225D01*
G01*
G37*
G36*
G01*
X101812334Y-84175086D02*
X102520148Y-83467272D01*
G75*
G02*
X102644598Y-83467272I62225J-62225D01*
G01*
X102769048Y-83591722D01*
G75*
G02*
X102769048Y-83716172I-62225J-62225D01*
G01*
X102061234Y-84423986D01*
G75*
G02*
X101936784Y-84423986I-62225J62225D01*
G01*
X101812334Y-84299536D01*
G75*
G02*
X101812334Y-84175086I62225J62225D01*
G01*
G37*
G36*
G01*
X101458781Y-83821533D02*
X102166595Y-83113719D01*
G75*
G02*
X102291045Y-83113719I62225J-62225D01*
G01*
X102415495Y-83238169D01*
G75*
G02*
X102415495Y-83362619I-62225J-62225D01*
G01*
X101707681Y-84070433D01*
G75*
G02*
X101583231Y-84070433I-62225J62225D01*
G01*
X101458781Y-83945983D01*
G75*
G02*
X101458781Y-83821533I62225J62225D01*
G01*
G37*
G36*
G01*
X101105228Y-83467979D02*
X101813042Y-82760165D01*
G75*
G02*
X101937492Y-82760165I62225J-62225D01*
G01*
X102061942Y-82884615D01*
G75*
G02*
X102061942Y-83009065I-62225J-62225D01*
G01*
X101354128Y-83716879D01*
G75*
G02*
X101229678Y-83716879I-62225J62225D01*
G01*
X101105228Y-83592429D01*
G75*
G02*
X101105228Y-83467979I62225J62225D01*
G01*
G37*
G36*
G01*
X100751674Y-83114426D02*
X101459488Y-82406612D01*
G75*
G02*
X101583938Y-82406612I62225J-62225D01*
G01*
X101708388Y-82531062D01*
G75*
G02*
X101708388Y-82655512I-62225J-62225D01*
G01*
X101000574Y-83363326D01*
G75*
G02*
X100876124Y-83363326I-62225J62225D01*
G01*
X100751674Y-83238876D01*
G75*
G02*
X100751674Y-83114426I62225J62225D01*
G01*
G37*
G36*
G01*
X100398121Y-82760872D02*
X101105935Y-82053058D01*
G75*
G02*
X101230385Y-82053058I62225J-62225D01*
G01*
X101354835Y-82177508D01*
G75*
G02*
X101354835Y-82301958I-62225J-62225D01*
G01*
X100647021Y-83009772D01*
G75*
G02*
X100522571Y-83009772I-62225J62225D01*
G01*
X100398121Y-82885322D01*
G75*
G02*
X100398121Y-82760872I62225J62225D01*
G01*
G37*
G36*
G01*
X100044567Y-82407319D02*
X100752381Y-81699505D01*
G75*
G02*
X100876831Y-81699505I62225J-62225D01*
G01*
X101001281Y-81823955D01*
G75*
G02*
X101001281Y-81948405I-62225J-62225D01*
G01*
X100293467Y-82656219D01*
G75*
G02*
X100169017Y-82656219I-62225J62225D01*
G01*
X100044567Y-82531769D01*
G75*
G02*
X100044567Y-82407319I62225J62225D01*
G01*
G37*
G36*
G01*
X99691014Y-82053766D02*
X100398828Y-81345952D01*
G75*
G02*
X100523278Y-81345952I62225J-62225D01*
G01*
X100647728Y-81470402D01*
G75*
G02*
X100647728Y-81594852I-62225J-62225D01*
G01*
X99939914Y-82302666D01*
G75*
G02*
X99815464Y-82302666I-62225J62225D01*
G01*
X99691014Y-82178216D01*
G75*
G02*
X99691014Y-82053766I62225J62225D01*
G01*
G37*
G36*
G01*
X99337461Y-81700212D02*
X100045275Y-80992398D01*
G75*
G02*
X100169725Y-80992398I62225J-62225D01*
G01*
X100294175Y-81116848D01*
G75*
G02*
X100294175Y-81241298I-62225J-62225D01*
G01*
X99586361Y-81949112D01*
G75*
G02*
X99461911Y-81949112I-62225J62225D01*
G01*
X99337461Y-81824662D01*
G75*
G02*
X99337461Y-81700212I62225J62225D01*
G01*
G37*
G36*
G01*
X98983907Y-81346659D02*
X99691721Y-80638845D01*
G75*
G02*
X99816171Y-80638845I62225J-62225D01*
G01*
X99940621Y-80763295D01*
G75*
G02*
X99940621Y-80887745I-62225J-62225D01*
G01*
X99232807Y-81595559D01*
G75*
G02*
X99108357Y-81595559I-62225J62225D01*
G01*
X98983907Y-81471109D01*
G75*
G02*
X98983907Y-81346659I62225J62225D01*
G01*
G37*
G36*
G01*
X98983907Y-79578891D02*
X99108357Y-79454441D01*
G75*
G02*
X99232807Y-79454441I62225J-62225D01*
G01*
X99940621Y-80162255D01*
G75*
G02*
X99940621Y-80286705I-62225J-62225D01*
G01*
X99816171Y-80411155D01*
G75*
G02*
X99691721Y-80411155I-62225J62225D01*
G01*
X98983907Y-79703341D01*
G75*
G02*
X98983907Y-79578891I62225J62225D01*
G01*
G37*
G36*
G01*
X99337461Y-79225338D02*
X99461911Y-79100888D01*
G75*
G02*
X99586361Y-79100888I62225J-62225D01*
G01*
X100294175Y-79808702D01*
G75*
G02*
X100294175Y-79933152I-62225J-62225D01*
G01*
X100169725Y-80057602D01*
G75*
G02*
X100045275Y-80057602I-62225J62225D01*
G01*
X99337461Y-79349788D01*
G75*
G02*
X99337461Y-79225338I62225J62225D01*
G01*
G37*
G36*
G01*
X99691014Y-78871784D02*
X99815464Y-78747334D01*
G75*
G02*
X99939914Y-78747334I62225J-62225D01*
G01*
X100647728Y-79455148D01*
G75*
G02*
X100647728Y-79579598I-62225J-62225D01*
G01*
X100523278Y-79704048D01*
G75*
G02*
X100398828Y-79704048I-62225J62225D01*
G01*
X99691014Y-78996234D01*
G75*
G02*
X99691014Y-78871784I62225J62225D01*
G01*
G37*
G36*
G01*
X100044567Y-78518231D02*
X100169017Y-78393781D01*
G75*
G02*
X100293467Y-78393781I62225J-62225D01*
G01*
X101001281Y-79101595D01*
G75*
G02*
X101001281Y-79226045I-62225J-62225D01*
G01*
X100876831Y-79350495D01*
G75*
G02*
X100752381Y-79350495I-62225J62225D01*
G01*
X100044567Y-78642681D01*
G75*
G02*
X100044567Y-78518231I62225J62225D01*
G01*
G37*
G36*
G01*
X100398121Y-78164678D02*
X100522571Y-78040228D01*
G75*
G02*
X100647021Y-78040228I62225J-62225D01*
G01*
X101354835Y-78748042D01*
G75*
G02*
X101354835Y-78872492I-62225J-62225D01*
G01*
X101230385Y-78996942D01*
G75*
G02*
X101105935Y-78996942I-62225J62225D01*
G01*
X100398121Y-78289128D01*
G75*
G02*
X100398121Y-78164678I62225J62225D01*
G01*
G37*
G36*
G01*
X100751674Y-77811124D02*
X100876124Y-77686674D01*
G75*
G02*
X101000574Y-77686674I62225J-62225D01*
G01*
X101708388Y-78394488D01*
G75*
G02*
X101708388Y-78518938I-62225J-62225D01*
G01*
X101583938Y-78643388D01*
G75*
G02*
X101459488Y-78643388I-62225J62225D01*
G01*
X100751674Y-77935574D01*
G75*
G02*
X100751674Y-77811124I62225J62225D01*
G01*
G37*
G36*
G01*
X101105228Y-77457571D02*
X101229678Y-77333121D01*
G75*
G02*
X101354128Y-77333121I62225J-62225D01*
G01*
X102061942Y-78040935D01*
G75*
G02*
X102061942Y-78165385I-62225J-62225D01*
G01*
X101937492Y-78289835D01*
G75*
G02*
X101813042Y-78289835I-62225J62225D01*
G01*
X101105228Y-77582021D01*
G75*
G02*
X101105228Y-77457571I62225J62225D01*
G01*
G37*
G36*
G01*
X101458781Y-77104017D02*
X101583231Y-76979567D01*
G75*
G02*
X101707681Y-76979567I62225J-62225D01*
G01*
X102415495Y-77687381D01*
G75*
G02*
X102415495Y-77811831I-62225J-62225D01*
G01*
X102291045Y-77936281D01*
G75*
G02*
X102166595Y-77936281I-62225J62225D01*
G01*
X101458781Y-77228467D01*
G75*
G02*
X101458781Y-77104017I62225J62225D01*
G01*
G37*
G36*
G01*
X101812334Y-76750464D02*
X101936784Y-76626014D01*
G75*
G02*
X102061234Y-76626014I62225J-62225D01*
G01*
X102769048Y-77333828D01*
G75*
G02*
X102769048Y-77458278I-62225J-62225D01*
G01*
X102644598Y-77582728D01*
G75*
G02*
X102520148Y-77582728I-62225J62225D01*
G01*
X101812334Y-76874914D01*
G75*
G02*
X101812334Y-76750464I62225J62225D01*
G01*
G37*
G36*
G01*
X102165888Y-76396911D02*
X102290338Y-76272461D01*
G75*
G02*
X102414788Y-76272461I62225J-62225D01*
G01*
X103122602Y-76980275D01*
G75*
G02*
X103122602Y-77104725I-62225J-62225D01*
G01*
X102998152Y-77229175D01*
G75*
G02*
X102873702Y-77229175I-62225J62225D01*
G01*
X102165888Y-76521361D01*
G75*
G02*
X102165888Y-76396911I62225J62225D01*
G01*
G37*
G36*
G01*
X102519441Y-76043357D02*
X102643891Y-75918907D01*
G75*
G02*
X102768341Y-75918907I62225J-62225D01*
G01*
X103476155Y-76626721D01*
G75*
G02*
X103476155Y-76751171I-62225J-62225D01*
G01*
X103351705Y-76875621D01*
G75*
G02*
X103227255Y-76875621I-62225J62225D01*
G01*
X102519441Y-76167807D01*
G75*
G02*
X102519441Y-76043357I62225J62225D01*
G01*
G37*
X112550000Y-106985000D03*
X112550000Y-104445000D03*
G36*
G01*
X113451000Y-101055000D02*
X113451000Y-102755000D01*
G75*
G02*
X113400000Y-102806000I-51000J0D01*
G01*
X111700000Y-102806000D01*
G75*
G02*
X111649000Y-102755000I0J51000D01*
G01*
X111649000Y-101055000D01*
G75*
G02*
X111700000Y-101004000I51000J0D01*
G01*
X113400000Y-101004000D01*
G75*
G02*
X113451000Y-101055000I0J-51000D01*
G01*
G37*
X112550000Y-99365000D03*
X112550000Y-96825000D03*
X112550000Y-94285000D03*
X112550000Y-91745000D03*
G36*
G01*
X113451000Y-88355000D02*
X113451000Y-90055000D01*
G75*
G02*
X113400000Y-90106000I-51000J0D01*
G01*
X111700000Y-90106000D01*
G75*
G02*
X111649000Y-90055000I0J51000D01*
G01*
X111649000Y-88355000D01*
G75*
G02*
X111700000Y-88304000I51000J0D01*
G01*
X113400000Y-88304000D01*
G75*
G02*
X113451000Y-88355000I0J-51000D01*
G01*
G37*
X112550000Y-86665000D03*
X112550000Y-84125000D03*
X112550000Y-81585000D03*
X112550000Y-79045000D03*
G36*
G01*
X113451000Y-75655000D02*
X113451000Y-77355000D01*
G75*
G02*
X113400000Y-77406000I-51000J0D01*
G01*
X111700000Y-77406000D01*
G75*
G02*
X111649000Y-77355000I0J51000D01*
G01*
X111649000Y-75655000D01*
G75*
G02*
X111700000Y-75604000I51000J0D01*
G01*
X113400000Y-75604000D01*
G75*
G02*
X113451000Y-75655000I0J-51000D01*
G01*
G37*
X112550000Y-73965000D03*
X112550000Y-71425000D03*
X112550000Y-68885000D03*
X112550000Y-66345000D03*
G36*
G01*
X113451000Y-62955000D02*
X113451000Y-64655000D01*
G75*
G02*
X113400000Y-64706000I-51000J0D01*
G01*
X111700000Y-64706000D01*
G75*
G02*
X111649000Y-64655000I0J51000D01*
G01*
X111649000Y-62955000D01*
G75*
G02*
X111700000Y-62904000I51000J0D01*
G01*
X113400000Y-62904000D01*
G75*
G02*
X113451000Y-62955000I0J-51000D01*
G01*
G37*
X112550000Y-61265000D03*
G36*
G01*
X113451000Y-57875000D02*
X113451000Y-59575000D01*
G75*
G02*
X113400000Y-59626000I-51000J0D01*
G01*
X111700000Y-59626000D01*
G75*
G02*
X111649000Y-59575000I0J51000D01*
G01*
X111649000Y-57875000D01*
G75*
G02*
X111700000Y-57824000I51000J0D01*
G01*
X113400000Y-57824000D01*
G75*
G02*
X113451000Y-57875000I0J-51000D01*
G01*
G37*
G36*
G01*
X116051000Y-98515000D02*
X116051000Y-100215000D01*
G75*
G02*
X116000000Y-100266000I-51000J0D01*
G01*
X112500000Y-100266000D01*
G75*
G02*
X112449000Y-100215000I0J51000D01*
G01*
X112449000Y-98515000D01*
G75*
G02*
X112500000Y-98464000I51000J0D01*
G01*
X116000000Y-98464000D01*
G75*
G02*
X116051000Y-98515000I0J-51000D01*
G01*
G37*
G36*
G01*
X116051000Y-101055000D02*
X116051000Y-102755000D01*
G75*
G02*
X116000000Y-102806000I-51000J0D01*
G01*
X112500000Y-102806000D01*
G75*
G02*
X112449000Y-102755000I0J51000D01*
G01*
X112449000Y-101055000D01*
G75*
G02*
X112500000Y-101004000I51000J0D01*
G01*
X116000000Y-101004000D01*
G75*
G02*
X116051000Y-101055000I0J-51000D01*
G01*
G37*
G36*
G01*
X116051000Y-95975000D02*
X116051000Y-97675000D01*
G75*
G02*
X116000000Y-97726000I-51000J0D01*
G01*
X112500000Y-97726000D01*
G75*
G02*
X112449000Y-97675000I0J51000D01*
G01*
X112449000Y-95975000D01*
G75*
G02*
X112500000Y-95924000I51000J0D01*
G01*
X116000000Y-95924000D01*
G75*
G02*
X116051000Y-95975000I0J-51000D01*
G01*
G37*
G36*
G01*
X116051000Y-103595000D02*
X116051000Y-105295000D01*
G75*
G02*
X116000000Y-105346000I-51000J0D01*
G01*
X112500000Y-105346000D01*
G75*
G02*
X112449000Y-105295000I0J51000D01*
G01*
X112449000Y-103595000D01*
G75*
G02*
X112500000Y-103544000I51000J0D01*
G01*
X116000000Y-103544000D01*
G75*
G02*
X116051000Y-103595000I0J-51000D01*
G01*
G37*
G36*
G01*
X116051000Y-93435000D02*
X116051000Y-95135000D01*
G75*
G02*
X116000000Y-95186000I-51000J0D01*
G01*
X112500000Y-95186000D01*
G75*
G02*
X112449000Y-95135000I0J51000D01*
G01*
X112449000Y-93435000D01*
G75*
G02*
X112500000Y-93384000I51000J0D01*
G01*
X116000000Y-93384000D01*
G75*
G02*
X116051000Y-93435000I0J-51000D01*
G01*
G37*
G36*
G01*
X116051000Y-106135000D02*
X116051000Y-107835000D01*
G75*
G02*
X116000000Y-107886000I-51000J0D01*
G01*
X112500000Y-107886000D01*
G75*
G02*
X112449000Y-107835000I0J51000D01*
G01*
X112449000Y-106135000D01*
G75*
G02*
X112500000Y-106084000I51000J0D01*
G01*
X116000000Y-106084000D01*
G75*
G02*
X116051000Y-106135000I0J-51000D01*
G01*
G37*
G36*
G01*
X116051000Y-85815000D02*
X116051000Y-87515000D01*
G75*
G02*
X116000000Y-87566000I-51000J0D01*
G01*
X112500000Y-87566000D01*
G75*
G02*
X112449000Y-87515000I0J51000D01*
G01*
X112449000Y-85815000D01*
G75*
G02*
X112500000Y-85764000I51000J0D01*
G01*
X116000000Y-85764000D01*
G75*
G02*
X116051000Y-85815000I0J-51000D01*
G01*
G37*
G36*
G01*
X116051000Y-90895000D02*
X116051000Y-92595000D01*
G75*
G02*
X116000000Y-92646000I-51000J0D01*
G01*
X112500000Y-92646000D01*
G75*
G02*
X112449000Y-92595000I0J51000D01*
G01*
X112449000Y-90895000D01*
G75*
G02*
X112500000Y-90844000I51000J0D01*
G01*
X116000000Y-90844000D01*
G75*
G02*
X116051000Y-90895000I0J-51000D01*
G01*
G37*
G36*
G01*
X116051000Y-83275000D02*
X116051000Y-84975000D01*
G75*
G02*
X116000000Y-85026000I-51000J0D01*
G01*
X112500000Y-85026000D01*
G75*
G02*
X112449000Y-84975000I0J51000D01*
G01*
X112449000Y-83275000D01*
G75*
G02*
X112500000Y-83224000I51000J0D01*
G01*
X116000000Y-83224000D01*
G75*
G02*
X116051000Y-83275000I0J-51000D01*
G01*
G37*
G36*
G01*
X116051000Y-73115000D02*
X116051000Y-74815000D01*
G75*
G02*
X116000000Y-74866000I-51000J0D01*
G01*
X112500000Y-74866000D01*
G75*
G02*
X112449000Y-74815000I0J51000D01*
G01*
X112449000Y-73115000D01*
G75*
G02*
X112500000Y-73064000I51000J0D01*
G01*
X116000000Y-73064000D01*
G75*
G02*
X116051000Y-73115000I0J-51000D01*
G01*
G37*
G36*
G01*
X116051000Y-70575000D02*
X116051000Y-72275000D01*
G75*
G02*
X116000000Y-72326000I-51000J0D01*
G01*
X112500000Y-72326000D01*
G75*
G02*
X112449000Y-72275000I0J51000D01*
G01*
X112449000Y-70575000D01*
G75*
G02*
X112500000Y-70524000I51000J0D01*
G01*
X116000000Y-70524000D01*
G75*
G02*
X116051000Y-70575000I0J-51000D01*
G01*
G37*
G36*
G01*
X116051000Y-68035000D02*
X116051000Y-69735000D01*
G75*
G02*
X116000000Y-69786000I-51000J0D01*
G01*
X112500000Y-69786000D01*
G75*
G02*
X112449000Y-69735000I0J51000D01*
G01*
X112449000Y-68035000D01*
G75*
G02*
X112500000Y-67984000I51000J0D01*
G01*
X116000000Y-67984000D01*
G75*
G02*
X116051000Y-68035000I0J-51000D01*
G01*
G37*
G36*
G01*
X116051000Y-60415000D02*
X116051000Y-62115000D01*
G75*
G02*
X116000000Y-62166000I-51000J0D01*
G01*
X112500000Y-62166000D01*
G75*
G02*
X112449000Y-62115000I0J51000D01*
G01*
X112449000Y-60415000D01*
G75*
G02*
X112500000Y-60364000I51000J0D01*
G01*
X116000000Y-60364000D01*
G75*
G02*
X116051000Y-60415000I0J-51000D01*
G01*
G37*
G36*
G01*
X116051000Y-88355000D02*
X116051000Y-90055000D01*
G75*
G02*
X116000000Y-90106000I-51000J0D01*
G01*
X112500000Y-90106000D01*
G75*
G02*
X112449000Y-90055000I0J51000D01*
G01*
X112449000Y-88355000D01*
G75*
G02*
X112500000Y-88304000I51000J0D01*
G01*
X116000000Y-88304000D01*
G75*
G02*
X116051000Y-88355000I0J-51000D01*
G01*
G37*
G36*
G01*
X116051000Y-75655000D02*
X116051000Y-77355000D01*
G75*
G02*
X116000000Y-77406000I-51000J0D01*
G01*
X112500000Y-77406000D01*
G75*
G02*
X112449000Y-77355000I0J51000D01*
G01*
X112449000Y-75655000D01*
G75*
G02*
X112500000Y-75604000I51000J0D01*
G01*
X116000000Y-75604000D01*
G75*
G02*
X116051000Y-75655000I0J-51000D01*
G01*
G37*
G36*
G01*
X116051000Y-62955000D02*
X116051000Y-64655000D01*
G75*
G02*
X116000000Y-64706000I-51000J0D01*
G01*
X112500000Y-64706000D01*
G75*
G02*
X112449000Y-64655000I0J51000D01*
G01*
X112449000Y-62955000D01*
G75*
G02*
X112500000Y-62904000I51000J0D01*
G01*
X116000000Y-62904000D01*
G75*
G02*
X116051000Y-62955000I0J-51000D01*
G01*
G37*
G36*
G01*
X116051000Y-57875000D02*
X116051000Y-59575000D01*
G75*
G02*
X116000000Y-59626000I-51000J0D01*
G01*
X112500000Y-59626000D01*
G75*
G02*
X112449000Y-59575000I0J51000D01*
G01*
X112449000Y-57875000D01*
G75*
G02*
X112500000Y-57824000I51000J0D01*
G01*
X116000000Y-57824000D01*
G75*
G02*
X116051000Y-57875000I0J-51000D01*
G01*
G37*
G36*
G01*
X116051000Y-78195000D02*
X116051000Y-79895000D01*
G75*
G02*
X116000000Y-79946000I-51000J0D01*
G01*
X112500000Y-79946000D01*
G75*
G02*
X112449000Y-79895000I0J51000D01*
G01*
X112449000Y-78195000D01*
G75*
G02*
X112500000Y-78144000I51000J0D01*
G01*
X116000000Y-78144000D01*
G75*
G02*
X116051000Y-78195000I0J-51000D01*
G01*
G37*
G36*
G01*
X116051000Y-65495000D02*
X116051000Y-67195000D01*
G75*
G02*
X116000000Y-67246000I-51000J0D01*
G01*
X112500000Y-67246000D01*
G75*
G02*
X112449000Y-67195000I0J51000D01*
G01*
X112449000Y-65495000D01*
G75*
G02*
X112500000Y-65444000I51000J0D01*
G01*
X116000000Y-65444000D01*
G75*
G02*
X116051000Y-65495000I0J-51000D01*
G01*
G37*
G36*
G01*
X116051000Y-80735000D02*
X116051000Y-82435000D01*
G75*
G02*
X116000000Y-82486000I-51000J0D01*
G01*
X112500000Y-82486000D01*
G75*
G02*
X112449000Y-82435000I0J51000D01*
G01*
X112449000Y-80735000D01*
G75*
G02*
X112500000Y-80684000I51000J0D01*
G01*
X116000000Y-80684000D01*
G75*
G02*
X116051000Y-80735000I0J-51000D01*
G01*
G37*
X94750000Y-58725000D03*
X94750000Y-61265000D03*
G36*
G01*
X93849000Y-64655000D02*
X93849000Y-62955000D01*
G75*
G02*
X93900000Y-62904000I51000J0D01*
G01*
X95600000Y-62904000D01*
G75*
G02*
X95651000Y-62955000I0J-51000D01*
G01*
X95651000Y-64655000D01*
G75*
G02*
X95600000Y-64706000I-51000J0D01*
G01*
X93900000Y-64706000D01*
G75*
G02*
X93849000Y-64655000I0J51000D01*
G01*
G37*
X94750000Y-66345000D03*
X94750000Y-68885000D03*
X94750000Y-71425000D03*
X94750000Y-73965000D03*
G36*
G01*
X93849000Y-77355000D02*
X93849000Y-75655000D01*
G75*
G02*
X93900000Y-75604000I51000J0D01*
G01*
X95600000Y-75604000D01*
G75*
G02*
X95651000Y-75655000I0J-51000D01*
G01*
X95651000Y-77355000D01*
G75*
G02*
X95600000Y-77406000I-51000J0D01*
G01*
X93900000Y-77406000D01*
G75*
G02*
X93849000Y-77355000I0J51000D01*
G01*
G37*
X94750000Y-79045000D03*
X94750000Y-81585000D03*
X94750000Y-84125000D03*
X94750000Y-86665000D03*
G36*
G01*
X93849000Y-90055000D02*
X93849000Y-88355000D01*
G75*
G02*
X93900000Y-88304000I51000J0D01*
G01*
X95600000Y-88304000D01*
G75*
G02*
X95651000Y-88355000I0J-51000D01*
G01*
X95651000Y-90055000D01*
G75*
G02*
X95600000Y-90106000I-51000J0D01*
G01*
X93900000Y-90106000D01*
G75*
G02*
X93849000Y-90055000I0J51000D01*
G01*
G37*
X94750000Y-91745000D03*
X94750000Y-94285000D03*
X94750000Y-96825000D03*
X94750000Y-99365000D03*
G36*
G01*
X93849000Y-102755000D02*
X93849000Y-101055000D01*
G75*
G02*
X93900000Y-101004000I51000J0D01*
G01*
X95600000Y-101004000D01*
G75*
G02*
X95651000Y-101055000I0J-51000D01*
G01*
X95651000Y-102755000D01*
G75*
G02*
X95600000Y-102806000I-51000J0D01*
G01*
X93900000Y-102806000D01*
G75*
G02*
X93849000Y-102755000I0J51000D01*
G01*
G37*
X94750000Y-104445000D03*
D15*
X94750000Y-106985000D03*
G36*
G01*
X91249000Y-105295000D02*
X91249000Y-103595000D01*
G75*
G02*
X91300000Y-103544000I51000J0D01*
G01*
X94800000Y-103544000D01*
G75*
G02*
X94851000Y-103595000I0J-51000D01*
G01*
X94851000Y-105295000D01*
G75*
G02*
X94800000Y-105346000I-51000J0D01*
G01*
X91300000Y-105346000D01*
G75*
G02*
X91249000Y-105295000I0J51000D01*
G01*
G37*
G36*
G01*
X91249000Y-74815000D02*
X91249000Y-73115000D01*
G75*
G02*
X91300000Y-73064000I51000J0D01*
G01*
X94800000Y-73064000D01*
G75*
G02*
X94851000Y-73115000I0J-51000D01*
G01*
X94851000Y-74815000D01*
G75*
G02*
X94800000Y-74866000I-51000J0D01*
G01*
X91300000Y-74866000D01*
G75*
G02*
X91249000Y-74815000I0J51000D01*
G01*
G37*
G36*
G01*
X91249000Y-100215000D02*
X91249000Y-98515000D01*
G75*
G02*
X91300000Y-98464000I51000J0D01*
G01*
X94800000Y-98464000D01*
G75*
G02*
X94851000Y-98515000I0J-51000D01*
G01*
X94851000Y-100215000D01*
G75*
G02*
X94800000Y-100266000I-51000J0D01*
G01*
X91300000Y-100266000D01*
G75*
G02*
X91249000Y-100215000I0J51000D01*
G01*
G37*
G36*
G01*
X91249000Y-95135000D02*
X91249000Y-93435000D01*
G75*
G02*
X91300000Y-93384000I51000J0D01*
G01*
X94800000Y-93384000D01*
G75*
G02*
X94851000Y-93435000I0J-51000D01*
G01*
X94851000Y-95135000D01*
G75*
G02*
X94800000Y-95186000I-51000J0D01*
G01*
X91300000Y-95186000D01*
G75*
G02*
X91249000Y-95135000I0J51000D01*
G01*
G37*
G36*
G01*
X91249000Y-90055000D02*
X91249000Y-88355000D01*
G75*
G02*
X91300000Y-88304000I51000J0D01*
G01*
X94800000Y-88304000D01*
G75*
G02*
X94851000Y-88355000I0J-51000D01*
G01*
X94851000Y-90055000D01*
G75*
G02*
X94800000Y-90106000I-51000J0D01*
G01*
X91300000Y-90106000D01*
G75*
G02*
X91249000Y-90055000I0J51000D01*
G01*
G37*
G36*
G01*
X91249000Y-87515000D02*
X91249000Y-85815000D01*
G75*
G02*
X91300000Y-85764000I51000J0D01*
G01*
X94800000Y-85764000D01*
G75*
G02*
X94851000Y-85815000I0J-51000D01*
G01*
X94851000Y-87515000D01*
G75*
G02*
X94800000Y-87566000I-51000J0D01*
G01*
X91300000Y-87566000D01*
G75*
G02*
X91249000Y-87515000I0J51000D01*
G01*
G37*
G36*
G01*
X91249000Y-72275000D02*
X91249000Y-70575000D01*
G75*
G02*
X91300000Y-70524000I51000J0D01*
G01*
X94800000Y-70524000D01*
G75*
G02*
X94851000Y-70575000I0J-51000D01*
G01*
X94851000Y-72275000D01*
G75*
G02*
X94800000Y-72326000I-51000J0D01*
G01*
X91300000Y-72326000D01*
G75*
G02*
X91249000Y-72275000I0J51000D01*
G01*
G37*
G36*
G01*
X91259000Y-79895000D02*
X91259000Y-78195000D01*
G75*
G02*
X91310000Y-78144000I51000J0D01*
G01*
X94810000Y-78144000D01*
G75*
G02*
X94861000Y-78195000I0J-51000D01*
G01*
X94861000Y-79895000D01*
G75*
G02*
X94810000Y-79946000I-51000J0D01*
G01*
X91310000Y-79946000D01*
G75*
G02*
X91259000Y-79895000I0J51000D01*
G01*
G37*
G36*
G01*
X91249000Y-69735000D02*
X91249000Y-68035000D01*
G75*
G02*
X91300000Y-67984000I51000J0D01*
G01*
X94800000Y-67984000D01*
G75*
G02*
X94851000Y-68035000I0J-51000D01*
G01*
X94851000Y-69735000D01*
G75*
G02*
X94800000Y-69786000I-51000J0D01*
G01*
X91300000Y-69786000D01*
G75*
G02*
X91249000Y-69735000I0J51000D01*
G01*
G37*
G36*
G01*
X91249000Y-62105000D02*
X91249000Y-60405000D01*
G75*
G02*
X91300000Y-60354000I51000J0D01*
G01*
X94800000Y-60354000D01*
G75*
G02*
X94851000Y-60405000I0J-51000D01*
G01*
X94851000Y-62105000D01*
G75*
G02*
X94800000Y-62156000I-51000J0D01*
G01*
X91300000Y-62156000D01*
G75*
G02*
X91249000Y-62105000I0J51000D01*
G01*
G37*
G36*
G01*
X91249000Y-67185000D02*
X91249000Y-65485000D01*
G75*
G02*
X91300000Y-65434000I51000J0D01*
G01*
X94800000Y-65434000D01*
G75*
G02*
X94851000Y-65485000I0J-51000D01*
G01*
X94851000Y-67185000D01*
G75*
G02*
X94800000Y-67236000I-51000J0D01*
G01*
X91300000Y-67236000D01*
G75*
G02*
X91249000Y-67185000I0J51000D01*
G01*
G37*
G36*
G01*
X91239000Y-92595000D02*
X91239000Y-90895000D01*
G75*
G02*
X91290000Y-90844000I51000J0D01*
G01*
X94790000Y-90844000D01*
G75*
G02*
X94841000Y-90895000I0J-51000D01*
G01*
X94841000Y-92595000D01*
G75*
G02*
X94790000Y-92646000I-51000J0D01*
G01*
X91290000Y-92646000D01*
G75*
G02*
X91239000Y-92595000I0J51000D01*
G01*
G37*
G36*
G01*
X91249000Y-97675000D02*
X91249000Y-95975000D01*
G75*
G02*
X91300000Y-95924000I51000J0D01*
G01*
X94800000Y-95924000D01*
G75*
G02*
X94851000Y-95975000I0J-51000D01*
G01*
X94851000Y-97675000D01*
G75*
G02*
X94800000Y-97726000I-51000J0D01*
G01*
X91300000Y-97726000D01*
G75*
G02*
X91249000Y-97675000I0J51000D01*
G01*
G37*
G36*
G01*
X91249000Y-82435000D02*
X91249000Y-80735000D01*
G75*
G02*
X91300000Y-80684000I51000J0D01*
G01*
X94800000Y-80684000D01*
G75*
G02*
X94851000Y-80735000I0J-51000D01*
G01*
X94851000Y-82435000D01*
G75*
G02*
X94800000Y-82486000I-51000J0D01*
G01*
X91300000Y-82486000D01*
G75*
G02*
X91249000Y-82435000I0J51000D01*
G01*
G37*
G36*
G01*
X91249000Y-77355000D02*
X91249000Y-75655000D01*
G75*
G02*
X91300000Y-75604000I51000J0D01*
G01*
X94800000Y-75604000D01*
G75*
G02*
X94851000Y-75655000I0J-51000D01*
G01*
X94851000Y-77355000D01*
G75*
G02*
X94800000Y-77406000I-51000J0D01*
G01*
X91300000Y-77406000D01*
G75*
G02*
X91249000Y-77355000I0J51000D01*
G01*
G37*
G36*
G01*
X91249000Y-107835000D02*
X91249000Y-106135000D01*
G75*
G02*
X91300000Y-106084000I51000J0D01*
G01*
X94800000Y-106084000D01*
G75*
G02*
X94851000Y-106135000I0J-51000D01*
G01*
X94851000Y-107835000D01*
G75*
G02*
X94800000Y-107886000I-51000J0D01*
G01*
X91300000Y-107886000D01*
G75*
G02*
X91249000Y-107835000I0J51000D01*
G01*
G37*
G36*
G01*
X91249000Y-84975000D02*
X91249000Y-83275000D01*
G75*
G02*
X91300000Y-83224000I51000J0D01*
G01*
X94800000Y-83224000D01*
G75*
G02*
X94851000Y-83275000I0J-51000D01*
G01*
X94851000Y-84975000D01*
G75*
G02*
X94800000Y-85026000I-51000J0D01*
G01*
X91300000Y-85026000D01*
G75*
G02*
X91249000Y-84975000I0J51000D01*
G01*
G37*
G36*
G01*
X91249000Y-64655000D02*
X91249000Y-62955000D01*
G75*
G02*
X91300000Y-62904000I51000J0D01*
G01*
X94800000Y-62904000D01*
G75*
G02*
X94851000Y-62955000I0J-51000D01*
G01*
X94851000Y-64655000D01*
G75*
G02*
X94800000Y-64706000I-51000J0D01*
G01*
X91300000Y-64706000D01*
G75*
G02*
X91249000Y-64655000I0J51000D01*
G01*
G37*
G36*
G01*
X91249000Y-102755000D02*
X91249000Y-101055000D01*
G75*
G02*
X91300000Y-101004000I51000J0D01*
G01*
X94800000Y-101004000D01*
G75*
G02*
X94851000Y-101055000I0J-51000D01*
G01*
X94851000Y-102755000D01*
G75*
G02*
X94800000Y-102806000I-51000J0D01*
G01*
X91300000Y-102806000D01*
G75*
G02*
X91249000Y-102755000I0J51000D01*
G01*
G37*
G36*
G01*
X91249000Y-59575000D02*
X91249000Y-57875000D01*
G75*
G02*
X91300000Y-57824000I51000J0D01*
G01*
X94800000Y-57824000D01*
G75*
G02*
X94851000Y-57875000I0J-51000D01*
G01*
X94851000Y-59575000D01*
G75*
G02*
X94800000Y-59626000I-51000J0D01*
G01*
X91300000Y-59626000D01*
G75*
G02*
X91249000Y-59575000I0J51000D01*
G01*
G37*
G36*
G01*
X100726000Y-63895000D02*
X100726000Y-65345000D01*
G75*
G02*
X100675000Y-65396000I-51000J0D01*
G01*
X100075000Y-65396000D01*
G75*
G02*
X100024000Y-65345000I0J51000D01*
G01*
X100024000Y-63895000D01*
G75*
G02*
X100075000Y-63844000I51000J0D01*
G01*
X100675000Y-63844000D01*
G75*
G02*
X100726000Y-63895000I0J-51000D01*
G01*
G37*
G36*
G01*
X107176000Y-63895000D02*
X107176000Y-65345000D01*
G75*
G02*
X107125000Y-65396000I-51000J0D01*
G01*
X106525000Y-65396000D01*
G75*
G02*
X106474000Y-65345000I0J51000D01*
G01*
X106474000Y-63895000D01*
G75*
G02*
X106525000Y-63844000I51000J0D01*
G01*
X107125000Y-63844000D01*
G75*
G02*
X107176000Y-63895000I0J-51000D01*
G01*
G37*
G36*
G01*
X101501000Y-63895000D02*
X101501000Y-65345000D01*
G75*
G02*
X101450000Y-65396000I-51000J0D01*
G01*
X100850000Y-65396000D01*
G75*
G02*
X100799000Y-65345000I0J51000D01*
G01*
X100799000Y-63895000D01*
G75*
G02*
X100850000Y-63844000I51000J0D01*
G01*
X101450000Y-63844000D01*
G75*
G02*
X101501000Y-63895000I0J-51000D01*
G01*
G37*
G36*
G01*
X106401000Y-63895000D02*
X106401000Y-65345000D01*
G75*
G02*
X106350000Y-65396000I-51000J0D01*
G01*
X105750000Y-65396000D01*
G75*
G02*
X105699000Y-65345000I0J51000D01*
G01*
X105699000Y-63895000D01*
G75*
G02*
X105750000Y-63844000I51000J0D01*
G01*
X106350000Y-63844000D01*
G75*
G02*
X106401000Y-63895000I0J-51000D01*
G01*
G37*
G36*
G01*
X105551000Y-63895000D02*
X105551000Y-65345000D01*
G75*
G02*
X105500000Y-65396000I-51000J0D01*
G01*
X105200000Y-65396000D01*
G75*
G02*
X105149000Y-65345000I0J51000D01*
G01*
X105149000Y-63895000D01*
G75*
G02*
X105200000Y-63844000I51000J0D01*
G01*
X105500000Y-63844000D01*
G75*
G02*
X105551000Y-63895000I0J-51000D01*
G01*
G37*
G36*
G01*
X102051000Y-63895000D02*
X102051000Y-65345000D01*
G75*
G02*
X102000000Y-65396000I-51000J0D01*
G01*
X101700000Y-65396000D01*
G75*
G02*
X101649000Y-65345000I0J51000D01*
G01*
X101649000Y-63895000D01*
G75*
G02*
X101700000Y-63844000I51000J0D01*
G01*
X102000000Y-63844000D01*
G75*
G02*
X102051000Y-63895000I0J-51000D01*
G01*
G37*
G36*
G01*
X105051000Y-63895000D02*
X105051000Y-65345000D01*
G75*
G02*
X105000000Y-65396000I-51000J0D01*
G01*
X104700000Y-65396000D01*
G75*
G02*
X104649000Y-65345000I0J51000D01*
G01*
X104649000Y-63895000D01*
G75*
G02*
X104700000Y-63844000I51000J0D01*
G01*
X105000000Y-63844000D01*
G75*
G02*
X105051000Y-63895000I0J-51000D01*
G01*
G37*
G36*
G01*
X102551000Y-63895000D02*
X102551000Y-65345000D01*
G75*
G02*
X102500000Y-65396000I-51000J0D01*
G01*
X102200000Y-65396000D01*
G75*
G02*
X102149000Y-65345000I0J51000D01*
G01*
X102149000Y-63895000D01*
G75*
G02*
X102200000Y-63844000I51000J0D01*
G01*
X102500000Y-63844000D01*
G75*
G02*
X102551000Y-63895000I0J-51000D01*
G01*
G37*
G36*
G01*
X104551000Y-63895000D02*
X104551000Y-65345000D01*
G75*
G02*
X104500000Y-65396000I-51000J0D01*
G01*
X104200000Y-65396000D01*
G75*
G02*
X104149000Y-65345000I0J51000D01*
G01*
X104149000Y-63895000D01*
G75*
G02*
X104200000Y-63844000I51000J0D01*
G01*
X104500000Y-63844000D01*
G75*
G02*
X104551000Y-63895000I0J-51000D01*
G01*
G37*
G36*
G01*
X103051000Y-63895000D02*
X103051000Y-65345000D01*
G75*
G02*
X103000000Y-65396000I-51000J0D01*
G01*
X102700000Y-65396000D01*
G75*
G02*
X102649000Y-65345000I0J51000D01*
G01*
X102649000Y-63895000D01*
G75*
G02*
X102700000Y-63844000I51000J0D01*
G01*
X103000000Y-63844000D01*
G75*
G02*
X103051000Y-63895000I0J-51000D01*
G01*
G37*
G36*
G01*
X103551000Y-63895000D02*
X103551000Y-65345000D01*
G75*
G02*
X103500000Y-65396000I-51000J0D01*
G01*
X103200000Y-65396000D01*
G75*
G02*
X103149000Y-65345000I0J51000D01*
G01*
X103149000Y-63895000D01*
G75*
G02*
X103200000Y-63844000I51000J0D01*
G01*
X103500000Y-63844000D01*
G75*
G02*
X103551000Y-63895000I0J-51000D01*
G01*
G37*
G36*
G01*
X104051000Y-63895000D02*
X104051000Y-65345000D01*
G75*
G02*
X104000000Y-65396000I-51000J0D01*
G01*
X103700000Y-65396000D01*
G75*
G02*
X103649000Y-65345000I0J51000D01*
G01*
X103649000Y-63895000D01*
G75*
G02*
X103700000Y-63844000I51000J0D01*
G01*
X104000000Y-63844000D01*
G75*
G02*
X104051000Y-63895000I0J-51000D01*
G01*
G37*
D16*
X100710000Y-63175000D03*
X106490000Y-63175000D03*
M02*
