M48
; DRILL file {KiCad (5.1.10)-1} date 09/15/21 22:42:11
; FORMAT={-:-/ absolute / metric / decimal}
; #@! TF.CreationDate,2021-09-15T22:42:11+01:00
; #@! TF.GenerationSoftware,Kicad,Pcbnew,(5.1.10)-1
; #@! TF.FileFunction,Plated,1,2,PTH
FMAT,2
METRIC
T1C0.200
T2C0.350
T3C0.600
T4C1.000
%
G90
G05
T1
X97.69Y-92.661
X98.831Y-73.608
X99.428Y-82.544
X99.63Y-88.155
X99.63Y-89.135
X99.718Y-84.334
X99.764Y-83.641
X100.041Y-77.613
X100.983Y-76.805
X101.424Y-75.116
X101.454Y-76.412
X101.585Y-73.586
X101.788Y-74.29
X101.84Y-93.225
X101.985Y-76.1
X102.615Y-73.57
X102.85Y-63.067
X103.022Y-92.15
X103.346Y-63.453
X103.408Y-75.574
X103.61Y-85.025
X103.847Y-63.054
X104.366Y-63.442
X105.001Y-75.579
X105.087Y-85.529
X105.843Y-76.121
X106.05Y-64.62
X106.059Y-87.067
X106.94Y-94.825
X107.181Y-74.599
X107.84Y-97.725
X108.14Y-78.802
X108.441Y-80.297
X109.181Y-81.313
X109.88Y-70.185
T2
X97.082Y-76.213
X97.69Y-76.905
X98.29Y-76.305
X98.323Y-81.99
X98.958Y-96.277
X99.91Y-68.591
X100.99Y-100.005
X102.768Y-99.897
X103.33Y-88.155
X103.721Y-70.115
X104.94Y-96.225
X106.49Y-100.205
X108.673Y-75.767
X110.261Y-100.024
T4
X93.04Y-91.745
X93.05Y-58.725
X93.05Y-61.255
X93.05Y-63.805
X93.05Y-66.335
X93.05Y-68.885
X93.05Y-71.425
X93.05Y-73.965
X93.05Y-76.505
X93.05Y-81.585
X93.05Y-84.125
X93.05Y-86.665
X93.05Y-89.205
X93.05Y-94.285
X93.05Y-96.825
X93.05Y-99.365
X93.05Y-101.905
X93.05Y-104.445
X93.05Y-106.985
X93.06Y-79.045
X94.75Y-58.725
X94.75Y-61.265
X94.75Y-63.805
X94.75Y-66.345
X94.75Y-68.885
X94.75Y-71.425
X94.75Y-73.965
X94.75Y-76.505
X94.75Y-79.045
X94.75Y-81.585
X94.75Y-84.125
X94.75Y-86.665
X94.75Y-89.205
X94.75Y-91.745
X94.75Y-94.285
X94.75Y-96.825
X94.75Y-99.365
X94.75Y-101.905
X94.75Y-104.445
X94.75Y-106.985
X101.11Y-103.825
X101.11Y-106.365
X103.65Y-103.825
X103.65Y-106.365
X106.19Y-103.825
X106.19Y-106.365
X112.55Y-58.725
X112.55Y-61.265
X112.55Y-63.805
X112.55Y-66.345
X112.55Y-68.885
X112.55Y-71.425
X112.55Y-73.965
X112.55Y-76.505
X112.55Y-79.045
X112.55Y-81.585
X112.55Y-84.125
X112.55Y-86.665
X112.55Y-89.205
X112.55Y-91.745
X112.55Y-94.285
X112.55Y-96.825
X112.55Y-99.365
X112.55Y-101.905
X112.55Y-104.445
X112.55Y-106.985
X114.25Y-58.725
X114.25Y-61.265
X114.25Y-63.805
X114.25Y-66.345
X114.25Y-68.885
X114.25Y-71.425
X114.25Y-73.965
X114.25Y-76.505
X114.25Y-79.045
X114.25Y-81.585
X114.25Y-84.125
X114.25Y-86.665
X114.25Y-89.205
X114.25Y-91.745
X114.25Y-94.285
X114.25Y-96.825
X114.25Y-99.365
X114.25Y-101.905
X114.25Y-104.445
X114.25Y-106.985
T3
X99.28Y-59.825G85X99.28Y-59.225
G05
X99.28Y-64.255G85X99.28Y-63.155
G05
X107.92Y-59.825G85X107.92Y-59.225
G05
X107.92Y-64.255G85X107.92Y-63.155
G05
T0
M30
