G04 #@! TF.GenerationSoftware,KiCad,Pcbnew,(5.1.10)-1*
G04 #@! TF.CreationDate,2021-09-15T22:42:09+01:00*
G04 #@! TF.ProjectId,32u4-Pico,33327534-2d50-4696-936f-2e6b69636164,REV1*
G04 #@! TF.SameCoordinates,Original*
G04 #@! TF.FileFunction,Other,Fab,Top*
%FSLAX46Y46*%
G04 Gerber Fmt 4.6, Leading zero omitted, Abs format (unit mm)*
G04 Created by KiCad (PCBNEW (5.1.10)-1) date 2021-09-15 22:42:09*
%MOMM*%
%LPD*%
G01*
G04 APERTURE LIST*
%ADD10C,0.100000*%
%ADD11C,0.150000*%
%ADD12C,0.105000*%
%ADD13C,0.040000*%
%ADD14C,0.060000*%
G04 APERTURE END LIST*
D10*
X106190000Y-102555000D02*
X107460000Y-103825000D01*
X99840000Y-102555000D02*
X106190000Y-102555000D01*
X99840000Y-107635000D02*
X99840000Y-102555000D01*
X107460000Y-107635000D02*
X99840000Y-107635000D01*
X107460000Y-103825000D02*
X107460000Y-107635000D01*
X109040000Y-62905000D02*
X109040000Y-60105000D01*
X109040000Y-60105000D02*
X110840000Y-60105000D01*
X110840000Y-60105000D02*
X110840000Y-62905000D01*
X110840000Y-62905000D02*
X109040000Y-62905000D01*
X109940000Y-62255000D02*
X109940000Y-61855000D01*
X109940000Y-61855000D02*
X109390000Y-61855000D01*
X109940000Y-61855000D02*
X110490000Y-61855000D01*
X109940000Y-61855000D02*
X109540000Y-61255000D01*
X109540000Y-61255000D02*
X110340000Y-61255000D01*
X110340000Y-61255000D02*
X109940000Y-61855000D01*
X109940000Y-61255000D02*
X109940000Y-60755000D01*
X103730000Y-87655000D02*
X101230000Y-87655000D01*
X101230000Y-87655000D02*
X101230000Y-90855000D01*
X101230000Y-90855000D02*
X103730000Y-90855000D01*
X103730000Y-90855000D02*
X103730000Y-87655000D01*
X102230000Y-87655000D02*
X101230000Y-88655000D01*
X98650000Y-89385000D02*
X98650000Y-88885000D01*
X98650000Y-88885000D02*
X99650000Y-88885000D01*
X99650000Y-88885000D02*
X99650000Y-89385000D01*
X99650000Y-89385000D02*
X98650000Y-89385000D01*
X98650000Y-88405000D02*
X98650000Y-87905000D01*
X98650000Y-87905000D02*
X99650000Y-87905000D01*
X99650000Y-87905000D02*
X99650000Y-88405000D01*
X99650000Y-88405000D02*
X98650000Y-88405000D01*
X102752000Y-93185000D02*
X102752000Y-92135000D01*
X103292000Y-93185000D02*
X102752000Y-93185000D01*
X103292000Y-92135000D02*
X103292000Y-93185000D01*
X102752000Y-92135000D02*
X103292000Y-92135000D01*
X103702000Y-98447000D02*
X103702000Y-101347000D01*
X99802000Y-98447000D02*
X103702000Y-98447000D01*
X99802000Y-101347000D02*
X99802000Y-98447000D01*
X103702000Y-101347000D02*
X99802000Y-101347000D01*
X102752000Y-99897000D02*
G75*
G03*
X102752000Y-99897000I-1000000J0D01*
G01*
X105128223Y-74081670D02*
X105835330Y-74788777D01*
X104774670Y-74435223D02*
X105128223Y-74081670D01*
X105481777Y-75142330D02*
X104774670Y-74435223D01*
X105835330Y-74788777D02*
X105481777Y-75142330D01*
X103292330Y-74493223D02*
X102585223Y-75200330D01*
X102938777Y-74139670D02*
X103292330Y-74493223D01*
X102231670Y-74846777D02*
X102938777Y-74139670D01*
X102585223Y-75200330D02*
X102231670Y-74846777D01*
X98040670Y-83574777D02*
X98747777Y-82867670D01*
X98394223Y-83928330D02*
X98040670Y-83574777D01*
X99101330Y-83221223D02*
X98394223Y-83928330D01*
X98747777Y-82867670D02*
X99101330Y-83221223D01*
X109331777Y-80014330D02*
X108624670Y-79307223D01*
X109685330Y-79660777D02*
X109331777Y-80014330D01*
X108978223Y-78953670D02*
X109685330Y-79660777D01*
X108624670Y-79307223D02*
X108978223Y-78953670D01*
X104250000Y-72665000D02*
X104250000Y-73665000D01*
X103750000Y-72665000D02*
X104250000Y-72665000D01*
X103750000Y-73665000D02*
X103750000Y-72665000D01*
X104250000Y-73665000D02*
X103750000Y-73665000D01*
X105603188Y-86398741D02*
X104896081Y-85691634D01*
X105956741Y-86045188D02*
X105603188Y-86398741D01*
X105249634Y-85338081D02*
X105956741Y-86045188D01*
X104896081Y-85691634D02*
X105249634Y-85338081D01*
X100874330Y-75945223D02*
X100167223Y-76652330D01*
X100520777Y-75591670D02*
X100874330Y-75945223D01*
X99813670Y-76298777D02*
X100520777Y-75591670D01*
X100167223Y-76652330D02*
X99813670Y-76298777D01*
X106712330Y-75605223D02*
X106005223Y-76312330D01*
X106358777Y-75251670D02*
X106712330Y-75605223D01*
X105651670Y-75958777D02*
X106358777Y-75251670D01*
X106005223Y-76312330D02*
X105651670Y-75958777D01*
X106805000Y-65839000D02*
X108405000Y-65839000D01*
X106805000Y-66639000D02*
X106805000Y-65839000D01*
X108405000Y-66639000D02*
X106805000Y-66639000D01*
X108405000Y-65839000D02*
X108405000Y-66639000D01*
X103869000Y-66991000D02*
X103869000Y-65991000D01*
X104369000Y-66991000D02*
X103869000Y-66991000D01*
X104369000Y-65991000D02*
X104369000Y-66991000D01*
X103869000Y-65991000D02*
X104369000Y-65991000D01*
X102330000Y-65960000D02*
X102330000Y-67010000D01*
X101790000Y-65960000D02*
X102330000Y-65960000D01*
X101790000Y-67010000D02*
X101790000Y-65960000D01*
X102330000Y-67010000D02*
X101790000Y-67010000D01*
X105420000Y-65970000D02*
X105420000Y-67020000D01*
X104880000Y-65970000D02*
X105420000Y-65970000D01*
X104880000Y-67020000D02*
X104880000Y-65970000D01*
X105420000Y-67020000D02*
X104880000Y-67020000D01*
X102804000Y-66984000D02*
X102804000Y-65984000D01*
X103304000Y-66984000D02*
X102804000Y-66984000D01*
X103304000Y-65984000D02*
X103304000Y-66984000D01*
X102804000Y-65984000D02*
X103304000Y-65984000D01*
X102882893Y-76282359D02*
X104297107Y-76282359D01*
X98640253Y-80525000D02*
X102882893Y-76282359D01*
X103590000Y-85474747D02*
X98640253Y-80525000D01*
X108539747Y-80525000D02*
X103590000Y-85474747D01*
X104297107Y-76282359D02*
X108539747Y-80525000D01*
D11*
X108070000Y-56925000D02*
X99130000Y-56925000D01*
X108070000Y-56925000D02*
X108070000Y-64225000D01*
X99130000Y-56925000D02*
X99130000Y-64225000D01*
X108070000Y-64225000D02*
X99130000Y-64225000D01*
X108972380Y-106547380D02*
X107972380Y-106547380D01*
X108924761Y-106118809D02*
X108972380Y-105975952D01*
X108972380Y-105737857D01*
X108924761Y-105642619D01*
X108877142Y-105595000D01*
X108781904Y-105547380D01*
X108686666Y-105547380D01*
X108591428Y-105595000D01*
X108543809Y-105642619D01*
X108496190Y-105737857D01*
X108448571Y-105928333D01*
X108400952Y-106023571D01*
X108353333Y-106071190D01*
X108258095Y-106118809D01*
X108162857Y-106118809D01*
X108067619Y-106071190D01*
X108020000Y-106023571D01*
X107972380Y-105928333D01*
X107972380Y-105690238D01*
X108020000Y-105547380D01*
X108972380Y-105118809D02*
X107972380Y-105118809D01*
X107972380Y-104737857D01*
X108020000Y-104642619D01*
X108067619Y-104595000D01*
X108162857Y-104547380D01*
X108305714Y-104547380D01*
X108400952Y-104595000D01*
X108448571Y-104642619D01*
X108496190Y-104737857D01*
X108496190Y-105118809D01*
X108972380Y-103595000D02*
X108972380Y-104166428D01*
X108972380Y-103880714D02*
X107972380Y-103880714D01*
X108115238Y-103975952D01*
X108210476Y-104071190D01*
X108258095Y-104166428D01*
X102197619Y-105547380D02*
X102197619Y-104547380D01*
X102626190Y-105499761D02*
X102769047Y-105547380D01*
X103007142Y-105547380D01*
X103102380Y-105499761D01*
X103150000Y-105452142D01*
X103197619Y-105356904D01*
X103197619Y-105261666D01*
X103150000Y-105166428D01*
X103102380Y-105118809D01*
X103007142Y-105071190D01*
X102816666Y-105023571D01*
X102721428Y-104975952D01*
X102673809Y-104928333D01*
X102626190Y-104833095D01*
X102626190Y-104737857D01*
X102673809Y-104642619D01*
X102721428Y-104595000D01*
X102816666Y-104547380D01*
X103054761Y-104547380D01*
X103197619Y-104595000D01*
X103626190Y-105547380D02*
X103626190Y-104547380D01*
X104007142Y-104547380D01*
X104102380Y-104595000D01*
X104150000Y-104642619D01*
X104197619Y-104737857D01*
X104197619Y-104880714D01*
X104150000Y-104975952D01*
X104102380Y-105023571D01*
X104007142Y-105071190D01*
X103626190Y-105071190D01*
X105150000Y-105547380D02*
X104578571Y-105547380D01*
X104864285Y-105547380D02*
X104864285Y-104547380D01*
X104769047Y-104690238D01*
X104673809Y-104785476D01*
X104578571Y-104833095D01*
X108392380Y-62243095D02*
X107392380Y-62243095D01*
X107392380Y-62005000D01*
X107440000Y-61862142D01*
X107535238Y-61766904D01*
X107630476Y-61719285D01*
X107820952Y-61671666D01*
X107963809Y-61671666D01*
X108154285Y-61719285D01*
X108249523Y-61766904D01*
X108344761Y-61862142D01*
X108392380Y-62005000D01*
X108392380Y-62243095D01*
X108392380Y-60719285D02*
X108392380Y-61290714D01*
X108392380Y-61005000D02*
X107392380Y-61005000D01*
X107535238Y-61100238D01*
X107630476Y-61195476D01*
X107678095Y-61290714D01*
X108392380Y-62243095D02*
X107392380Y-62243095D01*
X107392380Y-62005000D01*
X107440000Y-61862142D01*
X107535238Y-61766904D01*
X107630476Y-61719285D01*
X107820952Y-61671666D01*
X107963809Y-61671666D01*
X108154285Y-61719285D01*
X108249523Y-61766904D01*
X108344761Y-61862142D01*
X108392380Y-62005000D01*
X108392380Y-62243095D01*
X108392380Y-60719285D02*
X108392380Y-61290714D01*
X108392380Y-61005000D02*
X107392380Y-61005000D01*
X107535238Y-61100238D01*
X107630476Y-61195476D01*
X107678095Y-61290714D01*
X104906190Y-89731190D02*
X105382380Y-89731190D01*
X104382380Y-90064523D02*
X104906190Y-89731190D01*
X104382380Y-89397857D01*
X105382380Y-88540714D02*
X105382380Y-89112142D01*
X105382380Y-88826428D02*
X104382380Y-88826428D01*
X104525238Y-88921666D01*
X104620476Y-89016904D01*
X104668095Y-89112142D01*
D12*
X102463333Y-89588333D02*
X102796666Y-89588333D01*
X102096666Y-89821666D02*
X102463333Y-89588333D01*
X102096666Y-89355000D01*
X102796666Y-88755000D02*
X102796666Y-89155000D01*
X102796666Y-88955000D02*
X102096666Y-88955000D01*
X102196666Y-89021666D01*
X102263333Y-89088333D01*
X102296666Y-89155000D01*
D11*
X98983333Y-88332142D02*
X98935714Y-88379761D01*
X98792857Y-88427380D01*
X98697619Y-88427380D01*
X98554761Y-88379761D01*
X98459523Y-88284523D01*
X98411904Y-88189285D01*
X98364285Y-87998809D01*
X98364285Y-87855952D01*
X98411904Y-87665476D01*
X98459523Y-87570238D01*
X98554761Y-87475000D01*
X98697619Y-87427380D01*
X98792857Y-87427380D01*
X98935714Y-87475000D01*
X98983333Y-87522619D01*
X99316666Y-87427380D02*
X99983333Y-87427380D01*
X99554761Y-88427380D01*
D13*
X99108333Y-89224285D02*
X99096428Y-89236190D01*
X99060714Y-89248095D01*
X99036904Y-89248095D01*
X99001190Y-89236190D01*
X98977380Y-89212380D01*
X98965476Y-89188571D01*
X98953571Y-89140952D01*
X98953571Y-89105238D01*
X98965476Y-89057619D01*
X98977380Y-89033809D01*
X99001190Y-89010000D01*
X99036904Y-88998095D01*
X99060714Y-88998095D01*
X99096428Y-89010000D01*
X99108333Y-89021904D01*
X99191666Y-88998095D02*
X99358333Y-88998095D01*
X99251190Y-89248095D01*
D11*
X98983333Y-87352142D02*
X98935714Y-87399761D01*
X98792857Y-87447380D01*
X98697619Y-87447380D01*
X98554761Y-87399761D01*
X98459523Y-87304523D01*
X98411904Y-87209285D01*
X98364285Y-87018809D01*
X98364285Y-86875952D01*
X98411904Y-86685476D01*
X98459523Y-86590238D01*
X98554761Y-86495000D01*
X98697619Y-86447380D01*
X98792857Y-86447380D01*
X98935714Y-86495000D01*
X98983333Y-86542619D01*
X99364285Y-86542619D02*
X99411904Y-86495000D01*
X99507142Y-86447380D01*
X99745238Y-86447380D01*
X99840476Y-86495000D01*
X99888095Y-86542619D01*
X99935714Y-86637857D01*
X99935714Y-86733095D01*
X99888095Y-86875952D01*
X99316666Y-87447380D01*
X99935714Y-87447380D01*
D13*
X99108333Y-88244285D02*
X99096428Y-88256190D01*
X99060714Y-88268095D01*
X99036904Y-88268095D01*
X99001190Y-88256190D01*
X98977380Y-88232380D01*
X98965476Y-88208571D01*
X98953571Y-88160952D01*
X98953571Y-88125238D01*
X98965476Y-88077619D01*
X98977380Y-88053809D01*
X99001190Y-88030000D01*
X99036904Y-88018095D01*
X99060714Y-88018095D01*
X99096428Y-88030000D01*
X99108333Y-88041904D01*
X99203571Y-88041904D02*
X99215476Y-88030000D01*
X99239285Y-88018095D01*
X99298809Y-88018095D01*
X99322619Y-88030000D01*
X99334523Y-88041904D01*
X99346428Y-88065714D01*
X99346428Y-88089523D01*
X99334523Y-88125238D01*
X99191666Y-88268095D01*
X99346428Y-88268095D01*
D11*
X104644380Y-92826666D02*
X104168190Y-93160000D01*
X104644380Y-93398095D02*
X103644380Y-93398095D01*
X103644380Y-93017142D01*
X103692000Y-92921904D01*
X103739619Y-92874285D01*
X103834857Y-92826666D01*
X103977714Y-92826666D01*
X104072952Y-92874285D01*
X104120571Y-92921904D01*
X104168190Y-93017142D01*
X104168190Y-93398095D01*
X104644380Y-91874285D02*
X104644380Y-92445714D01*
X104644380Y-92160000D02*
X103644380Y-92160000D01*
X103787238Y-92255238D01*
X103882476Y-92350476D01*
X103930095Y-92445714D01*
D13*
X103139619Y-92703333D02*
X103015809Y-92790000D01*
X103139619Y-92851904D02*
X102879619Y-92851904D01*
X102879619Y-92752857D01*
X102892000Y-92728095D01*
X102904380Y-92715714D01*
X102929142Y-92703333D01*
X102966285Y-92703333D01*
X102991047Y-92715714D01*
X103003428Y-92728095D01*
X103015809Y-92752857D01*
X103015809Y-92851904D01*
X103139619Y-92455714D02*
X103139619Y-92604285D01*
X103139619Y-92530000D02*
X102879619Y-92530000D01*
X102916761Y-92554761D01*
X102941523Y-92579523D01*
X102953904Y-92604285D01*
D11*
X100537714Y-98099380D02*
X100204380Y-97623190D01*
X99966285Y-98099380D02*
X99966285Y-97099380D01*
X100347238Y-97099380D01*
X100442476Y-97147000D01*
X100490095Y-97194619D01*
X100537714Y-97289857D01*
X100537714Y-97432714D01*
X100490095Y-97527952D01*
X100442476Y-97575571D01*
X100347238Y-97623190D01*
X99966285Y-97623190D01*
X100918666Y-98051761D02*
X101061523Y-98099380D01*
X101299619Y-98099380D01*
X101394857Y-98051761D01*
X101442476Y-98004142D01*
X101490095Y-97908904D01*
X101490095Y-97813666D01*
X101442476Y-97718428D01*
X101394857Y-97670809D01*
X101299619Y-97623190D01*
X101109142Y-97575571D01*
X101013904Y-97527952D01*
X100966285Y-97480333D01*
X100918666Y-97385095D01*
X100918666Y-97289857D01*
X100966285Y-97194619D01*
X101013904Y-97147000D01*
X101109142Y-97099380D01*
X101347238Y-97099380D01*
X101490095Y-97147000D01*
X101823428Y-97099380D02*
X102061523Y-98099380D01*
X102252000Y-97385095D01*
X102442476Y-98099380D01*
X102680571Y-97099380D01*
X103585333Y-98099380D02*
X103013904Y-98099380D01*
X103299619Y-98099380D02*
X103299619Y-97099380D01*
X103204380Y-97242238D01*
X103109142Y-97337476D01*
X103013904Y-97385095D01*
X100537714Y-100349380D02*
X100204380Y-99873190D01*
X99966285Y-100349380D02*
X99966285Y-99349380D01*
X100347238Y-99349380D01*
X100442476Y-99397000D01*
X100490095Y-99444619D01*
X100537714Y-99539857D01*
X100537714Y-99682714D01*
X100490095Y-99777952D01*
X100442476Y-99825571D01*
X100347238Y-99873190D01*
X99966285Y-99873190D01*
X100918666Y-100301761D02*
X101061523Y-100349380D01*
X101299619Y-100349380D01*
X101394857Y-100301761D01*
X101442476Y-100254142D01*
X101490095Y-100158904D01*
X101490095Y-100063666D01*
X101442476Y-99968428D01*
X101394857Y-99920809D01*
X101299619Y-99873190D01*
X101109142Y-99825571D01*
X101013904Y-99777952D01*
X100966285Y-99730333D01*
X100918666Y-99635095D01*
X100918666Y-99539857D01*
X100966285Y-99444619D01*
X101013904Y-99397000D01*
X101109142Y-99349380D01*
X101347238Y-99349380D01*
X101490095Y-99397000D01*
X101823428Y-99349380D02*
X102061523Y-100349380D01*
X102252000Y-99635095D01*
X102442476Y-100349380D01*
X102680571Y-99349380D01*
X103585333Y-100349380D02*
X103013904Y-100349380D01*
X103299619Y-100349380D02*
X103299619Y-99349380D01*
X103204380Y-99492238D01*
X103109142Y-99587476D01*
X103013904Y-99635095D01*
X104114366Y-75566931D02*
X104047023Y-75566931D01*
X103912336Y-75499587D01*
X103844992Y-75432244D01*
X103777649Y-75297556D01*
X103777649Y-75162869D01*
X103811320Y-75061854D01*
X103912336Y-74893495D01*
X104013351Y-74792480D01*
X104181710Y-74691465D01*
X104282725Y-74657793D01*
X104417412Y-74657793D01*
X104552099Y-74725137D01*
X104619443Y-74792480D01*
X104686786Y-74927167D01*
X104686786Y-74994511D01*
X105360221Y-75533259D02*
X105225534Y-75398572D01*
X105124519Y-75364900D01*
X105057175Y-75364900D01*
X104888817Y-75398572D01*
X104720458Y-75499587D01*
X104451084Y-75768961D01*
X104417412Y-75869976D01*
X104417412Y-75937320D01*
X104451084Y-76038335D01*
X104585771Y-76173022D01*
X104686786Y-76206694D01*
X104754130Y-76206694D01*
X104855145Y-76173022D01*
X105023504Y-76004663D01*
X105057175Y-75903648D01*
X105057175Y-75836305D01*
X105023504Y-75735289D01*
X104888817Y-75600602D01*
X104787801Y-75566931D01*
X104720458Y-75566931D01*
X104619443Y-75600602D01*
D13*
X105212402Y-74645671D02*
X105195566Y-74645671D01*
X105161895Y-74628835D01*
X105145059Y-74612000D01*
X105128223Y-74578328D01*
X105128223Y-74544656D01*
X105136641Y-74519402D01*
X105161895Y-74477312D01*
X105187148Y-74452059D01*
X105229238Y-74426805D01*
X105254492Y-74418387D01*
X105288164Y-74418387D01*
X105321835Y-74435223D01*
X105338671Y-74452059D01*
X105355507Y-74485730D01*
X105355507Y-74502566D01*
X105523866Y-74637253D02*
X105490194Y-74603582D01*
X105464940Y-74595164D01*
X105448104Y-74595164D01*
X105406015Y-74603582D01*
X105363925Y-74628835D01*
X105296582Y-74696179D01*
X105288164Y-74721433D01*
X105288164Y-74738269D01*
X105296582Y-74763522D01*
X105330253Y-74797194D01*
X105355507Y-74805612D01*
X105372343Y-74805612D01*
X105397597Y-74797194D01*
X105439687Y-74755104D01*
X105448104Y-74729851D01*
X105448104Y-74713015D01*
X105439687Y-74687761D01*
X105406015Y-74654089D01*
X105380761Y-74645671D01*
X105363925Y-74645671D01*
X105338671Y-74654089D01*
D11*
X102076443Y-74220145D02*
X102076443Y-74287488D01*
X102009099Y-74422175D01*
X101941756Y-74489519D01*
X101807068Y-74556862D01*
X101672381Y-74556862D01*
X101571366Y-74523191D01*
X101403007Y-74422175D01*
X101301992Y-74321160D01*
X101200977Y-74152801D01*
X101167305Y-74051786D01*
X101167305Y-73917099D01*
X101234649Y-73782412D01*
X101301992Y-73715068D01*
X101436679Y-73647725D01*
X101504023Y-73647725D01*
X102076443Y-72940618D02*
X101739725Y-73277336D01*
X102042771Y-73647725D01*
X102042771Y-73580381D01*
X102076443Y-73479366D01*
X102244801Y-73311007D01*
X102345817Y-73277336D01*
X102413160Y-73277336D01*
X102514175Y-73311007D01*
X102682534Y-73479366D01*
X102716206Y-73580381D01*
X102716206Y-73647725D01*
X102682534Y-73748740D01*
X102514175Y-73917099D01*
X102413160Y-73950771D01*
X102345817Y-73950771D01*
D13*
X102795671Y-74762597D02*
X102795671Y-74779433D01*
X102778835Y-74813104D01*
X102762000Y-74829940D01*
X102728328Y-74846776D01*
X102694656Y-74846776D01*
X102669402Y-74838358D01*
X102627312Y-74813104D01*
X102602059Y-74787851D01*
X102576805Y-74745761D01*
X102568387Y-74720507D01*
X102568387Y-74686835D01*
X102585223Y-74653164D01*
X102602059Y-74636328D01*
X102635730Y-74619492D01*
X102652566Y-74619492D01*
X102795671Y-74442715D02*
X102711492Y-74526895D01*
X102787253Y-74619492D01*
X102787253Y-74602656D01*
X102795671Y-74577402D01*
X102837761Y-74535312D01*
X102863015Y-74526895D01*
X102879851Y-74526895D01*
X102905104Y-74535312D01*
X102947194Y-74577402D01*
X102955612Y-74602656D01*
X102955612Y-74619492D01*
X102947194Y-74644746D01*
X102905104Y-74686835D01*
X102879851Y-74695253D01*
X102863015Y-74695253D01*
D11*
X99189213Y-84925350D02*
X99189213Y-84992694D01*
X99121869Y-85127381D01*
X99054526Y-85194724D01*
X98919839Y-85262068D01*
X98785152Y-85262068D01*
X98684137Y-85228396D01*
X98515778Y-85127381D01*
X98414763Y-85026366D01*
X98313747Y-84858007D01*
X98280076Y-84756992D01*
X98280076Y-84622305D01*
X98347419Y-84487618D01*
X98414763Y-84420274D01*
X98549450Y-84352931D01*
X98616793Y-84352931D01*
X99929992Y-84319259D02*
X99525931Y-84723320D01*
X99727961Y-84521289D02*
X99020854Y-83814182D01*
X99054526Y-83982541D01*
X99054526Y-84117228D01*
X99020854Y-84218244D01*
X99458587Y-83376450D02*
X99896320Y-82938717D01*
X99929992Y-83443793D01*
X100031007Y-83342778D01*
X100132022Y-83309106D01*
X100199366Y-83309106D01*
X100300381Y-83342778D01*
X100468740Y-83511137D01*
X100502411Y-83612152D01*
X100502411Y-83679495D01*
X100468740Y-83780511D01*
X100266709Y-83982541D01*
X100165694Y-84016213D01*
X100098350Y-84016213D01*
D13*
X98520492Y-83574776D02*
X98520492Y-83591612D01*
X98503656Y-83625284D01*
X98486820Y-83642120D01*
X98453148Y-83658956D01*
X98419477Y-83658956D01*
X98394223Y-83650538D01*
X98352133Y-83625284D01*
X98326879Y-83600030D01*
X98301625Y-83557940D01*
X98293208Y-83532687D01*
X98293208Y-83499015D01*
X98310043Y-83465343D01*
X98326879Y-83448507D01*
X98360551Y-83431671D01*
X98377387Y-83431671D01*
X98705687Y-83423253D02*
X98604671Y-83524269D01*
X98655179Y-83473761D02*
X98478402Y-83296984D01*
X98486820Y-83339074D01*
X98486820Y-83372746D01*
X98478402Y-83398000D01*
X98587835Y-83187551D02*
X98697269Y-83078118D01*
X98705687Y-83204387D01*
X98730940Y-83179133D01*
X98756194Y-83170715D01*
X98773030Y-83170715D01*
X98798284Y-83179133D01*
X98840374Y-83221223D01*
X98848791Y-83246477D01*
X98848791Y-83263312D01*
X98840374Y-83288566D01*
X98789866Y-83339074D01*
X98764612Y-83347492D01*
X98747776Y-83347492D01*
D11*
X109268137Y-78461725D02*
X109200793Y-78461725D01*
X109066106Y-78394381D01*
X108998763Y-78327038D01*
X108931419Y-78192351D01*
X108931419Y-78057664D01*
X108965091Y-77956649D01*
X109066106Y-77788290D01*
X109167121Y-77687275D01*
X109335480Y-77586259D01*
X109436495Y-77552588D01*
X109571182Y-77552588D01*
X109705869Y-77619931D01*
X109773213Y-77687275D01*
X109840556Y-77821962D01*
X109840556Y-77889305D01*
X109874228Y-79202504D02*
X109470167Y-78798443D01*
X109672198Y-79000473D02*
X110379305Y-78293366D01*
X110210946Y-78327038D01*
X110076259Y-78327038D01*
X109975244Y-78293366D01*
X110547663Y-79875939D02*
X110143602Y-79471878D01*
X110345633Y-79673908D02*
X111052740Y-78966801D01*
X110884381Y-79000473D01*
X110749694Y-79000473D01*
X110648679Y-78966801D01*
D13*
X108978223Y-79433492D02*
X108961387Y-79433492D01*
X108927715Y-79416656D01*
X108910879Y-79399820D01*
X108894043Y-79366148D01*
X108894043Y-79332477D01*
X108902461Y-79307223D01*
X108927715Y-79265133D01*
X108952969Y-79239879D01*
X108995059Y-79214625D01*
X109020312Y-79206208D01*
X109053984Y-79206208D01*
X109087656Y-79223043D01*
X109104492Y-79239879D01*
X109121328Y-79273551D01*
X109121328Y-79290387D01*
X109129746Y-79618687D02*
X109028730Y-79517671D01*
X109079238Y-79568179D02*
X109256015Y-79391402D01*
X109213925Y-79399820D01*
X109180253Y-79399820D01*
X109155000Y-79391402D01*
X109298104Y-79787045D02*
X109197089Y-79686030D01*
X109247597Y-79736538D02*
X109424374Y-79559761D01*
X109382284Y-79568179D01*
X109348612Y-79568179D01*
X109323358Y-79559761D01*
D11*
X103197142Y-73807857D02*
X103244761Y-73855476D01*
X103292380Y-73998333D01*
X103292380Y-74093571D01*
X103244761Y-74236428D01*
X103149523Y-74331666D01*
X103054285Y-74379285D01*
X102863809Y-74426904D01*
X102720952Y-74426904D01*
X102530476Y-74379285D01*
X102435238Y-74331666D01*
X102340000Y-74236428D01*
X102292380Y-74093571D01*
X102292380Y-73998333D01*
X102340000Y-73855476D01*
X102387619Y-73807857D01*
X103292380Y-72855476D02*
X103292380Y-73426904D01*
X103292380Y-73141190D02*
X102292380Y-73141190D01*
X102435238Y-73236428D01*
X102530476Y-73331666D01*
X102578095Y-73426904D01*
X102292380Y-72236428D02*
X102292380Y-72141190D01*
X102340000Y-72045952D01*
X102387619Y-71998333D01*
X102482857Y-71950714D01*
X102673333Y-71903095D01*
X102911428Y-71903095D01*
X103101904Y-71950714D01*
X103197142Y-71998333D01*
X103244761Y-72045952D01*
X103292380Y-72141190D01*
X103292380Y-72236428D01*
X103244761Y-72331666D01*
X103197142Y-72379285D01*
X103101904Y-72426904D01*
X102911428Y-72474523D01*
X102673333Y-72474523D01*
X102482857Y-72426904D01*
X102387619Y-72379285D01*
X102340000Y-72331666D01*
X102292380Y-72236428D01*
D13*
X104089285Y-73325714D02*
X104101190Y-73337619D01*
X104113095Y-73373333D01*
X104113095Y-73397142D01*
X104101190Y-73432857D01*
X104077380Y-73456666D01*
X104053571Y-73468571D01*
X104005952Y-73480476D01*
X103970238Y-73480476D01*
X103922619Y-73468571D01*
X103898809Y-73456666D01*
X103875000Y-73432857D01*
X103863095Y-73397142D01*
X103863095Y-73373333D01*
X103875000Y-73337619D01*
X103886904Y-73325714D01*
X104113095Y-73087619D02*
X104113095Y-73230476D01*
X104113095Y-73159047D02*
X103863095Y-73159047D01*
X103898809Y-73182857D01*
X103922619Y-73206666D01*
X103934523Y-73230476D01*
X103863095Y-72932857D02*
X103863095Y-72909047D01*
X103875000Y-72885238D01*
X103886904Y-72873333D01*
X103910714Y-72861428D01*
X103958333Y-72849523D01*
X104017857Y-72849523D01*
X104065476Y-72861428D01*
X104089285Y-72873333D01*
X104101190Y-72885238D01*
X104113095Y-72909047D01*
X104113095Y-72932857D01*
X104101190Y-72956666D01*
X104089285Y-72968571D01*
X104065476Y-72980476D01*
X104017857Y-72992380D01*
X103958333Y-72992380D01*
X103910714Y-72980476D01*
X103886904Y-72968571D01*
X103875000Y-72956666D01*
X103863095Y-72932857D01*
D11*
X105876265Y-85182854D02*
X105808922Y-85182854D01*
X105674235Y-85115510D01*
X105606891Y-85048167D01*
X105539548Y-84913479D01*
X105539548Y-84778792D01*
X105573219Y-84677777D01*
X105674235Y-84509418D01*
X105775250Y-84408403D01*
X105943609Y-84307388D01*
X106044624Y-84273716D01*
X106179311Y-84273716D01*
X106313998Y-84341060D01*
X106381342Y-84408403D01*
X106448685Y-84543090D01*
X106448685Y-84610434D01*
X106617044Y-85250197D02*
X106583372Y-85149182D01*
X106583372Y-85081838D01*
X106617044Y-84980823D01*
X106650716Y-84947151D01*
X106751731Y-84913479D01*
X106819074Y-84913479D01*
X106920090Y-84947151D01*
X107054777Y-85081838D01*
X107088448Y-85182854D01*
X107088448Y-85250197D01*
X107054777Y-85351212D01*
X107021105Y-85384884D01*
X106920090Y-85418556D01*
X106852746Y-85418556D01*
X106751731Y-85384884D01*
X106617044Y-85250197D01*
X106516029Y-85216525D01*
X106448685Y-85216525D01*
X106347670Y-85250197D01*
X106212983Y-85384884D01*
X106179311Y-85485899D01*
X106179311Y-85553243D01*
X106212983Y-85654258D01*
X106347670Y-85788945D01*
X106448685Y-85822617D01*
X106516029Y-85822617D01*
X106617044Y-85788945D01*
X106751731Y-85654258D01*
X106785403Y-85553243D01*
X106785403Y-85485899D01*
X106751731Y-85384884D01*
D13*
X105333813Y-85902082D02*
X105316977Y-85902082D01*
X105283306Y-85885246D01*
X105266470Y-85868411D01*
X105249634Y-85834739D01*
X105249634Y-85801067D01*
X105258052Y-85775813D01*
X105283306Y-85733723D01*
X105308559Y-85708470D01*
X105350649Y-85683216D01*
X105375903Y-85674798D01*
X105409575Y-85674798D01*
X105443246Y-85691634D01*
X105460082Y-85708470D01*
X105476918Y-85742141D01*
X105476918Y-85758977D01*
X105519008Y-85918918D02*
X105510590Y-85893664D01*
X105510590Y-85876828D01*
X105519008Y-85851575D01*
X105527426Y-85843157D01*
X105552680Y-85834739D01*
X105569515Y-85834739D01*
X105594769Y-85843157D01*
X105628441Y-85876828D01*
X105636859Y-85902082D01*
X105636859Y-85918918D01*
X105628441Y-85944172D01*
X105620023Y-85952590D01*
X105594769Y-85961008D01*
X105577933Y-85961008D01*
X105552680Y-85952590D01*
X105519008Y-85918918D01*
X105493754Y-85910500D01*
X105476918Y-85910500D01*
X105451664Y-85918918D01*
X105417993Y-85952590D01*
X105409575Y-85977844D01*
X105409575Y-85994680D01*
X105417993Y-86019933D01*
X105451664Y-86053605D01*
X105476918Y-86062023D01*
X105493754Y-86062023D01*
X105519008Y-86053605D01*
X105552680Y-86019933D01*
X105561098Y-85994680D01*
X105561098Y-85977844D01*
X105552680Y-85952590D01*
D11*
X99658443Y-75672145D02*
X99658443Y-75739488D01*
X99591099Y-75874175D01*
X99523756Y-75941519D01*
X99389068Y-76008862D01*
X99254381Y-76008862D01*
X99153366Y-75975191D01*
X98985007Y-75874175D01*
X98883992Y-75773160D01*
X98782977Y-75604801D01*
X98749305Y-75503786D01*
X98749305Y-75369099D01*
X98816649Y-75234412D01*
X98883992Y-75167068D01*
X99018679Y-75099725D01*
X99086023Y-75099725D01*
X99860473Y-74661992D02*
X100331878Y-75133397D01*
X99422740Y-74560977D02*
X99759458Y-75234412D01*
X100197191Y-74796679D01*
D13*
X100377671Y-76214597D02*
X100377671Y-76231433D01*
X100360835Y-76265104D01*
X100344000Y-76281940D01*
X100310328Y-76298776D01*
X100276656Y-76298776D01*
X100251402Y-76290358D01*
X100209312Y-76265104D01*
X100184059Y-76239851D01*
X100158805Y-76197761D01*
X100150387Y-76172507D01*
X100150387Y-76138835D01*
X100167223Y-76105164D01*
X100184059Y-76088328D01*
X100217730Y-76071492D01*
X100234566Y-76071492D01*
X100428179Y-75962059D02*
X100546030Y-76079910D01*
X100318746Y-75936805D02*
X100402925Y-76105164D01*
X100512358Y-75995730D01*
D11*
X105496443Y-75332145D02*
X105496443Y-75399488D01*
X105429099Y-75534175D01*
X105361756Y-75601519D01*
X105227068Y-75668862D01*
X105092381Y-75668862D01*
X104991366Y-75635191D01*
X104823007Y-75534175D01*
X104721992Y-75433160D01*
X104620977Y-75264801D01*
X104587305Y-75163786D01*
X104587305Y-75029099D01*
X104654649Y-74894412D01*
X104721992Y-74827068D01*
X104856679Y-74759725D01*
X104924023Y-74759725D01*
X105092381Y-74456679D02*
X105530114Y-74018946D01*
X105563786Y-74524023D01*
X105664801Y-74423007D01*
X105765817Y-74389336D01*
X105833160Y-74389336D01*
X105934175Y-74423007D01*
X106102534Y-74591366D01*
X106136206Y-74692381D01*
X106136206Y-74759725D01*
X106102534Y-74860740D01*
X105900504Y-75062771D01*
X105799488Y-75096443D01*
X105732145Y-75096443D01*
D13*
X106215671Y-75874597D02*
X106215671Y-75891433D01*
X106198835Y-75925104D01*
X106182000Y-75941940D01*
X106148328Y-75958776D01*
X106114656Y-75958776D01*
X106089402Y-75950358D01*
X106047312Y-75925104D01*
X106022059Y-75899851D01*
X105996805Y-75857761D01*
X105988387Y-75832507D01*
X105988387Y-75798835D01*
X106005223Y-75765164D01*
X106022059Y-75748328D01*
X106055730Y-75731492D01*
X106072566Y-75731492D01*
X106114656Y-75655730D02*
X106224089Y-75546297D01*
X106232507Y-75672566D01*
X106257761Y-75647312D01*
X106283015Y-75638895D01*
X106299851Y-75638895D01*
X106325104Y-75647312D01*
X106367194Y-75689402D01*
X106375612Y-75714656D01*
X106375612Y-75731492D01*
X106367194Y-75756746D01*
X106316687Y-75807253D01*
X106291433Y-75815671D01*
X106274597Y-75815671D01*
D11*
X107438333Y-68026142D02*
X107390714Y-68073761D01*
X107247857Y-68121380D01*
X107152619Y-68121380D01*
X107009761Y-68073761D01*
X106914523Y-67978523D01*
X106866904Y-67883285D01*
X106819285Y-67692809D01*
X106819285Y-67549952D01*
X106866904Y-67359476D01*
X106914523Y-67264238D01*
X107009761Y-67169000D01*
X107152619Y-67121380D01*
X107247857Y-67121380D01*
X107390714Y-67169000D01*
X107438333Y-67216619D01*
X108390714Y-68121380D02*
X107819285Y-68121380D01*
X108105000Y-68121380D02*
X108105000Y-67121380D01*
X108009761Y-67264238D01*
X107914523Y-67359476D01*
X107819285Y-67407095D01*
D14*
X107538333Y-66381857D02*
X107519285Y-66400904D01*
X107462142Y-66419952D01*
X107424047Y-66419952D01*
X107366904Y-66400904D01*
X107328809Y-66362809D01*
X107309761Y-66324714D01*
X107290714Y-66248523D01*
X107290714Y-66191380D01*
X107309761Y-66115190D01*
X107328809Y-66077095D01*
X107366904Y-66039000D01*
X107424047Y-66019952D01*
X107462142Y-66019952D01*
X107519285Y-66039000D01*
X107538333Y-66058047D01*
X107919285Y-66419952D02*
X107690714Y-66419952D01*
X107805000Y-66419952D02*
X107805000Y-66019952D01*
X107766904Y-66077095D01*
X107728809Y-66115190D01*
X107690714Y-66134238D01*
D11*
X105731380Y-66657666D02*
X105255190Y-66991000D01*
X105731380Y-67229095D02*
X104731380Y-67229095D01*
X104731380Y-66848142D01*
X104779000Y-66752904D01*
X104826619Y-66705285D01*
X104921857Y-66657666D01*
X105064714Y-66657666D01*
X105159952Y-66705285D01*
X105207571Y-66752904D01*
X105255190Y-66848142D01*
X105255190Y-67229095D01*
X104731380Y-66324333D02*
X104731380Y-65705285D01*
X105112333Y-66038619D01*
X105112333Y-65895761D01*
X105159952Y-65800523D01*
X105207571Y-65752904D01*
X105302809Y-65705285D01*
X105540904Y-65705285D01*
X105636142Y-65752904D01*
X105683761Y-65800523D01*
X105731380Y-65895761D01*
X105731380Y-66181476D01*
X105683761Y-66276714D01*
X105636142Y-66324333D01*
D13*
X104232095Y-66532666D02*
X104113047Y-66616000D01*
X104232095Y-66675523D02*
X103982095Y-66675523D01*
X103982095Y-66580285D01*
X103994000Y-66556476D01*
X104005904Y-66544571D01*
X104029714Y-66532666D01*
X104065428Y-66532666D01*
X104089238Y-66544571D01*
X104101142Y-66556476D01*
X104113047Y-66580285D01*
X104113047Y-66675523D01*
X103982095Y-66449333D02*
X103982095Y-66294571D01*
X104077333Y-66377904D01*
X104077333Y-66342190D01*
X104089238Y-66318380D01*
X104101142Y-66306476D01*
X104124952Y-66294571D01*
X104184476Y-66294571D01*
X104208285Y-66306476D01*
X104220190Y-66318380D01*
X104232095Y-66342190D01*
X104232095Y-66413619D01*
X104220190Y-66437428D01*
X104208285Y-66449333D01*
D11*
X101342380Y-66651666D02*
X100866190Y-66985000D01*
X101342380Y-67223095D02*
X100342380Y-67223095D01*
X100342380Y-66842142D01*
X100390000Y-66746904D01*
X100437619Y-66699285D01*
X100532857Y-66651666D01*
X100675714Y-66651666D01*
X100770952Y-66699285D01*
X100818571Y-66746904D01*
X100866190Y-66842142D01*
X100866190Y-67223095D01*
X100342380Y-65794523D02*
X100342380Y-65985000D01*
X100390000Y-66080238D01*
X100437619Y-66127857D01*
X100580476Y-66223095D01*
X100770952Y-66270714D01*
X101151904Y-66270714D01*
X101247142Y-66223095D01*
X101294761Y-66175476D01*
X101342380Y-66080238D01*
X101342380Y-65889761D01*
X101294761Y-65794523D01*
X101247142Y-65746904D01*
X101151904Y-65699285D01*
X100913809Y-65699285D01*
X100818571Y-65746904D01*
X100770952Y-65794523D01*
X100723333Y-65889761D01*
X100723333Y-66080238D01*
X100770952Y-66175476D01*
X100818571Y-66223095D01*
X100913809Y-66270714D01*
D13*
X102177619Y-66528333D02*
X102053809Y-66615000D01*
X102177619Y-66676904D02*
X101917619Y-66676904D01*
X101917619Y-66577857D01*
X101930000Y-66553095D01*
X101942380Y-66540714D01*
X101967142Y-66528333D01*
X102004285Y-66528333D01*
X102029047Y-66540714D01*
X102041428Y-66553095D01*
X102053809Y-66577857D01*
X102053809Y-66676904D01*
X101917619Y-66305476D02*
X101917619Y-66355000D01*
X101930000Y-66379761D01*
X101942380Y-66392142D01*
X101979523Y-66416904D01*
X102029047Y-66429285D01*
X102128095Y-66429285D01*
X102152857Y-66416904D01*
X102165238Y-66404523D01*
X102177619Y-66379761D01*
X102177619Y-66330238D01*
X102165238Y-66305476D01*
X102152857Y-66293095D01*
X102128095Y-66280714D01*
X102066190Y-66280714D01*
X102041428Y-66293095D01*
X102029047Y-66305476D01*
X102016666Y-66330238D01*
X102016666Y-66379761D01*
X102029047Y-66404523D01*
X102041428Y-66416904D01*
X102066190Y-66429285D01*
D11*
X104432380Y-66661666D02*
X103956190Y-66995000D01*
X104432380Y-67233095D02*
X103432380Y-67233095D01*
X103432380Y-66852142D01*
X103480000Y-66756904D01*
X103527619Y-66709285D01*
X103622857Y-66661666D01*
X103765714Y-66661666D01*
X103860952Y-66709285D01*
X103908571Y-66756904D01*
X103956190Y-66852142D01*
X103956190Y-67233095D01*
X103432380Y-65756904D02*
X103432380Y-66233095D01*
X103908571Y-66280714D01*
X103860952Y-66233095D01*
X103813333Y-66137857D01*
X103813333Y-65899761D01*
X103860952Y-65804523D01*
X103908571Y-65756904D01*
X104003809Y-65709285D01*
X104241904Y-65709285D01*
X104337142Y-65756904D01*
X104384761Y-65804523D01*
X104432380Y-65899761D01*
X104432380Y-66137857D01*
X104384761Y-66233095D01*
X104337142Y-66280714D01*
D13*
X105267619Y-66538333D02*
X105143809Y-66625000D01*
X105267619Y-66686904D02*
X105007619Y-66686904D01*
X105007619Y-66587857D01*
X105020000Y-66563095D01*
X105032380Y-66550714D01*
X105057142Y-66538333D01*
X105094285Y-66538333D01*
X105119047Y-66550714D01*
X105131428Y-66563095D01*
X105143809Y-66587857D01*
X105143809Y-66686904D01*
X105007619Y-66303095D02*
X105007619Y-66426904D01*
X105131428Y-66439285D01*
X105119047Y-66426904D01*
X105106666Y-66402142D01*
X105106666Y-66340238D01*
X105119047Y-66315476D01*
X105131428Y-66303095D01*
X105156190Y-66290714D01*
X105218095Y-66290714D01*
X105242857Y-66303095D01*
X105255238Y-66315476D01*
X105267619Y-66340238D01*
X105267619Y-66402142D01*
X105255238Y-66426904D01*
X105242857Y-66439285D01*
D11*
X104666380Y-66650666D02*
X104190190Y-66984000D01*
X104666380Y-67222095D02*
X103666380Y-67222095D01*
X103666380Y-66841142D01*
X103714000Y-66745904D01*
X103761619Y-66698285D01*
X103856857Y-66650666D01*
X103999714Y-66650666D01*
X104094952Y-66698285D01*
X104142571Y-66745904D01*
X104190190Y-66841142D01*
X104190190Y-67222095D01*
X103999714Y-65793523D02*
X104666380Y-65793523D01*
X103618761Y-66031619D02*
X104333047Y-66269714D01*
X104333047Y-65650666D01*
D13*
X103167095Y-66525666D02*
X103048047Y-66609000D01*
X103167095Y-66668523D02*
X102917095Y-66668523D01*
X102917095Y-66573285D01*
X102929000Y-66549476D01*
X102940904Y-66537571D01*
X102964714Y-66525666D01*
X103000428Y-66525666D01*
X103024238Y-66537571D01*
X103036142Y-66549476D01*
X103048047Y-66573285D01*
X103048047Y-66668523D01*
X103000428Y-66311380D02*
X103167095Y-66311380D01*
X102905190Y-66370904D02*
X103083761Y-66430428D01*
X103083761Y-66275666D01*
D11*
X106846732Y-76190771D02*
X106274312Y-76763191D01*
X106240640Y-76864206D01*
X106240640Y-76931550D01*
X106274312Y-77032565D01*
X106408999Y-77167252D01*
X106510014Y-77200924D01*
X106577358Y-77200924D01*
X106678373Y-77167252D01*
X107250793Y-76594832D01*
X107250793Y-78009046D02*
X106846732Y-77604985D01*
X107048762Y-77807015D02*
X107755869Y-77099909D01*
X107587510Y-77133580D01*
X107452823Y-77133580D01*
X107351808Y-77099909D01*
X103438477Y-79599026D02*
X102866057Y-80171446D01*
X102832385Y-80272461D01*
X102832385Y-80339805D01*
X102866057Y-80440820D01*
X103000744Y-80575507D01*
X103101759Y-80609179D01*
X103169103Y-80609179D01*
X103270118Y-80575507D01*
X103842538Y-80003087D01*
X103842538Y-81417301D02*
X103438477Y-81013240D01*
X103640507Y-81215270D02*
X104347614Y-80508164D01*
X104179255Y-80541835D01*
X104044568Y-80541835D01*
X103943553Y-80508164D01*
X112196666Y-55847380D02*
X112196666Y-56561666D01*
X112149047Y-56704523D01*
X112053809Y-56799761D01*
X111910952Y-56847380D01*
X111815714Y-56847380D01*
X113101428Y-56180714D02*
X113101428Y-56847380D01*
X112863333Y-55799761D02*
X112625238Y-56514047D01*
X113244285Y-56514047D01*
X111982380Y-82521666D02*
X112696666Y-82521666D01*
X112839523Y-82474047D01*
X112934761Y-82378809D01*
X112982380Y-82235952D01*
X112982380Y-82140714D01*
X112315714Y-83426428D02*
X112982380Y-83426428D01*
X111934761Y-83188333D02*
X112649047Y-82950238D01*
X112649047Y-83569285D01*
X113702380Y-82521666D02*
X114416666Y-82521666D01*
X114559523Y-82474047D01*
X114654761Y-82378809D01*
X114702380Y-82235952D01*
X114702380Y-82140714D01*
X114035714Y-83426428D02*
X114702380Y-83426428D01*
X113654761Y-83188333D02*
X114369047Y-82950238D01*
X114369047Y-83569285D01*
X94202380Y-82521666D02*
X94916666Y-82521666D01*
X95059523Y-82474047D01*
X95154761Y-82378809D01*
X95202380Y-82235952D01*
X95202380Y-82140714D01*
X94202380Y-82902619D02*
X94202380Y-83521666D01*
X94583333Y-83188333D01*
X94583333Y-83331190D01*
X94630952Y-83426428D01*
X94678571Y-83474047D01*
X94773809Y-83521666D01*
X95011904Y-83521666D01*
X95107142Y-83474047D01*
X95154761Y-83426428D01*
X95202380Y-83331190D01*
X95202380Y-83045476D01*
X95154761Y-82950238D01*
X95107142Y-82902619D01*
X92502380Y-82511666D02*
X93216666Y-82511666D01*
X93359523Y-82464047D01*
X93454761Y-82368809D01*
X93502380Y-82225952D01*
X93502380Y-82130714D01*
X92502380Y-82892619D02*
X92502380Y-83511666D01*
X92883333Y-83178333D01*
X92883333Y-83321190D01*
X92930952Y-83416428D01*
X92978571Y-83464047D01*
X93073809Y-83511666D01*
X93311904Y-83511666D01*
X93407142Y-83464047D01*
X93454761Y-83416428D01*
X93502380Y-83321190D01*
X93502380Y-83035476D01*
X93454761Y-82940238D01*
X93407142Y-82892619D01*
X101861904Y-62022380D02*
X101861904Y-62831904D01*
X101909523Y-62927142D01*
X101957142Y-62974761D01*
X102052380Y-63022380D01*
X102242857Y-63022380D01*
X102338095Y-62974761D01*
X102385714Y-62927142D01*
X102433333Y-62831904D01*
X102433333Y-62022380D01*
X102861904Y-62974761D02*
X103004761Y-63022380D01*
X103242857Y-63022380D01*
X103338095Y-62974761D01*
X103385714Y-62927142D01*
X103433333Y-62831904D01*
X103433333Y-62736666D01*
X103385714Y-62641428D01*
X103338095Y-62593809D01*
X103242857Y-62546190D01*
X103052380Y-62498571D01*
X102957142Y-62450952D01*
X102909523Y-62403333D01*
X102861904Y-62308095D01*
X102861904Y-62212857D01*
X102909523Y-62117619D01*
X102957142Y-62070000D01*
X103052380Y-62022380D01*
X103290476Y-62022380D01*
X103433333Y-62070000D01*
X104195238Y-62498571D02*
X104338095Y-62546190D01*
X104385714Y-62593809D01*
X104433333Y-62689047D01*
X104433333Y-62831904D01*
X104385714Y-62927142D01*
X104338095Y-62974761D01*
X104242857Y-63022380D01*
X103861904Y-63022380D01*
X103861904Y-62022380D01*
X104195238Y-62022380D01*
X104290476Y-62070000D01*
X104338095Y-62117619D01*
X104385714Y-62212857D01*
X104385714Y-62308095D01*
X104338095Y-62403333D01*
X104290476Y-62450952D01*
X104195238Y-62498571D01*
X103861904Y-62498571D01*
X105385714Y-63022380D02*
X104814285Y-63022380D01*
X105100000Y-63022380D02*
X105100000Y-62022380D01*
X105004761Y-62165238D01*
X104909523Y-62260476D01*
X104814285Y-62308095D01*
X101861904Y-62027380D02*
X101861904Y-62836904D01*
X101909523Y-62932142D01*
X101957142Y-62979761D01*
X102052380Y-63027380D01*
X102242857Y-63027380D01*
X102338095Y-62979761D01*
X102385714Y-62932142D01*
X102433333Y-62836904D01*
X102433333Y-62027380D01*
X102861904Y-62979761D02*
X103004761Y-63027380D01*
X103242857Y-63027380D01*
X103338095Y-62979761D01*
X103385714Y-62932142D01*
X103433333Y-62836904D01*
X103433333Y-62741666D01*
X103385714Y-62646428D01*
X103338095Y-62598809D01*
X103242857Y-62551190D01*
X103052380Y-62503571D01*
X102957142Y-62455952D01*
X102909523Y-62408333D01*
X102861904Y-62313095D01*
X102861904Y-62217857D01*
X102909523Y-62122619D01*
X102957142Y-62075000D01*
X103052380Y-62027380D01*
X103290476Y-62027380D01*
X103433333Y-62075000D01*
X104195238Y-62503571D02*
X104338095Y-62551190D01*
X104385714Y-62598809D01*
X104433333Y-62694047D01*
X104433333Y-62836904D01*
X104385714Y-62932142D01*
X104338095Y-62979761D01*
X104242857Y-63027380D01*
X103861904Y-63027380D01*
X103861904Y-62027380D01*
X104195238Y-62027380D01*
X104290476Y-62075000D01*
X104338095Y-62122619D01*
X104385714Y-62217857D01*
X104385714Y-62313095D01*
X104338095Y-62408333D01*
X104290476Y-62455952D01*
X104195238Y-62503571D01*
X103861904Y-62503571D01*
X105385714Y-63027380D02*
X104814285Y-63027380D01*
X105100000Y-63027380D02*
X105100000Y-62027380D01*
X105004761Y-62170238D01*
X104909523Y-62265476D01*
X104814285Y-62313095D01*
M02*
