G04 #@! TF.GenerationSoftware,KiCad,Pcbnew,(5.1.10)-1*
G04 #@! TF.CreationDate,2021-09-15T22:42:09+01:00*
G04 #@! TF.ProjectId,32u4-Pico,33327534-2d50-4696-936f-2e6b69636164,REV1*
G04 #@! TF.SameCoordinates,Original*
G04 #@! TF.FileFunction,Copper,L2,Bot*
G04 #@! TF.FilePolarity,Positive*
%FSLAX46Y46*%
G04 Gerber Fmt 4.6, Leading zero omitted, Abs format (unit mm)*
G04 Created by KiCad (PCBNEW (5.1.10)-1) date 2021-09-15 22:42:09*
%MOMM*%
%LPD*%
G01*
G04 APERTURE LIST*
G04 #@! TA.AperFunction,ComponentPad*
%ADD10O,1.700000X1.700000*%
G04 #@! TD*
G04 #@! TA.AperFunction,ComponentPad*
%ADD11R,1.700000X1.700000*%
G04 #@! TD*
G04 #@! TA.AperFunction,ComponentPad*
%ADD12R,3.500000X1.700000*%
G04 #@! TD*
G04 #@! TA.AperFunction,ComponentPad*
%ADD13C,1.700000*%
G04 #@! TD*
G04 #@! TA.AperFunction,ComponentPad*
%ADD14O,1.000000X2.100000*%
G04 #@! TD*
G04 #@! TA.AperFunction,ComponentPad*
%ADD15O,1.000000X1.600000*%
G04 #@! TD*
G04 #@! TA.AperFunction,ViaPad*
%ADD16C,0.400000*%
G04 #@! TD*
G04 #@! TA.AperFunction,ViaPad*
%ADD17C,0.600000*%
G04 #@! TD*
G04 #@! TA.AperFunction,Conductor*
%ADD18C,0.300000*%
G04 #@! TD*
G04 #@! TA.AperFunction,Conductor*
%ADD19C,0.600000*%
G04 #@! TD*
G04 #@! TA.AperFunction,Conductor*
%ADD20C,0.150000*%
G04 #@! TD*
G04 #@! TA.AperFunction,Conductor*
%ADD21C,0.200000*%
G04 #@! TD*
G04 #@! TA.AperFunction,Conductor*
%ADD22C,0.400000*%
G04 #@! TD*
G04 #@! TA.AperFunction,Conductor*
%ADD23C,0.250000*%
G04 #@! TD*
G04 APERTURE END LIST*
D10*
X101110000Y-106365000D03*
X101110000Y-103825000D03*
X103650000Y-106365000D03*
X103650000Y-103825000D03*
X106190000Y-106365000D03*
D11*
X106190000Y-103825000D03*
D10*
X112550000Y-106985000D03*
X112550000Y-104445000D03*
D11*
X112550000Y-101905000D03*
D10*
X112550000Y-99365000D03*
X112550000Y-96825000D03*
X112550000Y-94285000D03*
X112550000Y-91745000D03*
D11*
X112550000Y-89205000D03*
D10*
X112550000Y-86665000D03*
X112550000Y-84125000D03*
X112550000Y-81585000D03*
X112550000Y-79045000D03*
D11*
X112550000Y-76505000D03*
D10*
X112550000Y-73965000D03*
X112550000Y-71425000D03*
X112550000Y-68885000D03*
X112550000Y-66345000D03*
D11*
X112550000Y-63805000D03*
D10*
X112550000Y-61265000D03*
D11*
X112550000Y-58725000D03*
D12*
X114250000Y-99365000D03*
X114250000Y-101905000D03*
X114250000Y-96825000D03*
X114250000Y-104445000D03*
X114250000Y-94285000D03*
X114250000Y-106985000D03*
X114250000Y-86665000D03*
X114250000Y-91745000D03*
X114250000Y-84125000D03*
X114250000Y-73965000D03*
X114250000Y-71425000D03*
X114250000Y-68885000D03*
X114250000Y-61265000D03*
X114250000Y-89205000D03*
X114250000Y-76505000D03*
X114250000Y-63805000D03*
X114250000Y-58725000D03*
X114250000Y-79045000D03*
X114250000Y-66345000D03*
X114250000Y-81585000D03*
D10*
X94750000Y-58725000D03*
X94750000Y-61265000D03*
D11*
X94750000Y-63805000D03*
D10*
X94750000Y-66345000D03*
X94750000Y-68885000D03*
X94750000Y-71425000D03*
X94750000Y-73965000D03*
D11*
X94750000Y-76505000D03*
D10*
X94750000Y-79045000D03*
X94750000Y-81585000D03*
X94750000Y-84125000D03*
X94750000Y-86665000D03*
D11*
X94750000Y-89205000D03*
D10*
X94750000Y-91745000D03*
X94750000Y-94285000D03*
X94750000Y-96825000D03*
X94750000Y-99365000D03*
D11*
X94750000Y-101905000D03*
D10*
X94750000Y-104445000D03*
D13*
X94750000Y-106985000D03*
D12*
X93050000Y-104445000D03*
X93050000Y-73965000D03*
X93050000Y-99365000D03*
X93050000Y-94285000D03*
X93050000Y-89205000D03*
X93050000Y-86665000D03*
X93050000Y-71425000D03*
X93060000Y-79045000D03*
X93050000Y-68885000D03*
X93050000Y-61255000D03*
X93050000Y-66335000D03*
X93040000Y-91745000D03*
X93050000Y-96825000D03*
X93050000Y-81585000D03*
X93050000Y-76505000D03*
X93050000Y-106985000D03*
X93050000Y-84125000D03*
X93050000Y-63805000D03*
X93050000Y-101905000D03*
X93050000Y-58725000D03*
D14*
X107920000Y-63705000D03*
X99280000Y-63705000D03*
D15*
X107920000Y-59525000D03*
X99280000Y-59525000D03*
D16*
X108140100Y-78802300D03*
X103610000Y-85025000D03*
X98831000Y-73608000D03*
X107181000Y-74599000D03*
X109181000Y-81313000D03*
X97690000Y-92661000D03*
X102615000Y-73570000D03*
X106059000Y-87067000D03*
X109880000Y-70185000D03*
D17*
X108673500Y-75767000D03*
X103720500Y-70115500D03*
X99910500Y-68591500D03*
X110261000Y-100024000D03*
X98958000Y-96277500D03*
X106490000Y-100205000D03*
X103330000Y-88155040D03*
D16*
X106940000Y-94825000D03*
X107840000Y-97725000D03*
X105842575Y-76121425D03*
X100041294Y-77612706D03*
X106050000Y-64620000D03*
X103408000Y-75574000D03*
X101424000Y-75116000D03*
X100983000Y-76805000D03*
X101585000Y-73586000D03*
X101454000Y-76412000D03*
X101788000Y-74290000D03*
X102849988Y-63067000D03*
X103847500Y-63054300D03*
X104366385Y-63442272D03*
X103345936Y-63452664D03*
X103022000Y-92150000D03*
X101985000Y-76100000D03*
X108441000Y-80297000D03*
X99428000Y-82544000D03*
X105000733Y-75578733D03*
X105086975Y-85529025D03*
D17*
X104940000Y-96225000D03*
D16*
X99718411Y-84333589D03*
X99630014Y-88155000D03*
X99763928Y-83641000D03*
X99630028Y-89134972D03*
D17*
X102768000Y-99897000D03*
X98323000Y-81990000D03*
D16*
X101840000Y-93225000D03*
D17*
X97690000Y-76905000D03*
X98290000Y-76305000D03*
X97082000Y-76213000D03*
X100990000Y-100005000D03*
D18*
X109720000Y-79545000D02*
X109680000Y-79505000D01*
X109720000Y-81772000D02*
X109720000Y-79545000D01*
X109680000Y-81812000D02*
X109720000Y-81772000D01*
X108720000Y-78755000D02*
X108090000Y-78755000D01*
X109320000Y-78155000D02*
X108720000Y-78755000D01*
X109320000Y-79145000D02*
X109320000Y-78155000D01*
X109680000Y-79505000D02*
X109320000Y-79145000D01*
D19*
X103610000Y-86715000D02*
X103610000Y-86715000D01*
D20*
X109181000Y-81313000D02*
X109488000Y-81620000D01*
X109488000Y-81620000D02*
X109680000Y-81812000D01*
D19*
X103610000Y-87875040D02*
X103330000Y-88155040D01*
X103610000Y-82375000D02*
X103610000Y-87875040D01*
D21*
X106050000Y-64620000D02*
X106050000Y-64620000D01*
D19*
X106050000Y-75914000D02*
X105842575Y-76121425D01*
X106050000Y-64620000D02*
X106050000Y-75914000D01*
D22*
X99640000Y-77211412D02*
X100041294Y-77612706D01*
X99640000Y-74259500D02*
X99640000Y-77211412D01*
X101180500Y-72719000D02*
X99640000Y-74259500D01*
X104673000Y-72719000D02*
X101180500Y-72719000D01*
X106070000Y-74116000D02*
X104673000Y-72719000D01*
X106070000Y-75894000D02*
X106070000Y-74116000D01*
X105842575Y-76121425D02*
X106070000Y-75894000D01*
D21*
X101882000Y-75574000D02*
X101424000Y-75116000D01*
X103408000Y-75574000D02*
X101882000Y-75574000D01*
X100140000Y-75031000D02*
X101585000Y-73586000D01*
X100140000Y-75962000D02*
X100140000Y-75031000D01*
X100983000Y-76805000D02*
X100140000Y-75962000D01*
X100579000Y-75086990D02*
X101375990Y-74290000D01*
X101454000Y-76412000D02*
X100579000Y-75537000D01*
X100579000Y-75537000D02*
X100579000Y-75086990D01*
X101375990Y-74290000D02*
X101788000Y-74290000D01*
X101788000Y-74290000D02*
X101788000Y-74290000D01*
D20*
X103075387Y-62841601D02*
X103634801Y-62841601D01*
X102849988Y-63067000D02*
X103075387Y-62841601D01*
X103634801Y-62841601D02*
X103847500Y-63054300D01*
X104366385Y-63442272D02*
X104151063Y-63657594D01*
X104151063Y-63657594D02*
X103550866Y-63657594D01*
X103550866Y-63657594D02*
X103345936Y-63452664D01*
D21*
X104629733Y-75949733D02*
X105000733Y-75578733D01*
X105000733Y-75578733D02*
X104722699Y-75856767D01*
X104722699Y-75856767D02*
X104722699Y-77048279D01*
X104722699Y-77048279D02*
X107971420Y-80297000D01*
X108158158Y-80297000D02*
X108441000Y-80297000D01*
X107971420Y-80297000D02*
X108158158Y-80297000D01*
X104134466Y-76445000D02*
X104629733Y-75949733D01*
X102330000Y-76445000D02*
X104134466Y-76445000D01*
X101985000Y-76100000D02*
X102330000Y-76445000D01*
D20*
X105086975Y-85529025D02*
X105086975Y-83725000D01*
D21*
X105086975Y-84178025D02*
X105086975Y-85529025D01*
X108441000Y-80824000D02*
X105086975Y-84178025D01*
X108441000Y-80297000D02*
X108441000Y-80824000D01*
D20*
X103149000Y-89776000D02*
X105086975Y-87838025D01*
X103149000Y-92023000D02*
X103149000Y-89776000D01*
X105086975Y-87838025D02*
X105086975Y-85529025D01*
X103022000Y-92150000D02*
X103149000Y-92023000D01*
D21*
X103084000Y-76445000D02*
X104134466Y-76445000D01*
X99428000Y-80101000D02*
X103084000Y-76445000D01*
X99428000Y-82544000D02*
X99428000Y-80101000D01*
D20*
X104990000Y-96505000D02*
X104940000Y-96455000D01*
X104940000Y-96455000D02*
X104940000Y-96225000D01*
X104940000Y-95025000D02*
X104940000Y-96225000D01*
X103022000Y-93107000D02*
X104940000Y-95025000D01*
X103022000Y-92150000D02*
X103022000Y-93107000D01*
D21*
X99630000Y-87725000D02*
X99630000Y-88154986D01*
X99630000Y-88154986D02*
X99630014Y-88155000D01*
X99390000Y-87485000D02*
X99630000Y-87725000D01*
X99718411Y-84333589D02*
X99390000Y-84662000D01*
X99390000Y-84662000D02*
X99390000Y-87485000D01*
X99763928Y-83641000D02*
X99039990Y-84364938D01*
X99039990Y-84364938D02*
X99039990Y-88544934D01*
X99039990Y-88544934D02*
X99630028Y-89134972D01*
D20*
X97688000Y-82625000D02*
X98323000Y-81990000D01*
X97688000Y-90118000D02*
X97688000Y-82625000D01*
X102768000Y-95198000D02*
X100863000Y-93293000D01*
X100863000Y-93293000D02*
X97688000Y-90118000D01*
X102768000Y-99897000D02*
X102768000Y-97039500D01*
X102768000Y-97039500D02*
X102768000Y-95198000D01*
X110832500Y-85842500D02*
X112550000Y-84125000D01*
X105190000Y-98105000D02*
X110832500Y-92462500D01*
X103833500Y-98105000D02*
X105190000Y-98105000D01*
X110832500Y-92462500D02*
X110832500Y-85842500D01*
X102768000Y-97039500D02*
X103833500Y-98105000D01*
X100863000Y-93293000D02*
X101772000Y-93293000D01*
X101772000Y-93293000D02*
X101840000Y-93225000D01*
X97690000Y-76905000D02*
X97690000Y-80980722D01*
X97690000Y-80980722D02*
X97087981Y-81582743D01*
X97087981Y-81582743D02*
X97087982Y-90366538D01*
X97087982Y-90366538D02*
X102167980Y-95446536D01*
X102167980Y-98802742D02*
X101665722Y-99305000D01*
X102167980Y-95446536D02*
X102167980Y-98802742D01*
X101665722Y-99305000D02*
X101589990Y-99380732D01*
X101589990Y-99380732D02*
X101589990Y-99905010D01*
X101589990Y-99905010D02*
X101589990Y-100004990D01*
X103650000Y-106365000D02*
X102390000Y-105105000D01*
X102390000Y-105105000D02*
X102390000Y-102989278D01*
X102390000Y-102989278D02*
X101589989Y-102189268D01*
X101589989Y-102189268D02*
X101589990Y-99905010D01*
X101890000Y-99805000D02*
X101890000Y-100005000D01*
X101890000Y-102065000D02*
X103650000Y-103825000D01*
X101890000Y-99805000D02*
X101890000Y-102065000D01*
X98290000Y-77275000D02*
X98290000Y-76305000D01*
X97990010Y-81104990D02*
X97990010Y-77574990D01*
X97387990Y-81707010D02*
X97990010Y-81104990D01*
X97387991Y-90242269D02*
X97387990Y-81707010D01*
X102467990Y-95322268D02*
X97387991Y-90242269D01*
X97990010Y-77574990D02*
X98290000Y-77275000D01*
X102467990Y-98927010D02*
X102467990Y-95322268D01*
X101890000Y-99505000D02*
X102467990Y-98927010D01*
X101890000Y-99805000D02*
X101890000Y-99505000D01*
X100990000Y-100005000D02*
X100990000Y-100005000D01*
X97389990Y-80856456D02*
X96787972Y-81458475D01*
X97082000Y-76213000D02*
X97082000Y-77097000D01*
X97389990Y-77404990D02*
X97389990Y-80856456D01*
X97402166Y-91105000D02*
X101867970Y-95570804D01*
X97082000Y-77097000D02*
X97389990Y-77404990D01*
X96787972Y-81458475D02*
X96787973Y-90502973D01*
X96787973Y-90502973D02*
X97390000Y-91105000D01*
X97390000Y-91105000D02*
X97402166Y-91105000D01*
X101867970Y-95570804D02*
X101867970Y-98678474D01*
X100990000Y-99556444D02*
X100990000Y-100005000D01*
X101867970Y-98678474D02*
X100990000Y-99556444D01*
D23*
X111386691Y-57665653D02*
X111351869Y-57730800D01*
X111330426Y-57801487D01*
X111323186Y-57875000D01*
X111323186Y-59575000D01*
X111330426Y-59648513D01*
X111351869Y-59719200D01*
X111386691Y-59784347D01*
X111433552Y-59841448D01*
X111490653Y-59888309D01*
X111555800Y-59923131D01*
X111626487Y-59944574D01*
X111700000Y-59951814D01*
X112447400Y-59951814D01*
X112447400Y-60040000D01*
X112429348Y-60040000D01*
X112192681Y-60087076D01*
X111969745Y-60179419D01*
X111769108Y-60313481D01*
X111598481Y-60484108D01*
X111464419Y-60684745D01*
X111372076Y-60907681D01*
X111325000Y-61144348D01*
X111325000Y-61385652D01*
X111372076Y-61622319D01*
X111464419Y-61845255D01*
X111598481Y-62045892D01*
X111769108Y-62216519D01*
X111969745Y-62350581D01*
X112192681Y-62442924D01*
X112429348Y-62490000D01*
X112447400Y-62490000D01*
X112447400Y-65120000D01*
X112429348Y-65120000D01*
X112192681Y-65167076D01*
X111969745Y-65259419D01*
X111769108Y-65393481D01*
X111598481Y-65564108D01*
X111464419Y-65764745D01*
X111372076Y-65987681D01*
X111325000Y-66224348D01*
X111325000Y-66465652D01*
X111372076Y-66702319D01*
X111464419Y-66925255D01*
X111598481Y-67125892D01*
X111769108Y-67296519D01*
X111969745Y-67430581D01*
X112192681Y-67522924D01*
X112429348Y-67570000D01*
X112447400Y-67570000D01*
X112447400Y-67660000D01*
X112429348Y-67660000D01*
X112192681Y-67707076D01*
X111969745Y-67799419D01*
X111769108Y-67933481D01*
X111598481Y-68104108D01*
X111464419Y-68304745D01*
X111372076Y-68527681D01*
X111325000Y-68764348D01*
X111325000Y-69005652D01*
X111372076Y-69242319D01*
X111464419Y-69465255D01*
X111598481Y-69665892D01*
X111769108Y-69836519D01*
X111969745Y-69970581D01*
X112192681Y-70062924D01*
X112429348Y-70110000D01*
X112447400Y-70110000D01*
X112447400Y-70200000D01*
X112429348Y-70200000D01*
X112192681Y-70247076D01*
X111969745Y-70339419D01*
X111769108Y-70473481D01*
X111598481Y-70644108D01*
X111464419Y-70844745D01*
X111372076Y-71067681D01*
X111325000Y-71304348D01*
X111325000Y-71545652D01*
X111372076Y-71782319D01*
X111464419Y-72005255D01*
X111598481Y-72205892D01*
X111769108Y-72376519D01*
X111969745Y-72510581D01*
X112192681Y-72602924D01*
X112429348Y-72650000D01*
X112447400Y-72650000D01*
X112447400Y-72740000D01*
X112429348Y-72740000D01*
X112192681Y-72787076D01*
X111969745Y-72879419D01*
X111769108Y-73013481D01*
X111598481Y-73184108D01*
X111464419Y-73384745D01*
X111372076Y-73607681D01*
X111325000Y-73844348D01*
X111325000Y-74085652D01*
X111372076Y-74322319D01*
X111464419Y-74545255D01*
X111598481Y-74745892D01*
X111769108Y-74916519D01*
X111969745Y-75050581D01*
X112192681Y-75142924D01*
X112429348Y-75190000D01*
X112447400Y-75190000D01*
X112447400Y-77820000D01*
X112429348Y-77820000D01*
X112192681Y-77867076D01*
X111969745Y-77959419D01*
X111769108Y-78093481D01*
X111598481Y-78264108D01*
X111464419Y-78464745D01*
X111372076Y-78687681D01*
X111325000Y-78924348D01*
X111325000Y-79165652D01*
X111372076Y-79402319D01*
X111464419Y-79625255D01*
X111598481Y-79825892D01*
X111769108Y-79996519D01*
X111969745Y-80130581D01*
X112192681Y-80222924D01*
X112429348Y-80270000D01*
X112447400Y-80270000D01*
X112447400Y-80360000D01*
X112429348Y-80360000D01*
X112192681Y-80407076D01*
X111969745Y-80499419D01*
X111769108Y-80633481D01*
X111598481Y-80804108D01*
X111464419Y-81004745D01*
X111372076Y-81227681D01*
X111325000Y-81464348D01*
X111325000Y-81705652D01*
X111372076Y-81942319D01*
X111464419Y-82165255D01*
X111598481Y-82365892D01*
X111769108Y-82536519D01*
X111969745Y-82670581D01*
X112192681Y-82762924D01*
X112429348Y-82810000D01*
X112447400Y-82810000D01*
X112447400Y-82900000D01*
X112429348Y-82900000D01*
X112192681Y-82947076D01*
X111969745Y-83039419D01*
X111769108Y-83173481D01*
X111598481Y-83344108D01*
X111464419Y-83544745D01*
X111372076Y-83767681D01*
X111325000Y-84004348D01*
X111325000Y-84245652D01*
X111372076Y-84482319D01*
X111426030Y-84612575D01*
X110529929Y-85508676D01*
X110512764Y-85522763D01*
X110498677Y-85539928D01*
X110498672Y-85539933D01*
X110456529Y-85591284D01*
X110414743Y-85669460D01*
X110389012Y-85754285D01*
X110380324Y-85842500D01*
X110382501Y-85864604D01*
X110382500Y-92276104D01*
X105003605Y-97655000D01*
X104019896Y-97655000D01*
X103218000Y-96853105D01*
X103218000Y-95220094D01*
X103220176Y-95198000D01*
X103218000Y-95175906D01*
X103218000Y-95175895D01*
X103211489Y-95109785D01*
X103185757Y-95024959D01*
X103173964Y-95002896D01*
X103143971Y-94946783D01*
X103101828Y-94895432D01*
X103101824Y-94895428D01*
X103087737Y-94878263D01*
X103070572Y-94864176D01*
X101988185Y-93781789D01*
X102007721Y-93777903D01*
X102112365Y-93734558D01*
X102206541Y-93671632D01*
X102286632Y-93591541D01*
X102349558Y-93497365D01*
X102392903Y-93392721D01*
X102415000Y-93281633D01*
X102415000Y-93168367D01*
X102392903Y-93057279D01*
X102349558Y-92952635D01*
X102286632Y-92858459D01*
X102206541Y-92778368D01*
X102112365Y-92715442D01*
X102007721Y-92672097D01*
X101896633Y-92650000D01*
X101783367Y-92650000D01*
X101672279Y-92672097D01*
X101567635Y-92715442D01*
X101473459Y-92778368D01*
X101408827Y-92843000D01*
X101049396Y-92843000D01*
X98138000Y-89931605D01*
X98138000Y-82811395D01*
X98284395Y-82665000D01*
X98389482Y-82665000D01*
X98519890Y-82639060D01*
X98642732Y-82588177D01*
X98753287Y-82514307D01*
X98847307Y-82420287D01*
X98874412Y-82379721D01*
X98853000Y-82487367D01*
X98853000Y-82600633D01*
X98875097Y-82711721D01*
X98918442Y-82816365D01*
X98981368Y-82910541D01*
X99061459Y-82990632D01*
X99155635Y-83053558D01*
X99260279Y-83096903D01*
X99371367Y-83119000D01*
X99484633Y-83119000D01*
X99555755Y-83104853D01*
X99491563Y-83131442D01*
X99397387Y-83194368D01*
X99317296Y-83274459D01*
X99254370Y-83368635D01*
X99211025Y-83473279D01*
X99198889Y-83534288D01*
X98720624Y-84012554D01*
X98702489Y-84027437D01*
X98643131Y-84099765D01*
X98599024Y-84182285D01*
X98598291Y-84184702D01*
X98571863Y-84271822D01*
X98562692Y-84364938D01*
X98564990Y-84388270D01*
X98564991Y-88521592D01*
X98562692Y-88544934D01*
X98571863Y-88638050D01*
X98599025Y-88727588D01*
X98643132Y-88810107D01*
X98702490Y-88882435D01*
X98720619Y-88897313D01*
X99064990Y-89241685D01*
X99077125Y-89302693D01*
X99120470Y-89407337D01*
X99183396Y-89501513D01*
X99263487Y-89581604D01*
X99357663Y-89644530D01*
X99462307Y-89687875D01*
X99573395Y-89709972D01*
X99686661Y-89709972D01*
X99797749Y-89687875D01*
X99902393Y-89644530D01*
X99996569Y-89581604D01*
X100076660Y-89501513D01*
X100139586Y-89407337D01*
X100182931Y-89302693D01*
X100205028Y-89191605D01*
X100205028Y-89078339D01*
X100182931Y-88967251D01*
X100139586Y-88862607D01*
X100076660Y-88768431D01*
X99996569Y-88688340D01*
X99931678Y-88644981D01*
X99996555Y-88601632D01*
X100076646Y-88521541D01*
X100139572Y-88427365D01*
X100182917Y-88322721D01*
X100205014Y-88211633D01*
X100205014Y-88098367D01*
X100182917Y-87987279D01*
X100139572Y-87882635D01*
X100105000Y-87830894D01*
X100105000Y-87748331D01*
X100107298Y-87724999D01*
X100098127Y-87631883D01*
X100089091Y-87602097D01*
X100070966Y-87542346D01*
X100026859Y-87459827D01*
X99967501Y-87387499D01*
X99949366Y-87372616D01*
X99865000Y-87288250D01*
X99865000Y-84890695D01*
X99886132Y-84886492D01*
X99990776Y-84843147D01*
X100084952Y-84780221D01*
X100165043Y-84700130D01*
X100227969Y-84605954D01*
X100271314Y-84501310D01*
X100293411Y-84390222D01*
X100293411Y-84276956D01*
X100271314Y-84165868D01*
X100227969Y-84061224D01*
X100199494Y-84018607D01*
X100210560Y-84007541D01*
X100273486Y-83913365D01*
X100316831Y-83808721D01*
X100338552Y-83699523D01*
X103112294Y-86478030D01*
X103176726Y-86530990D01*
X103257884Y-86585294D01*
X103331506Y-86624686D01*
X103411228Y-86648888D01*
X103506998Y-86667959D01*
X103590090Y-86676143D01*
X103673002Y-86667959D01*
X103768772Y-86648888D01*
X103848664Y-86624616D01*
X103922116Y-86585294D01*
X104003274Y-86530990D01*
X104067706Y-86478030D01*
X104636976Y-85907782D01*
X104636975Y-87651629D01*
X102846429Y-89442176D01*
X102829264Y-89456263D01*
X102815177Y-89473428D01*
X102815172Y-89473433D01*
X102773029Y-89524784D01*
X102731243Y-89602960D01*
X102705512Y-89687785D01*
X102696824Y-89776000D01*
X102699001Y-89798104D01*
X102699000Y-91674275D01*
X102655459Y-91703368D01*
X102575368Y-91783459D01*
X102512442Y-91877635D01*
X102469097Y-91982279D01*
X102447000Y-92093367D01*
X102447000Y-92206633D01*
X102469097Y-92317721D01*
X102512442Y-92422365D01*
X102572000Y-92511501D01*
X102572001Y-93084896D01*
X102569824Y-93107000D01*
X102578512Y-93195215D01*
X102604243Y-93280040D01*
X102646029Y-93358216D01*
X102688172Y-93409567D01*
X102688177Y-93409572D01*
X102702264Y-93426737D01*
X102719429Y-93440824D01*
X104490000Y-95211396D01*
X104490001Y-95720405D01*
X104415693Y-95794713D01*
X104341823Y-95905268D01*
X104290940Y-96028110D01*
X104265000Y-96158518D01*
X104265000Y-96291482D01*
X104290940Y-96421890D01*
X104341823Y-96544732D01*
X104415693Y-96655287D01*
X104509713Y-96749307D01*
X104620268Y-96823177D01*
X104717373Y-96863399D01*
X104738784Y-96880971D01*
X104816960Y-96922757D01*
X104901786Y-96948488D01*
X104990000Y-96957176D01*
X105078215Y-96948488D01*
X105163040Y-96922757D01*
X105241216Y-96880971D01*
X105309737Y-96824737D01*
X105365971Y-96756216D01*
X105369318Y-96749955D01*
X105370287Y-96749307D01*
X105464307Y-96655287D01*
X105538177Y-96544732D01*
X105589060Y-96421890D01*
X105615000Y-96291482D01*
X105615000Y-96158518D01*
X105589060Y-96028110D01*
X105538177Y-95905268D01*
X105464307Y-95794713D01*
X105390000Y-95720406D01*
X105390000Y-95047094D01*
X105392176Y-95025000D01*
X105390000Y-95002906D01*
X105390000Y-95002895D01*
X105383489Y-94936785D01*
X105357757Y-94851959D01*
X105341759Y-94822029D01*
X105315971Y-94773783D01*
X105273828Y-94722432D01*
X105273824Y-94722428D01*
X105259737Y-94705263D01*
X105242573Y-94691177D01*
X103472000Y-92920605D01*
X103472000Y-92511500D01*
X103531558Y-92422365D01*
X103574903Y-92317721D01*
X103597000Y-92206633D01*
X103597000Y-92093367D01*
X103595159Y-92084109D01*
X103599000Y-92045105D01*
X103599000Y-92045095D01*
X103601176Y-92023001D01*
X103599000Y-92000906D01*
X103599000Y-89962395D01*
X105389548Y-88171848D01*
X105406712Y-88157762D01*
X105420799Y-88140597D01*
X105420803Y-88140593D01*
X105462946Y-88089242D01*
X105504732Y-88011066D01*
X105511948Y-87987279D01*
X105530464Y-87926240D01*
X105536975Y-87860130D01*
X105536975Y-87860119D01*
X105539151Y-87838025D01*
X105536975Y-87815931D01*
X105536975Y-85890525D01*
X105596533Y-85801390D01*
X105639878Y-85696746D01*
X105661975Y-85585658D01*
X105661975Y-85472392D01*
X105639878Y-85361304D01*
X105596533Y-85256660D01*
X105561975Y-85204940D01*
X105561975Y-84981193D01*
X109535988Y-81000352D01*
X109588477Y-80936368D01*
X109642351Y-80855819D01*
X109681235Y-80783378D01*
X109705663Y-80703725D01*
X109724858Y-80608740D01*
X109733272Y-80526965D01*
X109725576Y-80444007D01*
X109707210Y-80348859D01*
X109683895Y-80270024D01*
X109645230Y-80196224D01*
X109592061Y-80115207D01*
X109540131Y-80050765D01*
X106230063Y-76676631D01*
X106296425Y-76622169D01*
X106503847Y-76414746D01*
X106529606Y-76393606D01*
X106613958Y-76290824D01*
X106676636Y-76173561D01*
X106714421Y-76049000D01*
X106715233Y-76046324D01*
X106719117Y-76006884D01*
X106725000Y-75947159D01*
X106725000Y-75947153D01*
X106728265Y-75914001D01*
X106725000Y-75880849D01*
X106725000Y-64586841D01*
X106715233Y-64487677D01*
X106676636Y-64360439D01*
X106613958Y-64243176D01*
X106529605Y-64140394D01*
X106426823Y-64056042D01*
X106309560Y-63993364D01*
X106182322Y-63954767D01*
X106050000Y-63941734D01*
X105917677Y-63954767D01*
X105790439Y-63993364D01*
X105673176Y-64056042D01*
X105570394Y-64140395D01*
X105486042Y-64243177D01*
X105423364Y-64360440D01*
X105384767Y-64487678D01*
X105375000Y-64586842D01*
X105375001Y-72607828D01*
X105099565Y-72332393D01*
X105081554Y-72310446D01*
X104993998Y-72238592D01*
X104894108Y-72185199D01*
X104785720Y-72152320D01*
X104701246Y-72144000D01*
X104701243Y-72144000D01*
X104673000Y-72141218D01*
X104644757Y-72144000D01*
X101208743Y-72144000D01*
X101180500Y-72141218D01*
X101152257Y-72144000D01*
X101152254Y-72144000D01*
X101067780Y-72152320D01*
X100959392Y-72185199D01*
X100859501Y-72238592D01*
X100815138Y-72275000D01*
X100771946Y-72310446D01*
X100753939Y-72332388D01*
X99253393Y-73832935D01*
X99231446Y-73850946D01*
X99196819Y-73893141D01*
X99159592Y-73938502D01*
X99113450Y-74024827D01*
X99106199Y-74038393D01*
X99073320Y-74146781D01*
X99065250Y-74228719D01*
X99062218Y-74259500D01*
X99065000Y-74287743D01*
X99065001Y-77183159D01*
X99062218Y-77211412D01*
X99070127Y-77291707D01*
X99072597Y-77316776D01*
X99073321Y-77324131D01*
X99106199Y-77432519D01*
X99159592Y-77532410D01*
X99198648Y-77580000D01*
X99231447Y-77619966D01*
X99253388Y-77637973D01*
X99654688Y-78039273D01*
X98440010Y-79253950D01*
X98440010Y-77761385D01*
X98592567Y-77608828D01*
X98609737Y-77594737D01*
X98643120Y-77554060D01*
X98665971Y-77526217D01*
X98707757Y-77448041D01*
X98712465Y-77432520D01*
X98733489Y-77363215D01*
X98740000Y-77297105D01*
X98740000Y-77297095D01*
X98742176Y-77275000D01*
X98740000Y-77252906D01*
X98740000Y-76809594D01*
X98814307Y-76735287D01*
X98888177Y-76624732D01*
X98939060Y-76501890D01*
X98965000Y-76371482D01*
X98965000Y-76238518D01*
X98939060Y-76108110D01*
X98888177Y-75985268D01*
X98814307Y-75874713D01*
X98720287Y-75780693D01*
X98609732Y-75706823D01*
X98486890Y-75655940D01*
X98356482Y-75630000D01*
X98223518Y-75630000D01*
X98093110Y-75655940D01*
X97970268Y-75706823D01*
X97859713Y-75780693D01*
X97765693Y-75874713D01*
X97708158Y-75960820D01*
X97680177Y-75893268D01*
X97606307Y-75782713D01*
X97512287Y-75688693D01*
X97401732Y-75614823D01*
X97278890Y-75563940D01*
X97148482Y-75538000D01*
X97015518Y-75538000D01*
X96885110Y-75563940D01*
X96762268Y-75614823D01*
X96651713Y-75688693D01*
X96557693Y-75782713D01*
X96483823Y-75893268D01*
X96432940Y-76016110D01*
X96407000Y-76146518D01*
X96407000Y-76279482D01*
X96432940Y-76409890D01*
X96483823Y-76532732D01*
X96557693Y-76643287D01*
X96632001Y-76717595D01*
X96632001Y-77074896D01*
X96629824Y-77097000D01*
X96638512Y-77185215D01*
X96664243Y-77270040D01*
X96706029Y-77348216D01*
X96748172Y-77399567D01*
X96748177Y-77399572D01*
X96762264Y-77416737D01*
X96779429Y-77430824D01*
X96939990Y-77591386D01*
X96939991Y-80670060D01*
X96485400Y-81124652D01*
X96468235Y-81138739D01*
X96454148Y-81155904D01*
X96454144Y-81155908D01*
X96412001Y-81207259D01*
X96398810Y-81231938D01*
X96370215Y-81285435D01*
X96344483Y-81370261D01*
X96337972Y-81436371D01*
X96337972Y-81436381D01*
X96335796Y-81458475D01*
X96337972Y-81480569D01*
X96337974Y-90480869D01*
X96335797Y-90502973D01*
X96344485Y-90591188D01*
X96370216Y-90676013D01*
X96412002Y-90754189D01*
X96454145Y-90805540D01*
X96454150Y-90805545D01*
X96468237Y-90822710D01*
X96485402Y-90836797D01*
X97056176Y-91407572D01*
X97070263Y-91424737D01*
X97087428Y-91438824D01*
X97087432Y-91438828D01*
X97138783Y-91480971D01*
X97145140Y-91484369D01*
X101417970Y-95757200D01*
X101417971Y-98492077D01*
X100687433Y-99222615D01*
X100670263Y-99236707D01*
X100656172Y-99253877D01*
X100614029Y-99305228D01*
X100592895Y-99344767D01*
X100572243Y-99383404D01*
X100546511Y-99468230D01*
X100543707Y-99496699D01*
X100465693Y-99574713D01*
X100391823Y-99685268D01*
X100340940Y-99808110D01*
X100315000Y-99938518D01*
X100315000Y-100071482D01*
X100340940Y-100201890D01*
X100391823Y-100324732D01*
X100465693Y-100435287D01*
X100559713Y-100529307D01*
X100670268Y-100603177D01*
X100793110Y-100654060D01*
X100923518Y-100680000D01*
X101056482Y-100680000D01*
X101139990Y-100663389D01*
X101139989Y-102167174D01*
X101137813Y-102189268D01*
X101139989Y-102211362D01*
X101139989Y-102211372D01*
X101146500Y-102277482D01*
X101158250Y-102316216D01*
X101172232Y-102362308D01*
X101214018Y-102440484D01*
X101256161Y-102491835D01*
X101256165Y-102491839D01*
X101270252Y-102509004D01*
X101287417Y-102523091D01*
X101397517Y-102633192D01*
X101230652Y-102600000D01*
X100989348Y-102600000D01*
X100752681Y-102647076D01*
X100529745Y-102739419D01*
X100329108Y-102873481D01*
X100158481Y-103044108D01*
X100024419Y-103244745D01*
X99932076Y-103467681D01*
X99885000Y-103704348D01*
X99885000Y-103945652D01*
X99932076Y-104182319D01*
X100024419Y-104405255D01*
X100158481Y-104605892D01*
X100329108Y-104776519D01*
X100529745Y-104910581D01*
X100752681Y-105002924D01*
X100989348Y-105050000D01*
X101230652Y-105050000D01*
X101467319Y-105002924D01*
X101690255Y-104910581D01*
X101890892Y-104776519D01*
X101940000Y-104727411D01*
X101940000Y-105082905D01*
X101937824Y-105105000D01*
X101940000Y-105127094D01*
X101940000Y-105127104D01*
X101946511Y-105193214D01*
X101956424Y-105225892D01*
X101972243Y-105278040D01*
X102014029Y-105356216D01*
X102047105Y-105396519D01*
X102070263Y-105424737D01*
X102087434Y-105438829D01*
X102526030Y-105877425D01*
X102472076Y-106007681D01*
X102425000Y-106244348D01*
X102425000Y-106485652D01*
X102472076Y-106722319D01*
X102564419Y-106945255D01*
X102698481Y-107145892D01*
X102869108Y-107316519D01*
X103069745Y-107450581D01*
X103292681Y-107542924D01*
X103529348Y-107590000D01*
X103770652Y-107590000D01*
X104007319Y-107542924D01*
X104230255Y-107450581D01*
X104430892Y-107316519D01*
X104601519Y-107145892D01*
X104735581Y-106945255D01*
X104827924Y-106722319D01*
X104875000Y-106485652D01*
X104875000Y-106244348D01*
X104965000Y-106244348D01*
X104965000Y-106485652D01*
X105012076Y-106722319D01*
X105104419Y-106945255D01*
X105238481Y-107145892D01*
X105409108Y-107316519D01*
X105609745Y-107450581D01*
X105832681Y-107542924D01*
X106069348Y-107590000D01*
X106310652Y-107590000D01*
X106547319Y-107542924D01*
X106770255Y-107450581D01*
X106970892Y-107316519D01*
X107141519Y-107145892D01*
X107275581Y-106945255D01*
X107367924Y-106722319D01*
X107415000Y-106485652D01*
X107415000Y-106244348D01*
X107367924Y-106007681D01*
X107275581Y-105784745D01*
X107141519Y-105584108D01*
X106970892Y-105413481D01*
X106770255Y-105279419D01*
X106547319Y-105187076D01*
X106310652Y-105140000D01*
X106069348Y-105140000D01*
X105832681Y-105187076D01*
X105609745Y-105279419D01*
X105409108Y-105413481D01*
X105238481Y-105584108D01*
X105104419Y-105784745D01*
X105012076Y-106007681D01*
X104965000Y-106244348D01*
X104875000Y-106244348D01*
X104827924Y-106007681D01*
X104735581Y-105784745D01*
X104601519Y-105584108D01*
X104430892Y-105413481D01*
X104230255Y-105279419D01*
X104007319Y-105187076D01*
X103770652Y-105140000D01*
X103529348Y-105140000D01*
X103292681Y-105187076D01*
X103162425Y-105241030D01*
X102840000Y-104918605D01*
X102840000Y-104747411D01*
X102869108Y-104776519D01*
X103069745Y-104910581D01*
X103292681Y-105002924D01*
X103529348Y-105050000D01*
X103770652Y-105050000D01*
X104007319Y-105002924D01*
X104230255Y-104910581D01*
X104430892Y-104776519D01*
X104601519Y-104605892D01*
X104735581Y-104405255D01*
X104827924Y-104182319D01*
X104875000Y-103945652D01*
X104875000Y-103704348D01*
X104827924Y-103467681D01*
X104735581Y-103244745D01*
X104601519Y-103044108D01*
X104532411Y-102975000D01*
X104963186Y-102975000D01*
X104963186Y-104675000D01*
X104970426Y-104748513D01*
X104991869Y-104819200D01*
X105026691Y-104884347D01*
X105073552Y-104941448D01*
X105130653Y-104988309D01*
X105195800Y-105023131D01*
X105266487Y-105044574D01*
X105340000Y-105051814D01*
X107040000Y-105051814D01*
X107113513Y-105044574D01*
X107184200Y-105023131D01*
X107249347Y-104988309D01*
X107306448Y-104941448D01*
X107353309Y-104884347D01*
X107388131Y-104819200D01*
X107409574Y-104748513D01*
X107416814Y-104675000D01*
X107416814Y-102975000D01*
X107409574Y-102901487D01*
X107388131Y-102830800D01*
X107353309Y-102765653D01*
X107306448Y-102708552D01*
X107249347Y-102661691D01*
X107184200Y-102626869D01*
X107113513Y-102605426D01*
X107040000Y-102598186D01*
X105340000Y-102598186D01*
X105266487Y-102605426D01*
X105195800Y-102626869D01*
X105130653Y-102661691D01*
X105073552Y-102708552D01*
X105026691Y-102765653D01*
X104991869Y-102830800D01*
X104970426Y-102901487D01*
X104963186Y-102975000D01*
X104532411Y-102975000D01*
X104430892Y-102873481D01*
X104230255Y-102739419D01*
X104007319Y-102647076D01*
X103770652Y-102600000D01*
X103529348Y-102600000D01*
X103292681Y-102647076D01*
X103162425Y-102701030D01*
X102340000Y-101878605D01*
X102340000Y-100422835D01*
X102448268Y-100495177D01*
X102571110Y-100546060D01*
X102701518Y-100572000D01*
X102834482Y-100572000D01*
X102964890Y-100546060D01*
X103087732Y-100495177D01*
X103198287Y-100421307D01*
X103292307Y-100327287D01*
X103366177Y-100216732D01*
X103417060Y-100093890D01*
X103443000Y-99963482D01*
X103443000Y-99830518D01*
X103417060Y-99700110D01*
X103366177Y-99577268D01*
X103292307Y-99466713D01*
X103218000Y-99392406D01*
X103218000Y-98125896D01*
X103499676Y-98407572D01*
X103513763Y-98424737D01*
X103530928Y-98438824D01*
X103530932Y-98438828D01*
X103582283Y-98480971D01*
X103628050Y-98505434D01*
X103660459Y-98522757D01*
X103745285Y-98548489D01*
X103811395Y-98555000D01*
X103811406Y-98555000D01*
X103833500Y-98557176D01*
X103855594Y-98555000D01*
X105167906Y-98555000D01*
X105190000Y-98557176D01*
X105212094Y-98555000D01*
X105212105Y-98555000D01*
X105278215Y-98548489D01*
X105363041Y-98522757D01*
X105441216Y-98480971D01*
X105509737Y-98424737D01*
X105523829Y-98407566D01*
X111135073Y-92796323D01*
X111152237Y-92782237D01*
X111166324Y-92765072D01*
X111166328Y-92765068D01*
X111208471Y-92713717D01*
X111250257Y-92635541D01*
X111262555Y-92595000D01*
X111275989Y-92550715D01*
X111282500Y-92484605D01*
X111282500Y-92484595D01*
X111284676Y-92462501D01*
X111282500Y-92440406D01*
X111282500Y-86028895D01*
X112062425Y-85248970D01*
X112192681Y-85302924D01*
X112429348Y-85350000D01*
X112447400Y-85350000D01*
X112447400Y-85440000D01*
X112429348Y-85440000D01*
X112192681Y-85487076D01*
X111969745Y-85579419D01*
X111769108Y-85713481D01*
X111598481Y-85884108D01*
X111464419Y-86084745D01*
X111372076Y-86307681D01*
X111325000Y-86544348D01*
X111325000Y-86785652D01*
X111372076Y-87022319D01*
X111464419Y-87245255D01*
X111598481Y-87445892D01*
X111769108Y-87616519D01*
X111969745Y-87750581D01*
X112192681Y-87842924D01*
X112429348Y-87890000D01*
X112447400Y-87890000D01*
X112447400Y-90520000D01*
X112429348Y-90520000D01*
X112192681Y-90567076D01*
X111969745Y-90659419D01*
X111769108Y-90793481D01*
X111598481Y-90964108D01*
X111464419Y-91164745D01*
X111372076Y-91387681D01*
X111325000Y-91624348D01*
X111325000Y-91865652D01*
X111372076Y-92102319D01*
X111464419Y-92325255D01*
X111598481Y-92525892D01*
X111769108Y-92696519D01*
X111969745Y-92830581D01*
X112192681Y-92922924D01*
X112429348Y-92970000D01*
X112447400Y-92970000D01*
X112447400Y-93060000D01*
X112429348Y-93060000D01*
X112192681Y-93107076D01*
X111969745Y-93199419D01*
X111769108Y-93333481D01*
X111598481Y-93504108D01*
X111464419Y-93704745D01*
X111372076Y-93927681D01*
X111325000Y-94164348D01*
X111325000Y-94405652D01*
X111372076Y-94642319D01*
X111464419Y-94865255D01*
X111598481Y-95065892D01*
X111769108Y-95236519D01*
X111969745Y-95370581D01*
X112192681Y-95462924D01*
X112429348Y-95510000D01*
X112447400Y-95510000D01*
X112447400Y-95600000D01*
X112429348Y-95600000D01*
X112192681Y-95647076D01*
X111969745Y-95739419D01*
X111769108Y-95873481D01*
X111598481Y-96044108D01*
X111464419Y-96244745D01*
X111372076Y-96467681D01*
X111325000Y-96704348D01*
X111325000Y-96945652D01*
X111372076Y-97182319D01*
X111464419Y-97405255D01*
X111598481Y-97605892D01*
X111769108Y-97776519D01*
X111969745Y-97910581D01*
X112192681Y-98002924D01*
X112429348Y-98050000D01*
X112447400Y-98050000D01*
X112447400Y-98140000D01*
X112429348Y-98140000D01*
X112192681Y-98187076D01*
X111969745Y-98279419D01*
X111769108Y-98413481D01*
X111598481Y-98584108D01*
X111464419Y-98784745D01*
X111372076Y-99007681D01*
X111325000Y-99244348D01*
X111325000Y-99485652D01*
X111372076Y-99722319D01*
X111464419Y-99945255D01*
X111598481Y-100145892D01*
X111769108Y-100316519D01*
X111969745Y-100450581D01*
X112192681Y-100542924D01*
X112429348Y-100590000D01*
X112447400Y-100590000D01*
X112447400Y-103220000D01*
X112429348Y-103220000D01*
X112192681Y-103267076D01*
X111969745Y-103359419D01*
X111769108Y-103493481D01*
X111598481Y-103664108D01*
X111464419Y-103864745D01*
X111372076Y-104087681D01*
X111325000Y-104324348D01*
X111325000Y-104565652D01*
X111372076Y-104802319D01*
X111464419Y-105025255D01*
X111598481Y-105225892D01*
X111769108Y-105396519D01*
X111969745Y-105530581D01*
X112192681Y-105622924D01*
X112429348Y-105670000D01*
X112447400Y-105670000D01*
X112447400Y-105760000D01*
X112429348Y-105760000D01*
X112192681Y-105807076D01*
X111969745Y-105899419D01*
X111769108Y-106033481D01*
X111598481Y-106204108D01*
X111464419Y-106404745D01*
X111372076Y-106627681D01*
X111325000Y-106864348D01*
X111325000Y-107105652D01*
X111372076Y-107342319D01*
X111464419Y-107565255D01*
X111598481Y-107765892D01*
X111769108Y-107936519D01*
X111969745Y-108070581D01*
X112101124Y-108125000D01*
X95198876Y-108125000D01*
X95330255Y-108070581D01*
X95530892Y-107936519D01*
X95701519Y-107765892D01*
X95835581Y-107565255D01*
X95927924Y-107342319D01*
X95975000Y-107105652D01*
X95975000Y-106864348D01*
X95927924Y-106627681D01*
X95835581Y-106404745D01*
X95701519Y-106204108D01*
X95530892Y-106033481D01*
X95330255Y-105899419D01*
X95107319Y-105807076D01*
X94870652Y-105760000D01*
X94866600Y-105760000D01*
X94866600Y-105670000D01*
X94870652Y-105670000D01*
X95107319Y-105622924D01*
X95330255Y-105530581D01*
X95530892Y-105396519D01*
X95701519Y-105225892D01*
X95835581Y-105025255D01*
X95927924Y-104802319D01*
X95975000Y-104565652D01*
X95975000Y-104324348D01*
X95927924Y-104087681D01*
X95835581Y-103864745D01*
X95701519Y-103664108D01*
X95530892Y-103493481D01*
X95330255Y-103359419D01*
X95107319Y-103267076D01*
X94870652Y-103220000D01*
X94866600Y-103220000D01*
X94866600Y-100590000D01*
X94870652Y-100590000D01*
X95107319Y-100542924D01*
X95330255Y-100450581D01*
X95530892Y-100316519D01*
X95701519Y-100145892D01*
X95835581Y-99945255D01*
X95927924Y-99722319D01*
X95975000Y-99485652D01*
X95975000Y-99244348D01*
X95927924Y-99007681D01*
X95835581Y-98784745D01*
X95701519Y-98584108D01*
X95530892Y-98413481D01*
X95330255Y-98279419D01*
X95107319Y-98187076D01*
X94870652Y-98140000D01*
X94866600Y-98140000D01*
X94866600Y-98050000D01*
X94870652Y-98050000D01*
X95107319Y-98002924D01*
X95330255Y-97910581D01*
X95530892Y-97776519D01*
X95701519Y-97605892D01*
X95835581Y-97405255D01*
X95927924Y-97182319D01*
X95975000Y-96945652D01*
X95975000Y-96704348D01*
X95927924Y-96467681D01*
X95835581Y-96244745D01*
X95701519Y-96044108D01*
X95530892Y-95873481D01*
X95330255Y-95739419D01*
X95107319Y-95647076D01*
X94870652Y-95600000D01*
X94866600Y-95600000D01*
X94866600Y-95510000D01*
X94870652Y-95510000D01*
X95107319Y-95462924D01*
X95330255Y-95370581D01*
X95530892Y-95236519D01*
X95701519Y-95065892D01*
X95835581Y-94865255D01*
X95927924Y-94642319D01*
X95975000Y-94405652D01*
X95975000Y-94164348D01*
X95927924Y-93927681D01*
X95835581Y-93704745D01*
X95701519Y-93504108D01*
X95530892Y-93333481D01*
X95330255Y-93199419D01*
X95107319Y-93107076D01*
X94870652Y-93060000D01*
X94866600Y-93060000D01*
X94866600Y-92970000D01*
X94870652Y-92970000D01*
X95107319Y-92922924D01*
X95330255Y-92830581D01*
X95530892Y-92696519D01*
X95701519Y-92525892D01*
X95835581Y-92325255D01*
X95927924Y-92102319D01*
X95975000Y-91865652D01*
X95975000Y-91624348D01*
X95927924Y-91387681D01*
X95835581Y-91164745D01*
X95701519Y-90964108D01*
X95530892Y-90793481D01*
X95330255Y-90659419D01*
X95107319Y-90567076D01*
X94870652Y-90520000D01*
X94866600Y-90520000D01*
X94866600Y-87890000D01*
X94870652Y-87890000D01*
X95107319Y-87842924D01*
X95330255Y-87750581D01*
X95530892Y-87616519D01*
X95701519Y-87445892D01*
X95835581Y-87245255D01*
X95927924Y-87022319D01*
X95975000Y-86785652D01*
X95975000Y-86544348D01*
X95927924Y-86307681D01*
X95835581Y-86084745D01*
X95701519Y-85884108D01*
X95530892Y-85713481D01*
X95330255Y-85579419D01*
X95107319Y-85487076D01*
X94870652Y-85440000D01*
X94866600Y-85440000D01*
X94866600Y-85350000D01*
X94870652Y-85350000D01*
X95107319Y-85302924D01*
X95330255Y-85210581D01*
X95530892Y-85076519D01*
X95701519Y-84905892D01*
X95835581Y-84705255D01*
X95927924Y-84482319D01*
X95975000Y-84245652D01*
X95975000Y-84004348D01*
X95927924Y-83767681D01*
X95835581Y-83544745D01*
X95701519Y-83344108D01*
X95530892Y-83173481D01*
X95330255Y-83039419D01*
X95107319Y-82947076D01*
X94870652Y-82900000D01*
X94866600Y-82900000D01*
X94866600Y-82810000D01*
X94870652Y-82810000D01*
X95107319Y-82762924D01*
X95330255Y-82670581D01*
X95530892Y-82536519D01*
X95701519Y-82365892D01*
X95835581Y-82165255D01*
X95927924Y-81942319D01*
X95975000Y-81705652D01*
X95975000Y-81464348D01*
X95927924Y-81227681D01*
X95835581Y-81004745D01*
X95701519Y-80804108D01*
X95530892Y-80633481D01*
X95330255Y-80499419D01*
X95107319Y-80407076D01*
X94870652Y-80360000D01*
X94866600Y-80360000D01*
X94866600Y-80270000D01*
X94870652Y-80270000D01*
X95107319Y-80222924D01*
X95330255Y-80130581D01*
X95530892Y-79996519D01*
X95701519Y-79825892D01*
X95835581Y-79625255D01*
X95927924Y-79402319D01*
X95975000Y-79165652D01*
X95975000Y-78924348D01*
X95927924Y-78687681D01*
X95835581Y-78464745D01*
X95701519Y-78264108D01*
X95530892Y-78093481D01*
X95330255Y-77959419D01*
X95107319Y-77867076D01*
X94870652Y-77820000D01*
X94866600Y-77820000D01*
X94866600Y-75190000D01*
X94870652Y-75190000D01*
X95107319Y-75142924D01*
X95330255Y-75050581D01*
X95530892Y-74916519D01*
X95701519Y-74745892D01*
X95835581Y-74545255D01*
X95927924Y-74322319D01*
X95975000Y-74085652D01*
X95975000Y-73844348D01*
X95927924Y-73607681D01*
X95835581Y-73384745D01*
X95701519Y-73184108D01*
X95530892Y-73013481D01*
X95330255Y-72879419D01*
X95107319Y-72787076D01*
X94870652Y-72740000D01*
X94866600Y-72740000D01*
X94866600Y-72650000D01*
X94870652Y-72650000D01*
X95107319Y-72602924D01*
X95330255Y-72510581D01*
X95530892Y-72376519D01*
X95701519Y-72205892D01*
X95835581Y-72005255D01*
X95927924Y-71782319D01*
X95975000Y-71545652D01*
X95975000Y-71304348D01*
X95927924Y-71067681D01*
X95835581Y-70844745D01*
X95701519Y-70644108D01*
X95530892Y-70473481D01*
X95330255Y-70339419D01*
X95107319Y-70247076D01*
X94870652Y-70200000D01*
X94866600Y-70200000D01*
X94866600Y-70110000D01*
X94870652Y-70110000D01*
X95107319Y-70062924D01*
X95330255Y-69970581D01*
X95530892Y-69836519D01*
X95701519Y-69665892D01*
X95835581Y-69465255D01*
X95927924Y-69242319D01*
X95975000Y-69005652D01*
X95975000Y-68764348D01*
X95927924Y-68527681D01*
X95835581Y-68304745D01*
X95701519Y-68104108D01*
X95530892Y-67933481D01*
X95330255Y-67799419D01*
X95107319Y-67707076D01*
X94870652Y-67660000D01*
X94866600Y-67660000D01*
X94866600Y-67570000D01*
X94870652Y-67570000D01*
X95107319Y-67522924D01*
X95330255Y-67430581D01*
X95530892Y-67296519D01*
X95701519Y-67125892D01*
X95835581Y-66925255D01*
X95927924Y-66702319D01*
X95975000Y-66465652D01*
X95975000Y-66224348D01*
X95927924Y-65987681D01*
X95835581Y-65764745D01*
X95701519Y-65564108D01*
X95530892Y-65393481D01*
X95330255Y-65259419D01*
X95107319Y-65167076D01*
X94922758Y-65130365D01*
X94873513Y-65115426D01*
X94866600Y-65114745D01*
X94866600Y-63106056D01*
X100010000Y-63106056D01*
X100010000Y-63243944D01*
X100036901Y-63379182D01*
X100089668Y-63506574D01*
X100166274Y-63621224D01*
X100263776Y-63718726D01*
X100378426Y-63795332D01*
X100505818Y-63848099D01*
X100641056Y-63875000D01*
X100778944Y-63875000D01*
X100914182Y-63848099D01*
X101041574Y-63795332D01*
X101156224Y-63718726D01*
X101253726Y-63621224D01*
X101330332Y-63506574D01*
X101383099Y-63379182D01*
X101410000Y-63243944D01*
X101410000Y-63106056D01*
X101390966Y-63010367D01*
X102274988Y-63010367D01*
X102274988Y-63123633D01*
X102297085Y-63234721D01*
X102340430Y-63339365D01*
X102403356Y-63433541D01*
X102483447Y-63513632D01*
X102577623Y-63576558D01*
X102682267Y-63619903D01*
X102793355Y-63642000D01*
X102801986Y-63642000D01*
X102836378Y-63725029D01*
X102899304Y-63819205D01*
X102979395Y-63899296D01*
X103073571Y-63962222D01*
X103178215Y-64005567D01*
X103289303Y-64027664D01*
X103292460Y-64027664D01*
X103299650Y-64033565D01*
X103377825Y-64075351D01*
X103462651Y-64101083D01*
X103528761Y-64107594D01*
X103528772Y-64107594D01*
X103550866Y-64109770D01*
X103572960Y-64107594D01*
X104128969Y-64107594D01*
X104151063Y-64109770D01*
X104173157Y-64107594D01*
X104173168Y-64107594D01*
X104239278Y-64101083D01*
X104324104Y-64075351D01*
X104402279Y-64033565D01*
X104422132Y-64017272D01*
X104423018Y-64017272D01*
X104534106Y-63995175D01*
X104638750Y-63951830D01*
X104732926Y-63888904D01*
X104813017Y-63808813D01*
X104875943Y-63714637D01*
X104919288Y-63609993D01*
X104941385Y-63498905D01*
X104941385Y-63385639D01*
X104919288Y-63274551D01*
X104875943Y-63169907D01*
X104833280Y-63106056D01*
X105790000Y-63106056D01*
X105790000Y-63243944D01*
X105816901Y-63379182D01*
X105869668Y-63506574D01*
X105946274Y-63621224D01*
X106043776Y-63718726D01*
X106158426Y-63795332D01*
X106285818Y-63848099D01*
X106421056Y-63875000D01*
X106558944Y-63875000D01*
X106694182Y-63848099D01*
X106821574Y-63795332D01*
X106936224Y-63718726D01*
X107033726Y-63621224D01*
X107110332Y-63506574D01*
X107163099Y-63379182D01*
X107190000Y-63243944D01*
X107190000Y-63106056D01*
X107163099Y-62970818D01*
X107110332Y-62843426D01*
X107033726Y-62728776D01*
X106936224Y-62631274D01*
X106821574Y-62554668D01*
X106694182Y-62501901D01*
X106558944Y-62475000D01*
X106421056Y-62475000D01*
X106285818Y-62501901D01*
X106158426Y-62554668D01*
X106043776Y-62631274D01*
X105946274Y-62728776D01*
X105869668Y-62843426D01*
X105816901Y-62970818D01*
X105790000Y-63106056D01*
X104833280Y-63106056D01*
X104813017Y-63075731D01*
X104732926Y-62995640D01*
X104638750Y-62932714D01*
X104534106Y-62889369D01*
X104423018Y-62867272D01*
X104392406Y-62867272D01*
X104357058Y-62781935D01*
X104294132Y-62687759D01*
X104214041Y-62607668D01*
X104119865Y-62544742D01*
X104015221Y-62501397D01*
X103904133Y-62479300D01*
X103902674Y-62479300D01*
X103886017Y-62465630D01*
X103807842Y-62423844D01*
X103723016Y-62398112D01*
X103656906Y-62391601D01*
X103656895Y-62391601D01*
X103634801Y-62389425D01*
X103612707Y-62391601D01*
X103097478Y-62391601D01*
X103075386Y-62389425D01*
X103053294Y-62391601D01*
X103053282Y-62391601D01*
X102987172Y-62398112D01*
X102902346Y-62423844D01*
X102824171Y-62465630D01*
X102791618Y-62492345D01*
X102682267Y-62514097D01*
X102577623Y-62557442D01*
X102483447Y-62620368D01*
X102403356Y-62700459D01*
X102340430Y-62794635D01*
X102297085Y-62899279D01*
X102274988Y-63010367D01*
X101390966Y-63010367D01*
X101383099Y-62970818D01*
X101330332Y-62843426D01*
X101253726Y-62728776D01*
X101156224Y-62631274D01*
X101041574Y-62554668D01*
X100914182Y-62501901D01*
X100778944Y-62475000D01*
X100641056Y-62475000D01*
X100505818Y-62501901D01*
X100378426Y-62554668D01*
X100263776Y-62631274D01*
X100166274Y-62728776D01*
X100089668Y-62843426D01*
X100036901Y-62970818D01*
X100010000Y-63106056D01*
X94866600Y-63106056D01*
X94866600Y-62490000D01*
X94870652Y-62490000D01*
X95107319Y-62442924D01*
X95330255Y-62350581D01*
X95530892Y-62216519D01*
X95701519Y-62045892D01*
X95835581Y-61845255D01*
X95927924Y-61622319D01*
X95975000Y-61385652D01*
X95975000Y-61144348D01*
X95927924Y-60907681D01*
X95835581Y-60684745D01*
X95701519Y-60484108D01*
X95530892Y-60313481D01*
X95330255Y-60179419D01*
X95107319Y-60087076D01*
X94922758Y-60050365D01*
X94873513Y-60035426D01*
X94866600Y-60034745D01*
X94866600Y-59950000D01*
X94870652Y-59950000D01*
X95107319Y-59902924D01*
X95330255Y-59810581D01*
X95530892Y-59676519D01*
X95701519Y-59505892D01*
X95835581Y-59305255D01*
X95927924Y-59082319D01*
X95975000Y-58845652D01*
X95975000Y-58604348D01*
X95927924Y-58367681D01*
X95835581Y-58144745D01*
X95701519Y-57944108D01*
X95530892Y-57773481D01*
X95330255Y-57639419D01*
X95295444Y-57625000D01*
X111420054Y-57625000D01*
X111386691Y-57665653D01*
G04 #@! TA.AperFunction,Conductor*
D20*
G36*
X111386691Y-57665653D02*
G01*
X111351869Y-57730800D01*
X111330426Y-57801487D01*
X111323186Y-57875000D01*
X111323186Y-59575000D01*
X111330426Y-59648513D01*
X111351869Y-59719200D01*
X111386691Y-59784347D01*
X111433552Y-59841448D01*
X111490653Y-59888309D01*
X111555800Y-59923131D01*
X111626487Y-59944574D01*
X111700000Y-59951814D01*
X112447400Y-59951814D01*
X112447400Y-60040000D01*
X112429348Y-60040000D01*
X112192681Y-60087076D01*
X111969745Y-60179419D01*
X111769108Y-60313481D01*
X111598481Y-60484108D01*
X111464419Y-60684745D01*
X111372076Y-60907681D01*
X111325000Y-61144348D01*
X111325000Y-61385652D01*
X111372076Y-61622319D01*
X111464419Y-61845255D01*
X111598481Y-62045892D01*
X111769108Y-62216519D01*
X111969745Y-62350581D01*
X112192681Y-62442924D01*
X112429348Y-62490000D01*
X112447400Y-62490000D01*
X112447400Y-65120000D01*
X112429348Y-65120000D01*
X112192681Y-65167076D01*
X111969745Y-65259419D01*
X111769108Y-65393481D01*
X111598481Y-65564108D01*
X111464419Y-65764745D01*
X111372076Y-65987681D01*
X111325000Y-66224348D01*
X111325000Y-66465652D01*
X111372076Y-66702319D01*
X111464419Y-66925255D01*
X111598481Y-67125892D01*
X111769108Y-67296519D01*
X111969745Y-67430581D01*
X112192681Y-67522924D01*
X112429348Y-67570000D01*
X112447400Y-67570000D01*
X112447400Y-67660000D01*
X112429348Y-67660000D01*
X112192681Y-67707076D01*
X111969745Y-67799419D01*
X111769108Y-67933481D01*
X111598481Y-68104108D01*
X111464419Y-68304745D01*
X111372076Y-68527681D01*
X111325000Y-68764348D01*
X111325000Y-69005652D01*
X111372076Y-69242319D01*
X111464419Y-69465255D01*
X111598481Y-69665892D01*
X111769108Y-69836519D01*
X111969745Y-69970581D01*
X112192681Y-70062924D01*
X112429348Y-70110000D01*
X112447400Y-70110000D01*
X112447400Y-70200000D01*
X112429348Y-70200000D01*
X112192681Y-70247076D01*
X111969745Y-70339419D01*
X111769108Y-70473481D01*
X111598481Y-70644108D01*
X111464419Y-70844745D01*
X111372076Y-71067681D01*
X111325000Y-71304348D01*
X111325000Y-71545652D01*
X111372076Y-71782319D01*
X111464419Y-72005255D01*
X111598481Y-72205892D01*
X111769108Y-72376519D01*
X111969745Y-72510581D01*
X112192681Y-72602924D01*
X112429348Y-72650000D01*
X112447400Y-72650000D01*
X112447400Y-72740000D01*
X112429348Y-72740000D01*
X112192681Y-72787076D01*
X111969745Y-72879419D01*
X111769108Y-73013481D01*
X111598481Y-73184108D01*
X111464419Y-73384745D01*
X111372076Y-73607681D01*
X111325000Y-73844348D01*
X111325000Y-74085652D01*
X111372076Y-74322319D01*
X111464419Y-74545255D01*
X111598481Y-74745892D01*
X111769108Y-74916519D01*
X111969745Y-75050581D01*
X112192681Y-75142924D01*
X112429348Y-75190000D01*
X112447400Y-75190000D01*
X112447400Y-77820000D01*
X112429348Y-77820000D01*
X112192681Y-77867076D01*
X111969745Y-77959419D01*
X111769108Y-78093481D01*
X111598481Y-78264108D01*
X111464419Y-78464745D01*
X111372076Y-78687681D01*
X111325000Y-78924348D01*
X111325000Y-79165652D01*
X111372076Y-79402319D01*
X111464419Y-79625255D01*
X111598481Y-79825892D01*
X111769108Y-79996519D01*
X111969745Y-80130581D01*
X112192681Y-80222924D01*
X112429348Y-80270000D01*
X112447400Y-80270000D01*
X112447400Y-80360000D01*
X112429348Y-80360000D01*
X112192681Y-80407076D01*
X111969745Y-80499419D01*
X111769108Y-80633481D01*
X111598481Y-80804108D01*
X111464419Y-81004745D01*
X111372076Y-81227681D01*
X111325000Y-81464348D01*
X111325000Y-81705652D01*
X111372076Y-81942319D01*
X111464419Y-82165255D01*
X111598481Y-82365892D01*
X111769108Y-82536519D01*
X111969745Y-82670581D01*
X112192681Y-82762924D01*
X112429348Y-82810000D01*
X112447400Y-82810000D01*
X112447400Y-82900000D01*
X112429348Y-82900000D01*
X112192681Y-82947076D01*
X111969745Y-83039419D01*
X111769108Y-83173481D01*
X111598481Y-83344108D01*
X111464419Y-83544745D01*
X111372076Y-83767681D01*
X111325000Y-84004348D01*
X111325000Y-84245652D01*
X111372076Y-84482319D01*
X111426030Y-84612575D01*
X110529929Y-85508676D01*
X110512764Y-85522763D01*
X110498677Y-85539928D01*
X110498672Y-85539933D01*
X110456529Y-85591284D01*
X110414743Y-85669460D01*
X110389012Y-85754285D01*
X110380324Y-85842500D01*
X110382501Y-85864604D01*
X110382500Y-92276104D01*
X105003605Y-97655000D01*
X104019896Y-97655000D01*
X103218000Y-96853105D01*
X103218000Y-95220094D01*
X103220176Y-95198000D01*
X103218000Y-95175906D01*
X103218000Y-95175895D01*
X103211489Y-95109785D01*
X103185757Y-95024959D01*
X103173964Y-95002896D01*
X103143971Y-94946783D01*
X103101828Y-94895432D01*
X103101824Y-94895428D01*
X103087737Y-94878263D01*
X103070572Y-94864176D01*
X101988185Y-93781789D01*
X102007721Y-93777903D01*
X102112365Y-93734558D01*
X102206541Y-93671632D01*
X102286632Y-93591541D01*
X102349558Y-93497365D01*
X102392903Y-93392721D01*
X102415000Y-93281633D01*
X102415000Y-93168367D01*
X102392903Y-93057279D01*
X102349558Y-92952635D01*
X102286632Y-92858459D01*
X102206541Y-92778368D01*
X102112365Y-92715442D01*
X102007721Y-92672097D01*
X101896633Y-92650000D01*
X101783367Y-92650000D01*
X101672279Y-92672097D01*
X101567635Y-92715442D01*
X101473459Y-92778368D01*
X101408827Y-92843000D01*
X101049396Y-92843000D01*
X98138000Y-89931605D01*
X98138000Y-82811395D01*
X98284395Y-82665000D01*
X98389482Y-82665000D01*
X98519890Y-82639060D01*
X98642732Y-82588177D01*
X98753287Y-82514307D01*
X98847307Y-82420287D01*
X98874412Y-82379721D01*
X98853000Y-82487367D01*
X98853000Y-82600633D01*
X98875097Y-82711721D01*
X98918442Y-82816365D01*
X98981368Y-82910541D01*
X99061459Y-82990632D01*
X99155635Y-83053558D01*
X99260279Y-83096903D01*
X99371367Y-83119000D01*
X99484633Y-83119000D01*
X99555755Y-83104853D01*
X99491563Y-83131442D01*
X99397387Y-83194368D01*
X99317296Y-83274459D01*
X99254370Y-83368635D01*
X99211025Y-83473279D01*
X99198889Y-83534288D01*
X98720624Y-84012554D01*
X98702489Y-84027437D01*
X98643131Y-84099765D01*
X98599024Y-84182285D01*
X98598291Y-84184702D01*
X98571863Y-84271822D01*
X98562692Y-84364938D01*
X98564990Y-84388270D01*
X98564991Y-88521592D01*
X98562692Y-88544934D01*
X98571863Y-88638050D01*
X98599025Y-88727588D01*
X98643132Y-88810107D01*
X98702490Y-88882435D01*
X98720619Y-88897313D01*
X99064990Y-89241685D01*
X99077125Y-89302693D01*
X99120470Y-89407337D01*
X99183396Y-89501513D01*
X99263487Y-89581604D01*
X99357663Y-89644530D01*
X99462307Y-89687875D01*
X99573395Y-89709972D01*
X99686661Y-89709972D01*
X99797749Y-89687875D01*
X99902393Y-89644530D01*
X99996569Y-89581604D01*
X100076660Y-89501513D01*
X100139586Y-89407337D01*
X100182931Y-89302693D01*
X100205028Y-89191605D01*
X100205028Y-89078339D01*
X100182931Y-88967251D01*
X100139586Y-88862607D01*
X100076660Y-88768431D01*
X99996569Y-88688340D01*
X99931678Y-88644981D01*
X99996555Y-88601632D01*
X100076646Y-88521541D01*
X100139572Y-88427365D01*
X100182917Y-88322721D01*
X100205014Y-88211633D01*
X100205014Y-88098367D01*
X100182917Y-87987279D01*
X100139572Y-87882635D01*
X100105000Y-87830894D01*
X100105000Y-87748331D01*
X100107298Y-87724999D01*
X100098127Y-87631883D01*
X100089091Y-87602097D01*
X100070966Y-87542346D01*
X100026859Y-87459827D01*
X99967501Y-87387499D01*
X99949366Y-87372616D01*
X99865000Y-87288250D01*
X99865000Y-84890695D01*
X99886132Y-84886492D01*
X99990776Y-84843147D01*
X100084952Y-84780221D01*
X100165043Y-84700130D01*
X100227969Y-84605954D01*
X100271314Y-84501310D01*
X100293411Y-84390222D01*
X100293411Y-84276956D01*
X100271314Y-84165868D01*
X100227969Y-84061224D01*
X100199494Y-84018607D01*
X100210560Y-84007541D01*
X100273486Y-83913365D01*
X100316831Y-83808721D01*
X100338552Y-83699523D01*
X103112294Y-86478030D01*
X103176726Y-86530990D01*
X103257884Y-86585294D01*
X103331506Y-86624686D01*
X103411228Y-86648888D01*
X103506998Y-86667959D01*
X103590090Y-86676143D01*
X103673002Y-86667959D01*
X103768772Y-86648888D01*
X103848664Y-86624616D01*
X103922116Y-86585294D01*
X104003274Y-86530990D01*
X104067706Y-86478030D01*
X104636976Y-85907782D01*
X104636975Y-87651629D01*
X102846429Y-89442176D01*
X102829264Y-89456263D01*
X102815177Y-89473428D01*
X102815172Y-89473433D01*
X102773029Y-89524784D01*
X102731243Y-89602960D01*
X102705512Y-89687785D01*
X102696824Y-89776000D01*
X102699001Y-89798104D01*
X102699000Y-91674275D01*
X102655459Y-91703368D01*
X102575368Y-91783459D01*
X102512442Y-91877635D01*
X102469097Y-91982279D01*
X102447000Y-92093367D01*
X102447000Y-92206633D01*
X102469097Y-92317721D01*
X102512442Y-92422365D01*
X102572000Y-92511501D01*
X102572001Y-93084896D01*
X102569824Y-93107000D01*
X102578512Y-93195215D01*
X102604243Y-93280040D01*
X102646029Y-93358216D01*
X102688172Y-93409567D01*
X102688177Y-93409572D01*
X102702264Y-93426737D01*
X102719429Y-93440824D01*
X104490000Y-95211396D01*
X104490001Y-95720405D01*
X104415693Y-95794713D01*
X104341823Y-95905268D01*
X104290940Y-96028110D01*
X104265000Y-96158518D01*
X104265000Y-96291482D01*
X104290940Y-96421890D01*
X104341823Y-96544732D01*
X104415693Y-96655287D01*
X104509713Y-96749307D01*
X104620268Y-96823177D01*
X104717373Y-96863399D01*
X104738784Y-96880971D01*
X104816960Y-96922757D01*
X104901786Y-96948488D01*
X104990000Y-96957176D01*
X105078215Y-96948488D01*
X105163040Y-96922757D01*
X105241216Y-96880971D01*
X105309737Y-96824737D01*
X105365971Y-96756216D01*
X105369318Y-96749955D01*
X105370287Y-96749307D01*
X105464307Y-96655287D01*
X105538177Y-96544732D01*
X105589060Y-96421890D01*
X105615000Y-96291482D01*
X105615000Y-96158518D01*
X105589060Y-96028110D01*
X105538177Y-95905268D01*
X105464307Y-95794713D01*
X105390000Y-95720406D01*
X105390000Y-95047094D01*
X105392176Y-95025000D01*
X105390000Y-95002906D01*
X105390000Y-95002895D01*
X105383489Y-94936785D01*
X105357757Y-94851959D01*
X105341759Y-94822029D01*
X105315971Y-94773783D01*
X105273828Y-94722432D01*
X105273824Y-94722428D01*
X105259737Y-94705263D01*
X105242573Y-94691177D01*
X103472000Y-92920605D01*
X103472000Y-92511500D01*
X103531558Y-92422365D01*
X103574903Y-92317721D01*
X103597000Y-92206633D01*
X103597000Y-92093367D01*
X103595159Y-92084109D01*
X103599000Y-92045105D01*
X103599000Y-92045095D01*
X103601176Y-92023001D01*
X103599000Y-92000906D01*
X103599000Y-89962395D01*
X105389548Y-88171848D01*
X105406712Y-88157762D01*
X105420799Y-88140597D01*
X105420803Y-88140593D01*
X105462946Y-88089242D01*
X105504732Y-88011066D01*
X105511948Y-87987279D01*
X105530464Y-87926240D01*
X105536975Y-87860130D01*
X105536975Y-87860119D01*
X105539151Y-87838025D01*
X105536975Y-87815931D01*
X105536975Y-85890525D01*
X105596533Y-85801390D01*
X105639878Y-85696746D01*
X105661975Y-85585658D01*
X105661975Y-85472392D01*
X105639878Y-85361304D01*
X105596533Y-85256660D01*
X105561975Y-85204940D01*
X105561975Y-84981193D01*
X109535988Y-81000352D01*
X109588477Y-80936368D01*
X109642351Y-80855819D01*
X109681235Y-80783378D01*
X109705663Y-80703725D01*
X109724858Y-80608740D01*
X109733272Y-80526965D01*
X109725576Y-80444007D01*
X109707210Y-80348859D01*
X109683895Y-80270024D01*
X109645230Y-80196224D01*
X109592061Y-80115207D01*
X109540131Y-80050765D01*
X106230063Y-76676631D01*
X106296425Y-76622169D01*
X106503847Y-76414746D01*
X106529606Y-76393606D01*
X106613958Y-76290824D01*
X106676636Y-76173561D01*
X106714421Y-76049000D01*
X106715233Y-76046324D01*
X106719117Y-76006884D01*
X106725000Y-75947159D01*
X106725000Y-75947153D01*
X106728265Y-75914001D01*
X106725000Y-75880849D01*
X106725000Y-64586841D01*
X106715233Y-64487677D01*
X106676636Y-64360439D01*
X106613958Y-64243176D01*
X106529605Y-64140394D01*
X106426823Y-64056042D01*
X106309560Y-63993364D01*
X106182322Y-63954767D01*
X106050000Y-63941734D01*
X105917677Y-63954767D01*
X105790439Y-63993364D01*
X105673176Y-64056042D01*
X105570394Y-64140395D01*
X105486042Y-64243177D01*
X105423364Y-64360440D01*
X105384767Y-64487678D01*
X105375000Y-64586842D01*
X105375001Y-72607828D01*
X105099565Y-72332393D01*
X105081554Y-72310446D01*
X104993998Y-72238592D01*
X104894108Y-72185199D01*
X104785720Y-72152320D01*
X104701246Y-72144000D01*
X104701243Y-72144000D01*
X104673000Y-72141218D01*
X104644757Y-72144000D01*
X101208743Y-72144000D01*
X101180500Y-72141218D01*
X101152257Y-72144000D01*
X101152254Y-72144000D01*
X101067780Y-72152320D01*
X100959392Y-72185199D01*
X100859501Y-72238592D01*
X100815138Y-72275000D01*
X100771946Y-72310446D01*
X100753939Y-72332388D01*
X99253393Y-73832935D01*
X99231446Y-73850946D01*
X99196819Y-73893141D01*
X99159592Y-73938502D01*
X99113450Y-74024827D01*
X99106199Y-74038393D01*
X99073320Y-74146781D01*
X99065250Y-74228719D01*
X99062218Y-74259500D01*
X99065000Y-74287743D01*
X99065001Y-77183159D01*
X99062218Y-77211412D01*
X99070127Y-77291707D01*
X99072597Y-77316776D01*
X99073321Y-77324131D01*
X99106199Y-77432519D01*
X99159592Y-77532410D01*
X99198648Y-77580000D01*
X99231447Y-77619966D01*
X99253388Y-77637973D01*
X99654688Y-78039273D01*
X98440010Y-79253950D01*
X98440010Y-77761385D01*
X98592567Y-77608828D01*
X98609737Y-77594737D01*
X98643120Y-77554060D01*
X98665971Y-77526217D01*
X98707757Y-77448041D01*
X98712465Y-77432520D01*
X98733489Y-77363215D01*
X98740000Y-77297105D01*
X98740000Y-77297095D01*
X98742176Y-77275000D01*
X98740000Y-77252906D01*
X98740000Y-76809594D01*
X98814307Y-76735287D01*
X98888177Y-76624732D01*
X98939060Y-76501890D01*
X98965000Y-76371482D01*
X98965000Y-76238518D01*
X98939060Y-76108110D01*
X98888177Y-75985268D01*
X98814307Y-75874713D01*
X98720287Y-75780693D01*
X98609732Y-75706823D01*
X98486890Y-75655940D01*
X98356482Y-75630000D01*
X98223518Y-75630000D01*
X98093110Y-75655940D01*
X97970268Y-75706823D01*
X97859713Y-75780693D01*
X97765693Y-75874713D01*
X97708158Y-75960820D01*
X97680177Y-75893268D01*
X97606307Y-75782713D01*
X97512287Y-75688693D01*
X97401732Y-75614823D01*
X97278890Y-75563940D01*
X97148482Y-75538000D01*
X97015518Y-75538000D01*
X96885110Y-75563940D01*
X96762268Y-75614823D01*
X96651713Y-75688693D01*
X96557693Y-75782713D01*
X96483823Y-75893268D01*
X96432940Y-76016110D01*
X96407000Y-76146518D01*
X96407000Y-76279482D01*
X96432940Y-76409890D01*
X96483823Y-76532732D01*
X96557693Y-76643287D01*
X96632001Y-76717595D01*
X96632001Y-77074896D01*
X96629824Y-77097000D01*
X96638512Y-77185215D01*
X96664243Y-77270040D01*
X96706029Y-77348216D01*
X96748172Y-77399567D01*
X96748177Y-77399572D01*
X96762264Y-77416737D01*
X96779429Y-77430824D01*
X96939990Y-77591386D01*
X96939991Y-80670060D01*
X96485400Y-81124652D01*
X96468235Y-81138739D01*
X96454148Y-81155904D01*
X96454144Y-81155908D01*
X96412001Y-81207259D01*
X96398810Y-81231938D01*
X96370215Y-81285435D01*
X96344483Y-81370261D01*
X96337972Y-81436371D01*
X96337972Y-81436381D01*
X96335796Y-81458475D01*
X96337972Y-81480569D01*
X96337974Y-90480869D01*
X96335797Y-90502973D01*
X96344485Y-90591188D01*
X96370216Y-90676013D01*
X96412002Y-90754189D01*
X96454145Y-90805540D01*
X96454150Y-90805545D01*
X96468237Y-90822710D01*
X96485402Y-90836797D01*
X97056176Y-91407572D01*
X97070263Y-91424737D01*
X97087428Y-91438824D01*
X97087432Y-91438828D01*
X97138783Y-91480971D01*
X97145140Y-91484369D01*
X101417970Y-95757200D01*
X101417971Y-98492077D01*
X100687433Y-99222615D01*
X100670263Y-99236707D01*
X100656172Y-99253877D01*
X100614029Y-99305228D01*
X100592895Y-99344767D01*
X100572243Y-99383404D01*
X100546511Y-99468230D01*
X100543707Y-99496699D01*
X100465693Y-99574713D01*
X100391823Y-99685268D01*
X100340940Y-99808110D01*
X100315000Y-99938518D01*
X100315000Y-100071482D01*
X100340940Y-100201890D01*
X100391823Y-100324732D01*
X100465693Y-100435287D01*
X100559713Y-100529307D01*
X100670268Y-100603177D01*
X100793110Y-100654060D01*
X100923518Y-100680000D01*
X101056482Y-100680000D01*
X101139990Y-100663389D01*
X101139989Y-102167174D01*
X101137813Y-102189268D01*
X101139989Y-102211362D01*
X101139989Y-102211372D01*
X101146500Y-102277482D01*
X101158250Y-102316216D01*
X101172232Y-102362308D01*
X101214018Y-102440484D01*
X101256161Y-102491835D01*
X101256165Y-102491839D01*
X101270252Y-102509004D01*
X101287417Y-102523091D01*
X101397517Y-102633192D01*
X101230652Y-102600000D01*
X100989348Y-102600000D01*
X100752681Y-102647076D01*
X100529745Y-102739419D01*
X100329108Y-102873481D01*
X100158481Y-103044108D01*
X100024419Y-103244745D01*
X99932076Y-103467681D01*
X99885000Y-103704348D01*
X99885000Y-103945652D01*
X99932076Y-104182319D01*
X100024419Y-104405255D01*
X100158481Y-104605892D01*
X100329108Y-104776519D01*
X100529745Y-104910581D01*
X100752681Y-105002924D01*
X100989348Y-105050000D01*
X101230652Y-105050000D01*
X101467319Y-105002924D01*
X101690255Y-104910581D01*
X101890892Y-104776519D01*
X101940000Y-104727411D01*
X101940000Y-105082905D01*
X101937824Y-105105000D01*
X101940000Y-105127094D01*
X101940000Y-105127104D01*
X101946511Y-105193214D01*
X101956424Y-105225892D01*
X101972243Y-105278040D01*
X102014029Y-105356216D01*
X102047105Y-105396519D01*
X102070263Y-105424737D01*
X102087434Y-105438829D01*
X102526030Y-105877425D01*
X102472076Y-106007681D01*
X102425000Y-106244348D01*
X102425000Y-106485652D01*
X102472076Y-106722319D01*
X102564419Y-106945255D01*
X102698481Y-107145892D01*
X102869108Y-107316519D01*
X103069745Y-107450581D01*
X103292681Y-107542924D01*
X103529348Y-107590000D01*
X103770652Y-107590000D01*
X104007319Y-107542924D01*
X104230255Y-107450581D01*
X104430892Y-107316519D01*
X104601519Y-107145892D01*
X104735581Y-106945255D01*
X104827924Y-106722319D01*
X104875000Y-106485652D01*
X104875000Y-106244348D01*
X104965000Y-106244348D01*
X104965000Y-106485652D01*
X105012076Y-106722319D01*
X105104419Y-106945255D01*
X105238481Y-107145892D01*
X105409108Y-107316519D01*
X105609745Y-107450581D01*
X105832681Y-107542924D01*
X106069348Y-107590000D01*
X106310652Y-107590000D01*
X106547319Y-107542924D01*
X106770255Y-107450581D01*
X106970892Y-107316519D01*
X107141519Y-107145892D01*
X107275581Y-106945255D01*
X107367924Y-106722319D01*
X107415000Y-106485652D01*
X107415000Y-106244348D01*
X107367924Y-106007681D01*
X107275581Y-105784745D01*
X107141519Y-105584108D01*
X106970892Y-105413481D01*
X106770255Y-105279419D01*
X106547319Y-105187076D01*
X106310652Y-105140000D01*
X106069348Y-105140000D01*
X105832681Y-105187076D01*
X105609745Y-105279419D01*
X105409108Y-105413481D01*
X105238481Y-105584108D01*
X105104419Y-105784745D01*
X105012076Y-106007681D01*
X104965000Y-106244348D01*
X104875000Y-106244348D01*
X104827924Y-106007681D01*
X104735581Y-105784745D01*
X104601519Y-105584108D01*
X104430892Y-105413481D01*
X104230255Y-105279419D01*
X104007319Y-105187076D01*
X103770652Y-105140000D01*
X103529348Y-105140000D01*
X103292681Y-105187076D01*
X103162425Y-105241030D01*
X102840000Y-104918605D01*
X102840000Y-104747411D01*
X102869108Y-104776519D01*
X103069745Y-104910581D01*
X103292681Y-105002924D01*
X103529348Y-105050000D01*
X103770652Y-105050000D01*
X104007319Y-105002924D01*
X104230255Y-104910581D01*
X104430892Y-104776519D01*
X104601519Y-104605892D01*
X104735581Y-104405255D01*
X104827924Y-104182319D01*
X104875000Y-103945652D01*
X104875000Y-103704348D01*
X104827924Y-103467681D01*
X104735581Y-103244745D01*
X104601519Y-103044108D01*
X104532411Y-102975000D01*
X104963186Y-102975000D01*
X104963186Y-104675000D01*
X104970426Y-104748513D01*
X104991869Y-104819200D01*
X105026691Y-104884347D01*
X105073552Y-104941448D01*
X105130653Y-104988309D01*
X105195800Y-105023131D01*
X105266487Y-105044574D01*
X105340000Y-105051814D01*
X107040000Y-105051814D01*
X107113513Y-105044574D01*
X107184200Y-105023131D01*
X107249347Y-104988309D01*
X107306448Y-104941448D01*
X107353309Y-104884347D01*
X107388131Y-104819200D01*
X107409574Y-104748513D01*
X107416814Y-104675000D01*
X107416814Y-102975000D01*
X107409574Y-102901487D01*
X107388131Y-102830800D01*
X107353309Y-102765653D01*
X107306448Y-102708552D01*
X107249347Y-102661691D01*
X107184200Y-102626869D01*
X107113513Y-102605426D01*
X107040000Y-102598186D01*
X105340000Y-102598186D01*
X105266487Y-102605426D01*
X105195800Y-102626869D01*
X105130653Y-102661691D01*
X105073552Y-102708552D01*
X105026691Y-102765653D01*
X104991869Y-102830800D01*
X104970426Y-102901487D01*
X104963186Y-102975000D01*
X104532411Y-102975000D01*
X104430892Y-102873481D01*
X104230255Y-102739419D01*
X104007319Y-102647076D01*
X103770652Y-102600000D01*
X103529348Y-102600000D01*
X103292681Y-102647076D01*
X103162425Y-102701030D01*
X102340000Y-101878605D01*
X102340000Y-100422835D01*
X102448268Y-100495177D01*
X102571110Y-100546060D01*
X102701518Y-100572000D01*
X102834482Y-100572000D01*
X102964890Y-100546060D01*
X103087732Y-100495177D01*
X103198287Y-100421307D01*
X103292307Y-100327287D01*
X103366177Y-100216732D01*
X103417060Y-100093890D01*
X103443000Y-99963482D01*
X103443000Y-99830518D01*
X103417060Y-99700110D01*
X103366177Y-99577268D01*
X103292307Y-99466713D01*
X103218000Y-99392406D01*
X103218000Y-98125896D01*
X103499676Y-98407572D01*
X103513763Y-98424737D01*
X103530928Y-98438824D01*
X103530932Y-98438828D01*
X103582283Y-98480971D01*
X103628050Y-98505434D01*
X103660459Y-98522757D01*
X103745285Y-98548489D01*
X103811395Y-98555000D01*
X103811406Y-98555000D01*
X103833500Y-98557176D01*
X103855594Y-98555000D01*
X105167906Y-98555000D01*
X105190000Y-98557176D01*
X105212094Y-98555000D01*
X105212105Y-98555000D01*
X105278215Y-98548489D01*
X105363041Y-98522757D01*
X105441216Y-98480971D01*
X105509737Y-98424737D01*
X105523829Y-98407566D01*
X111135073Y-92796323D01*
X111152237Y-92782237D01*
X111166324Y-92765072D01*
X111166328Y-92765068D01*
X111208471Y-92713717D01*
X111250257Y-92635541D01*
X111262555Y-92595000D01*
X111275989Y-92550715D01*
X111282500Y-92484605D01*
X111282500Y-92484595D01*
X111284676Y-92462501D01*
X111282500Y-92440406D01*
X111282500Y-86028895D01*
X112062425Y-85248970D01*
X112192681Y-85302924D01*
X112429348Y-85350000D01*
X112447400Y-85350000D01*
X112447400Y-85440000D01*
X112429348Y-85440000D01*
X112192681Y-85487076D01*
X111969745Y-85579419D01*
X111769108Y-85713481D01*
X111598481Y-85884108D01*
X111464419Y-86084745D01*
X111372076Y-86307681D01*
X111325000Y-86544348D01*
X111325000Y-86785652D01*
X111372076Y-87022319D01*
X111464419Y-87245255D01*
X111598481Y-87445892D01*
X111769108Y-87616519D01*
X111969745Y-87750581D01*
X112192681Y-87842924D01*
X112429348Y-87890000D01*
X112447400Y-87890000D01*
X112447400Y-90520000D01*
X112429348Y-90520000D01*
X112192681Y-90567076D01*
X111969745Y-90659419D01*
X111769108Y-90793481D01*
X111598481Y-90964108D01*
X111464419Y-91164745D01*
X111372076Y-91387681D01*
X111325000Y-91624348D01*
X111325000Y-91865652D01*
X111372076Y-92102319D01*
X111464419Y-92325255D01*
X111598481Y-92525892D01*
X111769108Y-92696519D01*
X111969745Y-92830581D01*
X112192681Y-92922924D01*
X112429348Y-92970000D01*
X112447400Y-92970000D01*
X112447400Y-93060000D01*
X112429348Y-93060000D01*
X112192681Y-93107076D01*
X111969745Y-93199419D01*
X111769108Y-93333481D01*
X111598481Y-93504108D01*
X111464419Y-93704745D01*
X111372076Y-93927681D01*
X111325000Y-94164348D01*
X111325000Y-94405652D01*
X111372076Y-94642319D01*
X111464419Y-94865255D01*
X111598481Y-95065892D01*
X111769108Y-95236519D01*
X111969745Y-95370581D01*
X112192681Y-95462924D01*
X112429348Y-95510000D01*
X112447400Y-95510000D01*
X112447400Y-95600000D01*
X112429348Y-95600000D01*
X112192681Y-95647076D01*
X111969745Y-95739419D01*
X111769108Y-95873481D01*
X111598481Y-96044108D01*
X111464419Y-96244745D01*
X111372076Y-96467681D01*
X111325000Y-96704348D01*
X111325000Y-96945652D01*
X111372076Y-97182319D01*
X111464419Y-97405255D01*
X111598481Y-97605892D01*
X111769108Y-97776519D01*
X111969745Y-97910581D01*
X112192681Y-98002924D01*
X112429348Y-98050000D01*
X112447400Y-98050000D01*
X112447400Y-98140000D01*
X112429348Y-98140000D01*
X112192681Y-98187076D01*
X111969745Y-98279419D01*
X111769108Y-98413481D01*
X111598481Y-98584108D01*
X111464419Y-98784745D01*
X111372076Y-99007681D01*
X111325000Y-99244348D01*
X111325000Y-99485652D01*
X111372076Y-99722319D01*
X111464419Y-99945255D01*
X111598481Y-100145892D01*
X111769108Y-100316519D01*
X111969745Y-100450581D01*
X112192681Y-100542924D01*
X112429348Y-100590000D01*
X112447400Y-100590000D01*
X112447400Y-103220000D01*
X112429348Y-103220000D01*
X112192681Y-103267076D01*
X111969745Y-103359419D01*
X111769108Y-103493481D01*
X111598481Y-103664108D01*
X111464419Y-103864745D01*
X111372076Y-104087681D01*
X111325000Y-104324348D01*
X111325000Y-104565652D01*
X111372076Y-104802319D01*
X111464419Y-105025255D01*
X111598481Y-105225892D01*
X111769108Y-105396519D01*
X111969745Y-105530581D01*
X112192681Y-105622924D01*
X112429348Y-105670000D01*
X112447400Y-105670000D01*
X112447400Y-105760000D01*
X112429348Y-105760000D01*
X112192681Y-105807076D01*
X111969745Y-105899419D01*
X111769108Y-106033481D01*
X111598481Y-106204108D01*
X111464419Y-106404745D01*
X111372076Y-106627681D01*
X111325000Y-106864348D01*
X111325000Y-107105652D01*
X111372076Y-107342319D01*
X111464419Y-107565255D01*
X111598481Y-107765892D01*
X111769108Y-107936519D01*
X111969745Y-108070581D01*
X112101124Y-108125000D01*
X95198876Y-108125000D01*
X95330255Y-108070581D01*
X95530892Y-107936519D01*
X95701519Y-107765892D01*
X95835581Y-107565255D01*
X95927924Y-107342319D01*
X95975000Y-107105652D01*
X95975000Y-106864348D01*
X95927924Y-106627681D01*
X95835581Y-106404745D01*
X95701519Y-106204108D01*
X95530892Y-106033481D01*
X95330255Y-105899419D01*
X95107319Y-105807076D01*
X94870652Y-105760000D01*
X94866600Y-105760000D01*
X94866600Y-105670000D01*
X94870652Y-105670000D01*
X95107319Y-105622924D01*
X95330255Y-105530581D01*
X95530892Y-105396519D01*
X95701519Y-105225892D01*
X95835581Y-105025255D01*
X95927924Y-104802319D01*
X95975000Y-104565652D01*
X95975000Y-104324348D01*
X95927924Y-104087681D01*
X95835581Y-103864745D01*
X95701519Y-103664108D01*
X95530892Y-103493481D01*
X95330255Y-103359419D01*
X95107319Y-103267076D01*
X94870652Y-103220000D01*
X94866600Y-103220000D01*
X94866600Y-100590000D01*
X94870652Y-100590000D01*
X95107319Y-100542924D01*
X95330255Y-100450581D01*
X95530892Y-100316519D01*
X95701519Y-100145892D01*
X95835581Y-99945255D01*
X95927924Y-99722319D01*
X95975000Y-99485652D01*
X95975000Y-99244348D01*
X95927924Y-99007681D01*
X95835581Y-98784745D01*
X95701519Y-98584108D01*
X95530892Y-98413481D01*
X95330255Y-98279419D01*
X95107319Y-98187076D01*
X94870652Y-98140000D01*
X94866600Y-98140000D01*
X94866600Y-98050000D01*
X94870652Y-98050000D01*
X95107319Y-98002924D01*
X95330255Y-97910581D01*
X95530892Y-97776519D01*
X95701519Y-97605892D01*
X95835581Y-97405255D01*
X95927924Y-97182319D01*
X95975000Y-96945652D01*
X95975000Y-96704348D01*
X95927924Y-96467681D01*
X95835581Y-96244745D01*
X95701519Y-96044108D01*
X95530892Y-95873481D01*
X95330255Y-95739419D01*
X95107319Y-95647076D01*
X94870652Y-95600000D01*
X94866600Y-95600000D01*
X94866600Y-95510000D01*
X94870652Y-95510000D01*
X95107319Y-95462924D01*
X95330255Y-95370581D01*
X95530892Y-95236519D01*
X95701519Y-95065892D01*
X95835581Y-94865255D01*
X95927924Y-94642319D01*
X95975000Y-94405652D01*
X95975000Y-94164348D01*
X95927924Y-93927681D01*
X95835581Y-93704745D01*
X95701519Y-93504108D01*
X95530892Y-93333481D01*
X95330255Y-93199419D01*
X95107319Y-93107076D01*
X94870652Y-93060000D01*
X94866600Y-93060000D01*
X94866600Y-92970000D01*
X94870652Y-92970000D01*
X95107319Y-92922924D01*
X95330255Y-92830581D01*
X95530892Y-92696519D01*
X95701519Y-92525892D01*
X95835581Y-92325255D01*
X95927924Y-92102319D01*
X95975000Y-91865652D01*
X95975000Y-91624348D01*
X95927924Y-91387681D01*
X95835581Y-91164745D01*
X95701519Y-90964108D01*
X95530892Y-90793481D01*
X95330255Y-90659419D01*
X95107319Y-90567076D01*
X94870652Y-90520000D01*
X94866600Y-90520000D01*
X94866600Y-87890000D01*
X94870652Y-87890000D01*
X95107319Y-87842924D01*
X95330255Y-87750581D01*
X95530892Y-87616519D01*
X95701519Y-87445892D01*
X95835581Y-87245255D01*
X95927924Y-87022319D01*
X95975000Y-86785652D01*
X95975000Y-86544348D01*
X95927924Y-86307681D01*
X95835581Y-86084745D01*
X95701519Y-85884108D01*
X95530892Y-85713481D01*
X95330255Y-85579419D01*
X95107319Y-85487076D01*
X94870652Y-85440000D01*
X94866600Y-85440000D01*
X94866600Y-85350000D01*
X94870652Y-85350000D01*
X95107319Y-85302924D01*
X95330255Y-85210581D01*
X95530892Y-85076519D01*
X95701519Y-84905892D01*
X95835581Y-84705255D01*
X95927924Y-84482319D01*
X95975000Y-84245652D01*
X95975000Y-84004348D01*
X95927924Y-83767681D01*
X95835581Y-83544745D01*
X95701519Y-83344108D01*
X95530892Y-83173481D01*
X95330255Y-83039419D01*
X95107319Y-82947076D01*
X94870652Y-82900000D01*
X94866600Y-82900000D01*
X94866600Y-82810000D01*
X94870652Y-82810000D01*
X95107319Y-82762924D01*
X95330255Y-82670581D01*
X95530892Y-82536519D01*
X95701519Y-82365892D01*
X95835581Y-82165255D01*
X95927924Y-81942319D01*
X95975000Y-81705652D01*
X95975000Y-81464348D01*
X95927924Y-81227681D01*
X95835581Y-81004745D01*
X95701519Y-80804108D01*
X95530892Y-80633481D01*
X95330255Y-80499419D01*
X95107319Y-80407076D01*
X94870652Y-80360000D01*
X94866600Y-80360000D01*
X94866600Y-80270000D01*
X94870652Y-80270000D01*
X95107319Y-80222924D01*
X95330255Y-80130581D01*
X95530892Y-79996519D01*
X95701519Y-79825892D01*
X95835581Y-79625255D01*
X95927924Y-79402319D01*
X95975000Y-79165652D01*
X95975000Y-78924348D01*
X95927924Y-78687681D01*
X95835581Y-78464745D01*
X95701519Y-78264108D01*
X95530892Y-78093481D01*
X95330255Y-77959419D01*
X95107319Y-77867076D01*
X94870652Y-77820000D01*
X94866600Y-77820000D01*
X94866600Y-75190000D01*
X94870652Y-75190000D01*
X95107319Y-75142924D01*
X95330255Y-75050581D01*
X95530892Y-74916519D01*
X95701519Y-74745892D01*
X95835581Y-74545255D01*
X95927924Y-74322319D01*
X95975000Y-74085652D01*
X95975000Y-73844348D01*
X95927924Y-73607681D01*
X95835581Y-73384745D01*
X95701519Y-73184108D01*
X95530892Y-73013481D01*
X95330255Y-72879419D01*
X95107319Y-72787076D01*
X94870652Y-72740000D01*
X94866600Y-72740000D01*
X94866600Y-72650000D01*
X94870652Y-72650000D01*
X95107319Y-72602924D01*
X95330255Y-72510581D01*
X95530892Y-72376519D01*
X95701519Y-72205892D01*
X95835581Y-72005255D01*
X95927924Y-71782319D01*
X95975000Y-71545652D01*
X95975000Y-71304348D01*
X95927924Y-71067681D01*
X95835581Y-70844745D01*
X95701519Y-70644108D01*
X95530892Y-70473481D01*
X95330255Y-70339419D01*
X95107319Y-70247076D01*
X94870652Y-70200000D01*
X94866600Y-70200000D01*
X94866600Y-70110000D01*
X94870652Y-70110000D01*
X95107319Y-70062924D01*
X95330255Y-69970581D01*
X95530892Y-69836519D01*
X95701519Y-69665892D01*
X95835581Y-69465255D01*
X95927924Y-69242319D01*
X95975000Y-69005652D01*
X95975000Y-68764348D01*
X95927924Y-68527681D01*
X95835581Y-68304745D01*
X95701519Y-68104108D01*
X95530892Y-67933481D01*
X95330255Y-67799419D01*
X95107319Y-67707076D01*
X94870652Y-67660000D01*
X94866600Y-67660000D01*
X94866600Y-67570000D01*
X94870652Y-67570000D01*
X95107319Y-67522924D01*
X95330255Y-67430581D01*
X95530892Y-67296519D01*
X95701519Y-67125892D01*
X95835581Y-66925255D01*
X95927924Y-66702319D01*
X95975000Y-66465652D01*
X95975000Y-66224348D01*
X95927924Y-65987681D01*
X95835581Y-65764745D01*
X95701519Y-65564108D01*
X95530892Y-65393481D01*
X95330255Y-65259419D01*
X95107319Y-65167076D01*
X94922758Y-65130365D01*
X94873513Y-65115426D01*
X94866600Y-65114745D01*
X94866600Y-63106056D01*
X100010000Y-63106056D01*
X100010000Y-63243944D01*
X100036901Y-63379182D01*
X100089668Y-63506574D01*
X100166274Y-63621224D01*
X100263776Y-63718726D01*
X100378426Y-63795332D01*
X100505818Y-63848099D01*
X100641056Y-63875000D01*
X100778944Y-63875000D01*
X100914182Y-63848099D01*
X101041574Y-63795332D01*
X101156224Y-63718726D01*
X101253726Y-63621224D01*
X101330332Y-63506574D01*
X101383099Y-63379182D01*
X101410000Y-63243944D01*
X101410000Y-63106056D01*
X101390966Y-63010367D01*
X102274988Y-63010367D01*
X102274988Y-63123633D01*
X102297085Y-63234721D01*
X102340430Y-63339365D01*
X102403356Y-63433541D01*
X102483447Y-63513632D01*
X102577623Y-63576558D01*
X102682267Y-63619903D01*
X102793355Y-63642000D01*
X102801986Y-63642000D01*
X102836378Y-63725029D01*
X102899304Y-63819205D01*
X102979395Y-63899296D01*
X103073571Y-63962222D01*
X103178215Y-64005567D01*
X103289303Y-64027664D01*
X103292460Y-64027664D01*
X103299650Y-64033565D01*
X103377825Y-64075351D01*
X103462651Y-64101083D01*
X103528761Y-64107594D01*
X103528772Y-64107594D01*
X103550866Y-64109770D01*
X103572960Y-64107594D01*
X104128969Y-64107594D01*
X104151063Y-64109770D01*
X104173157Y-64107594D01*
X104173168Y-64107594D01*
X104239278Y-64101083D01*
X104324104Y-64075351D01*
X104402279Y-64033565D01*
X104422132Y-64017272D01*
X104423018Y-64017272D01*
X104534106Y-63995175D01*
X104638750Y-63951830D01*
X104732926Y-63888904D01*
X104813017Y-63808813D01*
X104875943Y-63714637D01*
X104919288Y-63609993D01*
X104941385Y-63498905D01*
X104941385Y-63385639D01*
X104919288Y-63274551D01*
X104875943Y-63169907D01*
X104833280Y-63106056D01*
X105790000Y-63106056D01*
X105790000Y-63243944D01*
X105816901Y-63379182D01*
X105869668Y-63506574D01*
X105946274Y-63621224D01*
X106043776Y-63718726D01*
X106158426Y-63795332D01*
X106285818Y-63848099D01*
X106421056Y-63875000D01*
X106558944Y-63875000D01*
X106694182Y-63848099D01*
X106821574Y-63795332D01*
X106936224Y-63718726D01*
X107033726Y-63621224D01*
X107110332Y-63506574D01*
X107163099Y-63379182D01*
X107190000Y-63243944D01*
X107190000Y-63106056D01*
X107163099Y-62970818D01*
X107110332Y-62843426D01*
X107033726Y-62728776D01*
X106936224Y-62631274D01*
X106821574Y-62554668D01*
X106694182Y-62501901D01*
X106558944Y-62475000D01*
X106421056Y-62475000D01*
X106285818Y-62501901D01*
X106158426Y-62554668D01*
X106043776Y-62631274D01*
X105946274Y-62728776D01*
X105869668Y-62843426D01*
X105816901Y-62970818D01*
X105790000Y-63106056D01*
X104833280Y-63106056D01*
X104813017Y-63075731D01*
X104732926Y-62995640D01*
X104638750Y-62932714D01*
X104534106Y-62889369D01*
X104423018Y-62867272D01*
X104392406Y-62867272D01*
X104357058Y-62781935D01*
X104294132Y-62687759D01*
X104214041Y-62607668D01*
X104119865Y-62544742D01*
X104015221Y-62501397D01*
X103904133Y-62479300D01*
X103902674Y-62479300D01*
X103886017Y-62465630D01*
X103807842Y-62423844D01*
X103723016Y-62398112D01*
X103656906Y-62391601D01*
X103656895Y-62391601D01*
X103634801Y-62389425D01*
X103612707Y-62391601D01*
X103097478Y-62391601D01*
X103075386Y-62389425D01*
X103053294Y-62391601D01*
X103053282Y-62391601D01*
X102987172Y-62398112D01*
X102902346Y-62423844D01*
X102824171Y-62465630D01*
X102791618Y-62492345D01*
X102682267Y-62514097D01*
X102577623Y-62557442D01*
X102483447Y-62620368D01*
X102403356Y-62700459D01*
X102340430Y-62794635D01*
X102297085Y-62899279D01*
X102274988Y-63010367D01*
X101390966Y-63010367D01*
X101383099Y-62970818D01*
X101330332Y-62843426D01*
X101253726Y-62728776D01*
X101156224Y-62631274D01*
X101041574Y-62554668D01*
X100914182Y-62501901D01*
X100778944Y-62475000D01*
X100641056Y-62475000D01*
X100505818Y-62501901D01*
X100378426Y-62554668D01*
X100263776Y-62631274D01*
X100166274Y-62728776D01*
X100089668Y-62843426D01*
X100036901Y-62970818D01*
X100010000Y-63106056D01*
X94866600Y-63106056D01*
X94866600Y-62490000D01*
X94870652Y-62490000D01*
X95107319Y-62442924D01*
X95330255Y-62350581D01*
X95530892Y-62216519D01*
X95701519Y-62045892D01*
X95835581Y-61845255D01*
X95927924Y-61622319D01*
X95975000Y-61385652D01*
X95975000Y-61144348D01*
X95927924Y-60907681D01*
X95835581Y-60684745D01*
X95701519Y-60484108D01*
X95530892Y-60313481D01*
X95330255Y-60179419D01*
X95107319Y-60087076D01*
X94922758Y-60050365D01*
X94873513Y-60035426D01*
X94866600Y-60034745D01*
X94866600Y-59950000D01*
X94870652Y-59950000D01*
X95107319Y-59902924D01*
X95330255Y-59810581D01*
X95530892Y-59676519D01*
X95701519Y-59505892D01*
X95835581Y-59305255D01*
X95927924Y-59082319D01*
X95975000Y-58845652D01*
X95975000Y-58604348D01*
X95927924Y-58367681D01*
X95835581Y-58144745D01*
X95701519Y-57944108D01*
X95530892Y-57773481D01*
X95330255Y-57639419D01*
X95295444Y-57625000D01*
X111420054Y-57625000D01*
X111386691Y-57665653D01*
G37*
G04 #@! TD.AperFunction*
D23*
X105375001Y-74234174D02*
X105375001Y-75139828D01*
X105367274Y-75132101D01*
X105273098Y-75069175D01*
X105168454Y-75025830D01*
X105057366Y-75003733D01*
X104944100Y-75003733D01*
X104833012Y-75025830D01*
X104728368Y-75069175D01*
X104634192Y-75132101D01*
X104554101Y-75212192D01*
X104491175Y-75306368D01*
X104468960Y-75360000D01*
X103941734Y-75360000D01*
X103917558Y-75301635D01*
X103854632Y-75207459D01*
X103774541Y-75127368D01*
X103680365Y-75064442D01*
X103575721Y-75021097D01*
X103464633Y-74999000D01*
X103351367Y-74999000D01*
X103240279Y-75021097D01*
X103135635Y-75064442D01*
X103083915Y-75099000D01*
X102078751Y-75099000D01*
X101989038Y-75009287D01*
X101976903Y-74948279D01*
X101934965Y-74847032D01*
X101955721Y-74842903D01*
X102060365Y-74799558D01*
X102154541Y-74736632D01*
X102234632Y-74656541D01*
X102297558Y-74562365D01*
X102340903Y-74457721D01*
X102363000Y-74346633D01*
X102363000Y-74233367D01*
X102340903Y-74122279D01*
X102297558Y-74017635D01*
X102234632Y-73923459D01*
X102154541Y-73843368D01*
X102112426Y-73815228D01*
X102137903Y-73753721D01*
X102160000Y-73642633D01*
X102160000Y-73529367D01*
X102137903Y-73418279D01*
X102094558Y-73313635D01*
X102081438Y-73294000D01*
X104434828Y-73294000D01*
X105375001Y-74234174D01*
G04 #@! TA.AperFunction,Conductor*
D20*
G36*
X105375001Y-74234174D02*
G01*
X105375001Y-75139828D01*
X105367274Y-75132101D01*
X105273098Y-75069175D01*
X105168454Y-75025830D01*
X105057366Y-75003733D01*
X104944100Y-75003733D01*
X104833012Y-75025830D01*
X104728368Y-75069175D01*
X104634192Y-75132101D01*
X104554101Y-75212192D01*
X104491175Y-75306368D01*
X104468960Y-75360000D01*
X103941734Y-75360000D01*
X103917558Y-75301635D01*
X103854632Y-75207459D01*
X103774541Y-75127368D01*
X103680365Y-75064442D01*
X103575721Y-75021097D01*
X103464633Y-74999000D01*
X103351367Y-74999000D01*
X103240279Y-75021097D01*
X103135635Y-75064442D01*
X103083915Y-75099000D01*
X102078751Y-75099000D01*
X101989038Y-75009287D01*
X101976903Y-74948279D01*
X101934965Y-74847032D01*
X101955721Y-74842903D01*
X102060365Y-74799558D01*
X102154541Y-74736632D01*
X102234632Y-74656541D01*
X102297558Y-74562365D01*
X102340903Y-74457721D01*
X102363000Y-74346633D01*
X102363000Y-74233367D01*
X102340903Y-74122279D01*
X102297558Y-74017635D01*
X102234632Y-73923459D01*
X102154541Y-73843368D01*
X102112426Y-73815228D01*
X102137903Y-73753721D01*
X102160000Y-73642633D01*
X102160000Y-73529367D01*
X102137903Y-73418279D01*
X102094558Y-73313635D01*
X102081438Y-73294000D01*
X104434828Y-73294000D01*
X105375001Y-74234174D01*
G37*
G04 #@! TD.AperFunction*
D23*
X104702457Y-75922059D02*
X104752999Y-75956359D01*
X105161061Y-76372319D01*
X105169522Y-76400212D01*
X105236844Y-76526161D01*
X105327443Y-76636557D01*
X105437839Y-76727156D01*
X105563788Y-76794478D01*
X105580041Y-76799408D01*
X107513749Y-78770542D01*
X107515100Y-78784261D01*
X107515100Y-78863857D01*
X107539119Y-78984606D01*
X107586232Y-79098348D01*
X107654631Y-79200714D01*
X107741686Y-79287769D01*
X107844052Y-79356168D01*
X107957794Y-79403281D01*
X108078543Y-79427300D01*
X108158036Y-79427300D01*
X109138949Y-80427198D01*
X109145000Y-80436419D01*
X109145000Y-80610125D01*
X109138106Y-80620432D01*
X109058565Y-80700110D01*
X108998694Y-80712019D01*
X108884952Y-80759132D01*
X108782586Y-80827531D01*
X108695531Y-80914586D01*
X108627132Y-81016952D01*
X108580019Y-81130694D01*
X108567900Y-81191618D01*
X104335000Y-85431792D01*
X104335000Y-83962975D01*
X104431701Y-83911287D01*
X104500975Y-83864999D01*
X104652511Y-83740636D01*
X104683413Y-83712627D01*
X106863413Y-81532627D01*
X106891423Y-81501724D01*
X107015786Y-81350187D01*
X107062073Y-81280914D01*
X107154483Y-81108027D01*
X107186365Y-81031055D01*
X107243271Y-80843462D01*
X107259526Y-80761746D01*
X107278740Y-80566656D01*
X107278740Y-80483344D01*
X107259526Y-80288254D01*
X107243271Y-80206538D01*
X107186365Y-80018945D01*
X107154483Y-79941973D01*
X107062073Y-79769086D01*
X107015786Y-79699813D01*
X106891423Y-79548276D01*
X106863413Y-79517373D01*
X104501568Y-77155528D01*
X104471242Y-77127993D01*
X104341280Y-77020953D01*
X104273407Y-76975255D01*
X104125342Y-76895104D01*
X104049968Y-76863259D01*
X103889287Y-76812968D01*
X103809205Y-76796158D01*
X103641865Y-76777592D01*
X103558558Y-76776565D01*
X103391495Y-76790943D01*
X103308150Y-76806608D01*
X103147268Y-76853869D01*
X103068694Y-76885769D01*
X102920397Y-76964031D01*
X102849720Y-77010897D01*
X102719914Y-77117044D01*
X102688432Y-77145528D01*
X100316587Y-79517373D01*
X100288577Y-79548276D01*
X100164214Y-79699813D01*
X100117927Y-79769086D01*
X100025517Y-79941973D01*
X99993635Y-80018945D01*
X99936729Y-80206538D01*
X99920474Y-80288254D01*
X99901260Y-80483344D01*
X99901260Y-80566656D01*
X99920474Y-80761746D01*
X99936729Y-80843462D01*
X99993635Y-81031055D01*
X100025517Y-81108027D01*
X100117927Y-81280914D01*
X100164214Y-81350187D01*
X100288577Y-81501724D01*
X100316587Y-81532627D01*
X102496587Y-83712627D01*
X102527489Y-83740636D01*
X102679025Y-83864999D01*
X102748299Y-83911287D01*
X102885000Y-83984355D01*
X102885001Y-85471861D01*
X98490010Y-81069320D01*
X98490010Y-79981766D01*
X100277643Y-78194133D01*
X100281628Y-78192924D01*
X100308832Y-78178383D01*
X100337342Y-78166574D01*
X100363003Y-78149428D01*
X100390205Y-78134888D01*
X100414047Y-78115321D01*
X100439708Y-78098175D01*
X100461532Y-78076351D01*
X100485373Y-78056785D01*
X100504939Y-78032944D01*
X100526763Y-78011120D01*
X100543909Y-77985459D01*
X100563476Y-77961617D01*
X100578016Y-77934415D01*
X100595162Y-77908754D01*
X100606971Y-77880244D01*
X100621512Y-77853040D01*
X100622721Y-77849055D01*
X101041776Y-77430000D01*
X101044557Y-77430000D01*
X101165306Y-77405981D01*
X101279048Y-77358868D01*
X101381414Y-77290469D01*
X101468469Y-77203414D01*
X101536868Y-77101048D01*
X101567693Y-77026629D01*
X101636306Y-77012981D01*
X101750048Y-76965868D01*
X101852414Y-76897469D01*
X101939469Y-76810414D01*
X102007868Y-76708048D01*
X102054981Y-76594306D01*
X102079000Y-76473557D01*
X102079000Y-76392776D01*
X102372776Y-76099000D01*
X103068748Y-76099000D01*
X103111952Y-76127868D01*
X103225694Y-76174981D01*
X103346443Y-76199000D01*
X103469557Y-76199000D01*
X103590306Y-76174981D01*
X103704048Y-76127868D01*
X103806414Y-76059469D01*
X103893469Y-75972414D01*
X103935173Y-75910000D01*
X104642579Y-75910000D01*
X104702457Y-75922059D01*
G04 #@! TA.AperFunction,Conductor*
D20*
G36*
X104702457Y-75922059D02*
G01*
X104752999Y-75956359D01*
X105161061Y-76372319D01*
X105169522Y-76400212D01*
X105236844Y-76526161D01*
X105327443Y-76636557D01*
X105437839Y-76727156D01*
X105563788Y-76794478D01*
X105580041Y-76799408D01*
X107513749Y-78770542D01*
X107515100Y-78784261D01*
X107515100Y-78863857D01*
X107539119Y-78984606D01*
X107586232Y-79098348D01*
X107654631Y-79200714D01*
X107741686Y-79287769D01*
X107844052Y-79356168D01*
X107957794Y-79403281D01*
X108078543Y-79427300D01*
X108158036Y-79427300D01*
X109138949Y-80427198D01*
X109145000Y-80436419D01*
X109145000Y-80610125D01*
X109138106Y-80620432D01*
X109058565Y-80700110D01*
X108998694Y-80712019D01*
X108884952Y-80759132D01*
X108782586Y-80827531D01*
X108695531Y-80914586D01*
X108627132Y-81016952D01*
X108580019Y-81130694D01*
X108567900Y-81191618D01*
X104335000Y-85431792D01*
X104335000Y-83962975D01*
X104431701Y-83911287D01*
X104500975Y-83864999D01*
X104652511Y-83740636D01*
X104683413Y-83712627D01*
X106863413Y-81532627D01*
X106891423Y-81501724D01*
X107015786Y-81350187D01*
X107062073Y-81280914D01*
X107154483Y-81108027D01*
X107186365Y-81031055D01*
X107243271Y-80843462D01*
X107259526Y-80761746D01*
X107278740Y-80566656D01*
X107278740Y-80483344D01*
X107259526Y-80288254D01*
X107243271Y-80206538D01*
X107186365Y-80018945D01*
X107154483Y-79941973D01*
X107062073Y-79769086D01*
X107015786Y-79699813D01*
X106891423Y-79548276D01*
X106863413Y-79517373D01*
X104501568Y-77155528D01*
X104471242Y-77127993D01*
X104341280Y-77020953D01*
X104273407Y-76975255D01*
X104125342Y-76895104D01*
X104049968Y-76863259D01*
X103889287Y-76812968D01*
X103809205Y-76796158D01*
X103641865Y-76777592D01*
X103558558Y-76776565D01*
X103391495Y-76790943D01*
X103308150Y-76806608D01*
X103147268Y-76853869D01*
X103068694Y-76885769D01*
X102920397Y-76964031D01*
X102849720Y-77010897D01*
X102719914Y-77117044D01*
X102688432Y-77145528D01*
X100316587Y-79517373D01*
X100288577Y-79548276D01*
X100164214Y-79699813D01*
X100117927Y-79769086D01*
X100025517Y-79941973D01*
X99993635Y-80018945D01*
X99936729Y-80206538D01*
X99920474Y-80288254D01*
X99901260Y-80483344D01*
X99901260Y-80566656D01*
X99920474Y-80761746D01*
X99936729Y-80843462D01*
X99993635Y-81031055D01*
X100025517Y-81108027D01*
X100117927Y-81280914D01*
X100164214Y-81350187D01*
X100288577Y-81501724D01*
X100316587Y-81532627D01*
X102496587Y-83712627D01*
X102527489Y-83740636D01*
X102679025Y-83864999D01*
X102748299Y-83911287D01*
X102885000Y-83984355D01*
X102885001Y-85471861D01*
X98490010Y-81069320D01*
X98490010Y-79981766D01*
X100277643Y-78194133D01*
X100281628Y-78192924D01*
X100308832Y-78178383D01*
X100337342Y-78166574D01*
X100363003Y-78149428D01*
X100390205Y-78134888D01*
X100414047Y-78115321D01*
X100439708Y-78098175D01*
X100461532Y-78076351D01*
X100485373Y-78056785D01*
X100504939Y-78032944D01*
X100526763Y-78011120D01*
X100543909Y-77985459D01*
X100563476Y-77961617D01*
X100578016Y-77934415D01*
X100595162Y-77908754D01*
X100606971Y-77880244D01*
X100621512Y-77853040D01*
X100622721Y-77849055D01*
X101041776Y-77430000D01*
X101044557Y-77430000D01*
X101165306Y-77405981D01*
X101279048Y-77358868D01*
X101381414Y-77290469D01*
X101468469Y-77203414D01*
X101536868Y-77101048D01*
X101567693Y-77026629D01*
X101636306Y-77012981D01*
X101750048Y-76965868D01*
X101852414Y-76897469D01*
X101939469Y-76810414D01*
X102007868Y-76708048D01*
X102054981Y-76594306D01*
X102079000Y-76473557D01*
X102079000Y-76392776D01*
X102372776Y-76099000D01*
X103068748Y-76099000D01*
X103111952Y-76127868D01*
X103225694Y-76174981D01*
X103346443Y-76199000D01*
X103469557Y-76199000D01*
X103590306Y-76174981D01*
X103704048Y-76127868D01*
X103806414Y-76059469D01*
X103893469Y-75972414D01*
X103935173Y-75910000D01*
X104642579Y-75910000D01*
X104702457Y-75922059D01*
G37*
G04 #@! TD.AperFunction*
D23*
X103736545Y-77341471D02*
X103874146Y-77384539D01*
X104000946Y-77453179D01*
X104116930Y-77548706D01*
X106470162Y-79901938D01*
X106582818Y-80039211D01*
X106663623Y-80190386D01*
X106713381Y-80354413D01*
X106730181Y-80525000D01*
X106713381Y-80695587D01*
X106663623Y-80859614D01*
X106582818Y-81010789D01*
X106470162Y-81148062D01*
X104298848Y-83319376D01*
X104161576Y-83432032D01*
X104010404Y-83512836D01*
X103846371Y-83562594D01*
X103669646Y-83580000D01*
X103510354Y-83580000D01*
X103333629Y-83562594D01*
X103169596Y-83512836D01*
X103018424Y-83432032D01*
X102881152Y-83319376D01*
X100709838Y-81148062D01*
X100597182Y-81010789D01*
X100516377Y-80859614D01*
X100466619Y-80695587D01*
X100449819Y-80525000D01*
X100466619Y-80354413D01*
X100516377Y-80190386D01*
X100597182Y-80039211D01*
X100709838Y-79901938D01*
X103072915Y-77538861D01*
X103188186Y-77444600D01*
X103314312Y-77378039D01*
X103451141Y-77337843D01*
X103593452Y-77325596D01*
X103736545Y-77341471D01*
G04 #@! TA.AperFunction,Conductor*
D20*
G36*
X103736545Y-77341471D02*
G01*
X103874146Y-77384539D01*
X104000946Y-77453179D01*
X104116930Y-77548706D01*
X106470162Y-79901938D01*
X106582818Y-80039211D01*
X106663623Y-80190386D01*
X106713381Y-80354413D01*
X106730181Y-80525000D01*
X106713381Y-80695587D01*
X106663623Y-80859614D01*
X106582818Y-81010789D01*
X106470162Y-81148062D01*
X104298848Y-83319376D01*
X104161576Y-83432032D01*
X104010404Y-83512836D01*
X103846371Y-83562594D01*
X103669646Y-83580000D01*
X103510354Y-83580000D01*
X103333629Y-83562594D01*
X103169596Y-83512836D01*
X103018424Y-83432032D01*
X102881152Y-83319376D01*
X100709838Y-81148062D01*
X100597182Y-81010789D01*
X100516377Y-80859614D01*
X100466619Y-80695587D01*
X100449819Y-80525000D01*
X100466619Y-80354413D01*
X100516377Y-80190386D01*
X100597182Y-80039211D01*
X100709838Y-79901938D01*
X103072915Y-77538861D01*
X103188186Y-77444600D01*
X103314312Y-77378039D01*
X103451141Y-77337843D01*
X103593452Y-77325596D01*
X103736545Y-77341471D01*
G37*
G04 #@! TD.AperFunction*
M02*
