G04 #@! TF.GenerationSoftware,KiCad,Pcbnew,(5.1.10)-1*
G04 #@! TF.CreationDate,2021-09-15T22:42:09+01:00*
G04 #@! TF.ProjectId,32u4-Pico,33327534-2d50-4696-936f-2e6b69636164,REV1*
G04 #@! TF.SameCoordinates,Original*
G04 #@! TF.FileFunction,Soldermask,Top*
G04 #@! TF.FilePolarity,Negative*
%FSLAX46Y46*%
G04 Gerber Fmt 4.6, Leading zero omitted, Abs format (unit mm)*
G04 Created by KiCad (PCBNEW (5.1.10)-1) date 2021-09-15 22:42:09*
%MOMM*%
%LPD*%
G01*
G04 APERTURE LIST*
%ADD10O,1.802000X1.802000*%
%ADD11C,1.802000*%
%ADD12C,0.752000*%
%ADD13C,0.150000*%
G04 APERTURE END LIST*
D10*
X101110000Y-106365000D03*
X101110000Y-103825000D03*
X103650000Y-106365000D03*
X103650000Y-103825000D03*
X106190000Y-106365000D03*
G36*
G01*
X105340000Y-102924000D02*
X107040000Y-102924000D01*
G75*
G02*
X107091000Y-102975000I0J-51000D01*
G01*
X107091000Y-104675000D01*
G75*
G02*
X107040000Y-104726000I-51000J0D01*
G01*
X105340000Y-104726000D01*
G75*
G02*
X105289000Y-104675000I0J51000D01*
G01*
X105289000Y-102975000D01*
G75*
G02*
X105340000Y-102924000I51000J0D01*
G01*
G37*
G36*
G01*
X110540000Y-60356000D02*
X109340000Y-60356000D01*
G75*
G02*
X109289000Y-60305000I0J51000D01*
G01*
X109289000Y-59405000D01*
G75*
G02*
X109340000Y-59354000I51000J0D01*
G01*
X110540000Y-59354000D01*
G75*
G02*
X110591000Y-59405000I0J-51000D01*
G01*
X110591000Y-60305000D01*
G75*
G02*
X110540000Y-60356000I-51000J0D01*
G01*
G37*
G36*
G01*
X110540000Y-63656000D02*
X109340000Y-63656000D01*
G75*
G02*
X109289000Y-63605000I0J51000D01*
G01*
X109289000Y-62705000D01*
G75*
G02*
X109340000Y-62654000I51000J0D01*
G01*
X110540000Y-62654000D01*
G75*
G02*
X110591000Y-62705000I0J-51000D01*
G01*
X110591000Y-63605000D01*
G75*
G02*
X110540000Y-63656000I-51000J0D01*
G01*
G37*
G36*
G01*
X102729999Y-87404000D02*
X103930001Y-87404000D01*
G75*
G02*
X103981000Y-87454999I0J-50999D01*
G01*
X103981000Y-88855001D01*
G75*
G02*
X103930001Y-88906000I-50999J0D01*
G01*
X102729999Y-88906000D01*
G75*
G02*
X102679000Y-88855001I0J50999D01*
G01*
X102679000Y-87454999D01*
G75*
G02*
X102729999Y-87404000I50999J0D01*
G01*
G37*
G36*
G01*
X102729999Y-89604000D02*
X103930001Y-89604000D01*
G75*
G02*
X103981000Y-89654999I0J-50999D01*
G01*
X103981000Y-91055001D01*
G75*
G02*
X103930001Y-91106000I-50999J0D01*
G01*
X102729999Y-91106000D01*
G75*
G02*
X102679000Y-91055001I0J50999D01*
G01*
X102679000Y-89654999D01*
G75*
G02*
X102729999Y-89604000I50999J0D01*
G01*
G37*
G36*
G01*
X101029999Y-89604000D02*
X102230001Y-89604000D01*
G75*
G02*
X102281000Y-89654999I0J-50999D01*
G01*
X102281000Y-91055001D01*
G75*
G02*
X102230001Y-91106000I-50999J0D01*
G01*
X101029999Y-91106000D01*
G75*
G02*
X100979000Y-91055001I0J50999D01*
G01*
X100979000Y-89654999D01*
G75*
G02*
X101029999Y-89604000I50999J0D01*
G01*
G37*
G36*
G01*
X101029999Y-87404000D02*
X102230001Y-87404000D01*
G75*
G02*
X102281000Y-87454999I0J-50999D01*
G01*
X102281000Y-88855001D01*
G75*
G02*
X102230001Y-88906000I-50999J0D01*
G01*
X101029999Y-88906000D01*
G75*
G02*
X100979000Y-88855001I0J50999D01*
G01*
X100979000Y-87454999D01*
G75*
G02*
X101029999Y-87404000I50999J0D01*
G01*
G37*
G36*
G01*
X99299000Y-89330500D02*
X99299000Y-88939500D01*
G75*
G02*
X99464500Y-88774000I165500J0D01*
G01*
X99795500Y-88774000D01*
G75*
G02*
X99961000Y-88939500I0J-165500D01*
G01*
X99961000Y-89330500D01*
G75*
G02*
X99795500Y-89496000I-165500J0D01*
G01*
X99464500Y-89496000D01*
G75*
G02*
X99299000Y-89330500I0J165500D01*
G01*
G37*
G36*
G01*
X98339000Y-89330500D02*
X98339000Y-88939500D01*
G75*
G02*
X98504500Y-88774000I165500J0D01*
G01*
X98835500Y-88774000D01*
G75*
G02*
X99001000Y-88939500I0J-165500D01*
G01*
X99001000Y-89330500D01*
G75*
G02*
X98835500Y-89496000I-165500J0D01*
G01*
X98504500Y-89496000D01*
G75*
G02*
X98339000Y-89330500I0J165500D01*
G01*
G37*
G36*
G01*
X99299000Y-88350500D02*
X99299000Y-87959500D01*
G75*
G02*
X99464500Y-87794000I165500J0D01*
G01*
X99795500Y-87794000D01*
G75*
G02*
X99961000Y-87959500I0J-165500D01*
G01*
X99961000Y-88350500D01*
G75*
G02*
X99795500Y-88516000I-165500J0D01*
G01*
X99464500Y-88516000D01*
G75*
G02*
X99299000Y-88350500I0J165500D01*
G01*
G37*
G36*
G01*
X98339000Y-88350500D02*
X98339000Y-87959500D01*
G75*
G02*
X98504500Y-87794000I165500J0D01*
G01*
X98835500Y-87794000D01*
G75*
G02*
X99001000Y-87959500I0J-165500D01*
G01*
X99001000Y-88350500D01*
G75*
G02*
X98835500Y-88516000I-165500J0D01*
G01*
X98504500Y-88516000D01*
G75*
G02*
X98339000Y-88350500I0J165500D01*
G01*
G37*
G36*
G01*
X102811500Y-92849000D02*
X103232500Y-92849000D01*
G75*
G02*
X103393000Y-93009500I0J-160500D01*
G01*
X103393000Y-93330500D01*
G75*
G02*
X103232500Y-93491000I-160500J0D01*
G01*
X102811500Y-93491000D01*
G75*
G02*
X102651000Y-93330500I0J160500D01*
G01*
X102651000Y-93009500D01*
G75*
G02*
X102811500Y-92849000I160500J0D01*
G01*
G37*
G36*
G01*
X102811500Y-91829000D02*
X103232500Y-91829000D01*
G75*
G02*
X103393000Y-91989500I0J-160500D01*
G01*
X103393000Y-92310500D01*
G75*
G02*
X103232500Y-92471000I-160500J0D01*
G01*
X102811500Y-92471000D01*
G75*
G02*
X102651000Y-92310500I0J160500D01*
G01*
X102651000Y-91989500D01*
G75*
G02*
X102811500Y-91829000I160500J0D01*
G01*
G37*
G36*
G01*
X99201000Y-100722500D02*
X99201000Y-99071500D01*
G75*
G02*
X99426500Y-98846000I225500J0D01*
G01*
X99877500Y-98846000D01*
G75*
G02*
X100103000Y-99071500I0J-225500D01*
G01*
X100103000Y-100722500D01*
G75*
G02*
X99877500Y-100948000I-225500J0D01*
G01*
X99426500Y-100948000D01*
G75*
G02*
X99201000Y-100722500I0J225500D01*
G01*
G37*
G36*
G01*
X103401000Y-100722500D02*
X103401000Y-99071500D01*
G75*
G02*
X103626500Y-98846000I225500J0D01*
G01*
X104077500Y-98846000D01*
G75*
G02*
X104303000Y-99071500I0J-225500D01*
G01*
X104303000Y-100722500D01*
G75*
G02*
X104077500Y-100948000I-225500J0D01*
G01*
X103626500Y-100948000D01*
G75*
G02*
X103401000Y-100722500I0J225500D01*
G01*
G37*
G36*
G01*
X105337881Y-74368402D02*
X105061402Y-74644881D01*
G75*
G02*
X104827350Y-74644881I-117026J117026D01*
G01*
X104593297Y-74410828D01*
G75*
G02*
X104593297Y-74176776I117026J117026D01*
G01*
X104869776Y-73900297D01*
G75*
G02*
X105103828Y-73900297I117026J-117026D01*
G01*
X105337881Y-74134350D01*
G75*
G02*
X105337881Y-74368402I-117026J-117026D01*
G01*
G37*
G36*
G01*
X106016703Y-75047224D02*
X105740224Y-75323703D01*
G75*
G02*
X105506172Y-75323703I-117026J117026D01*
G01*
X105272119Y-75089650D01*
G75*
G02*
X105272119Y-74855598I117026J117026D01*
G01*
X105548598Y-74579119D01*
G75*
G02*
X105782650Y-74579119I117026J-117026D01*
G01*
X106016703Y-74813172D01*
G75*
G02*
X106016703Y-75047224I-117026J-117026D01*
G01*
G37*
G36*
G01*
X103005598Y-74702881D02*
X102729119Y-74426402D01*
G75*
G02*
X102729119Y-74192350I117026J117026D01*
G01*
X102963172Y-73958297D01*
G75*
G02*
X103197224Y-73958297I117026J-117026D01*
G01*
X103473703Y-74234776D01*
G75*
G02*
X103473703Y-74468828I-117026J-117026D01*
G01*
X103239650Y-74702881D01*
G75*
G02*
X103005598Y-74702881I-117026J117026D01*
G01*
G37*
G36*
G01*
X102326776Y-75381703D02*
X102050297Y-75105224D01*
G75*
G02*
X102050297Y-74871172I117026J117026D01*
G01*
X102284350Y-74637119D01*
G75*
G02*
X102518402Y-74637119I117026J-117026D01*
G01*
X102794881Y-74913598D01*
G75*
G02*
X102794881Y-75147650I-117026J-117026D01*
G01*
X102560828Y-75381703D01*
G75*
G02*
X102326776Y-75381703I-117026J117026D01*
G01*
G37*
G36*
G01*
X98327402Y-83365119D02*
X98603881Y-83641598D01*
G75*
G02*
X98603881Y-83875650I-117026J-117026D01*
G01*
X98369828Y-84109703D01*
G75*
G02*
X98135776Y-84109703I-117026J117026D01*
G01*
X97859297Y-83833224D01*
G75*
G02*
X97859297Y-83599172I117026J117026D01*
G01*
X98093350Y-83365119D01*
G75*
G02*
X98327402Y-83365119I117026J-117026D01*
G01*
G37*
G36*
G01*
X99006224Y-82686297D02*
X99282703Y-82962776D01*
G75*
G02*
X99282703Y-83196828I-117026J-117026D01*
G01*
X99048650Y-83430881D01*
G75*
G02*
X98814598Y-83430881I-117026J117026D01*
G01*
X98538119Y-83154402D01*
G75*
G02*
X98538119Y-82920350I117026J117026D01*
G01*
X98772172Y-82686297D01*
G75*
G02*
X99006224Y-82686297I117026J-117026D01*
G01*
G37*
G36*
G01*
X109122119Y-79727598D02*
X109398598Y-79451119D01*
G75*
G02*
X109632650Y-79451119I117026J-117026D01*
G01*
X109866703Y-79685172D01*
G75*
G02*
X109866703Y-79919224I-117026J-117026D01*
G01*
X109590224Y-80195703D01*
G75*
G02*
X109356172Y-80195703I-117026J117026D01*
G01*
X109122119Y-79961650D01*
G75*
G02*
X109122119Y-79727598I117026J117026D01*
G01*
G37*
G36*
G01*
X108443297Y-79048776D02*
X108719776Y-78772297D01*
G75*
G02*
X108953828Y-78772297I117026J-117026D01*
G01*
X109187881Y-79006350D01*
G75*
G02*
X109187881Y-79240402I-117026J-117026D01*
G01*
X108911402Y-79516881D01*
G75*
G02*
X108677350Y-79516881I-117026J117026D01*
G01*
X108443297Y-79282828D01*
G75*
G02*
X108443297Y-79048776I117026J117026D01*
G01*
G37*
G36*
G01*
X104195500Y-73016000D02*
X103804500Y-73016000D01*
G75*
G02*
X103639000Y-72850500I0J165500D01*
G01*
X103639000Y-72519500D01*
G75*
G02*
X103804500Y-72354000I165500J0D01*
G01*
X104195500Y-72354000D01*
G75*
G02*
X104361000Y-72519500I0J-165500D01*
G01*
X104361000Y-72850500D01*
G75*
G02*
X104195500Y-73016000I-165500J0D01*
G01*
G37*
G36*
G01*
X104195500Y-73976000D02*
X103804500Y-73976000D01*
G75*
G02*
X103639000Y-73810500I0J165500D01*
G01*
X103639000Y-73479500D01*
G75*
G02*
X103804500Y-73314000I165500J0D01*
G01*
X104195500Y-73314000D01*
G75*
G02*
X104361000Y-73479500I0J-165500D01*
G01*
X104361000Y-73810500D01*
G75*
G02*
X104195500Y-73976000I-165500J0D01*
G01*
G37*
G36*
G01*
X105393530Y-86112009D02*
X105670009Y-85835530D01*
G75*
G02*
X105904061Y-85835530I117026J-117026D01*
G01*
X106138114Y-86069583D01*
G75*
G02*
X106138114Y-86303635I-117026J-117026D01*
G01*
X105861635Y-86580114D01*
G75*
G02*
X105627583Y-86580114I-117026J117026D01*
G01*
X105393530Y-86346061D01*
G75*
G02*
X105393530Y-86112009I117026J117026D01*
G01*
G37*
G36*
G01*
X104714708Y-85433187D02*
X104991187Y-85156708D01*
G75*
G02*
X105225239Y-85156708I117026J-117026D01*
G01*
X105459292Y-85390761D01*
G75*
G02*
X105459292Y-85624813I-117026J-117026D01*
G01*
X105182813Y-85901292D01*
G75*
G02*
X104948761Y-85901292I-117026J117026D01*
G01*
X104714708Y-85667239D01*
G75*
G02*
X104714708Y-85433187I117026J117026D01*
G01*
G37*
G36*
G01*
X100587598Y-76154881D02*
X100311119Y-75878402D01*
G75*
G02*
X100311119Y-75644350I117026J117026D01*
G01*
X100545172Y-75410297D01*
G75*
G02*
X100779224Y-75410297I117026J-117026D01*
G01*
X101055703Y-75686776D01*
G75*
G02*
X101055703Y-75920828I-117026J-117026D01*
G01*
X100821650Y-76154881D01*
G75*
G02*
X100587598Y-76154881I-117026J117026D01*
G01*
G37*
G36*
G01*
X99908776Y-76833703D02*
X99632297Y-76557224D01*
G75*
G02*
X99632297Y-76323172I117026J117026D01*
G01*
X99866350Y-76089119D01*
G75*
G02*
X100100402Y-76089119I117026J-117026D01*
G01*
X100376881Y-76365598D01*
G75*
G02*
X100376881Y-76599650I-117026J-117026D01*
G01*
X100142828Y-76833703D01*
G75*
G02*
X99908776Y-76833703I-117026J117026D01*
G01*
G37*
G36*
G01*
X106425598Y-75814881D02*
X106149119Y-75538402D01*
G75*
G02*
X106149119Y-75304350I117026J117026D01*
G01*
X106383172Y-75070297D01*
G75*
G02*
X106617224Y-75070297I117026J-117026D01*
G01*
X106893703Y-75346776D01*
G75*
G02*
X106893703Y-75580828I-117026J-117026D01*
G01*
X106659650Y-75814881D01*
G75*
G02*
X106425598Y-75814881I-117026J117026D01*
G01*
G37*
G36*
G01*
X105746776Y-76493703D02*
X105470297Y-76217224D01*
G75*
G02*
X105470297Y-75983172I117026J117026D01*
G01*
X105704350Y-75749119D01*
G75*
G02*
X105938402Y-75749119I117026J-117026D01*
G01*
X106214881Y-76025598D01*
G75*
G02*
X106214881Y-76259650I-117026J-117026D01*
G01*
X105980828Y-76493703D01*
G75*
G02*
X105746776Y-76493703I-117026J117026D01*
G01*
G37*
G36*
G01*
X107331000Y-65963500D02*
X107331000Y-66514500D01*
G75*
G02*
X107080500Y-66765000I-250500J0D01*
G01*
X106579500Y-66765000D01*
G75*
G02*
X106329000Y-66514500I0J250500D01*
G01*
X106329000Y-65963500D01*
G75*
G02*
X106579500Y-65713000I250500J0D01*
G01*
X107080500Y-65713000D01*
G75*
G02*
X107331000Y-65963500I0J-250500D01*
G01*
G37*
G36*
G01*
X108881000Y-65963500D02*
X108881000Y-66514500D01*
G75*
G02*
X108630500Y-66765000I-250500J0D01*
G01*
X108129500Y-66765000D01*
G75*
G02*
X107879000Y-66514500I0J250500D01*
G01*
X107879000Y-65963500D01*
G75*
G02*
X108129500Y-65713000I250500J0D01*
G01*
X108630500Y-65713000D01*
G75*
G02*
X108881000Y-65963500I0J-250500D01*
G01*
G37*
G36*
G01*
X103923500Y-66640000D02*
X104314500Y-66640000D01*
G75*
G02*
X104480000Y-66805500I0J-165500D01*
G01*
X104480000Y-67136500D01*
G75*
G02*
X104314500Y-67302000I-165500J0D01*
G01*
X103923500Y-67302000D01*
G75*
G02*
X103758000Y-67136500I0J165500D01*
G01*
X103758000Y-66805500D01*
G75*
G02*
X103923500Y-66640000I165500J0D01*
G01*
G37*
G36*
G01*
X103923500Y-65680000D02*
X104314500Y-65680000D01*
G75*
G02*
X104480000Y-65845500I0J-165500D01*
G01*
X104480000Y-66176500D01*
G75*
G02*
X104314500Y-66342000I-165500J0D01*
G01*
X103923500Y-66342000D01*
G75*
G02*
X103758000Y-66176500I0J165500D01*
G01*
X103758000Y-65845500D01*
G75*
G02*
X103923500Y-65680000I165500J0D01*
G01*
G37*
G36*
G01*
X102270500Y-66296000D02*
X101849500Y-66296000D01*
G75*
G02*
X101689000Y-66135500I0J160500D01*
G01*
X101689000Y-65814500D01*
G75*
G02*
X101849500Y-65654000I160500J0D01*
G01*
X102270500Y-65654000D01*
G75*
G02*
X102431000Y-65814500I0J-160500D01*
G01*
X102431000Y-66135500D01*
G75*
G02*
X102270500Y-66296000I-160500J0D01*
G01*
G37*
G36*
G01*
X102270500Y-67316000D02*
X101849500Y-67316000D01*
G75*
G02*
X101689000Y-67155500I0J160500D01*
G01*
X101689000Y-66834500D01*
G75*
G02*
X101849500Y-66674000I160500J0D01*
G01*
X102270500Y-66674000D01*
G75*
G02*
X102431000Y-66834500I0J-160500D01*
G01*
X102431000Y-67155500D01*
G75*
G02*
X102270500Y-67316000I-160500J0D01*
G01*
G37*
G36*
G01*
X105360500Y-66306000D02*
X104939500Y-66306000D01*
G75*
G02*
X104779000Y-66145500I0J160500D01*
G01*
X104779000Y-65824500D01*
G75*
G02*
X104939500Y-65664000I160500J0D01*
G01*
X105360500Y-65664000D01*
G75*
G02*
X105521000Y-65824500I0J-160500D01*
G01*
X105521000Y-66145500D01*
G75*
G02*
X105360500Y-66306000I-160500J0D01*
G01*
G37*
G36*
G01*
X105360500Y-67326000D02*
X104939500Y-67326000D01*
G75*
G02*
X104779000Y-67165500I0J160500D01*
G01*
X104779000Y-66844500D01*
G75*
G02*
X104939500Y-66684000I160500J0D01*
G01*
X105360500Y-66684000D01*
G75*
G02*
X105521000Y-66844500I0J-160500D01*
G01*
X105521000Y-67165500D01*
G75*
G02*
X105360500Y-67326000I-160500J0D01*
G01*
G37*
G36*
G01*
X102858500Y-66633000D02*
X103249500Y-66633000D01*
G75*
G02*
X103415000Y-66798500I0J-165500D01*
G01*
X103415000Y-67129500D01*
G75*
G02*
X103249500Y-67295000I-165500J0D01*
G01*
X102858500Y-67295000D01*
G75*
G02*
X102693000Y-67129500I0J165500D01*
G01*
X102693000Y-66798500D01*
G75*
G02*
X102858500Y-66633000I165500J0D01*
G01*
G37*
G36*
G01*
X102858500Y-65673000D02*
X103249500Y-65673000D01*
G75*
G02*
X103415000Y-65838500I0J-165500D01*
G01*
X103415000Y-66169500D01*
G75*
G02*
X103249500Y-66335000I-165500J0D01*
G01*
X102858500Y-66335000D01*
G75*
G02*
X102693000Y-66169500I0J165500D01*
G01*
X102693000Y-65838500D01*
G75*
G02*
X102858500Y-65673000I165500J0D01*
G01*
G37*
G36*
G01*
X99876981Y-80488938D02*
X103553938Y-76811981D01*
G75*
G02*
X103626062Y-76811981I36062J-36062D01*
G01*
X107303019Y-80488938D01*
G75*
G02*
X107303019Y-80561062I-36062J-36062D01*
G01*
X103626062Y-84238019D01*
G75*
G02*
X103553938Y-84238019I-36062J36062D01*
G01*
X99876981Y-80561062D01*
G75*
G02*
X99876981Y-80488938I36062J36062D01*
G01*
G37*
G36*
G01*
X103703845Y-76626721D02*
X104411659Y-75918907D01*
G75*
G02*
X104536109Y-75918907I62225J-62225D01*
G01*
X104660559Y-76043357D01*
G75*
G02*
X104660559Y-76167807I-62225J-62225D01*
G01*
X103952745Y-76875621D01*
G75*
G02*
X103828295Y-76875621I-62225J62225D01*
G01*
X103703845Y-76751171D01*
G75*
G02*
X103703845Y-76626721I62225J62225D01*
G01*
G37*
G36*
G01*
X104057398Y-76980275D02*
X104765212Y-76272461D01*
G75*
G02*
X104889662Y-76272461I62225J-62225D01*
G01*
X105014112Y-76396911D01*
G75*
G02*
X105014112Y-76521361I-62225J-62225D01*
G01*
X104306298Y-77229175D01*
G75*
G02*
X104181848Y-77229175I-62225J62225D01*
G01*
X104057398Y-77104725D01*
G75*
G02*
X104057398Y-76980275I62225J62225D01*
G01*
G37*
G36*
G01*
X104410952Y-77333828D02*
X105118766Y-76626014D01*
G75*
G02*
X105243216Y-76626014I62225J-62225D01*
G01*
X105367666Y-76750464D01*
G75*
G02*
X105367666Y-76874914I-62225J-62225D01*
G01*
X104659852Y-77582728D01*
G75*
G02*
X104535402Y-77582728I-62225J62225D01*
G01*
X104410952Y-77458278D01*
G75*
G02*
X104410952Y-77333828I62225J62225D01*
G01*
G37*
G36*
G01*
X104764505Y-77687381D02*
X105472319Y-76979567D01*
G75*
G02*
X105596769Y-76979567I62225J-62225D01*
G01*
X105721219Y-77104017D01*
G75*
G02*
X105721219Y-77228467I-62225J-62225D01*
G01*
X105013405Y-77936281D01*
G75*
G02*
X104888955Y-77936281I-62225J62225D01*
G01*
X104764505Y-77811831D01*
G75*
G02*
X104764505Y-77687381I62225J62225D01*
G01*
G37*
G36*
G01*
X105118058Y-78040935D02*
X105825872Y-77333121D01*
G75*
G02*
X105950322Y-77333121I62225J-62225D01*
G01*
X106074772Y-77457571D01*
G75*
G02*
X106074772Y-77582021I-62225J-62225D01*
G01*
X105366958Y-78289835D01*
G75*
G02*
X105242508Y-78289835I-62225J62225D01*
G01*
X105118058Y-78165385D01*
G75*
G02*
X105118058Y-78040935I62225J62225D01*
G01*
G37*
G36*
G01*
X105471612Y-78394488D02*
X106179426Y-77686674D01*
G75*
G02*
X106303876Y-77686674I62225J-62225D01*
G01*
X106428326Y-77811124D01*
G75*
G02*
X106428326Y-77935574I-62225J-62225D01*
G01*
X105720512Y-78643388D01*
G75*
G02*
X105596062Y-78643388I-62225J62225D01*
G01*
X105471612Y-78518938D01*
G75*
G02*
X105471612Y-78394488I62225J62225D01*
G01*
G37*
G36*
G01*
X105825165Y-78748042D02*
X106532979Y-78040228D01*
G75*
G02*
X106657429Y-78040228I62225J-62225D01*
G01*
X106781879Y-78164678D01*
G75*
G02*
X106781879Y-78289128I-62225J-62225D01*
G01*
X106074065Y-78996942D01*
G75*
G02*
X105949615Y-78996942I-62225J62225D01*
G01*
X105825165Y-78872492D01*
G75*
G02*
X105825165Y-78748042I62225J62225D01*
G01*
G37*
G36*
G01*
X106178719Y-79101595D02*
X106886533Y-78393781D01*
G75*
G02*
X107010983Y-78393781I62225J-62225D01*
G01*
X107135433Y-78518231D01*
G75*
G02*
X107135433Y-78642681I-62225J-62225D01*
G01*
X106427619Y-79350495D01*
G75*
G02*
X106303169Y-79350495I-62225J62225D01*
G01*
X106178719Y-79226045D01*
G75*
G02*
X106178719Y-79101595I62225J62225D01*
G01*
G37*
G36*
G01*
X106532272Y-79455148D02*
X107240086Y-78747334D01*
G75*
G02*
X107364536Y-78747334I62225J-62225D01*
G01*
X107488986Y-78871784D01*
G75*
G02*
X107488986Y-78996234I-62225J-62225D01*
G01*
X106781172Y-79704048D01*
G75*
G02*
X106656722Y-79704048I-62225J62225D01*
G01*
X106532272Y-79579598D01*
G75*
G02*
X106532272Y-79455148I62225J62225D01*
G01*
G37*
G36*
G01*
X106885825Y-79808702D02*
X107593639Y-79100888D01*
G75*
G02*
X107718089Y-79100888I62225J-62225D01*
G01*
X107842539Y-79225338D01*
G75*
G02*
X107842539Y-79349788I-62225J-62225D01*
G01*
X107134725Y-80057602D01*
G75*
G02*
X107010275Y-80057602I-62225J62225D01*
G01*
X106885825Y-79933152D01*
G75*
G02*
X106885825Y-79808702I62225J62225D01*
G01*
G37*
G36*
G01*
X107239379Y-80162255D02*
X107947193Y-79454441D01*
G75*
G02*
X108071643Y-79454441I62225J-62225D01*
G01*
X108196093Y-79578891D01*
G75*
G02*
X108196093Y-79703341I-62225J-62225D01*
G01*
X107488279Y-80411155D01*
G75*
G02*
X107363829Y-80411155I-62225J62225D01*
G01*
X107239379Y-80286705D01*
G75*
G02*
X107239379Y-80162255I62225J62225D01*
G01*
G37*
G36*
G01*
X107239379Y-80763295D02*
X107363829Y-80638845D01*
G75*
G02*
X107488279Y-80638845I62225J-62225D01*
G01*
X108196093Y-81346659D01*
G75*
G02*
X108196093Y-81471109I-62225J-62225D01*
G01*
X108071643Y-81595559D01*
G75*
G02*
X107947193Y-81595559I-62225J62225D01*
G01*
X107239379Y-80887745D01*
G75*
G02*
X107239379Y-80763295I62225J62225D01*
G01*
G37*
G36*
G01*
X106885825Y-81116848D02*
X107010275Y-80992398D01*
G75*
G02*
X107134725Y-80992398I62225J-62225D01*
G01*
X107842539Y-81700212D01*
G75*
G02*
X107842539Y-81824662I-62225J-62225D01*
G01*
X107718089Y-81949112D01*
G75*
G02*
X107593639Y-81949112I-62225J62225D01*
G01*
X106885825Y-81241298D01*
G75*
G02*
X106885825Y-81116848I62225J62225D01*
G01*
G37*
G36*
G01*
X106532272Y-81470402D02*
X106656722Y-81345952D01*
G75*
G02*
X106781172Y-81345952I62225J-62225D01*
G01*
X107488986Y-82053766D01*
G75*
G02*
X107488986Y-82178216I-62225J-62225D01*
G01*
X107364536Y-82302666D01*
G75*
G02*
X107240086Y-82302666I-62225J62225D01*
G01*
X106532272Y-81594852D01*
G75*
G02*
X106532272Y-81470402I62225J62225D01*
G01*
G37*
G36*
G01*
X106178719Y-81823955D02*
X106303169Y-81699505D01*
G75*
G02*
X106427619Y-81699505I62225J-62225D01*
G01*
X107135433Y-82407319D01*
G75*
G02*
X107135433Y-82531769I-62225J-62225D01*
G01*
X107010983Y-82656219D01*
G75*
G02*
X106886533Y-82656219I-62225J62225D01*
G01*
X106178719Y-81948405D01*
G75*
G02*
X106178719Y-81823955I62225J62225D01*
G01*
G37*
G36*
G01*
X105825165Y-82177508D02*
X105949615Y-82053058D01*
G75*
G02*
X106074065Y-82053058I62225J-62225D01*
G01*
X106781879Y-82760872D01*
G75*
G02*
X106781879Y-82885322I-62225J-62225D01*
G01*
X106657429Y-83009772D01*
G75*
G02*
X106532979Y-83009772I-62225J62225D01*
G01*
X105825165Y-82301958D01*
G75*
G02*
X105825165Y-82177508I62225J62225D01*
G01*
G37*
G36*
G01*
X105471612Y-82531062D02*
X105596062Y-82406612D01*
G75*
G02*
X105720512Y-82406612I62225J-62225D01*
G01*
X106428326Y-83114426D01*
G75*
G02*
X106428326Y-83238876I-62225J-62225D01*
G01*
X106303876Y-83363326D01*
G75*
G02*
X106179426Y-83363326I-62225J62225D01*
G01*
X105471612Y-82655512D01*
G75*
G02*
X105471612Y-82531062I62225J62225D01*
G01*
G37*
G36*
G01*
X105118058Y-82884615D02*
X105242508Y-82760165D01*
G75*
G02*
X105366958Y-82760165I62225J-62225D01*
G01*
X106074772Y-83467979D01*
G75*
G02*
X106074772Y-83592429I-62225J-62225D01*
G01*
X105950322Y-83716879D01*
G75*
G02*
X105825872Y-83716879I-62225J62225D01*
G01*
X105118058Y-83009065D01*
G75*
G02*
X105118058Y-82884615I62225J62225D01*
G01*
G37*
G36*
G01*
X104764505Y-83238169D02*
X104888955Y-83113719D01*
G75*
G02*
X105013405Y-83113719I62225J-62225D01*
G01*
X105721219Y-83821533D01*
G75*
G02*
X105721219Y-83945983I-62225J-62225D01*
G01*
X105596769Y-84070433D01*
G75*
G02*
X105472319Y-84070433I-62225J62225D01*
G01*
X104764505Y-83362619D01*
G75*
G02*
X104764505Y-83238169I62225J62225D01*
G01*
G37*
G36*
G01*
X104410952Y-83591722D02*
X104535402Y-83467272D01*
G75*
G02*
X104659852Y-83467272I62225J-62225D01*
G01*
X105367666Y-84175086D01*
G75*
G02*
X105367666Y-84299536I-62225J-62225D01*
G01*
X105243216Y-84423986D01*
G75*
G02*
X105118766Y-84423986I-62225J62225D01*
G01*
X104410952Y-83716172D01*
G75*
G02*
X104410952Y-83591722I62225J62225D01*
G01*
G37*
G36*
G01*
X104057398Y-83945275D02*
X104181848Y-83820825D01*
G75*
G02*
X104306298Y-83820825I62225J-62225D01*
G01*
X105014112Y-84528639D01*
G75*
G02*
X105014112Y-84653089I-62225J-62225D01*
G01*
X104889662Y-84777539D01*
G75*
G02*
X104765212Y-84777539I-62225J62225D01*
G01*
X104057398Y-84069725D01*
G75*
G02*
X104057398Y-83945275I62225J62225D01*
G01*
G37*
G36*
G01*
X103703845Y-84298829D02*
X103828295Y-84174379D01*
G75*
G02*
X103952745Y-84174379I62225J-62225D01*
G01*
X104660559Y-84882193D01*
G75*
G02*
X104660559Y-85006643I-62225J-62225D01*
G01*
X104536109Y-85131093D01*
G75*
G02*
X104411659Y-85131093I-62225J62225D01*
G01*
X103703845Y-84423279D01*
G75*
G02*
X103703845Y-84298829I62225J62225D01*
G01*
G37*
G36*
G01*
X102519441Y-84882193D02*
X103227255Y-84174379D01*
G75*
G02*
X103351705Y-84174379I62225J-62225D01*
G01*
X103476155Y-84298829D01*
G75*
G02*
X103476155Y-84423279I-62225J-62225D01*
G01*
X102768341Y-85131093D01*
G75*
G02*
X102643891Y-85131093I-62225J62225D01*
G01*
X102519441Y-85006643D01*
G75*
G02*
X102519441Y-84882193I62225J62225D01*
G01*
G37*
G36*
G01*
X102165888Y-84528639D02*
X102873702Y-83820825D01*
G75*
G02*
X102998152Y-83820825I62225J-62225D01*
G01*
X103122602Y-83945275D01*
G75*
G02*
X103122602Y-84069725I-62225J-62225D01*
G01*
X102414788Y-84777539D01*
G75*
G02*
X102290338Y-84777539I-62225J62225D01*
G01*
X102165888Y-84653089D01*
G75*
G02*
X102165888Y-84528639I62225J62225D01*
G01*
G37*
G36*
G01*
X101812334Y-84175086D02*
X102520148Y-83467272D01*
G75*
G02*
X102644598Y-83467272I62225J-62225D01*
G01*
X102769048Y-83591722D01*
G75*
G02*
X102769048Y-83716172I-62225J-62225D01*
G01*
X102061234Y-84423986D01*
G75*
G02*
X101936784Y-84423986I-62225J62225D01*
G01*
X101812334Y-84299536D01*
G75*
G02*
X101812334Y-84175086I62225J62225D01*
G01*
G37*
G36*
G01*
X101458781Y-83821533D02*
X102166595Y-83113719D01*
G75*
G02*
X102291045Y-83113719I62225J-62225D01*
G01*
X102415495Y-83238169D01*
G75*
G02*
X102415495Y-83362619I-62225J-62225D01*
G01*
X101707681Y-84070433D01*
G75*
G02*
X101583231Y-84070433I-62225J62225D01*
G01*
X101458781Y-83945983D01*
G75*
G02*
X101458781Y-83821533I62225J62225D01*
G01*
G37*
G36*
G01*
X101105228Y-83467979D02*
X101813042Y-82760165D01*
G75*
G02*
X101937492Y-82760165I62225J-62225D01*
G01*
X102061942Y-82884615D01*
G75*
G02*
X102061942Y-83009065I-62225J-62225D01*
G01*
X101354128Y-83716879D01*
G75*
G02*
X101229678Y-83716879I-62225J62225D01*
G01*
X101105228Y-83592429D01*
G75*
G02*
X101105228Y-83467979I62225J62225D01*
G01*
G37*
G36*
G01*
X100751674Y-83114426D02*
X101459488Y-82406612D01*
G75*
G02*
X101583938Y-82406612I62225J-62225D01*
G01*
X101708388Y-82531062D01*
G75*
G02*
X101708388Y-82655512I-62225J-62225D01*
G01*
X101000574Y-83363326D01*
G75*
G02*
X100876124Y-83363326I-62225J62225D01*
G01*
X100751674Y-83238876D01*
G75*
G02*
X100751674Y-83114426I62225J62225D01*
G01*
G37*
G36*
G01*
X100398121Y-82760872D02*
X101105935Y-82053058D01*
G75*
G02*
X101230385Y-82053058I62225J-62225D01*
G01*
X101354835Y-82177508D01*
G75*
G02*
X101354835Y-82301958I-62225J-62225D01*
G01*
X100647021Y-83009772D01*
G75*
G02*
X100522571Y-83009772I-62225J62225D01*
G01*
X100398121Y-82885322D01*
G75*
G02*
X100398121Y-82760872I62225J62225D01*
G01*
G37*
G36*
G01*
X100044567Y-82407319D02*
X100752381Y-81699505D01*
G75*
G02*
X100876831Y-81699505I62225J-62225D01*
G01*
X101001281Y-81823955D01*
G75*
G02*
X101001281Y-81948405I-62225J-62225D01*
G01*
X100293467Y-82656219D01*
G75*
G02*
X100169017Y-82656219I-62225J62225D01*
G01*
X100044567Y-82531769D01*
G75*
G02*
X100044567Y-82407319I62225J62225D01*
G01*
G37*
G36*
G01*
X99691014Y-82053766D02*
X100398828Y-81345952D01*
G75*
G02*
X100523278Y-81345952I62225J-62225D01*
G01*
X100647728Y-81470402D01*
G75*
G02*
X100647728Y-81594852I-62225J-62225D01*
G01*
X99939914Y-82302666D01*
G75*
G02*
X99815464Y-82302666I-62225J62225D01*
G01*
X99691014Y-82178216D01*
G75*
G02*
X99691014Y-82053766I62225J62225D01*
G01*
G37*
G36*
G01*
X99337461Y-81700212D02*
X100045275Y-80992398D01*
G75*
G02*
X100169725Y-80992398I62225J-62225D01*
G01*
X100294175Y-81116848D01*
G75*
G02*
X100294175Y-81241298I-62225J-62225D01*
G01*
X99586361Y-81949112D01*
G75*
G02*
X99461911Y-81949112I-62225J62225D01*
G01*
X99337461Y-81824662D01*
G75*
G02*
X99337461Y-81700212I62225J62225D01*
G01*
G37*
G36*
G01*
X98983907Y-81346659D02*
X99691721Y-80638845D01*
G75*
G02*
X99816171Y-80638845I62225J-62225D01*
G01*
X99940621Y-80763295D01*
G75*
G02*
X99940621Y-80887745I-62225J-62225D01*
G01*
X99232807Y-81595559D01*
G75*
G02*
X99108357Y-81595559I-62225J62225D01*
G01*
X98983907Y-81471109D01*
G75*
G02*
X98983907Y-81346659I62225J62225D01*
G01*
G37*
G36*
G01*
X98983907Y-79578891D02*
X99108357Y-79454441D01*
G75*
G02*
X99232807Y-79454441I62225J-62225D01*
G01*
X99940621Y-80162255D01*
G75*
G02*
X99940621Y-80286705I-62225J-62225D01*
G01*
X99816171Y-80411155D01*
G75*
G02*
X99691721Y-80411155I-62225J62225D01*
G01*
X98983907Y-79703341D01*
G75*
G02*
X98983907Y-79578891I62225J62225D01*
G01*
G37*
G36*
G01*
X99337461Y-79225338D02*
X99461911Y-79100888D01*
G75*
G02*
X99586361Y-79100888I62225J-62225D01*
G01*
X100294175Y-79808702D01*
G75*
G02*
X100294175Y-79933152I-62225J-62225D01*
G01*
X100169725Y-80057602D01*
G75*
G02*
X100045275Y-80057602I-62225J62225D01*
G01*
X99337461Y-79349788D01*
G75*
G02*
X99337461Y-79225338I62225J62225D01*
G01*
G37*
G36*
G01*
X99691014Y-78871784D02*
X99815464Y-78747334D01*
G75*
G02*
X99939914Y-78747334I62225J-62225D01*
G01*
X100647728Y-79455148D01*
G75*
G02*
X100647728Y-79579598I-62225J-62225D01*
G01*
X100523278Y-79704048D01*
G75*
G02*
X100398828Y-79704048I-62225J62225D01*
G01*
X99691014Y-78996234D01*
G75*
G02*
X99691014Y-78871784I62225J62225D01*
G01*
G37*
G36*
G01*
X100044567Y-78518231D02*
X100169017Y-78393781D01*
G75*
G02*
X100293467Y-78393781I62225J-62225D01*
G01*
X101001281Y-79101595D01*
G75*
G02*
X101001281Y-79226045I-62225J-62225D01*
G01*
X100876831Y-79350495D01*
G75*
G02*
X100752381Y-79350495I-62225J62225D01*
G01*
X100044567Y-78642681D01*
G75*
G02*
X100044567Y-78518231I62225J62225D01*
G01*
G37*
G36*
G01*
X100398121Y-78164678D02*
X100522571Y-78040228D01*
G75*
G02*
X100647021Y-78040228I62225J-62225D01*
G01*
X101354835Y-78748042D01*
G75*
G02*
X101354835Y-78872492I-62225J-62225D01*
G01*
X101230385Y-78996942D01*
G75*
G02*
X101105935Y-78996942I-62225J62225D01*
G01*
X100398121Y-78289128D01*
G75*
G02*
X100398121Y-78164678I62225J62225D01*
G01*
G37*
G36*
G01*
X100751674Y-77811124D02*
X100876124Y-77686674D01*
G75*
G02*
X101000574Y-77686674I62225J-62225D01*
G01*
X101708388Y-78394488D01*
G75*
G02*
X101708388Y-78518938I-62225J-62225D01*
G01*
X101583938Y-78643388D01*
G75*
G02*
X101459488Y-78643388I-62225J62225D01*
G01*
X100751674Y-77935574D01*
G75*
G02*
X100751674Y-77811124I62225J62225D01*
G01*
G37*
G36*
G01*
X101105228Y-77457571D02*
X101229678Y-77333121D01*
G75*
G02*
X101354128Y-77333121I62225J-62225D01*
G01*
X102061942Y-78040935D01*
G75*
G02*
X102061942Y-78165385I-62225J-62225D01*
G01*
X101937492Y-78289835D01*
G75*
G02*
X101813042Y-78289835I-62225J62225D01*
G01*
X101105228Y-77582021D01*
G75*
G02*
X101105228Y-77457571I62225J62225D01*
G01*
G37*
G36*
G01*
X101458781Y-77104017D02*
X101583231Y-76979567D01*
G75*
G02*
X101707681Y-76979567I62225J-62225D01*
G01*
X102415495Y-77687381D01*
G75*
G02*
X102415495Y-77811831I-62225J-62225D01*
G01*
X102291045Y-77936281D01*
G75*
G02*
X102166595Y-77936281I-62225J62225D01*
G01*
X101458781Y-77228467D01*
G75*
G02*
X101458781Y-77104017I62225J62225D01*
G01*
G37*
G36*
G01*
X101812334Y-76750464D02*
X101936784Y-76626014D01*
G75*
G02*
X102061234Y-76626014I62225J-62225D01*
G01*
X102769048Y-77333828D01*
G75*
G02*
X102769048Y-77458278I-62225J-62225D01*
G01*
X102644598Y-77582728D01*
G75*
G02*
X102520148Y-77582728I-62225J62225D01*
G01*
X101812334Y-76874914D01*
G75*
G02*
X101812334Y-76750464I62225J62225D01*
G01*
G37*
G36*
G01*
X102165888Y-76396911D02*
X102290338Y-76272461D01*
G75*
G02*
X102414788Y-76272461I62225J-62225D01*
G01*
X103122602Y-76980275D01*
G75*
G02*
X103122602Y-77104725I-62225J-62225D01*
G01*
X102998152Y-77229175D01*
G75*
G02*
X102873702Y-77229175I-62225J62225D01*
G01*
X102165888Y-76521361D01*
G75*
G02*
X102165888Y-76396911I62225J62225D01*
G01*
G37*
G36*
G01*
X102519441Y-76043357D02*
X102643891Y-75918907D01*
G75*
G02*
X102768341Y-75918907I62225J-62225D01*
G01*
X103476155Y-76626721D01*
G75*
G02*
X103476155Y-76751171I-62225J-62225D01*
G01*
X103351705Y-76875621D01*
G75*
G02*
X103227255Y-76875621I-62225J62225D01*
G01*
X102519441Y-76167807D01*
G75*
G02*
X102519441Y-76043357I62225J62225D01*
G01*
G37*
X112550000Y-106985000D03*
X112550000Y-104445000D03*
G36*
G01*
X113451000Y-101055000D02*
X113451000Y-102755000D01*
G75*
G02*
X113400000Y-102806000I-51000J0D01*
G01*
X111700000Y-102806000D01*
G75*
G02*
X111649000Y-102755000I0J51000D01*
G01*
X111649000Y-101055000D01*
G75*
G02*
X111700000Y-101004000I51000J0D01*
G01*
X113400000Y-101004000D01*
G75*
G02*
X113451000Y-101055000I0J-51000D01*
G01*
G37*
X112550000Y-99365000D03*
X112550000Y-96825000D03*
X112550000Y-94285000D03*
X112550000Y-91745000D03*
G36*
G01*
X113451000Y-88355000D02*
X113451000Y-90055000D01*
G75*
G02*
X113400000Y-90106000I-51000J0D01*
G01*
X111700000Y-90106000D01*
G75*
G02*
X111649000Y-90055000I0J51000D01*
G01*
X111649000Y-88355000D01*
G75*
G02*
X111700000Y-88304000I51000J0D01*
G01*
X113400000Y-88304000D01*
G75*
G02*
X113451000Y-88355000I0J-51000D01*
G01*
G37*
X112550000Y-86665000D03*
X112550000Y-84125000D03*
X112550000Y-81585000D03*
X112550000Y-79045000D03*
G36*
G01*
X113451000Y-75655000D02*
X113451000Y-77355000D01*
G75*
G02*
X113400000Y-77406000I-51000J0D01*
G01*
X111700000Y-77406000D01*
G75*
G02*
X111649000Y-77355000I0J51000D01*
G01*
X111649000Y-75655000D01*
G75*
G02*
X111700000Y-75604000I51000J0D01*
G01*
X113400000Y-75604000D01*
G75*
G02*
X113451000Y-75655000I0J-51000D01*
G01*
G37*
X112550000Y-73965000D03*
X112550000Y-71425000D03*
X112550000Y-68885000D03*
X112550000Y-66345000D03*
G36*
G01*
X113451000Y-62955000D02*
X113451000Y-64655000D01*
G75*
G02*
X113400000Y-64706000I-51000J0D01*
G01*
X111700000Y-64706000D01*
G75*
G02*
X111649000Y-64655000I0J51000D01*
G01*
X111649000Y-62955000D01*
G75*
G02*
X111700000Y-62904000I51000J0D01*
G01*
X113400000Y-62904000D01*
G75*
G02*
X113451000Y-62955000I0J-51000D01*
G01*
G37*
X112550000Y-61265000D03*
G36*
G01*
X113451000Y-57875000D02*
X113451000Y-59575000D01*
G75*
G02*
X113400000Y-59626000I-51000J0D01*
G01*
X111700000Y-59626000D01*
G75*
G02*
X111649000Y-59575000I0J51000D01*
G01*
X111649000Y-57875000D01*
G75*
G02*
X111700000Y-57824000I51000J0D01*
G01*
X113400000Y-57824000D01*
G75*
G02*
X113451000Y-57875000I0J-51000D01*
G01*
G37*
G36*
G01*
X116051000Y-98515000D02*
X116051000Y-100215000D01*
G75*
G02*
X116000000Y-100266000I-51000J0D01*
G01*
X112500000Y-100266000D01*
G75*
G02*
X112449000Y-100215000I0J51000D01*
G01*
X112449000Y-98515000D01*
G75*
G02*
X112500000Y-98464000I51000J0D01*
G01*
X116000000Y-98464000D01*
G75*
G02*
X116051000Y-98515000I0J-51000D01*
G01*
G37*
G36*
G01*
X116051000Y-101055000D02*
X116051000Y-102755000D01*
G75*
G02*
X116000000Y-102806000I-51000J0D01*
G01*
X112500000Y-102806000D01*
G75*
G02*
X112449000Y-102755000I0J51000D01*
G01*
X112449000Y-101055000D01*
G75*
G02*
X112500000Y-101004000I51000J0D01*
G01*
X116000000Y-101004000D01*
G75*
G02*
X116051000Y-101055000I0J-51000D01*
G01*
G37*
G36*
G01*
X116051000Y-95975000D02*
X116051000Y-97675000D01*
G75*
G02*
X116000000Y-97726000I-51000J0D01*
G01*
X112500000Y-97726000D01*
G75*
G02*
X112449000Y-97675000I0J51000D01*
G01*
X112449000Y-95975000D01*
G75*
G02*
X112500000Y-95924000I51000J0D01*
G01*
X116000000Y-95924000D01*
G75*
G02*
X116051000Y-95975000I0J-51000D01*
G01*
G37*
G36*
G01*
X116051000Y-103595000D02*
X116051000Y-105295000D01*
G75*
G02*
X116000000Y-105346000I-51000J0D01*
G01*
X112500000Y-105346000D01*
G75*
G02*
X112449000Y-105295000I0J51000D01*
G01*
X112449000Y-103595000D01*
G75*
G02*
X112500000Y-103544000I51000J0D01*
G01*
X116000000Y-103544000D01*
G75*
G02*
X116051000Y-103595000I0J-51000D01*
G01*
G37*
G36*
G01*
X116051000Y-93435000D02*
X116051000Y-95135000D01*
G75*
G02*
X116000000Y-95186000I-51000J0D01*
G01*
X112500000Y-95186000D01*
G75*
G02*
X112449000Y-95135000I0J51000D01*
G01*
X112449000Y-93435000D01*
G75*
G02*
X112500000Y-93384000I51000J0D01*
G01*
X116000000Y-93384000D01*
G75*
G02*
X116051000Y-93435000I0J-51000D01*
G01*
G37*
G36*
G01*
X116051000Y-106135000D02*
X116051000Y-107835000D01*
G75*
G02*
X116000000Y-107886000I-51000J0D01*
G01*
X112500000Y-107886000D01*
G75*
G02*
X112449000Y-107835000I0J51000D01*
G01*
X112449000Y-106135000D01*
G75*
G02*
X112500000Y-106084000I51000J0D01*
G01*
X116000000Y-106084000D01*
G75*
G02*
X116051000Y-106135000I0J-51000D01*
G01*
G37*
G36*
G01*
X116051000Y-85815000D02*
X116051000Y-87515000D01*
G75*
G02*
X116000000Y-87566000I-51000J0D01*
G01*
X112500000Y-87566000D01*
G75*
G02*
X112449000Y-87515000I0J51000D01*
G01*
X112449000Y-85815000D01*
G75*
G02*
X112500000Y-85764000I51000J0D01*
G01*
X116000000Y-85764000D01*
G75*
G02*
X116051000Y-85815000I0J-51000D01*
G01*
G37*
G36*
G01*
X116051000Y-90895000D02*
X116051000Y-92595000D01*
G75*
G02*
X116000000Y-92646000I-51000J0D01*
G01*
X112500000Y-92646000D01*
G75*
G02*
X112449000Y-92595000I0J51000D01*
G01*
X112449000Y-90895000D01*
G75*
G02*
X112500000Y-90844000I51000J0D01*
G01*
X116000000Y-90844000D01*
G75*
G02*
X116051000Y-90895000I0J-51000D01*
G01*
G37*
G36*
G01*
X116051000Y-83275000D02*
X116051000Y-84975000D01*
G75*
G02*
X116000000Y-85026000I-51000J0D01*
G01*
X112500000Y-85026000D01*
G75*
G02*
X112449000Y-84975000I0J51000D01*
G01*
X112449000Y-83275000D01*
G75*
G02*
X112500000Y-83224000I51000J0D01*
G01*
X116000000Y-83224000D01*
G75*
G02*
X116051000Y-83275000I0J-51000D01*
G01*
G37*
G36*
G01*
X116051000Y-73115000D02*
X116051000Y-74815000D01*
G75*
G02*
X116000000Y-74866000I-51000J0D01*
G01*
X112500000Y-74866000D01*
G75*
G02*
X112449000Y-74815000I0J51000D01*
G01*
X112449000Y-73115000D01*
G75*
G02*
X112500000Y-73064000I51000J0D01*
G01*
X116000000Y-73064000D01*
G75*
G02*
X116051000Y-73115000I0J-51000D01*
G01*
G37*
G36*
G01*
X116051000Y-70575000D02*
X116051000Y-72275000D01*
G75*
G02*
X116000000Y-72326000I-51000J0D01*
G01*
X112500000Y-72326000D01*
G75*
G02*
X112449000Y-72275000I0J51000D01*
G01*
X112449000Y-70575000D01*
G75*
G02*
X112500000Y-70524000I51000J0D01*
G01*
X116000000Y-70524000D01*
G75*
G02*
X116051000Y-70575000I0J-51000D01*
G01*
G37*
G36*
G01*
X116051000Y-68035000D02*
X116051000Y-69735000D01*
G75*
G02*
X116000000Y-69786000I-51000J0D01*
G01*
X112500000Y-69786000D01*
G75*
G02*
X112449000Y-69735000I0J51000D01*
G01*
X112449000Y-68035000D01*
G75*
G02*
X112500000Y-67984000I51000J0D01*
G01*
X116000000Y-67984000D01*
G75*
G02*
X116051000Y-68035000I0J-51000D01*
G01*
G37*
G36*
G01*
X116051000Y-60415000D02*
X116051000Y-62115000D01*
G75*
G02*
X116000000Y-62166000I-51000J0D01*
G01*
X112500000Y-62166000D01*
G75*
G02*
X112449000Y-62115000I0J51000D01*
G01*
X112449000Y-60415000D01*
G75*
G02*
X112500000Y-60364000I51000J0D01*
G01*
X116000000Y-60364000D01*
G75*
G02*
X116051000Y-60415000I0J-51000D01*
G01*
G37*
G36*
G01*
X116051000Y-88355000D02*
X116051000Y-90055000D01*
G75*
G02*
X116000000Y-90106000I-51000J0D01*
G01*
X112500000Y-90106000D01*
G75*
G02*
X112449000Y-90055000I0J51000D01*
G01*
X112449000Y-88355000D01*
G75*
G02*
X112500000Y-88304000I51000J0D01*
G01*
X116000000Y-88304000D01*
G75*
G02*
X116051000Y-88355000I0J-51000D01*
G01*
G37*
G36*
G01*
X116051000Y-75655000D02*
X116051000Y-77355000D01*
G75*
G02*
X116000000Y-77406000I-51000J0D01*
G01*
X112500000Y-77406000D01*
G75*
G02*
X112449000Y-77355000I0J51000D01*
G01*
X112449000Y-75655000D01*
G75*
G02*
X112500000Y-75604000I51000J0D01*
G01*
X116000000Y-75604000D01*
G75*
G02*
X116051000Y-75655000I0J-51000D01*
G01*
G37*
G36*
G01*
X116051000Y-62955000D02*
X116051000Y-64655000D01*
G75*
G02*
X116000000Y-64706000I-51000J0D01*
G01*
X112500000Y-64706000D01*
G75*
G02*
X112449000Y-64655000I0J51000D01*
G01*
X112449000Y-62955000D01*
G75*
G02*
X112500000Y-62904000I51000J0D01*
G01*
X116000000Y-62904000D01*
G75*
G02*
X116051000Y-62955000I0J-51000D01*
G01*
G37*
G36*
G01*
X116051000Y-57875000D02*
X116051000Y-59575000D01*
G75*
G02*
X116000000Y-59626000I-51000J0D01*
G01*
X112500000Y-59626000D01*
G75*
G02*
X112449000Y-59575000I0J51000D01*
G01*
X112449000Y-57875000D01*
G75*
G02*
X112500000Y-57824000I51000J0D01*
G01*
X116000000Y-57824000D01*
G75*
G02*
X116051000Y-57875000I0J-51000D01*
G01*
G37*
G36*
G01*
X116051000Y-78195000D02*
X116051000Y-79895000D01*
G75*
G02*
X116000000Y-79946000I-51000J0D01*
G01*
X112500000Y-79946000D01*
G75*
G02*
X112449000Y-79895000I0J51000D01*
G01*
X112449000Y-78195000D01*
G75*
G02*
X112500000Y-78144000I51000J0D01*
G01*
X116000000Y-78144000D01*
G75*
G02*
X116051000Y-78195000I0J-51000D01*
G01*
G37*
G36*
G01*
X116051000Y-65495000D02*
X116051000Y-67195000D01*
G75*
G02*
X116000000Y-67246000I-51000J0D01*
G01*
X112500000Y-67246000D01*
G75*
G02*
X112449000Y-67195000I0J51000D01*
G01*
X112449000Y-65495000D01*
G75*
G02*
X112500000Y-65444000I51000J0D01*
G01*
X116000000Y-65444000D01*
G75*
G02*
X116051000Y-65495000I0J-51000D01*
G01*
G37*
G36*
G01*
X116051000Y-80735000D02*
X116051000Y-82435000D01*
G75*
G02*
X116000000Y-82486000I-51000J0D01*
G01*
X112500000Y-82486000D01*
G75*
G02*
X112449000Y-82435000I0J51000D01*
G01*
X112449000Y-80735000D01*
G75*
G02*
X112500000Y-80684000I51000J0D01*
G01*
X116000000Y-80684000D01*
G75*
G02*
X116051000Y-80735000I0J-51000D01*
G01*
G37*
X94750000Y-58725000D03*
X94750000Y-61265000D03*
G36*
G01*
X93849000Y-64655000D02*
X93849000Y-62955000D01*
G75*
G02*
X93900000Y-62904000I51000J0D01*
G01*
X95600000Y-62904000D01*
G75*
G02*
X95651000Y-62955000I0J-51000D01*
G01*
X95651000Y-64655000D01*
G75*
G02*
X95600000Y-64706000I-51000J0D01*
G01*
X93900000Y-64706000D01*
G75*
G02*
X93849000Y-64655000I0J51000D01*
G01*
G37*
X94750000Y-66345000D03*
X94750000Y-68885000D03*
X94750000Y-71425000D03*
X94750000Y-73965000D03*
G36*
G01*
X93849000Y-77355000D02*
X93849000Y-75655000D01*
G75*
G02*
X93900000Y-75604000I51000J0D01*
G01*
X95600000Y-75604000D01*
G75*
G02*
X95651000Y-75655000I0J-51000D01*
G01*
X95651000Y-77355000D01*
G75*
G02*
X95600000Y-77406000I-51000J0D01*
G01*
X93900000Y-77406000D01*
G75*
G02*
X93849000Y-77355000I0J51000D01*
G01*
G37*
X94750000Y-79045000D03*
X94750000Y-81585000D03*
X94750000Y-84125000D03*
X94750000Y-86665000D03*
G36*
G01*
X93849000Y-90055000D02*
X93849000Y-88355000D01*
G75*
G02*
X93900000Y-88304000I51000J0D01*
G01*
X95600000Y-88304000D01*
G75*
G02*
X95651000Y-88355000I0J-51000D01*
G01*
X95651000Y-90055000D01*
G75*
G02*
X95600000Y-90106000I-51000J0D01*
G01*
X93900000Y-90106000D01*
G75*
G02*
X93849000Y-90055000I0J51000D01*
G01*
G37*
X94750000Y-91745000D03*
X94750000Y-94285000D03*
X94750000Y-96825000D03*
X94750000Y-99365000D03*
G36*
G01*
X93849000Y-102755000D02*
X93849000Y-101055000D01*
G75*
G02*
X93900000Y-101004000I51000J0D01*
G01*
X95600000Y-101004000D01*
G75*
G02*
X95651000Y-101055000I0J-51000D01*
G01*
X95651000Y-102755000D01*
G75*
G02*
X95600000Y-102806000I-51000J0D01*
G01*
X93900000Y-102806000D01*
G75*
G02*
X93849000Y-102755000I0J51000D01*
G01*
G37*
X94750000Y-104445000D03*
D11*
X94750000Y-106985000D03*
G36*
G01*
X91249000Y-105295000D02*
X91249000Y-103595000D01*
G75*
G02*
X91300000Y-103544000I51000J0D01*
G01*
X94800000Y-103544000D01*
G75*
G02*
X94851000Y-103595000I0J-51000D01*
G01*
X94851000Y-105295000D01*
G75*
G02*
X94800000Y-105346000I-51000J0D01*
G01*
X91300000Y-105346000D01*
G75*
G02*
X91249000Y-105295000I0J51000D01*
G01*
G37*
G36*
G01*
X91249000Y-74815000D02*
X91249000Y-73115000D01*
G75*
G02*
X91300000Y-73064000I51000J0D01*
G01*
X94800000Y-73064000D01*
G75*
G02*
X94851000Y-73115000I0J-51000D01*
G01*
X94851000Y-74815000D01*
G75*
G02*
X94800000Y-74866000I-51000J0D01*
G01*
X91300000Y-74866000D01*
G75*
G02*
X91249000Y-74815000I0J51000D01*
G01*
G37*
G36*
G01*
X91249000Y-100215000D02*
X91249000Y-98515000D01*
G75*
G02*
X91300000Y-98464000I51000J0D01*
G01*
X94800000Y-98464000D01*
G75*
G02*
X94851000Y-98515000I0J-51000D01*
G01*
X94851000Y-100215000D01*
G75*
G02*
X94800000Y-100266000I-51000J0D01*
G01*
X91300000Y-100266000D01*
G75*
G02*
X91249000Y-100215000I0J51000D01*
G01*
G37*
G36*
G01*
X91249000Y-95135000D02*
X91249000Y-93435000D01*
G75*
G02*
X91300000Y-93384000I51000J0D01*
G01*
X94800000Y-93384000D01*
G75*
G02*
X94851000Y-93435000I0J-51000D01*
G01*
X94851000Y-95135000D01*
G75*
G02*
X94800000Y-95186000I-51000J0D01*
G01*
X91300000Y-95186000D01*
G75*
G02*
X91249000Y-95135000I0J51000D01*
G01*
G37*
G36*
G01*
X91249000Y-90055000D02*
X91249000Y-88355000D01*
G75*
G02*
X91300000Y-88304000I51000J0D01*
G01*
X94800000Y-88304000D01*
G75*
G02*
X94851000Y-88355000I0J-51000D01*
G01*
X94851000Y-90055000D01*
G75*
G02*
X94800000Y-90106000I-51000J0D01*
G01*
X91300000Y-90106000D01*
G75*
G02*
X91249000Y-90055000I0J51000D01*
G01*
G37*
G36*
G01*
X91249000Y-87515000D02*
X91249000Y-85815000D01*
G75*
G02*
X91300000Y-85764000I51000J0D01*
G01*
X94800000Y-85764000D01*
G75*
G02*
X94851000Y-85815000I0J-51000D01*
G01*
X94851000Y-87515000D01*
G75*
G02*
X94800000Y-87566000I-51000J0D01*
G01*
X91300000Y-87566000D01*
G75*
G02*
X91249000Y-87515000I0J51000D01*
G01*
G37*
G36*
G01*
X91249000Y-72275000D02*
X91249000Y-70575000D01*
G75*
G02*
X91300000Y-70524000I51000J0D01*
G01*
X94800000Y-70524000D01*
G75*
G02*
X94851000Y-70575000I0J-51000D01*
G01*
X94851000Y-72275000D01*
G75*
G02*
X94800000Y-72326000I-51000J0D01*
G01*
X91300000Y-72326000D01*
G75*
G02*
X91249000Y-72275000I0J51000D01*
G01*
G37*
G36*
G01*
X91259000Y-79895000D02*
X91259000Y-78195000D01*
G75*
G02*
X91310000Y-78144000I51000J0D01*
G01*
X94810000Y-78144000D01*
G75*
G02*
X94861000Y-78195000I0J-51000D01*
G01*
X94861000Y-79895000D01*
G75*
G02*
X94810000Y-79946000I-51000J0D01*
G01*
X91310000Y-79946000D01*
G75*
G02*
X91259000Y-79895000I0J51000D01*
G01*
G37*
G36*
G01*
X91249000Y-69735000D02*
X91249000Y-68035000D01*
G75*
G02*
X91300000Y-67984000I51000J0D01*
G01*
X94800000Y-67984000D01*
G75*
G02*
X94851000Y-68035000I0J-51000D01*
G01*
X94851000Y-69735000D01*
G75*
G02*
X94800000Y-69786000I-51000J0D01*
G01*
X91300000Y-69786000D01*
G75*
G02*
X91249000Y-69735000I0J51000D01*
G01*
G37*
G36*
G01*
X91249000Y-62105000D02*
X91249000Y-60405000D01*
G75*
G02*
X91300000Y-60354000I51000J0D01*
G01*
X94800000Y-60354000D01*
G75*
G02*
X94851000Y-60405000I0J-51000D01*
G01*
X94851000Y-62105000D01*
G75*
G02*
X94800000Y-62156000I-51000J0D01*
G01*
X91300000Y-62156000D01*
G75*
G02*
X91249000Y-62105000I0J51000D01*
G01*
G37*
G36*
G01*
X91249000Y-67185000D02*
X91249000Y-65485000D01*
G75*
G02*
X91300000Y-65434000I51000J0D01*
G01*
X94800000Y-65434000D01*
G75*
G02*
X94851000Y-65485000I0J-51000D01*
G01*
X94851000Y-67185000D01*
G75*
G02*
X94800000Y-67236000I-51000J0D01*
G01*
X91300000Y-67236000D01*
G75*
G02*
X91249000Y-67185000I0J51000D01*
G01*
G37*
G36*
G01*
X91239000Y-92595000D02*
X91239000Y-90895000D01*
G75*
G02*
X91290000Y-90844000I51000J0D01*
G01*
X94790000Y-90844000D01*
G75*
G02*
X94841000Y-90895000I0J-51000D01*
G01*
X94841000Y-92595000D01*
G75*
G02*
X94790000Y-92646000I-51000J0D01*
G01*
X91290000Y-92646000D01*
G75*
G02*
X91239000Y-92595000I0J51000D01*
G01*
G37*
G36*
G01*
X91249000Y-97675000D02*
X91249000Y-95975000D01*
G75*
G02*
X91300000Y-95924000I51000J0D01*
G01*
X94800000Y-95924000D01*
G75*
G02*
X94851000Y-95975000I0J-51000D01*
G01*
X94851000Y-97675000D01*
G75*
G02*
X94800000Y-97726000I-51000J0D01*
G01*
X91300000Y-97726000D01*
G75*
G02*
X91249000Y-97675000I0J51000D01*
G01*
G37*
G36*
G01*
X91249000Y-82435000D02*
X91249000Y-80735000D01*
G75*
G02*
X91300000Y-80684000I51000J0D01*
G01*
X94800000Y-80684000D01*
G75*
G02*
X94851000Y-80735000I0J-51000D01*
G01*
X94851000Y-82435000D01*
G75*
G02*
X94800000Y-82486000I-51000J0D01*
G01*
X91300000Y-82486000D01*
G75*
G02*
X91249000Y-82435000I0J51000D01*
G01*
G37*
G36*
G01*
X91249000Y-77355000D02*
X91249000Y-75655000D01*
G75*
G02*
X91300000Y-75604000I51000J0D01*
G01*
X94800000Y-75604000D01*
G75*
G02*
X94851000Y-75655000I0J-51000D01*
G01*
X94851000Y-77355000D01*
G75*
G02*
X94800000Y-77406000I-51000J0D01*
G01*
X91300000Y-77406000D01*
G75*
G02*
X91249000Y-77355000I0J51000D01*
G01*
G37*
G36*
G01*
X91249000Y-107835000D02*
X91249000Y-106135000D01*
G75*
G02*
X91300000Y-106084000I51000J0D01*
G01*
X94800000Y-106084000D01*
G75*
G02*
X94851000Y-106135000I0J-51000D01*
G01*
X94851000Y-107835000D01*
G75*
G02*
X94800000Y-107886000I-51000J0D01*
G01*
X91300000Y-107886000D01*
G75*
G02*
X91249000Y-107835000I0J51000D01*
G01*
G37*
G36*
G01*
X91249000Y-84975000D02*
X91249000Y-83275000D01*
G75*
G02*
X91300000Y-83224000I51000J0D01*
G01*
X94800000Y-83224000D01*
G75*
G02*
X94851000Y-83275000I0J-51000D01*
G01*
X94851000Y-84975000D01*
G75*
G02*
X94800000Y-85026000I-51000J0D01*
G01*
X91300000Y-85026000D01*
G75*
G02*
X91249000Y-84975000I0J51000D01*
G01*
G37*
G36*
G01*
X91249000Y-64655000D02*
X91249000Y-62955000D01*
G75*
G02*
X91300000Y-62904000I51000J0D01*
G01*
X94800000Y-62904000D01*
G75*
G02*
X94851000Y-62955000I0J-51000D01*
G01*
X94851000Y-64655000D01*
G75*
G02*
X94800000Y-64706000I-51000J0D01*
G01*
X91300000Y-64706000D01*
G75*
G02*
X91249000Y-64655000I0J51000D01*
G01*
G37*
G36*
G01*
X91249000Y-102755000D02*
X91249000Y-101055000D01*
G75*
G02*
X91300000Y-101004000I51000J0D01*
G01*
X94800000Y-101004000D01*
G75*
G02*
X94851000Y-101055000I0J-51000D01*
G01*
X94851000Y-102755000D01*
G75*
G02*
X94800000Y-102806000I-51000J0D01*
G01*
X91300000Y-102806000D01*
G75*
G02*
X91249000Y-102755000I0J51000D01*
G01*
G37*
G36*
G01*
X91249000Y-59575000D02*
X91249000Y-57875000D01*
G75*
G02*
X91300000Y-57824000I51000J0D01*
G01*
X94800000Y-57824000D01*
G75*
G02*
X94851000Y-57875000I0J-51000D01*
G01*
X94851000Y-59575000D01*
G75*
G02*
X94800000Y-59626000I-51000J0D01*
G01*
X91300000Y-59626000D01*
G75*
G02*
X91249000Y-59575000I0J51000D01*
G01*
G37*
G36*
G01*
X100726000Y-63895000D02*
X100726000Y-65345000D01*
G75*
G02*
X100675000Y-65396000I-51000J0D01*
G01*
X100075000Y-65396000D01*
G75*
G02*
X100024000Y-65345000I0J51000D01*
G01*
X100024000Y-63895000D01*
G75*
G02*
X100075000Y-63844000I51000J0D01*
G01*
X100675000Y-63844000D01*
G75*
G02*
X100726000Y-63895000I0J-51000D01*
G01*
G37*
G36*
G01*
X107176000Y-63895000D02*
X107176000Y-65345000D01*
G75*
G02*
X107125000Y-65396000I-51000J0D01*
G01*
X106525000Y-65396000D01*
G75*
G02*
X106474000Y-65345000I0J51000D01*
G01*
X106474000Y-63895000D01*
G75*
G02*
X106525000Y-63844000I51000J0D01*
G01*
X107125000Y-63844000D01*
G75*
G02*
X107176000Y-63895000I0J-51000D01*
G01*
G37*
G36*
G01*
X101501000Y-63895000D02*
X101501000Y-65345000D01*
G75*
G02*
X101450000Y-65396000I-51000J0D01*
G01*
X100850000Y-65396000D01*
G75*
G02*
X100799000Y-65345000I0J51000D01*
G01*
X100799000Y-63895000D01*
G75*
G02*
X100850000Y-63844000I51000J0D01*
G01*
X101450000Y-63844000D01*
G75*
G02*
X101501000Y-63895000I0J-51000D01*
G01*
G37*
G36*
G01*
X106401000Y-63895000D02*
X106401000Y-65345000D01*
G75*
G02*
X106350000Y-65396000I-51000J0D01*
G01*
X105750000Y-65396000D01*
G75*
G02*
X105699000Y-65345000I0J51000D01*
G01*
X105699000Y-63895000D01*
G75*
G02*
X105750000Y-63844000I51000J0D01*
G01*
X106350000Y-63844000D01*
G75*
G02*
X106401000Y-63895000I0J-51000D01*
G01*
G37*
G36*
G01*
X105551000Y-63895000D02*
X105551000Y-65345000D01*
G75*
G02*
X105500000Y-65396000I-51000J0D01*
G01*
X105200000Y-65396000D01*
G75*
G02*
X105149000Y-65345000I0J51000D01*
G01*
X105149000Y-63895000D01*
G75*
G02*
X105200000Y-63844000I51000J0D01*
G01*
X105500000Y-63844000D01*
G75*
G02*
X105551000Y-63895000I0J-51000D01*
G01*
G37*
G36*
G01*
X102051000Y-63895000D02*
X102051000Y-65345000D01*
G75*
G02*
X102000000Y-65396000I-51000J0D01*
G01*
X101700000Y-65396000D01*
G75*
G02*
X101649000Y-65345000I0J51000D01*
G01*
X101649000Y-63895000D01*
G75*
G02*
X101700000Y-63844000I51000J0D01*
G01*
X102000000Y-63844000D01*
G75*
G02*
X102051000Y-63895000I0J-51000D01*
G01*
G37*
G36*
G01*
X105051000Y-63895000D02*
X105051000Y-65345000D01*
G75*
G02*
X105000000Y-65396000I-51000J0D01*
G01*
X104700000Y-65396000D01*
G75*
G02*
X104649000Y-65345000I0J51000D01*
G01*
X104649000Y-63895000D01*
G75*
G02*
X104700000Y-63844000I51000J0D01*
G01*
X105000000Y-63844000D01*
G75*
G02*
X105051000Y-63895000I0J-51000D01*
G01*
G37*
G36*
G01*
X102551000Y-63895000D02*
X102551000Y-65345000D01*
G75*
G02*
X102500000Y-65396000I-51000J0D01*
G01*
X102200000Y-65396000D01*
G75*
G02*
X102149000Y-65345000I0J51000D01*
G01*
X102149000Y-63895000D01*
G75*
G02*
X102200000Y-63844000I51000J0D01*
G01*
X102500000Y-63844000D01*
G75*
G02*
X102551000Y-63895000I0J-51000D01*
G01*
G37*
G36*
G01*
X104551000Y-63895000D02*
X104551000Y-65345000D01*
G75*
G02*
X104500000Y-65396000I-51000J0D01*
G01*
X104200000Y-65396000D01*
G75*
G02*
X104149000Y-65345000I0J51000D01*
G01*
X104149000Y-63895000D01*
G75*
G02*
X104200000Y-63844000I51000J0D01*
G01*
X104500000Y-63844000D01*
G75*
G02*
X104551000Y-63895000I0J-51000D01*
G01*
G37*
G36*
G01*
X103051000Y-63895000D02*
X103051000Y-65345000D01*
G75*
G02*
X103000000Y-65396000I-51000J0D01*
G01*
X102700000Y-65396000D01*
G75*
G02*
X102649000Y-65345000I0J51000D01*
G01*
X102649000Y-63895000D01*
G75*
G02*
X102700000Y-63844000I51000J0D01*
G01*
X103000000Y-63844000D01*
G75*
G02*
X103051000Y-63895000I0J-51000D01*
G01*
G37*
G36*
G01*
X103551000Y-63895000D02*
X103551000Y-65345000D01*
G75*
G02*
X103500000Y-65396000I-51000J0D01*
G01*
X103200000Y-65396000D01*
G75*
G02*
X103149000Y-65345000I0J51000D01*
G01*
X103149000Y-63895000D01*
G75*
G02*
X103200000Y-63844000I51000J0D01*
G01*
X103500000Y-63844000D01*
G75*
G02*
X103551000Y-63895000I0J-51000D01*
G01*
G37*
G36*
G01*
X104051000Y-63895000D02*
X104051000Y-65345000D01*
G75*
G02*
X104000000Y-65396000I-51000J0D01*
G01*
X103700000Y-65396000D01*
G75*
G02*
X103649000Y-65345000I0J51000D01*
G01*
X103649000Y-63895000D01*
G75*
G02*
X103700000Y-63844000I51000J0D01*
G01*
X104000000Y-63844000D01*
G75*
G02*
X104051000Y-63895000I0J-51000D01*
G01*
G37*
D12*
X100710000Y-63175000D03*
X106490000Y-63175000D03*
D13*
G36*
X103302413Y-84138766D02*
G01*
X103302797Y-84138842D01*
X103315039Y-84142555D01*
X103315402Y-84142705D01*
X103326692Y-84148740D01*
X103327018Y-84148958D01*
X103338631Y-84158488D01*
X103338776Y-84158620D01*
X103491914Y-84311758D01*
X103492046Y-84311903D01*
X103501576Y-84323516D01*
X103501794Y-84323842D01*
X103507829Y-84335132D01*
X103507979Y-84335495D01*
X103511692Y-84347737D01*
X103511768Y-84348121D01*
X103513023Y-84360858D01*
X103513023Y-84361250D01*
X103511768Y-84373987D01*
X103511692Y-84374371D01*
X103507979Y-84386613D01*
X103507829Y-84386976D01*
X103501794Y-84398266D01*
X103501576Y-84398592D01*
X103492046Y-84410205D01*
X103491914Y-84410350D01*
X102755412Y-85146852D01*
X102755267Y-85146984D01*
X102743654Y-85156514D01*
X102743328Y-85156732D01*
X102732038Y-85162767D01*
X102731675Y-85162917D01*
X102719433Y-85166630D01*
X102719049Y-85166706D01*
X102706312Y-85167961D01*
X102705920Y-85167961D01*
X102693183Y-85166706D01*
X102692799Y-85166630D01*
X102680557Y-85162917D01*
X102680194Y-85162767D01*
X102668904Y-85156732D01*
X102668578Y-85156514D01*
X102656965Y-85146984D01*
X102656820Y-85146852D01*
X102503682Y-84993714D01*
X102503550Y-84993569D01*
X102494020Y-84981956D01*
X102493802Y-84981630D01*
X102487767Y-84970340D01*
X102487617Y-84969977D01*
X102483904Y-84957735D01*
X102483828Y-84957351D01*
X102482573Y-84944614D01*
X102482573Y-84944418D01*
X102495675Y-84944418D01*
X102497327Y-84961191D01*
X102502222Y-84977325D01*
X102510168Y-84992192D01*
X102520927Y-85005301D01*
X102645233Y-85129607D01*
X102658342Y-85140366D01*
X102673209Y-85148312D01*
X102689343Y-85153207D01*
X102706116Y-85154859D01*
X102722889Y-85153207D01*
X102739023Y-85148312D01*
X102753890Y-85140366D01*
X102766999Y-85129607D01*
X103474669Y-84421937D01*
X103485428Y-84408828D01*
X103493374Y-84393961D01*
X103498269Y-84377827D01*
X103499921Y-84361054D01*
X103498269Y-84344281D01*
X103493374Y-84328147D01*
X103485428Y-84313280D01*
X103474669Y-84300171D01*
X103350363Y-84175865D01*
X103337254Y-84165106D01*
X103322387Y-84157160D01*
X103306253Y-84152265D01*
X103289480Y-84150613D01*
X103272707Y-84152265D01*
X103256573Y-84157160D01*
X103241706Y-84165106D01*
X103228597Y-84175865D01*
X102520927Y-84883535D01*
X102510168Y-84896644D01*
X102502222Y-84911511D01*
X102497327Y-84927645D01*
X102495675Y-84944418D01*
X102482573Y-84944418D01*
X102482573Y-84944222D01*
X102483828Y-84931485D01*
X102483904Y-84931101D01*
X102487617Y-84918859D01*
X102487767Y-84918496D01*
X102493802Y-84907206D01*
X102494020Y-84906880D01*
X102503550Y-84895267D01*
X102503682Y-84895122D01*
X103240184Y-84158620D01*
X103240329Y-84158488D01*
X103251942Y-84148958D01*
X103252268Y-84148740D01*
X103263558Y-84142705D01*
X103263921Y-84142555D01*
X103276163Y-84138842D01*
X103276547Y-84138766D01*
X103289284Y-84137511D01*
X103289676Y-84137511D01*
X103302413Y-84138766D01*
G37*
G36*
X103903453Y-84138766D02*
G01*
X103903837Y-84138842D01*
X103916079Y-84142555D01*
X103916442Y-84142705D01*
X103927732Y-84148740D01*
X103928058Y-84148958D01*
X103939671Y-84158488D01*
X103939816Y-84158620D01*
X104676318Y-84895122D01*
X104676450Y-84895267D01*
X104685980Y-84906880D01*
X104686198Y-84907206D01*
X104692233Y-84918496D01*
X104692383Y-84918859D01*
X104696096Y-84931101D01*
X104696172Y-84931485D01*
X104697427Y-84944222D01*
X104697427Y-84944614D01*
X104696172Y-84957351D01*
X104696096Y-84957735D01*
X104692383Y-84969977D01*
X104692233Y-84970340D01*
X104686198Y-84981630D01*
X104685980Y-84981956D01*
X104676450Y-84993569D01*
X104676318Y-84993714D01*
X104523180Y-85146852D01*
X104523035Y-85146984D01*
X104511422Y-85156514D01*
X104511096Y-85156732D01*
X104499806Y-85162767D01*
X104499443Y-85162917D01*
X104487201Y-85166630D01*
X104486817Y-85166706D01*
X104474080Y-85167961D01*
X104473688Y-85167961D01*
X104460951Y-85166706D01*
X104460567Y-85166630D01*
X104448325Y-85162917D01*
X104447962Y-85162767D01*
X104436672Y-85156732D01*
X104436346Y-85156514D01*
X104424733Y-85146984D01*
X104424588Y-85146852D01*
X103688086Y-84410350D01*
X103687954Y-84410205D01*
X103678424Y-84398592D01*
X103678206Y-84398266D01*
X103672171Y-84386976D01*
X103672021Y-84386613D01*
X103668308Y-84374371D01*
X103668232Y-84373987D01*
X103666977Y-84361250D01*
X103666977Y-84361054D01*
X103680079Y-84361054D01*
X103681731Y-84377827D01*
X103686626Y-84393961D01*
X103694572Y-84408828D01*
X103705331Y-84421937D01*
X104413001Y-85129607D01*
X104426110Y-85140366D01*
X104440977Y-85148312D01*
X104457111Y-85153207D01*
X104473884Y-85154859D01*
X104490657Y-85153207D01*
X104506791Y-85148312D01*
X104521658Y-85140366D01*
X104534767Y-85129607D01*
X104659073Y-85005301D01*
X104669832Y-84992192D01*
X104677778Y-84977325D01*
X104682673Y-84961191D01*
X104684325Y-84944418D01*
X104682673Y-84927645D01*
X104677778Y-84911511D01*
X104669832Y-84896644D01*
X104659073Y-84883535D01*
X103951403Y-84175865D01*
X103938294Y-84165106D01*
X103923427Y-84157160D01*
X103907293Y-84152265D01*
X103890520Y-84150613D01*
X103873747Y-84152265D01*
X103857613Y-84157160D01*
X103842746Y-84165106D01*
X103829637Y-84175865D01*
X103705331Y-84300171D01*
X103694572Y-84313280D01*
X103686626Y-84328147D01*
X103681731Y-84344281D01*
X103680079Y-84361054D01*
X103666977Y-84361054D01*
X103666977Y-84360858D01*
X103668232Y-84348121D01*
X103668308Y-84347737D01*
X103672021Y-84335495D01*
X103672171Y-84335132D01*
X103678206Y-84323842D01*
X103678424Y-84323516D01*
X103687954Y-84311903D01*
X103688086Y-84311758D01*
X103841224Y-84158620D01*
X103841369Y-84158488D01*
X103852982Y-84148958D01*
X103853308Y-84148740D01*
X103864598Y-84142705D01*
X103864961Y-84142555D01*
X103877203Y-84138842D01*
X103877587Y-84138766D01*
X103890324Y-84137511D01*
X103890716Y-84137511D01*
X103903453Y-84138766D01*
G37*
G36*
X104257006Y-83785212D02*
G01*
X104257390Y-83785288D01*
X104269632Y-83789001D01*
X104269995Y-83789151D01*
X104281285Y-83795186D01*
X104281611Y-83795404D01*
X104293224Y-83804934D01*
X104293369Y-83805066D01*
X105029871Y-84541568D01*
X105030003Y-84541713D01*
X105039533Y-84553326D01*
X105039751Y-84553652D01*
X105045786Y-84564942D01*
X105045936Y-84565305D01*
X105049649Y-84577547D01*
X105049725Y-84577931D01*
X105050980Y-84590668D01*
X105050980Y-84591060D01*
X105049725Y-84603797D01*
X105049649Y-84604181D01*
X105045936Y-84616423D01*
X105045786Y-84616786D01*
X105039751Y-84628076D01*
X105039533Y-84628402D01*
X105030003Y-84640015D01*
X105029871Y-84640160D01*
X104876733Y-84793298D01*
X104876588Y-84793430D01*
X104864975Y-84802960D01*
X104864649Y-84803178D01*
X104853359Y-84809213D01*
X104852996Y-84809363D01*
X104840754Y-84813076D01*
X104840370Y-84813152D01*
X104827633Y-84814407D01*
X104827241Y-84814407D01*
X104814504Y-84813152D01*
X104814120Y-84813076D01*
X104801878Y-84809363D01*
X104801515Y-84809213D01*
X104790225Y-84803178D01*
X104789899Y-84802960D01*
X104778286Y-84793430D01*
X104778141Y-84793298D01*
X104041639Y-84056796D01*
X104041507Y-84056651D01*
X104031977Y-84045038D01*
X104031759Y-84044712D01*
X104025724Y-84033422D01*
X104025574Y-84033059D01*
X104021861Y-84020817D01*
X104021785Y-84020433D01*
X104020530Y-84007696D01*
X104020530Y-84007500D01*
X104033632Y-84007500D01*
X104035284Y-84024273D01*
X104040179Y-84040407D01*
X104048125Y-84055274D01*
X104058884Y-84068383D01*
X104766554Y-84776053D01*
X104779663Y-84786812D01*
X104794530Y-84794758D01*
X104810664Y-84799653D01*
X104827437Y-84801305D01*
X104844210Y-84799653D01*
X104860344Y-84794758D01*
X104875211Y-84786812D01*
X104888320Y-84776053D01*
X105012626Y-84651747D01*
X105023385Y-84638638D01*
X105031331Y-84623771D01*
X105036226Y-84607637D01*
X105037878Y-84590864D01*
X105036226Y-84574091D01*
X105031331Y-84557957D01*
X105023385Y-84543090D01*
X105012626Y-84529981D01*
X104304956Y-83822311D01*
X104291847Y-83811552D01*
X104276980Y-83803606D01*
X104260846Y-83798711D01*
X104244073Y-83797059D01*
X104227300Y-83798711D01*
X104211166Y-83803606D01*
X104196299Y-83811552D01*
X104183190Y-83822311D01*
X104058884Y-83946617D01*
X104048125Y-83959726D01*
X104040179Y-83974593D01*
X104035284Y-83990727D01*
X104033632Y-84007500D01*
X104020530Y-84007500D01*
X104020530Y-84007304D01*
X104021785Y-83994567D01*
X104021861Y-83994183D01*
X104025574Y-83981941D01*
X104025724Y-83981578D01*
X104031759Y-83970288D01*
X104031977Y-83969962D01*
X104041507Y-83958349D01*
X104041639Y-83958204D01*
X104194777Y-83805066D01*
X104194922Y-83804934D01*
X104206535Y-83795404D01*
X104206861Y-83795186D01*
X104218151Y-83789151D01*
X104218514Y-83789001D01*
X104230756Y-83785288D01*
X104231140Y-83785212D01*
X104243877Y-83783957D01*
X104244269Y-83783957D01*
X104257006Y-83785212D01*
G37*
G36*
X102948860Y-83785212D02*
G01*
X102949244Y-83785288D01*
X102961486Y-83789001D01*
X102961849Y-83789151D01*
X102973139Y-83795186D01*
X102973465Y-83795404D01*
X102985078Y-83804934D01*
X102985223Y-83805066D01*
X103138361Y-83958204D01*
X103138493Y-83958349D01*
X103148023Y-83969962D01*
X103148241Y-83970288D01*
X103154276Y-83981578D01*
X103154426Y-83981941D01*
X103158139Y-83994183D01*
X103158215Y-83994567D01*
X103159470Y-84007304D01*
X103159470Y-84007696D01*
X103158215Y-84020433D01*
X103158139Y-84020817D01*
X103154426Y-84033059D01*
X103154276Y-84033422D01*
X103148241Y-84044712D01*
X103148023Y-84045038D01*
X103138493Y-84056651D01*
X103138361Y-84056796D01*
X102401859Y-84793298D01*
X102401714Y-84793430D01*
X102390101Y-84802960D01*
X102389775Y-84803178D01*
X102378485Y-84809213D01*
X102378122Y-84809363D01*
X102365880Y-84813076D01*
X102365496Y-84813152D01*
X102352759Y-84814407D01*
X102352367Y-84814407D01*
X102339630Y-84813152D01*
X102339246Y-84813076D01*
X102327004Y-84809363D01*
X102326641Y-84809213D01*
X102315351Y-84803178D01*
X102315025Y-84802960D01*
X102303412Y-84793430D01*
X102303267Y-84793298D01*
X102150129Y-84640160D01*
X102149997Y-84640015D01*
X102140467Y-84628402D01*
X102140249Y-84628076D01*
X102134214Y-84616786D01*
X102134064Y-84616423D01*
X102130351Y-84604181D01*
X102130275Y-84603797D01*
X102129020Y-84591060D01*
X102129020Y-84590864D01*
X102142122Y-84590864D01*
X102143774Y-84607637D01*
X102148669Y-84623771D01*
X102156615Y-84638638D01*
X102167374Y-84651747D01*
X102291680Y-84776053D01*
X102304789Y-84786812D01*
X102319656Y-84794758D01*
X102335790Y-84799653D01*
X102352563Y-84801305D01*
X102369336Y-84799653D01*
X102385470Y-84794758D01*
X102400337Y-84786812D01*
X102413446Y-84776053D01*
X103121116Y-84068383D01*
X103131875Y-84055274D01*
X103139821Y-84040407D01*
X103144716Y-84024273D01*
X103146368Y-84007500D01*
X103144716Y-83990727D01*
X103139821Y-83974593D01*
X103131875Y-83959726D01*
X103121116Y-83946617D01*
X102996810Y-83822311D01*
X102983701Y-83811552D01*
X102968834Y-83803606D01*
X102952700Y-83798711D01*
X102935927Y-83797059D01*
X102919154Y-83798711D01*
X102903020Y-83803606D01*
X102888153Y-83811552D01*
X102875044Y-83822311D01*
X102167374Y-84529981D01*
X102156615Y-84543090D01*
X102148669Y-84557957D01*
X102143774Y-84574091D01*
X102142122Y-84590864D01*
X102129020Y-84590864D01*
X102129020Y-84590668D01*
X102130275Y-84577931D01*
X102130351Y-84577547D01*
X102134064Y-84565305D01*
X102134214Y-84564942D01*
X102140249Y-84553652D01*
X102140467Y-84553326D01*
X102149997Y-84541713D01*
X102150129Y-84541568D01*
X102886631Y-83805066D01*
X102886776Y-83804934D01*
X102898389Y-83795404D01*
X102898715Y-83795186D01*
X102910005Y-83789151D01*
X102910368Y-83789001D01*
X102922610Y-83785288D01*
X102922994Y-83785212D01*
X102935731Y-83783957D01*
X102936123Y-83783957D01*
X102948860Y-83785212D01*
G37*
G36*
X104610560Y-83431659D02*
G01*
X104610944Y-83431735D01*
X104623186Y-83435448D01*
X104623549Y-83435598D01*
X104634839Y-83441633D01*
X104635165Y-83441851D01*
X104646778Y-83451381D01*
X104646923Y-83451513D01*
X105383425Y-84188015D01*
X105383557Y-84188160D01*
X105393087Y-84199773D01*
X105393305Y-84200099D01*
X105399340Y-84211389D01*
X105399490Y-84211752D01*
X105403203Y-84223994D01*
X105403279Y-84224378D01*
X105404534Y-84237115D01*
X105404534Y-84237507D01*
X105403279Y-84250244D01*
X105403203Y-84250628D01*
X105399490Y-84262870D01*
X105399340Y-84263233D01*
X105393305Y-84274523D01*
X105393087Y-84274849D01*
X105383557Y-84286462D01*
X105383425Y-84286607D01*
X105230287Y-84439745D01*
X105230142Y-84439877D01*
X105218529Y-84449407D01*
X105218203Y-84449625D01*
X105206913Y-84455660D01*
X105206550Y-84455810D01*
X105194308Y-84459523D01*
X105193924Y-84459599D01*
X105181187Y-84460854D01*
X105180795Y-84460854D01*
X105168058Y-84459599D01*
X105167674Y-84459523D01*
X105155432Y-84455810D01*
X105155069Y-84455660D01*
X105143779Y-84449625D01*
X105143453Y-84449407D01*
X105131840Y-84439877D01*
X105131695Y-84439745D01*
X104395193Y-83703243D01*
X104395061Y-83703098D01*
X104385531Y-83691485D01*
X104385313Y-83691159D01*
X104379278Y-83679869D01*
X104379128Y-83679506D01*
X104375415Y-83667264D01*
X104375339Y-83666880D01*
X104374084Y-83654143D01*
X104374084Y-83653947D01*
X104387186Y-83653947D01*
X104388838Y-83670720D01*
X104393733Y-83686854D01*
X104401679Y-83701721D01*
X104412438Y-83714830D01*
X105120108Y-84422500D01*
X105133217Y-84433259D01*
X105148084Y-84441205D01*
X105164218Y-84446100D01*
X105180991Y-84447752D01*
X105197764Y-84446100D01*
X105213898Y-84441205D01*
X105228765Y-84433259D01*
X105241874Y-84422500D01*
X105366180Y-84298194D01*
X105376939Y-84285085D01*
X105384885Y-84270218D01*
X105389780Y-84254084D01*
X105391432Y-84237311D01*
X105389780Y-84220538D01*
X105384885Y-84204404D01*
X105376939Y-84189537D01*
X105366180Y-84176428D01*
X104658510Y-83468758D01*
X104645401Y-83457999D01*
X104630534Y-83450053D01*
X104614400Y-83445158D01*
X104597627Y-83443506D01*
X104580854Y-83445158D01*
X104564720Y-83450053D01*
X104549853Y-83457999D01*
X104536744Y-83468758D01*
X104412438Y-83593064D01*
X104401679Y-83606173D01*
X104393733Y-83621040D01*
X104388838Y-83637174D01*
X104387186Y-83653947D01*
X104374084Y-83653947D01*
X104374084Y-83653751D01*
X104375339Y-83641014D01*
X104375415Y-83640630D01*
X104379128Y-83628388D01*
X104379278Y-83628025D01*
X104385313Y-83616735D01*
X104385531Y-83616409D01*
X104395061Y-83604796D01*
X104395193Y-83604651D01*
X104548331Y-83451513D01*
X104548476Y-83451381D01*
X104560089Y-83441851D01*
X104560415Y-83441633D01*
X104571705Y-83435598D01*
X104572068Y-83435448D01*
X104584310Y-83431735D01*
X104584694Y-83431659D01*
X104597431Y-83430404D01*
X104597823Y-83430404D01*
X104610560Y-83431659D01*
G37*
G36*
X102595306Y-83431659D02*
G01*
X102595690Y-83431735D01*
X102607932Y-83435448D01*
X102608295Y-83435598D01*
X102619585Y-83441633D01*
X102619911Y-83441851D01*
X102631524Y-83451381D01*
X102631669Y-83451513D01*
X102784807Y-83604651D01*
X102784939Y-83604796D01*
X102794469Y-83616409D01*
X102794687Y-83616735D01*
X102800722Y-83628025D01*
X102800872Y-83628388D01*
X102804585Y-83640630D01*
X102804661Y-83641014D01*
X102805916Y-83653751D01*
X102805916Y-83654143D01*
X102804661Y-83666880D01*
X102804585Y-83667264D01*
X102800872Y-83679506D01*
X102800722Y-83679869D01*
X102794687Y-83691159D01*
X102794469Y-83691485D01*
X102784939Y-83703098D01*
X102784807Y-83703243D01*
X102048305Y-84439745D01*
X102048160Y-84439877D01*
X102036547Y-84449407D01*
X102036221Y-84449625D01*
X102024931Y-84455660D01*
X102024568Y-84455810D01*
X102012326Y-84459523D01*
X102011942Y-84459599D01*
X101999205Y-84460854D01*
X101998813Y-84460854D01*
X101986076Y-84459599D01*
X101985692Y-84459523D01*
X101973450Y-84455810D01*
X101973087Y-84455660D01*
X101961797Y-84449625D01*
X101961471Y-84449407D01*
X101949858Y-84439877D01*
X101949713Y-84439745D01*
X101796575Y-84286607D01*
X101796443Y-84286462D01*
X101786913Y-84274849D01*
X101786695Y-84274523D01*
X101780660Y-84263233D01*
X101780510Y-84262870D01*
X101776797Y-84250628D01*
X101776721Y-84250244D01*
X101775466Y-84237507D01*
X101775466Y-84237311D01*
X101788568Y-84237311D01*
X101790220Y-84254084D01*
X101795115Y-84270218D01*
X101803061Y-84285085D01*
X101813820Y-84298194D01*
X101938126Y-84422500D01*
X101951235Y-84433259D01*
X101966102Y-84441205D01*
X101982236Y-84446100D01*
X101999009Y-84447752D01*
X102015782Y-84446100D01*
X102031916Y-84441205D01*
X102046783Y-84433259D01*
X102059892Y-84422500D01*
X102767562Y-83714830D01*
X102778321Y-83701721D01*
X102786267Y-83686854D01*
X102791162Y-83670720D01*
X102792814Y-83653947D01*
X102791162Y-83637174D01*
X102786267Y-83621040D01*
X102778321Y-83606173D01*
X102767562Y-83593064D01*
X102643256Y-83468758D01*
X102630147Y-83457999D01*
X102615280Y-83450053D01*
X102599146Y-83445158D01*
X102582373Y-83443506D01*
X102565600Y-83445158D01*
X102549466Y-83450053D01*
X102534599Y-83457999D01*
X102521490Y-83468758D01*
X101813820Y-84176428D01*
X101803061Y-84189537D01*
X101795115Y-84204404D01*
X101790220Y-84220538D01*
X101788568Y-84237311D01*
X101775466Y-84237311D01*
X101775466Y-84237115D01*
X101776721Y-84224378D01*
X101776797Y-84223994D01*
X101780510Y-84211752D01*
X101780660Y-84211389D01*
X101786695Y-84200099D01*
X101786913Y-84199773D01*
X101796443Y-84188160D01*
X101796575Y-84188015D01*
X102533077Y-83451513D01*
X102533222Y-83451381D01*
X102544835Y-83441851D01*
X102545161Y-83441633D01*
X102556451Y-83435598D01*
X102556814Y-83435448D01*
X102569056Y-83431735D01*
X102569440Y-83431659D01*
X102582177Y-83430404D01*
X102582569Y-83430404D01*
X102595306Y-83431659D01*
G37*
G36*
X102241753Y-83078106D02*
G01*
X102242137Y-83078182D01*
X102254379Y-83081895D01*
X102254742Y-83082045D01*
X102266032Y-83088080D01*
X102266358Y-83088298D01*
X102277971Y-83097828D01*
X102278116Y-83097960D01*
X102431254Y-83251098D01*
X102431386Y-83251243D01*
X102440916Y-83262856D01*
X102441134Y-83263182D01*
X102447169Y-83274472D01*
X102447319Y-83274835D01*
X102451032Y-83287077D01*
X102451108Y-83287461D01*
X102452363Y-83300198D01*
X102452363Y-83300590D01*
X102451108Y-83313327D01*
X102451032Y-83313711D01*
X102447319Y-83325953D01*
X102447169Y-83326316D01*
X102441134Y-83337606D01*
X102440916Y-83337932D01*
X102431386Y-83349545D01*
X102431254Y-83349690D01*
X101694752Y-84086192D01*
X101694607Y-84086324D01*
X101682994Y-84095854D01*
X101682668Y-84096072D01*
X101671378Y-84102107D01*
X101671015Y-84102257D01*
X101658773Y-84105970D01*
X101658389Y-84106046D01*
X101645652Y-84107301D01*
X101645260Y-84107301D01*
X101632523Y-84106046D01*
X101632139Y-84105970D01*
X101619897Y-84102257D01*
X101619534Y-84102107D01*
X101608244Y-84096072D01*
X101607918Y-84095854D01*
X101596305Y-84086324D01*
X101596160Y-84086192D01*
X101443022Y-83933054D01*
X101442890Y-83932909D01*
X101433360Y-83921296D01*
X101433142Y-83920970D01*
X101427107Y-83909680D01*
X101426957Y-83909317D01*
X101423244Y-83897075D01*
X101423168Y-83896691D01*
X101421913Y-83883954D01*
X101421913Y-83883758D01*
X101435015Y-83883758D01*
X101436667Y-83900531D01*
X101441562Y-83916665D01*
X101449508Y-83931532D01*
X101460267Y-83944641D01*
X101584573Y-84068947D01*
X101597682Y-84079706D01*
X101612549Y-84087652D01*
X101628683Y-84092547D01*
X101645456Y-84094199D01*
X101662229Y-84092547D01*
X101678363Y-84087652D01*
X101693230Y-84079706D01*
X101706339Y-84068947D01*
X102414009Y-83361277D01*
X102424768Y-83348168D01*
X102432714Y-83333301D01*
X102437609Y-83317167D01*
X102439261Y-83300394D01*
X102437609Y-83283621D01*
X102432714Y-83267487D01*
X102424768Y-83252620D01*
X102414009Y-83239511D01*
X102289703Y-83115205D01*
X102276594Y-83104446D01*
X102261727Y-83096500D01*
X102245593Y-83091605D01*
X102228820Y-83089953D01*
X102212047Y-83091605D01*
X102195913Y-83096500D01*
X102181046Y-83104446D01*
X102167937Y-83115205D01*
X101460267Y-83822875D01*
X101449508Y-83835984D01*
X101441562Y-83850851D01*
X101436667Y-83866985D01*
X101435015Y-83883758D01*
X101421913Y-83883758D01*
X101421913Y-83883562D01*
X101423168Y-83870825D01*
X101423244Y-83870441D01*
X101426957Y-83858199D01*
X101427107Y-83857836D01*
X101433142Y-83846546D01*
X101433360Y-83846220D01*
X101442890Y-83834607D01*
X101443022Y-83834462D01*
X102179524Y-83097960D01*
X102179669Y-83097828D01*
X102191282Y-83088298D01*
X102191608Y-83088080D01*
X102202898Y-83082045D01*
X102203261Y-83081895D01*
X102215503Y-83078182D01*
X102215887Y-83078106D01*
X102228624Y-83076851D01*
X102229016Y-83076851D01*
X102241753Y-83078106D01*
G37*
G36*
X104964113Y-83078106D02*
G01*
X104964497Y-83078182D01*
X104976739Y-83081895D01*
X104977102Y-83082045D01*
X104988392Y-83088080D01*
X104988718Y-83088298D01*
X105000331Y-83097828D01*
X105000476Y-83097960D01*
X105736978Y-83834462D01*
X105737110Y-83834607D01*
X105746640Y-83846220D01*
X105746858Y-83846546D01*
X105752893Y-83857836D01*
X105753043Y-83858199D01*
X105756756Y-83870441D01*
X105756832Y-83870825D01*
X105758087Y-83883562D01*
X105758087Y-83883954D01*
X105756832Y-83896691D01*
X105756756Y-83897075D01*
X105753043Y-83909317D01*
X105752893Y-83909680D01*
X105746858Y-83920970D01*
X105746640Y-83921296D01*
X105737110Y-83932909D01*
X105736978Y-83933054D01*
X105583840Y-84086192D01*
X105583695Y-84086324D01*
X105572082Y-84095854D01*
X105571756Y-84096072D01*
X105560466Y-84102107D01*
X105560103Y-84102257D01*
X105547861Y-84105970D01*
X105547477Y-84106046D01*
X105534740Y-84107301D01*
X105534348Y-84107301D01*
X105521611Y-84106046D01*
X105521227Y-84105970D01*
X105508985Y-84102257D01*
X105508622Y-84102107D01*
X105497332Y-84096072D01*
X105497006Y-84095854D01*
X105485393Y-84086324D01*
X105485248Y-84086192D01*
X104748746Y-83349690D01*
X104748614Y-83349545D01*
X104739084Y-83337932D01*
X104738866Y-83337606D01*
X104732831Y-83326316D01*
X104732681Y-83325953D01*
X104728968Y-83313711D01*
X104728892Y-83313327D01*
X104727637Y-83300590D01*
X104727637Y-83300394D01*
X104740739Y-83300394D01*
X104742391Y-83317167D01*
X104747286Y-83333301D01*
X104755232Y-83348168D01*
X104765991Y-83361277D01*
X105473661Y-84068947D01*
X105486770Y-84079706D01*
X105501637Y-84087652D01*
X105517771Y-84092547D01*
X105534544Y-84094199D01*
X105551317Y-84092547D01*
X105567451Y-84087652D01*
X105582318Y-84079706D01*
X105595427Y-84068947D01*
X105719733Y-83944641D01*
X105730492Y-83931532D01*
X105738438Y-83916665D01*
X105743333Y-83900531D01*
X105744985Y-83883758D01*
X105743333Y-83866985D01*
X105738438Y-83850851D01*
X105730492Y-83835984D01*
X105719733Y-83822875D01*
X105012063Y-83115205D01*
X104998954Y-83104446D01*
X104984087Y-83096500D01*
X104967953Y-83091605D01*
X104951180Y-83089953D01*
X104934407Y-83091605D01*
X104918273Y-83096500D01*
X104903406Y-83104446D01*
X104890297Y-83115205D01*
X104765991Y-83239511D01*
X104755232Y-83252620D01*
X104747286Y-83267487D01*
X104742391Y-83283621D01*
X104740739Y-83300394D01*
X104727637Y-83300394D01*
X104727637Y-83300198D01*
X104728892Y-83287461D01*
X104728968Y-83287077D01*
X104732681Y-83274835D01*
X104732831Y-83274472D01*
X104738866Y-83263182D01*
X104739084Y-83262856D01*
X104748614Y-83251243D01*
X104748746Y-83251098D01*
X104901884Y-83097960D01*
X104902029Y-83097828D01*
X104913642Y-83088298D01*
X104913968Y-83088080D01*
X104925258Y-83082045D01*
X104925621Y-83081895D01*
X104937863Y-83078182D01*
X104938247Y-83078106D01*
X104950984Y-83076851D01*
X104951376Y-83076851D01*
X104964113Y-83078106D01*
G37*
G36*
X105317666Y-82724552D02*
G01*
X105318050Y-82724628D01*
X105330292Y-82728341D01*
X105330655Y-82728491D01*
X105341945Y-82734526D01*
X105342271Y-82734744D01*
X105353884Y-82744274D01*
X105354029Y-82744406D01*
X106090531Y-83480908D01*
X106090663Y-83481053D01*
X106100193Y-83492666D01*
X106100411Y-83492992D01*
X106106446Y-83504282D01*
X106106596Y-83504645D01*
X106110309Y-83516887D01*
X106110385Y-83517271D01*
X106111640Y-83530008D01*
X106111640Y-83530400D01*
X106110385Y-83543137D01*
X106110309Y-83543521D01*
X106106596Y-83555763D01*
X106106446Y-83556126D01*
X106100411Y-83567416D01*
X106100193Y-83567742D01*
X106090663Y-83579355D01*
X106090531Y-83579500D01*
X105937393Y-83732638D01*
X105937248Y-83732770D01*
X105925635Y-83742300D01*
X105925309Y-83742518D01*
X105914019Y-83748553D01*
X105913656Y-83748703D01*
X105901414Y-83752416D01*
X105901030Y-83752492D01*
X105888293Y-83753747D01*
X105887901Y-83753747D01*
X105875164Y-83752492D01*
X105874780Y-83752416D01*
X105862538Y-83748703D01*
X105862175Y-83748553D01*
X105850885Y-83742518D01*
X105850559Y-83742300D01*
X105838946Y-83732770D01*
X105838801Y-83732638D01*
X105102299Y-82996136D01*
X105102167Y-82995991D01*
X105092637Y-82984378D01*
X105092419Y-82984052D01*
X105086384Y-82972762D01*
X105086234Y-82972399D01*
X105082521Y-82960157D01*
X105082445Y-82959773D01*
X105081190Y-82947036D01*
X105081190Y-82946840D01*
X105094292Y-82946840D01*
X105095944Y-82963613D01*
X105100839Y-82979747D01*
X105108785Y-82994614D01*
X105119544Y-83007723D01*
X105827214Y-83715393D01*
X105840323Y-83726152D01*
X105855190Y-83734098D01*
X105871324Y-83738993D01*
X105888097Y-83740645D01*
X105904870Y-83738993D01*
X105921004Y-83734098D01*
X105935871Y-83726152D01*
X105948980Y-83715393D01*
X106073286Y-83591087D01*
X106084045Y-83577978D01*
X106091991Y-83563111D01*
X106096886Y-83546977D01*
X106098538Y-83530204D01*
X106096886Y-83513431D01*
X106091991Y-83497297D01*
X106084045Y-83482430D01*
X106073286Y-83469321D01*
X105365616Y-82761651D01*
X105352507Y-82750892D01*
X105337640Y-82742946D01*
X105321506Y-82738051D01*
X105304733Y-82736399D01*
X105287960Y-82738051D01*
X105271826Y-82742946D01*
X105256959Y-82750892D01*
X105243850Y-82761651D01*
X105119544Y-82885957D01*
X105108785Y-82899066D01*
X105100839Y-82913933D01*
X105095944Y-82930067D01*
X105094292Y-82946840D01*
X105081190Y-82946840D01*
X105081190Y-82946644D01*
X105082445Y-82933907D01*
X105082521Y-82933523D01*
X105086234Y-82921281D01*
X105086384Y-82920918D01*
X105092419Y-82909628D01*
X105092637Y-82909302D01*
X105102167Y-82897689D01*
X105102299Y-82897544D01*
X105255437Y-82744406D01*
X105255582Y-82744274D01*
X105267195Y-82734744D01*
X105267521Y-82734526D01*
X105278811Y-82728491D01*
X105279174Y-82728341D01*
X105291416Y-82724628D01*
X105291800Y-82724552D01*
X105304537Y-82723297D01*
X105304929Y-82723297D01*
X105317666Y-82724552D01*
G37*
G36*
X101888200Y-82724552D02*
G01*
X101888584Y-82724628D01*
X101900826Y-82728341D01*
X101901189Y-82728491D01*
X101912479Y-82734526D01*
X101912805Y-82734744D01*
X101924418Y-82744274D01*
X101924563Y-82744406D01*
X102077701Y-82897544D01*
X102077833Y-82897689D01*
X102087363Y-82909302D01*
X102087581Y-82909628D01*
X102093616Y-82920918D01*
X102093766Y-82921281D01*
X102097479Y-82933523D01*
X102097555Y-82933907D01*
X102098810Y-82946644D01*
X102098810Y-82947036D01*
X102097555Y-82959773D01*
X102097479Y-82960157D01*
X102093766Y-82972399D01*
X102093616Y-82972762D01*
X102087581Y-82984052D01*
X102087363Y-82984378D01*
X102077833Y-82995991D01*
X102077701Y-82996136D01*
X101341199Y-83732638D01*
X101341054Y-83732770D01*
X101329441Y-83742300D01*
X101329115Y-83742518D01*
X101317825Y-83748553D01*
X101317462Y-83748703D01*
X101305220Y-83752416D01*
X101304836Y-83752492D01*
X101292099Y-83753747D01*
X101291707Y-83753747D01*
X101278970Y-83752492D01*
X101278586Y-83752416D01*
X101266344Y-83748703D01*
X101265981Y-83748553D01*
X101254691Y-83742518D01*
X101254365Y-83742300D01*
X101242752Y-83732770D01*
X101242607Y-83732638D01*
X101089469Y-83579500D01*
X101089337Y-83579355D01*
X101079807Y-83567742D01*
X101079589Y-83567416D01*
X101073554Y-83556126D01*
X101073404Y-83555763D01*
X101069691Y-83543521D01*
X101069615Y-83543137D01*
X101068360Y-83530400D01*
X101068360Y-83530204D01*
X101081462Y-83530204D01*
X101083114Y-83546977D01*
X101088009Y-83563111D01*
X101095955Y-83577978D01*
X101106714Y-83591087D01*
X101231020Y-83715393D01*
X101244129Y-83726152D01*
X101258996Y-83734098D01*
X101275130Y-83738993D01*
X101291903Y-83740645D01*
X101308676Y-83738993D01*
X101324810Y-83734098D01*
X101339677Y-83726152D01*
X101352786Y-83715393D01*
X102060456Y-83007723D01*
X102071215Y-82994614D01*
X102079161Y-82979747D01*
X102084056Y-82963613D01*
X102085708Y-82946840D01*
X102084056Y-82930067D01*
X102079161Y-82913933D01*
X102071215Y-82899066D01*
X102060456Y-82885957D01*
X101936150Y-82761651D01*
X101923041Y-82750892D01*
X101908174Y-82742946D01*
X101892040Y-82738051D01*
X101875267Y-82736399D01*
X101858494Y-82738051D01*
X101842360Y-82742946D01*
X101827493Y-82750892D01*
X101814384Y-82761651D01*
X101106714Y-83469321D01*
X101095955Y-83482430D01*
X101088009Y-83497297D01*
X101083114Y-83513431D01*
X101081462Y-83530204D01*
X101068360Y-83530204D01*
X101068360Y-83530008D01*
X101069615Y-83517271D01*
X101069691Y-83516887D01*
X101073404Y-83504645D01*
X101073554Y-83504282D01*
X101079589Y-83492992D01*
X101079807Y-83492666D01*
X101089337Y-83481053D01*
X101089469Y-83480908D01*
X101825971Y-82744406D01*
X101826116Y-82744274D01*
X101837729Y-82734744D01*
X101838055Y-82734526D01*
X101849345Y-82728491D01*
X101849708Y-82728341D01*
X101861950Y-82724628D01*
X101862334Y-82724552D01*
X101875071Y-82723297D01*
X101875463Y-82723297D01*
X101888200Y-82724552D01*
G37*
G36*
X101534646Y-82370999D02*
G01*
X101535030Y-82371075D01*
X101547272Y-82374788D01*
X101547635Y-82374938D01*
X101558925Y-82380973D01*
X101559251Y-82381191D01*
X101570864Y-82390721D01*
X101571009Y-82390853D01*
X101724147Y-82543991D01*
X101724279Y-82544136D01*
X101733809Y-82555749D01*
X101734027Y-82556075D01*
X101740062Y-82567365D01*
X101740212Y-82567728D01*
X101743925Y-82579970D01*
X101744001Y-82580354D01*
X101745256Y-82593091D01*
X101745256Y-82593483D01*
X101744001Y-82606220D01*
X101743925Y-82606604D01*
X101740212Y-82618846D01*
X101740062Y-82619209D01*
X101734027Y-82630499D01*
X101733809Y-82630825D01*
X101724279Y-82642438D01*
X101724147Y-82642583D01*
X100987645Y-83379085D01*
X100987500Y-83379217D01*
X100975887Y-83388747D01*
X100975561Y-83388965D01*
X100964271Y-83395000D01*
X100963908Y-83395150D01*
X100951666Y-83398863D01*
X100951282Y-83398939D01*
X100938545Y-83400194D01*
X100938153Y-83400194D01*
X100925416Y-83398939D01*
X100925032Y-83398863D01*
X100912790Y-83395150D01*
X100912427Y-83395000D01*
X100901137Y-83388965D01*
X100900811Y-83388747D01*
X100889198Y-83379217D01*
X100889053Y-83379085D01*
X100735915Y-83225947D01*
X100735783Y-83225802D01*
X100726253Y-83214189D01*
X100726035Y-83213863D01*
X100720000Y-83202573D01*
X100719850Y-83202210D01*
X100716137Y-83189968D01*
X100716061Y-83189584D01*
X100714806Y-83176847D01*
X100714806Y-83176651D01*
X100727908Y-83176651D01*
X100729560Y-83193424D01*
X100734455Y-83209558D01*
X100742401Y-83224425D01*
X100753160Y-83237534D01*
X100877466Y-83361840D01*
X100890575Y-83372599D01*
X100905442Y-83380545D01*
X100921576Y-83385440D01*
X100938349Y-83387092D01*
X100955122Y-83385440D01*
X100971256Y-83380545D01*
X100986123Y-83372599D01*
X100999232Y-83361840D01*
X101706902Y-82654170D01*
X101717661Y-82641061D01*
X101725607Y-82626194D01*
X101730502Y-82610060D01*
X101732154Y-82593287D01*
X101730502Y-82576514D01*
X101725607Y-82560380D01*
X101717661Y-82545513D01*
X101706902Y-82532404D01*
X101582596Y-82408098D01*
X101569487Y-82397339D01*
X101554620Y-82389393D01*
X101538486Y-82384498D01*
X101521713Y-82382846D01*
X101504940Y-82384498D01*
X101488806Y-82389393D01*
X101473939Y-82397339D01*
X101460830Y-82408098D01*
X100753160Y-83115768D01*
X100742401Y-83128877D01*
X100734455Y-83143744D01*
X100729560Y-83159878D01*
X100727908Y-83176651D01*
X100714806Y-83176651D01*
X100714806Y-83176455D01*
X100716061Y-83163718D01*
X100716137Y-83163334D01*
X100719850Y-83151092D01*
X100720000Y-83150729D01*
X100726035Y-83139439D01*
X100726253Y-83139113D01*
X100735783Y-83127500D01*
X100735915Y-83127355D01*
X101472417Y-82390853D01*
X101472562Y-82390721D01*
X101484175Y-82381191D01*
X101484501Y-82380973D01*
X101495791Y-82374938D01*
X101496154Y-82374788D01*
X101508396Y-82371075D01*
X101508780Y-82370999D01*
X101521517Y-82369744D01*
X101521909Y-82369744D01*
X101534646Y-82370999D01*
G37*
G36*
X105671220Y-82370999D02*
G01*
X105671604Y-82371075D01*
X105683846Y-82374788D01*
X105684209Y-82374938D01*
X105695499Y-82380973D01*
X105695825Y-82381191D01*
X105707438Y-82390721D01*
X105707583Y-82390853D01*
X106444085Y-83127355D01*
X106444217Y-83127500D01*
X106453747Y-83139113D01*
X106453965Y-83139439D01*
X106460000Y-83150729D01*
X106460150Y-83151092D01*
X106463863Y-83163334D01*
X106463939Y-83163718D01*
X106465194Y-83176455D01*
X106465194Y-83176847D01*
X106463939Y-83189584D01*
X106463863Y-83189968D01*
X106460150Y-83202210D01*
X106460000Y-83202573D01*
X106453965Y-83213863D01*
X106453747Y-83214189D01*
X106444217Y-83225802D01*
X106444085Y-83225947D01*
X106290947Y-83379085D01*
X106290802Y-83379217D01*
X106279189Y-83388747D01*
X106278863Y-83388965D01*
X106267573Y-83395000D01*
X106267210Y-83395150D01*
X106254968Y-83398863D01*
X106254584Y-83398939D01*
X106241847Y-83400194D01*
X106241455Y-83400194D01*
X106228718Y-83398939D01*
X106228334Y-83398863D01*
X106216092Y-83395150D01*
X106215729Y-83395000D01*
X106204439Y-83388965D01*
X106204113Y-83388747D01*
X106192500Y-83379217D01*
X106192355Y-83379085D01*
X105455853Y-82642583D01*
X105455721Y-82642438D01*
X105446191Y-82630825D01*
X105445973Y-82630499D01*
X105439938Y-82619209D01*
X105439788Y-82618846D01*
X105436075Y-82606604D01*
X105435999Y-82606220D01*
X105434744Y-82593483D01*
X105434744Y-82593287D01*
X105447846Y-82593287D01*
X105449498Y-82610060D01*
X105454393Y-82626194D01*
X105462339Y-82641061D01*
X105473098Y-82654170D01*
X106180768Y-83361840D01*
X106193877Y-83372599D01*
X106208744Y-83380545D01*
X106224878Y-83385440D01*
X106241651Y-83387092D01*
X106258424Y-83385440D01*
X106274558Y-83380545D01*
X106289425Y-83372599D01*
X106302534Y-83361840D01*
X106426840Y-83237534D01*
X106437599Y-83224425D01*
X106445545Y-83209558D01*
X106450440Y-83193424D01*
X106452092Y-83176651D01*
X106450440Y-83159878D01*
X106445545Y-83143744D01*
X106437599Y-83128877D01*
X106426840Y-83115768D01*
X105719170Y-82408098D01*
X105706061Y-82397339D01*
X105691194Y-82389393D01*
X105675060Y-82384498D01*
X105658287Y-82382846D01*
X105641514Y-82384498D01*
X105625380Y-82389393D01*
X105610513Y-82397339D01*
X105597404Y-82408098D01*
X105473098Y-82532404D01*
X105462339Y-82545513D01*
X105454393Y-82560380D01*
X105449498Y-82576514D01*
X105447846Y-82593287D01*
X105434744Y-82593287D01*
X105434744Y-82593091D01*
X105435999Y-82580354D01*
X105436075Y-82579970D01*
X105439788Y-82567728D01*
X105439938Y-82567365D01*
X105445973Y-82556075D01*
X105446191Y-82555749D01*
X105455721Y-82544136D01*
X105455853Y-82543991D01*
X105608991Y-82390853D01*
X105609136Y-82390721D01*
X105620749Y-82381191D01*
X105621075Y-82380973D01*
X105632365Y-82374938D01*
X105632728Y-82374788D01*
X105644970Y-82371075D01*
X105645354Y-82370999D01*
X105658091Y-82369744D01*
X105658483Y-82369744D01*
X105671220Y-82370999D01*
G37*
G36*
X106024773Y-82017445D02*
G01*
X106025157Y-82017521D01*
X106037399Y-82021234D01*
X106037762Y-82021384D01*
X106049052Y-82027419D01*
X106049378Y-82027637D01*
X106060991Y-82037167D01*
X106061136Y-82037299D01*
X106797638Y-82773801D01*
X106797770Y-82773946D01*
X106807300Y-82785559D01*
X106807518Y-82785885D01*
X106813553Y-82797175D01*
X106813703Y-82797538D01*
X106817416Y-82809780D01*
X106817492Y-82810164D01*
X106818747Y-82822901D01*
X106818747Y-82823293D01*
X106817492Y-82836030D01*
X106817416Y-82836414D01*
X106813703Y-82848656D01*
X106813553Y-82849019D01*
X106807518Y-82860309D01*
X106807300Y-82860635D01*
X106797770Y-82872248D01*
X106797638Y-82872393D01*
X106644500Y-83025531D01*
X106644355Y-83025663D01*
X106632742Y-83035193D01*
X106632416Y-83035411D01*
X106621126Y-83041446D01*
X106620763Y-83041596D01*
X106608521Y-83045309D01*
X106608137Y-83045385D01*
X106595400Y-83046640D01*
X106595008Y-83046640D01*
X106582271Y-83045385D01*
X106581887Y-83045309D01*
X106569645Y-83041596D01*
X106569282Y-83041446D01*
X106557992Y-83035411D01*
X106557666Y-83035193D01*
X106546053Y-83025663D01*
X106545908Y-83025531D01*
X105809406Y-82289029D01*
X105809274Y-82288884D01*
X105799744Y-82277271D01*
X105799526Y-82276945D01*
X105793491Y-82265655D01*
X105793341Y-82265292D01*
X105789628Y-82253050D01*
X105789552Y-82252666D01*
X105788297Y-82239929D01*
X105788297Y-82239733D01*
X105801399Y-82239733D01*
X105803051Y-82256506D01*
X105807946Y-82272640D01*
X105815892Y-82287507D01*
X105826651Y-82300616D01*
X106534321Y-83008286D01*
X106547430Y-83019045D01*
X106562297Y-83026991D01*
X106578431Y-83031886D01*
X106595204Y-83033538D01*
X106611977Y-83031886D01*
X106628111Y-83026991D01*
X106642978Y-83019045D01*
X106656087Y-83008286D01*
X106780393Y-82883980D01*
X106791152Y-82870871D01*
X106799098Y-82856004D01*
X106803993Y-82839870D01*
X106805645Y-82823097D01*
X106803993Y-82806324D01*
X106799098Y-82790190D01*
X106791152Y-82775323D01*
X106780393Y-82762214D01*
X106072723Y-82054544D01*
X106059614Y-82043785D01*
X106044747Y-82035839D01*
X106028613Y-82030944D01*
X106011840Y-82029292D01*
X105995067Y-82030944D01*
X105978933Y-82035839D01*
X105964066Y-82043785D01*
X105950957Y-82054544D01*
X105826651Y-82178850D01*
X105815892Y-82191959D01*
X105807946Y-82206826D01*
X105803051Y-82222960D01*
X105801399Y-82239733D01*
X105788297Y-82239733D01*
X105788297Y-82239537D01*
X105789552Y-82226800D01*
X105789628Y-82226416D01*
X105793341Y-82214174D01*
X105793491Y-82213811D01*
X105799526Y-82202521D01*
X105799744Y-82202195D01*
X105809274Y-82190582D01*
X105809406Y-82190437D01*
X105962544Y-82037299D01*
X105962689Y-82037167D01*
X105974302Y-82027637D01*
X105974628Y-82027419D01*
X105985918Y-82021384D01*
X105986281Y-82021234D01*
X105998523Y-82017521D01*
X105998907Y-82017445D01*
X106011644Y-82016190D01*
X106012036Y-82016190D01*
X106024773Y-82017445D01*
G37*
G36*
X101181093Y-82017445D02*
G01*
X101181477Y-82017521D01*
X101193719Y-82021234D01*
X101194082Y-82021384D01*
X101205372Y-82027419D01*
X101205698Y-82027637D01*
X101217311Y-82037167D01*
X101217456Y-82037299D01*
X101370594Y-82190437D01*
X101370726Y-82190582D01*
X101380256Y-82202195D01*
X101380474Y-82202521D01*
X101386509Y-82213811D01*
X101386659Y-82214174D01*
X101390372Y-82226416D01*
X101390448Y-82226800D01*
X101391703Y-82239537D01*
X101391703Y-82239929D01*
X101390448Y-82252666D01*
X101390372Y-82253050D01*
X101386659Y-82265292D01*
X101386509Y-82265655D01*
X101380474Y-82276945D01*
X101380256Y-82277271D01*
X101370726Y-82288884D01*
X101370594Y-82289029D01*
X100634092Y-83025531D01*
X100633947Y-83025663D01*
X100622334Y-83035193D01*
X100622008Y-83035411D01*
X100610718Y-83041446D01*
X100610355Y-83041596D01*
X100598113Y-83045309D01*
X100597729Y-83045385D01*
X100584992Y-83046640D01*
X100584600Y-83046640D01*
X100571863Y-83045385D01*
X100571479Y-83045309D01*
X100559237Y-83041596D01*
X100558874Y-83041446D01*
X100547584Y-83035411D01*
X100547258Y-83035193D01*
X100535645Y-83025663D01*
X100535500Y-83025531D01*
X100382362Y-82872393D01*
X100382230Y-82872248D01*
X100372700Y-82860635D01*
X100372482Y-82860309D01*
X100366447Y-82849019D01*
X100366297Y-82848656D01*
X100362584Y-82836414D01*
X100362508Y-82836030D01*
X100361253Y-82823293D01*
X100361253Y-82823097D01*
X100374355Y-82823097D01*
X100376007Y-82839870D01*
X100380902Y-82856004D01*
X100388848Y-82870871D01*
X100399607Y-82883980D01*
X100523913Y-83008286D01*
X100537022Y-83019045D01*
X100551889Y-83026991D01*
X100568023Y-83031886D01*
X100584796Y-83033538D01*
X100601569Y-83031886D01*
X100617703Y-83026991D01*
X100632570Y-83019045D01*
X100645679Y-83008286D01*
X101353349Y-82300616D01*
X101364108Y-82287507D01*
X101372054Y-82272640D01*
X101376949Y-82256506D01*
X101378601Y-82239733D01*
X101376949Y-82222960D01*
X101372054Y-82206826D01*
X101364108Y-82191959D01*
X101353349Y-82178850D01*
X101229043Y-82054544D01*
X101215934Y-82043785D01*
X101201067Y-82035839D01*
X101184933Y-82030944D01*
X101168160Y-82029292D01*
X101151387Y-82030944D01*
X101135253Y-82035839D01*
X101120386Y-82043785D01*
X101107277Y-82054544D01*
X100399607Y-82762214D01*
X100388848Y-82775323D01*
X100380902Y-82790190D01*
X100376007Y-82806324D01*
X100374355Y-82823097D01*
X100361253Y-82823097D01*
X100361253Y-82822901D01*
X100362508Y-82810164D01*
X100362584Y-82809780D01*
X100366297Y-82797538D01*
X100366447Y-82797175D01*
X100372482Y-82785885D01*
X100372700Y-82785559D01*
X100382230Y-82773946D01*
X100382362Y-82773801D01*
X101118864Y-82037299D01*
X101119009Y-82037167D01*
X101130622Y-82027637D01*
X101130948Y-82027419D01*
X101142238Y-82021384D01*
X101142601Y-82021234D01*
X101154843Y-82017521D01*
X101155227Y-82017445D01*
X101167964Y-82016190D01*
X101168356Y-82016190D01*
X101181093Y-82017445D01*
G37*
G36*
X100827539Y-81663892D02*
G01*
X100827923Y-81663968D01*
X100840165Y-81667681D01*
X100840528Y-81667831D01*
X100851818Y-81673866D01*
X100852144Y-81674084D01*
X100863757Y-81683614D01*
X100863902Y-81683746D01*
X101017040Y-81836884D01*
X101017172Y-81837029D01*
X101026702Y-81848642D01*
X101026920Y-81848968D01*
X101032955Y-81860258D01*
X101033105Y-81860621D01*
X101036818Y-81872863D01*
X101036894Y-81873247D01*
X101038149Y-81885984D01*
X101038149Y-81886376D01*
X101036894Y-81899113D01*
X101036818Y-81899497D01*
X101033105Y-81911739D01*
X101032955Y-81912102D01*
X101026920Y-81923392D01*
X101026702Y-81923718D01*
X101017172Y-81935331D01*
X101017040Y-81935476D01*
X100280538Y-82671978D01*
X100280393Y-82672110D01*
X100268780Y-82681640D01*
X100268454Y-82681858D01*
X100257164Y-82687893D01*
X100256801Y-82688043D01*
X100244559Y-82691756D01*
X100244175Y-82691832D01*
X100231438Y-82693087D01*
X100231046Y-82693087D01*
X100218309Y-82691832D01*
X100217925Y-82691756D01*
X100205683Y-82688043D01*
X100205320Y-82687893D01*
X100194030Y-82681858D01*
X100193704Y-82681640D01*
X100182091Y-82672110D01*
X100181946Y-82671978D01*
X100028808Y-82518840D01*
X100028676Y-82518695D01*
X100019146Y-82507082D01*
X100018928Y-82506756D01*
X100012893Y-82495466D01*
X100012743Y-82495103D01*
X100009030Y-82482861D01*
X100008954Y-82482477D01*
X100007699Y-82469740D01*
X100007699Y-82469544D01*
X100020801Y-82469544D01*
X100022453Y-82486317D01*
X100027348Y-82502451D01*
X100035294Y-82517318D01*
X100046053Y-82530427D01*
X100170359Y-82654733D01*
X100183468Y-82665492D01*
X100198335Y-82673438D01*
X100214469Y-82678333D01*
X100231242Y-82679985D01*
X100248015Y-82678333D01*
X100264149Y-82673438D01*
X100279016Y-82665492D01*
X100292125Y-82654733D01*
X100999795Y-81947063D01*
X101010554Y-81933954D01*
X101018500Y-81919087D01*
X101023395Y-81902953D01*
X101025047Y-81886180D01*
X101023395Y-81869407D01*
X101018500Y-81853273D01*
X101010554Y-81838406D01*
X100999795Y-81825297D01*
X100875489Y-81700991D01*
X100862380Y-81690232D01*
X100847513Y-81682286D01*
X100831379Y-81677391D01*
X100814606Y-81675739D01*
X100797833Y-81677391D01*
X100781699Y-81682286D01*
X100766832Y-81690232D01*
X100753723Y-81700991D01*
X100046053Y-82408661D01*
X100035294Y-82421770D01*
X100027348Y-82436637D01*
X100022453Y-82452771D01*
X100020801Y-82469544D01*
X100007699Y-82469544D01*
X100007699Y-82469348D01*
X100008954Y-82456611D01*
X100009030Y-82456227D01*
X100012743Y-82443985D01*
X100012893Y-82443622D01*
X100018928Y-82432332D01*
X100019146Y-82432006D01*
X100028676Y-82420393D01*
X100028808Y-82420248D01*
X100765310Y-81683746D01*
X100765455Y-81683614D01*
X100777068Y-81674084D01*
X100777394Y-81673866D01*
X100788684Y-81667831D01*
X100789047Y-81667681D01*
X100801289Y-81663968D01*
X100801673Y-81663892D01*
X100814410Y-81662637D01*
X100814802Y-81662637D01*
X100827539Y-81663892D01*
G37*
G36*
X106378327Y-81663892D02*
G01*
X106378711Y-81663968D01*
X106390953Y-81667681D01*
X106391316Y-81667831D01*
X106402606Y-81673866D01*
X106402932Y-81674084D01*
X106414545Y-81683614D01*
X106414690Y-81683746D01*
X107151192Y-82420248D01*
X107151324Y-82420393D01*
X107160854Y-82432006D01*
X107161072Y-82432332D01*
X107167107Y-82443622D01*
X107167257Y-82443985D01*
X107170970Y-82456227D01*
X107171046Y-82456611D01*
X107172301Y-82469348D01*
X107172301Y-82469740D01*
X107171046Y-82482477D01*
X107170970Y-82482861D01*
X107167257Y-82495103D01*
X107167107Y-82495466D01*
X107161072Y-82506756D01*
X107160854Y-82507082D01*
X107151324Y-82518695D01*
X107151192Y-82518840D01*
X106998054Y-82671978D01*
X106997909Y-82672110D01*
X106986296Y-82681640D01*
X106985970Y-82681858D01*
X106974680Y-82687893D01*
X106974317Y-82688043D01*
X106962075Y-82691756D01*
X106961691Y-82691832D01*
X106948954Y-82693087D01*
X106948562Y-82693087D01*
X106935825Y-82691832D01*
X106935441Y-82691756D01*
X106923199Y-82688043D01*
X106922836Y-82687893D01*
X106911546Y-82681858D01*
X106911220Y-82681640D01*
X106899607Y-82672110D01*
X106899462Y-82671978D01*
X106162960Y-81935476D01*
X106162828Y-81935331D01*
X106153298Y-81923718D01*
X106153080Y-81923392D01*
X106147045Y-81912102D01*
X106146895Y-81911739D01*
X106143182Y-81899497D01*
X106143106Y-81899113D01*
X106141851Y-81886376D01*
X106141851Y-81886180D01*
X106154953Y-81886180D01*
X106156605Y-81902953D01*
X106161500Y-81919087D01*
X106169446Y-81933954D01*
X106180205Y-81947063D01*
X106887875Y-82654733D01*
X106900984Y-82665492D01*
X106915851Y-82673438D01*
X106931985Y-82678333D01*
X106948758Y-82679985D01*
X106965531Y-82678333D01*
X106981665Y-82673438D01*
X106996532Y-82665492D01*
X107009641Y-82654733D01*
X107133947Y-82530427D01*
X107144706Y-82517318D01*
X107152652Y-82502451D01*
X107157547Y-82486317D01*
X107159199Y-82469544D01*
X107157547Y-82452771D01*
X107152652Y-82436637D01*
X107144706Y-82421770D01*
X107133947Y-82408661D01*
X106426277Y-81700991D01*
X106413168Y-81690232D01*
X106398301Y-81682286D01*
X106382167Y-81677391D01*
X106365394Y-81675739D01*
X106348621Y-81677391D01*
X106332487Y-81682286D01*
X106317620Y-81690232D01*
X106304511Y-81700991D01*
X106180205Y-81825297D01*
X106169446Y-81838406D01*
X106161500Y-81853273D01*
X106156605Y-81869407D01*
X106154953Y-81886180D01*
X106141851Y-81886180D01*
X106141851Y-81885984D01*
X106143106Y-81873247D01*
X106143182Y-81872863D01*
X106146895Y-81860621D01*
X106147045Y-81860258D01*
X106153080Y-81848968D01*
X106153298Y-81848642D01*
X106162828Y-81837029D01*
X106162960Y-81836884D01*
X106316098Y-81683746D01*
X106316243Y-81683614D01*
X106327856Y-81674084D01*
X106328182Y-81673866D01*
X106339472Y-81667831D01*
X106339835Y-81667681D01*
X106352077Y-81663968D01*
X106352461Y-81663892D01*
X106365198Y-81662637D01*
X106365590Y-81662637D01*
X106378327Y-81663892D01*
G37*
G36*
X106731880Y-81310339D02*
G01*
X106732264Y-81310415D01*
X106744506Y-81314128D01*
X106744869Y-81314278D01*
X106756159Y-81320313D01*
X106756485Y-81320531D01*
X106768098Y-81330061D01*
X106768243Y-81330193D01*
X107504745Y-82066695D01*
X107504877Y-82066840D01*
X107514407Y-82078453D01*
X107514625Y-82078779D01*
X107520660Y-82090069D01*
X107520810Y-82090432D01*
X107524523Y-82102674D01*
X107524599Y-82103058D01*
X107525854Y-82115795D01*
X107525854Y-82116187D01*
X107524599Y-82128924D01*
X107524523Y-82129308D01*
X107520810Y-82141550D01*
X107520660Y-82141913D01*
X107514625Y-82153203D01*
X107514407Y-82153529D01*
X107504877Y-82165142D01*
X107504745Y-82165287D01*
X107351607Y-82318425D01*
X107351462Y-82318557D01*
X107339849Y-82328087D01*
X107339523Y-82328305D01*
X107328233Y-82334340D01*
X107327870Y-82334490D01*
X107315628Y-82338203D01*
X107315244Y-82338279D01*
X107302507Y-82339534D01*
X107302115Y-82339534D01*
X107289378Y-82338279D01*
X107288994Y-82338203D01*
X107276752Y-82334490D01*
X107276389Y-82334340D01*
X107265099Y-82328305D01*
X107264773Y-82328087D01*
X107253160Y-82318557D01*
X107253015Y-82318425D01*
X106516513Y-81581923D01*
X106516381Y-81581778D01*
X106506851Y-81570165D01*
X106506633Y-81569839D01*
X106500598Y-81558549D01*
X106500448Y-81558186D01*
X106496735Y-81545944D01*
X106496659Y-81545560D01*
X106495404Y-81532823D01*
X106495404Y-81532627D01*
X106508506Y-81532627D01*
X106510158Y-81549400D01*
X106515053Y-81565534D01*
X106522999Y-81580401D01*
X106533758Y-81593510D01*
X107241428Y-82301180D01*
X107254537Y-82311939D01*
X107269404Y-82319885D01*
X107285538Y-82324780D01*
X107302311Y-82326432D01*
X107319084Y-82324780D01*
X107335218Y-82319885D01*
X107350085Y-82311939D01*
X107363194Y-82301180D01*
X107487500Y-82176874D01*
X107498259Y-82163765D01*
X107506205Y-82148898D01*
X107511100Y-82132764D01*
X107512752Y-82115991D01*
X107511100Y-82099218D01*
X107506205Y-82083084D01*
X107498259Y-82068217D01*
X107487500Y-82055108D01*
X106779830Y-81347438D01*
X106766721Y-81336679D01*
X106751854Y-81328733D01*
X106735720Y-81323838D01*
X106718947Y-81322186D01*
X106702174Y-81323838D01*
X106686040Y-81328733D01*
X106671173Y-81336679D01*
X106658064Y-81347438D01*
X106533758Y-81471744D01*
X106522999Y-81484853D01*
X106515053Y-81499720D01*
X106510158Y-81515854D01*
X106508506Y-81532627D01*
X106495404Y-81532627D01*
X106495404Y-81532431D01*
X106496659Y-81519694D01*
X106496735Y-81519310D01*
X106500448Y-81507068D01*
X106500598Y-81506705D01*
X106506633Y-81495415D01*
X106506851Y-81495089D01*
X106516381Y-81483476D01*
X106516513Y-81483331D01*
X106669651Y-81330193D01*
X106669796Y-81330061D01*
X106681409Y-81320531D01*
X106681735Y-81320313D01*
X106693025Y-81314278D01*
X106693388Y-81314128D01*
X106705630Y-81310415D01*
X106706014Y-81310339D01*
X106718751Y-81309084D01*
X106719143Y-81309084D01*
X106731880Y-81310339D01*
G37*
G36*
X100473986Y-81310339D02*
G01*
X100474370Y-81310415D01*
X100486612Y-81314128D01*
X100486975Y-81314278D01*
X100498265Y-81320313D01*
X100498591Y-81320531D01*
X100510204Y-81330061D01*
X100510349Y-81330193D01*
X100663487Y-81483331D01*
X100663619Y-81483476D01*
X100673149Y-81495089D01*
X100673367Y-81495415D01*
X100679402Y-81506705D01*
X100679552Y-81507068D01*
X100683265Y-81519310D01*
X100683341Y-81519694D01*
X100684596Y-81532431D01*
X100684596Y-81532823D01*
X100683341Y-81545560D01*
X100683265Y-81545944D01*
X100679552Y-81558186D01*
X100679402Y-81558549D01*
X100673367Y-81569839D01*
X100673149Y-81570165D01*
X100663619Y-81581778D01*
X100663487Y-81581923D01*
X99926985Y-82318425D01*
X99926840Y-82318557D01*
X99915227Y-82328087D01*
X99914901Y-82328305D01*
X99903611Y-82334340D01*
X99903248Y-82334490D01*
X99891006Y-82338203D01*
X99890622Y-82338279D01*
X99877885Y-82339534D01*
X99877493Y-82339534D01*
X99864756Y-82338279D01*
X99864372Y-82338203D01*
X99852130Y-82334490D01*
X99851767Y-82334340D01*
X99840477Y-82328305D01*
X99840151Y-82328087D01*
X99828538Y-82318557D01*
X99828393Y-82318425D01*
X99675255Y-82165287D01*
X99675123Y-82165142D01*
X99665593Y-82153529D01*
X99665375Y-82153203D01*
X99659340Y-82141913D01*
X99659190Y-82141550D01*
X99655477Y-82129308D01*
X99655401Y-82128924D01*
X99654146Y-82116187D01*
X99654146Y-82115991D01*
X99667248Y-82115991D01*
X99668900Y-82132764D01*
X99673795Y-82148898D01*
X99681741Y-82163765D01*
X99692500Y-82176874D01*
X99816806Y-82301180D01*
X99829915Y-82311939D01*
X99844782Y-82319885D01*
X99860916Y-82324780D01*
X99877689Y-82326432D01*
X99894462Y-82324780D01*
X99910596Y-82319885D01*
X99925463Y-82311939D01*
X99938572Y-82301180D01*
X100646242Y-81593510D01*
X100657001Y-81580401D01*
X100664947Y-81565534D01*
X100669842Y-81549400D01*
X100671494Y-81532627D01*
X100669842Y-81515854D01*
X100664947Y-81499720D01*
X100657001Y-81484853D01*
X100646242Y-81471744D01*
X100521936Y-81347438D01*
X100508827Y-81336679D01*
X100493960Y-81328733D01*
X100477826Y-81323838D01*
X100461053Y-81322186D01*
X100444280Y-81323838D01*
X100428146Y-81328733D01*
X100413279Y-81336679D01*
X100400170Y-81347438D01*
X99692500Y-82055108D01*
X99681741Y-82068217D01*
X99673795Y-82083084D01*
X99668900Y-82099218D01*
X99667248Y-82115991D01*
X99654146Y-82115991D01*
X99654146Y-82115795D01*
X99655401Y-82103058D01*
X99655477Y-82102674D01*
X99659190Y-82090432D01*
X99659340Y-82090069D01*
X99665375Y-82078779D01*
X99665593Y-82078453D01*
X99675123Y-82066840D01*
X99675255Y-82066695D01*
X100411757Y-81330193D01*
X100411902Y-81330061D01*
X100423515Y-81320531D01*
X100423841Y-81320313D01*
X100435131Y-81314278D01*
X100435494Y-81314128D01*
X100447736Y-81310415D01*
X100448120Y-81310339D01*
X100460857Y-81309084D01*
X100461249Y-81309084D01*
X100473986Y-81310339D01*
G37*
G36*
X100120433Y-80956785D02*
G01*
X100120817Y-80956861D01*
X100133059Y-80960574D01*
X100133422Y-80960724D01*
X100144712Y-80966759D01*
X100145038Y-80966977D01*
X100156651Y-80976507D01*
X100156796Y-80976639D01*
X100309934Y-81129777D01*
X100310066Y-81129922D01*
X100319596Y-81141535D01*
X100319814Y-81141861D01*
X100325849Y-81153151D01*
X100325999Y-81153514D01*
X100329712Y-81165756D01*
X100329788Y-81166140D01*
X100331043Y-81178877D01*
X100331043Y-81179269D01*
X100329788Y-81192006D01*
X100329712Y-81192390D01*
X100325999Y-81204632D01*
X100325849Y-81204995D01*
X100319814Y-81216285D01*
X100319596Y-81216611D01*
X100310066Y-81228224D01*
X100309934Y-81228369D01*
X99573432Y-81964871D01*
X99573287Y-81965003D01*
X99561674Y-81974533D01*
X99561348Y-81974751D01*
X99550058Y-81980786D01*
X99549695Y-81980936D01*
X99537453Y-81984649D01*
X99537069Y-81984725D01*
X99524332Y-81985980D01*
X99523940Y-81985980D01*
X99511203Y-81984725D01*
X99510819Y-81984649D01*
X99498577Y-81980936D01*
X99498214Y-81980786D01*
X99486924Y-81974751D01*
X99486598Y-81974533D01*
X99474985Y-81965003D01*
X99474840Y-81964871D01*
X99321702Y-81811733D01*
X99321570Y-81811588D01*
X99312040Y-81799975D01*
X99311822Y-81799649D01*
X99305787Y-81788359D01*
X99305637Y-81787996D01*
X99301924Y-81775754D01*
X99301848Y-81775370D01*
X99300593Y-81762633D01*
X99300593Y-81762437D01*
X99313695Y-81762437D01*
X99315347Y-81779210D01*
X99320242Y-81795344D01*
X99328188Y-81810211D01*
X99338947Y-81823320D01*
X99463253Y-81947626D01*
X99476362Y-81958385D01*
X99491229Y-81966331D01*
X99507363Y-81971226D01*
X99524136Y-81972878D01*
X99540909Y-81971226D01*
X99557043Y-81966331D01*
X99571910Y-81958385D01*
X99585019Y-81947626D01*
X100292689Y-81239956D01*
X100303448Y-81226847D01*
X100311394Y-81211980D01*
X100316289Y-81195846D01*
X100317941Y-81179073D01*
X100316289Y-81162300D01*
X100311394Y-81146166D01*
X100303448Y-81131299D01*
X100292689Y-81118190D01*
X100168383Y-80993884D01*
X100155274Y-80983125D01*
X100140407Y-80975179D01*
X100124273Y-80970284D01*
X100107500Y-80968632D01*
X100090727Y-80970284D01*
X100074593Y-80975179D01*
X100059726Y-80983125D01*
X100046617Y-80993884D01*
X99338947Y-81701554D01*
X99328188Y-81714663D01*
X99320242Y-81729530D01*
X99315347Y-81745664D01*
X99313695Y-81762437D01*
X99300593Y-81762437D01*
X99300593Y-81762241D01*
X99301848Y-81749504D01*
X99301924Y-81749120D01*
X99305637Y-81736878D01*
X99305787Y-81736515D01*
X99311822Y-81725225D01*
X99312040Y-81724899D01*
X99321570Y-81713286D01*
X99321702Y-81713141D01*
X100058204Y-80976639D01*
X100058349Y-80976507D01*
X100069962Y-80966977D01*
X100070288Y-80966759D01*
X100081578Y-80960724D01*
X100081941Y-80960574D01*
X100094183Y-80956861D01*
X100094567Y-80956785D01*
X100107304Y-80955530D01*
X100107696Y-80955530D01*
X100120433Y-80956785D01*
G37*
G36*
X107085433Y-80956785D02*
G01*
X107085817Y-80956861D01*
X107098059Y-80960574D01*
X107098422Y-80960724D01*
X107109712Y-80966759D01*
X107110038Y-80966977D01*
X107121651Y-80976507D01*
X107121796Y-80976639D01*
X107858298Y-81713141D01*
X107858430Y-81713286D01*
X107867960Y-81724899D01*
X107868178Y-81725225D01*
X107874213Y-81736515D01*
X107874363Y-81736878D01*
X107878076Y-81749120D01*
X107878152Y-81749504D01*
X107879407Y-81762241D01*
X107879407Y-81762633D01*
X107878152Y-81775370D01*
X107878076Y-81775754D01*
X107874363Y-81787996D01*
X107874213Y-81788359D01*
X107868178Y-81799649D01*
X107867960Y-81799975D01*
X107858430Y-81811588D01*
X107858298Y-81811733D01*
X107705160Y-81964871D01*
X107705015Y-81965003D01*
X107693402Y-81974533D01*
X107693076Y-81974751D01*
X107681786Y-81980786D01*
X107681423Y-81980936D01*
X107669181Y-81984649D01*
X107668797Y-81984725D01*
X107656060Y-81985980D01*
X107655668Y-81985980D01*
X107642931Y-81984725D01*
X107642547Y-81984649D01*
X107630305Y-81980936D01*
X107629942Y-81980786D01*
X107618652Y-81974751D01*
X107618326Y-81974533D01*
X107606713Y-81965003D01*
X107606568Y-81964871D01*
X106870066Y-81228369D01*
X106869934Y-81228224D01*
X106860404Y-81216611D01*
X106860186Y-81216285D01*
X106854151Y-81204995D01*
X106854001Y-81204632D01*
X106850288Y-81192390D01*
X106850212Y-81192006D01*
X106848957Y-81179269D01*
X106848957Y-81179073D01*
X106862059Y-81179073D01*
X106863711Y-81195846D01*
X106868606Y-81211980D01*
X106876552Y-81226847D01*
X106887311Y-81239956D01*
X107594981Y-81947626D01*
X107608090Y-81958385D01*
X107622957Y-81966331D01*
X107639091Y-81971226D01*
X107655864Y-81972878D01*
X107672637Y-81971226D01*
X107688771Y-81966331D01*
X107703638Y-81958385D01*
X107716747Y-81947626D01*
X107841053Y-81823320D01*
X107851812Y-81810211D01*
X107859758Y-81795344D01*
X107864653Y-81779210D01*
X107866305Y-81762437D01*
X107864653Y-81745664D01*
X107859758Y-81729530D01*
X107851812Y-81714663D01*
X107841053Y-81701554D01*
X107133383Y-80993884D01*
X107120274Y-80983125D01*
X107105407Y-80975179D01*
X107089273Y-80970284D01*
X107072500Y-80968632D01*
X107055727Y-80970284D01*
X107039593Y-80975179D01*
X107024726Y-80983125D01*
X107011617Y-80993884D01*
X106887311Y-81118190D01*
X106876552Y-81131299D01*
X106868606Y-81146166D01*
X106863711Y-81162300D01*
X106862059Y-81179073D01*
X106848957Y-81179073D01*
X106848957Y-81178877D01*
X106850212Y-81166140D01*
X106850288Y-81165756D01*
X106854001Y-81153514D01*
X106854151Y-81153151D01*
X106860186Y-81141861D01*
X106860404Y-81141535D01*
X106869934Y-81129922D01*
X106870066Y-81129777D01*
X107023204Y-80976639D01*
X107023349Y-80976507D01*
X107034962Y-80966977D01*
X107035288Y-80966759D01*
X107046578Y-80960724D01*
X107046941Y-80960574D01*
X107059183Y-80956861D01*
X107059567Y-80956785D01*
X107072304Y-80955530D01*
X107072696Y-80955530D01*
X107085433Y-80956785D01*
G37*
G36*
X107438987Y-80603232D02*
G01*
X107439371Y-80603308D01*
X107451613Y-80607021D01*
X107451976Y-80607171D01*
X107463266Y-80613206D01*
X107463592Y-80613424D01*
X107475205Y-80622954D01*
X107475350Y-80623086D01*
X108211852Y-81359588D01*
X108211984Y-81359733D01*
X108221514Y-81371346D01*
X108221732Y-81371672D01*
X108227767Y-81382962D01*
X108227917Y-81383325D01*
X108231630Y-81395567D01*
X108231706Y-81395951D01*
X108232961Y-81408688D01*
X108232961Y-81409080D01*
X108231706Y-81421817D01*
X108231630Y-81422201D01*
X108227917Y-81434443D01*
X108227767Y-81434806D01*
X108221732Y-81446096D01*
X108221514Y-81446422D01*
X108211984Y-81458035D01*
X108211852Y-81458180D01*
X108058714Y-81611318D01*
X108058569Y-81611450D01*
X108046956Y-81620980D01*
X108046630Y-81621198D01*
X108035340Y-81627233D01*
X108034977Y-81627383D01*
X108022735Y-81631096D01*
X108022351Y-81631172D01*
X108009614Y-81632427D01*
X108009222Y-81632427D01*
X107996485Y-81631172D01*
X107996101Y-81631096D01*
X107983859Y-81627383D01*
X107983496Y-81627233D01*
X107972206Y-81621198D01*
X107971880Y-81620980D01*
X107960267Y-81611450D01*
X107960122Y-81611318D01*
X107223620Y-80874816D01*
X107223488Y-80874671D01*
X107213958Y-80863058D01*
X107213740Y-80862732D01*
X107207705Y-80851442D01*
X107207555Y-80851079D01*
X107203842Y-80838837D01*
X107203766Y-80838453D01*
X107202511Y-80825716D01*
X107202511Y-80825520D01*
X107215613Y-80825520D01*
X107217265Y-80842293D01*
X107222160Y-80858427D01*
X107230106Y-80873294D01*
X107240865Y-80886403D01*
X107948535Y-81594073D01*
X107961644Y-81604832D01*
X107976511Y-81612778D01*
X107992645Y-81617673D01*
X108009418Y-81619325D01*
X108026191Y-81617673D01*
X108042325Y-81612778D01*
X108057192Y-81604832D01*
X108070301Y-81594073D01*
X108194607Y-81469767D01*
X108205366Y-81456658D01*
X108213312Y-81441791D01*
X108218207Y-81425657D01*
X108219859Y-81408884D01*
X108218207Y-81392111D01*
X108213312Y-81375977D01*
X108205366Y-81361110D01*
X108194607Y-81348001D01*
X107486937Y-80640331D01*
X107473828Y-80629572D01*
X107458961Y-80621626D01*
X107442827Y-80616731D01*
X107426054Y-80615079D01*
X107409281Y-80616731D01*
X107393147Y-80621626D01*
X107378280Y-80629572D01*
X107365171Y-80640331D01*
X107240865Y-80764637D01*
X107230106Y-80777746D01*
X107222160Y-80792613D01*
X107217265Y-80808747D01*
X107215613Y-80825520D01*
X107202511Y-80825520D01*
X107202511Y-80825324D01*
X107203766Y-80812587D01*
X107203842Y-80812203D01*
X107207555Y-80799961D01*
X107207705Y-80799598D01*
X107213740Y-80788308D01*
X107213958Y-80787982D01*
X107223488Y-80776369D01*
X107223620Y-80776224D01*
X107376758Y-80623086D01*
X107376903Y-80622954D01*
X107388516Y-80613424D01*
X107388842Y-80613206D01*
X107400132Y-80607171D01*
X107400495Y-80607021D01*
X107412737Y-80603308D01*
X107413121Y-80603232D01*
X107425858Y-80601977D01*
X107426250Y-80601977D01*
X107438987Y-80603232D01*
G37*
G36*
X99766879Y-80603232D02*
G01*
X99767263Y-80603308D01*
X99779505Y-80607021D01*
X99779868Y-80607171D01*
X99791158Y-80613206D01*
X99791484Y-80613424D01*
X99803097Y-80622954D01*
X99803242Y-80623086D01*
X99956380Y-80776224D01*
X99956512Y-80776369D01*
X99966042Y-80787982D01*
X99966260Y-80788308D01*
X99972295Y-80799598D01*
X99972445Y-80799961D01*
X99976158Y-80812203D01*
X99976234Y-80812587D01*
X99977489Y-80825324D01*
X99977489Y-80825716D01*
X99976234Y-80838453D01*
X99976158Y-80838837D01*
X99972445Y-80851079D01*
X99972295Y-80851442D01*
X99966260Y-80862732D01*
X99966042Y-80863058D01*
X99956512Y-80874671D01*
X99956380Y-80874816D01*
X99219878Y-81611318D01*
X99219733Y-81611450D01*
X99208120Y-81620980D01*
X99207794Y-81621198D01*
X99196504Y-81627233D01*
X99196141Y-81627383D01*
X99183899Y-81631096D01*
X99183515Y-81631172D01*
X99170778Y-81632427D01*
X99170386Y-81632427D01*
X99157649Y-81631172D01*
X99157265Y-81631096D01*
X99145023Y-81627383D01*
X99144660Y-81627233D01*
X99133370Y-81621198D01*
X99133044Y-81620980D01*
X99121431Y-81611450D01*
X99121286Y-81611318D01*
X98968148Y-81458180D01*
X98968016Y-81458035D01*
X98958486Y-81446422D01*
X98958268Y-81446096D01*
X98952233Y-81434806D01*
X98952083Y-81434443D01*
X98948370Y-81422201D01*
X98948294Y-81421817D01*
X98947039Y-81409080D01*
X98947039Y-81408884D01*
X98960141Y-81408884D01*
X98961793Y-81425657D01*
X98966688Y-81441791D01*
X98974634Y-81456658D01*
X98985393Y-81469767D01*
X99109699Y-81594073D01*
X99122808Y-81604832D01*
X99137675Y-81612778D01*
X99153809Y-81617673D01*
X99170582Y-81619325D01*
X99187355Y-81617673D01*
X99203489Y-81612778D01*
X99218356Y-81604832D01*
X99231465Y-81594073D01*
X99939135Y-80886403D01*
X99949894Y-80873294D01*
X99957840Y-80858427D01*
X99962735Y-80842293D01*
X99964387Y-80825520D01*
X99962735Y-80808747D01*
X99957840Y-80792613D01*
X99949894Y-80777746D01*
X99939135Y-80764637D01*
X99814829Y-80640331D01*
X99801720Y-80629572D01*
X99786853Y-80621626D01*
X99770719Y-80616731D01*
X99753946Y-80615079D01*
X99737173Y-80616731D01*
X99721039Y-80621626D01*
X99706172Y-80629572D01*
X99693063Y-80640331D01*
X98985393Y-81348001D01*
X98974634Y-81361110D01*
X98966688Y-81375977D01*
X98961793Y-81392111D01*
X98960141Y-81408884D01*
X98947039Y-81408884D01*
X98947039Y-81408688D01*
X98948294Y-81395951D01*
X98948370Y-81395567D01*
X98952083Y-81383325D01*
X98952233Y-81382962D01*
X98958268Y-81371672D01*
X98958486Y-81371346D01*
X98968016Y-81359733D01*
X98968148Y-81359588D01*
X99704650Y-80623086D01*
X99704795Y-80622954D01*
X99716408Y-80613424D01*
X99716734Y-80613206D01*
X99728024Y-80607171D01*
X99728387Y-80607021D01*
X99740629Y-80603308D01*
X99741013Y-80603232D01*
X99753750Y-80601977D01*
X99754142Y-80601977D01*
X99766879Y-80603232D01*
G37*
G36*
X108022351Y-79418828D02*
G01*
X108022735Y-79418904D01*
X108034977Y-79422617D01*
X108035340Y-79422767D01*
X108046630Y-79428802D01*
X108046956Y-79429020D01*
X108058569Y-79438550D01*
X108058714Y-79438682D01*
X108211852Y-79591820D01*
X108211984Y-79591965D01*
X108221514Y-79603578D01*
X108221732Y-79603904D01*
X108227767Y-79615194D01*
X108227917Y-79615557D01*
X108231630Y-79627799D01*
X108231706Y-79628183D01*
X108232961Y-79640920D01*
X108232961Y-79641312D01*
X108231706Y-79654049D01*
X108231630Y-79654433D01*
X108227917Y-79666675D01*
X108227767Y-79667038D01*
X108221732Y-79678328D01*
X108221514Y-79678654D01*
X108211984Y-79690267D01*
X108211852Y-79690412D01*
X107475350Y-80426914D01*
X107475205Y-80427046D01*
X107463592Y-80436576D01*
X107463266Y-80436794D01*
X107451976Y-80442829D01*
X107451613Y-80442979D01*
X107439371Y-80446692D01*
X107438987Y-80446768D01*
X107426250Y-80448023D01*
X107425858Y-80448023D01*
X107413121Y-80446768D01*
X107412737Y-80446692D01*
X107400495Y-80442979D01*
X107400132Y-80442829D01*
X107388842Y-80436794D01*
X107388516Y-80436576D01*
X107376903Y-80427046D01*
X107376758Y-80426914D01*
X107223620Y-80273776D01*
X107223488Y-80273631D01*
X107213958Y-80262018D01*
X107213740Y-80261692D01*
X107207705Y-80250402D01*
X107207555Y-80250039D01*
X107203842Y-80237797D01*
X107203766Y-80237413D01*
X107202511Y-80224676D01*
X107202511Y-80224480D01*
X107215613Y-80224480D01*
X107217265Y-80241253D01*
X107222160Y-80257387D01*
X107230106Y-80272254D01*
X107240865Y-80285363D01*
X107365171Y-80409669D01*
X107378280Y-80420428D01*
X107393147Y-80428374D01*
X107409281Y-80433269D01*
X107426054Y-80434921D01*
X107442827Y-80433269D01*
X107458961Y-80428374D01*
X107473828Y-80420428D01*
X107486937Y-80409669D01*
X108194607Y-79701999D01*
X108205366Y-79688890D01*
X108213312Y-79674023D01*
X108218207Y-79657889D01*
X108219859Y-79641116D01*
X108218207Y-79624343D01*
X108213312Y-79608209D01*
X108205366Y-79593342D01*
X108194607Y-79580233D01*
X108070301Y-79455927D01*
X108057192Y-79445168D01*
X108042325Y-79437222D01*
X108026191Y-79432327D01*
X108009418Y-79430675D01*
X107992645Y-79432327D01*
X107976511Y-79437222D01*
X107961644Y-79445168D01*
X107948535Y-79455927D01*
X107240865Y-80163597D01*
X107230106Y-80176706D01*
X107222160Y-80191573D01*
X107217265Y-80207707D01*
X107215613Y-80224480D01*
X107202511Y-80224480D01*
X107202511Y-80224284D01*
X107203766Y-80211547D01*
X107203842Y-80211163D01*
X107207555Y-80198921D01*
X107207705Y-80198558D01*
X107213740Y-80187268D01*
X107213958Y-80186942D01*
X107223488Y-80175329D01*
X107223620Y-80175184D01*
X107960122Y-79438682D01*
X107960267Y-79438550D01*
X107971880Y-79429020D01*
X107972206Y-79428802D01*
X107983496Y-79422767D01*
X107983859Y-79422617D01*
X107996101Y-79418904D01*
X107996485Y-79418828D01*
X108009222Y-79417573D01*
X108009614Y-79417573D01*
X108022351Y-79418828D01*
G37*
G36*
X99183515Y-79418828D02*
G01*
X99183899Y-79418904D01*
X99196141Y-79422617D01*
X99196504Y-79422767D01*
X99207794Y-79428802D01*
X99208120Y-79429020D01*
X99219733Y-79438550D01*
X99219878Y-79438682D01*
X99956380Y-80175184D01*
X99956512Y-80175329D01*
X99966042Y-80186942D01*
X99966260Y-80187268D01*
X99972295Y-80198558D01*
X99972445Y-80198921D01*
X99976158Y-80211163D01*
X99976234Y-80211547D01*
X99977489Y-80224284D01*
X99977489Y-80224676D01*
X99976234Y-80237413D01*
X99976158Y-80237797D01*
X99972445Y-80250039D01*
X99972295Y-80250402D01*
X99966260Y-80261692D01*
X99966042Y-80262018D01*
X99956512Y-80273631D01*
X99956380Y-80273776D01*
X99803242Y-80426914D01*
X99803097Y-80427046D01*
X99791484Y-80436576D01*
X99791158Y-80436794D01*
X99779868Y-80442829D01*
X99779505Y-80442979D01*
X99767263Y-80446692D01*
X99766879Y-80446768D01*
X99754142Y-80448023D01*
X99753750Y-80448023D01*
X99741013Y-80446768D01*
X99740629Y-80446692D01*
X99728387Y-80442979D01*
X99728024Y-80442829D01*
X99716734Y-80436794D01*
X99716408Y-80436576D01*
X99704795Y-80427046D01*
X99704650Y-80426914D01*
X98968148Y-79690412D01*
X98968016Y-79690267D01*
X98958486Y-79678654D01*
X98958268Y-79678328D01*
X98952233Y-79667038D01*
X98952083Y-79666675D01*
X98948370Y-79654433D01*
X98948294Y-79654049D01*
X98947039Y-79641312D01*
X98947039Y-79641116D01*
X98960141Y-79641116D01*
X98961793Y-79657889D01*
X98966688Y-79674023D01*
X98974634Y-79688890D01*
X98985393Y-79701999D01*
X99693063Y-80409669D01*
X99706172Y-80420428D01*
X99721039Y-80428374D01*
X99737173Y-80433269D01*
X99753946Y-80434921D01*
X99770719Y-80433269D01*
X99786853Y-80428374D01*
X99801720Y-80420428D01*
X99814829Y-80409669D01*
X99939135Y-80285363D01*
X99949894Y-80272254D01*
X99957840Y-80257387D01*
X99962735Y-80241253D01*
X99964387Y-80224480D01*
X99962735Y-80207707D01*
X99957840Y-80191573D01*
X99949894Y-80176706D01*
X99939135Y-80163597D01*
X99231465Y-79455927D01*
X99218356Y-79445168D01*
X99203489Y-79437222D01*
X99187355Y-79432327D01*
X99170582Y-79430675D01*
X99153809Y-79432327D01*
X99137675Y-79437222D01*
X99122808Y-79445168D01*
X99109699Y-79455927D01*
X98985393Y-79580233D01*
X98974634Y-79593342D01*
X98966688Y-79608209D01*
X98961793Y-79624343D01*
X98960141Y-79641116D01*
X98947039Y-79641116D01*
X98947039Y-79640920D01*
X98948294Y-79628183D01*
X98948370Y-79627799D01*
X98952083Y-79615557D01*
X98952233Y-79615194D01*
X98958268Y-79603904D01*
X98958486Y-79603578D01*
X98968016Y-79591965D01*
X98968148Y-79591820D01*
X99121286Y-79438682D01*
X99121431Y-79438550D01*
X99133044Y-79429020D01*
X99133370Y-79428802D01*
X99144660Y-79422767D01*
X99145023Y-79422617D01*
X99157265Y-79418904D01*
X99157649Y-79418828D01*
X99170386Y-79417573D01*
X99170778Y-79417573D01*
X99183515Y-79418828D01*
G37*
G36*
X99537069Y-79065275D02*
G01*
X99537453Y-79065351D01*
X99549695Y-79069064D01*
X99550058Y-79069214D01*
X99561348Y-79075249D01*
X99561674Y-79075467D01*
X99573287Y-79084997D01*
X99573432Y-79085129D01*
X100309934Y-79821631D01*
X100310066Y-79821776D01*
X100319596Y-79833389D01*
X100319814Y-79833715D01*
X100325849Y-79845005D01*
X100325999Y-79845368D01*
X100329712Y-79857610D01*
X100329788Y-79857994D01*
X100331043Y-79870731D01*
X100331043Y-79871123D01*
X100329788Y-79883860D01*
X100329712Y-79884244D01*
X100325999Y-79896486D01*
X100325849Y-79896849D01*
X100319814Y-79908139D01*
X100319596Y-79908465D01*
X100310066Y-79920078D01*
X100309934Y-79920223D01*
X100156796Y-80073361D01*
X100156651Y-80073493D01*
X100145038Y-80083023D01*
X100144712Y-80083241D01*
X100133422Y-80089276D01*
X100133059Y-80089426D01*
X100120817Y-80093139D01*
X100120433Y-80093215D01*
X100107696Y-80094470D01*
X100107304Y-80094470D01*
X100094567Y-80093215D01*
X100094183Y-80093139D01*
X100081941Y-80089426D01*
X100081578Y-80089276D01*
X100070288Y-80083241D01*
X100069962Y-80083023D01*
X100058349Y-80073493D01*
X100058204Y-80073361D01*
X99321702Y-79336859D01*
X99321570Y-79336714D01*
X99312040Y-79325101D01*
X99311822Y-79324775D01*
X99305787Y-79313485D01*
X99305637Y-79313122D01*
X99301924Y-79300880D01*
X99301848Y-79300496D01*
X99300593Y-79287759D01*
X99300593Y-79287563D01*
X99313695Y-79287563D01*
X99315347Y-79304336D01*
X99320242Y-79320470D01*
X99328188Y-79335337D01*
X99338947Y-79348446D01*
X100046617Y-80056116D01*
X100059726Y-80066875D01*
X100074593Y-80074821D01*
X100090727Y-80079716D01*
X100107500Y-80081368D01*
X100124273Y-80079716D01*
X100140407Y-80074821D01*
X100155274Y-80066875D01*
X100168383Y-80056116D01*
X100292689Y-79931810D01*
X100303448Y-79918701D01*
X100311394Y-79903834D01*
X100316289Y-79887700D01*
X100317941Y-79870927D01*
X100316289Y-79854154D01*
X100311394Y-79838020D01*
X100303448Y-79823153D01*
X100292689Y-79810044D01*
X99585019Y-79102374D01*
X99571910Y-79091615D01*
X99557043Y-79083669D01*
X99540909Y-79078774D01*
X99524136Y-79077122D01*
X99507363Y-79078774D01*
X99491229Y-79083669D01*
X99476362Y-79091615D01*
X99463253Y-79102374D01*
X99338947Y-79226680D01*
X99328188Y-79239789D01*
X99320242Y-79254656D01*
X99315347Y-79270790D01*
X99313695Y-79287563D01*
X99300593Y-79287563D01*
X99300593Y-79287367D01*
X99301848Y-79274630D01*
X99301924Y-79274246D01*
X99305637Y-79262004D01*
X99305787Y-79261641D01*
X99311822Y-79250351D01*
X99312040Y-79250025D01*
X99321570Y-79238412D01*
X99321702Y-79238267D01*
X99474840Y-79085129D01*
X99474985Y-79084997D01*
X99486598Y-79075467D01*
X99486924Y-79075249D01*
X99498214Y-79069214D01*
X99498577Y-79069064D01*
X99510819Y-79065351D01*
X99511203Y-79065275D01*
X99523940Y-79064020D01*
X99524332Y-79064020D01*
X99537069Y-79065275D01*
G37*
G36*
X107668797Y-79065275D02*
G01*
X107669181Y-79065351D01*
X107681423Y-79069064D01*
X107681786Y-79069214D01*
X107693076Y-79075249D01*
X107693402Y-79075467D01*
X107705015Y-79084997D01*
X107705160Y-79085129D01*
X107858298Y-79238267D01*
X107858430Y-79238412D01*
X107867960Y-79250025D01*
X107868178Y-79250351D01*
X107874213Y-79261641D01*
X107874363Y-79262004D01*
X107878076Y-79274246D01*
X107878152Y-79274630D01*
X107879407Y-79287367D01*
X107879407Y-79287759D01*
X107878152Y-79300496D01*
X107878076Y-79300880D01*
X107874363Y-79313122D01*
X107874213Y-79313485D01*
X107868178Y-79324775D01*
X107867960Y-79325101D01*
X107858430Y-79336714D01*
X107858298Y-79336859D01*
X107121796Y-80073361D01*
X107121651Y-80073493D01*
X107110038Y-80083023D01*
X107109712Y-80083241D01*
X107098422Y-80089276D01*
X107098059Y-80089426D01*
X107085817Y-80093139D01*
X107085433Y-80093215D01*
X107072696Y-80094470D01*
X107072304Y-80094470D01*
X107059567Y-80093215D01*
X107059183Y-80093139D01*
X107046941Y-80089426D01*
X107046578Y-80089276D01*
X107035288Y-80083241D01*
X107034962Y-80083023D01*
X107023349Y-80073493D01*
X107023204Y-80073361D01*
X106870066Y-79920223D01*
X106869934Y-79920078D01*
X106860404Y-79908465D01*
X106860186Y-79908139D01*
X106854151Y-79896849D01*
X106854001Y-79896486D01*
X106850288Y-79884244D01*
X106850212Y-79883860D01*
X106848957Y-79871123D01*
X106848957Y-79870927D01*
X106862059Y-79870927D01*
X106863711Y-79887700D01*
X106868606Y-79903834D01*
X106876552Y-79918701D01*
X106887311Y-79931810D01*
X107011617Y-80056116D01*
X107024726Y-80066875D01*
X107039593Y-80074821D01*
X107055727Y-80079716D01*
X107072500Y-80081368D01*
X107089273Y-80079716D01*
X107105407Y-80074821D01*
X107120274Y-80066875D01*
X107133383Y-80056116D01*
X107841053Y-79348446D01*
X107851812Y-79335337D01*
X107859758Y-79320470D01*
X107864653Y-79304336D01*
X107866305Y-79287563D01*
X107864653Y-79270790D01*
X107859758Y-79254656D01*
X107851812Y-79239789D01*
X107841053Y-79226680D01*
X107716747Y-79102374D01*
X107703638Y-79091615D01*
X107688771Y-79083669D01*
X107672637Y-79078774D01*
X107655864Y-79077122D01*
X107639091Y-79078774D01*
X107622957Y-79083669D01*
X107608090Y-79091615D01*
X107594981Y-79102374D01*
X106887311Y-79810044D01*
X106876552Y-79823153D01*
X106868606Y-79838020D01*
X106863711Y-79854154D01*
X106862059Y-79870927D01*
X106848957Y-79870927D01*
X106848957Y-79870731D01*
X106850212Y-79857994D01*
X106850288Y-79857610D01*
X106854001Y-79845368D01*
X106854151Y-79845005D01*
X106860186Y-79833715D01*
X106860404Y-79833389D01*
X106869934Y-79821776D01*
X106870066Y-79821631D01*
X107606568Y-79085129D01*
X107606713Y-79084997D01*
X107618326Y-79075467D01*
X107618652Y-79075249D01*
X107629942Y-79069214D01*
X107630305Y-79069064D01*
X107642547Y-79065351D01*
X107642931Y-79065275D01*
X107655668Y-79064020D01*
X107656060Y-79064020D01*
X107668797Y-79065275D01*
G37*
G36*
X107315244Y-78711721D02*
G01*
X107315628Y-78711797D01*
X107327870Y-78715510D01*
X107328233Y-78715660D01*
X107339523Y-78721695D01*
X107339849Y-78721913D01*
X107351462Y-78731443D01*
X107351607Y-78731575D01*
X107504745Y-78884713D01*
X107504877Y-78884858D01*
X107514407Y-78896471D01*
X107514625Y-78896797D01*
X107520660Y-78908087D01*
X107520810Y-78908450D01*
X107524523Y-78920692D01*
X107524599Y-78921076D01*
X107525854Y-78933813D01*
X107525854Y-78934205D01*
X107524599Y-78946942D01*
X107524523Y-78947326D01*
X107520810Y-78959568D01*
X107520660Y-78959931D01*
X107514625Y-78971221D01*
X107514407Y-78971547D01*
X107504877Y-78983160D01*
X107504745Y-78983305D01*
X106768243Y-79719807D01*
X106768098Y-79719939D01*
X106756485Y-79729469D01*
X106756159Y-79729687D01*
X106744869Y-79735722D01*
X106744506Y-79735872D01*
X106732264Y-79739585D01*
X106731880Y-79739661D01*
X106719143Y-79740916D01*
X106718751Y-79740916D01*
X106706014Y-79739661D01*
X106705630Y-79739585D01*
X106693388Y-79735872D01*
X106693025Y-79735722D01*
X106681735Y-79729687D01*
X106681409Y-79729469D01*
X106669796Y-79719939D01*
X106669651Y-79719807D01*
X106516513Y-79566669D01*
X106516381Y-79566524D01*
X106506851Y-79554911D01*
X106506633Y-79554585D01*
X106500598Y-79543295D01*
X106500448Y-79542932D01*
X106496735Y-79530690D01*
X106496659Y-79530306D01*
X106495404Y-79517569D01*
X106495404Y-79517373D01*
X106508506Y-79517373D01*
X106510158Y-79534146D01*
X106515053Y-79550280D01*
X106522999Y-79565147D01*
X106533758Y-79578256D01*
X106658064Y-79702562D01*
X106671173Y-79713321D01*
X106686040Y-79721267D01*
X106702174Y-79726162D01*
X106718947Y-79727814D01*
X106735720Y-79726162D01*
X106751854Y-79721267D01*
X106766721Y-79713321D01*
X106779830Y-79702562D01*
X107487500Y-78994892D01*
X107498259Y-78981783D01*
X107506205Y-78966916D01*
X107511100Y-78950782D01*
X107512752Y-78934009D01*
X107511100Y-78917236D01*
X107506205Y-78901102D01*
X107498259Y-78886235D01*
X107487500Y-78873126D01*
X107363194Y-78748820D01*
X107350085Y-78738061D01*
X107335218Y-78730115D01*
X107319084Y-78725220D01*
X107302311Y-78723568D01*
X107285538Y-78725220D01*
X107269404Y-78730115D01*
X107254537Y-78738061D01*
X107241428Y-78748820D01*
X106533758Y-79456490D01*
X106522999Y-79469599D01*
X106515053Y-79484466D01*
X106510158Y-79500600D01*
X106508506Y-79517373D01*
X106495404Y-79517373D01*
X106495404Y-79517177D01*
X106496659Y-79504440D01*
X106496735Y-79504056D01*
X106500448Y-79491814D01*
X106500598Y-79491451D01*
X106506633Y-79480161D01*
X106506851Y-79479835D01*
X106516381Y-79468222D01*
X106516513Y-79468077D01*
X107253015Y-78731575D01*
X107253160Y-78731443D01*
X107264773Y-78721913D01*
X107265099Y-78721695D01*
X107276389Y-78715660D01*
X107276752Y-78715510D01*
X107288994Y-78711797D01*
X107289378Y-78711721D01*
X107302115Y-78710466D01*
X107302507Y-78710466D01*
X107315244Y-78711721D01*
G37*
G36*
X99890622Y-78711721D02*
G01*
X99891006Y-78711797D01*
X99903248Y-78715510D01*
X99903611Y-78715660D01*
X99914901Y-78721695D01*
X99915227Y-78721913D01*
X99926840Y-78731443D01*
X99926985Y-78731575D01*
X100663487Y-79468077D01*
X100663619Y-79468222D01*
X100673149Y-79479835D01*
X100673367Y-79480161D01*
X100679402Y-79491451D01*
X100679552Y-79491814D01*
X100683265Y-79504056D01*
X100683341Y-79504440D01*
X100684596Y-79517177D01*
X100684596Y-79517569D01*
X100683341Y-79530306D01*
X100683265Y-79530690D01*
X100679552Y-79542932D01*
X100679402Y-79543295D01*
X100673367Y-79554585D01*
X100673149Y-79554911D01*
X100663619Y-79566524D01*
X100663487Y-79566669D01*
X100510349Y-79719807D01*
X100510204Y-79719939D01*
X100498591Y-79729469D01*
X100498265Y-79729687D01*
X100486975Y-79735722D01*
X100486612Y-79735872D01*
X100474370Y-79739585D01*
X100473986Y-79739661D01*
X100461249Y-79740916D01*
X100460857Y-79740916D01*
X100448120Y-79739661D01*
X100447736Y-79739585D01*
X100435494Y-79735872D01*
X100435131Y-79735722D01*
X100423841Y-79729687D01*
X100423515Y-79729469D01*
X100411902Y-79719939D01*
X100411757Y-79719807D01*
X99675255Y-78983305D01*
X99675123Y-78983160D01*
X99665593Y-78971547D01*
X99665375Y-78971221D01*
X99659340Y-78959931D01*
X99659190Y-78959568D01*
X99655477Y-78947326D01*
X99655401Y-78946942D01*
X99654146Y-78934205D01*
X99654146Y-78934009D01*
X99667248Y-78934009D01*
X99668900Y-78950782D01*
X99673795Y-78966916D01*
X99681741Y-78981783D01*
X99692500Y-78994892D01*
X100400170Y-79702562D01*
X100413279Y-79713321D01*
X100428146Y-79721267D01*
X100444280Y-79726162D01*
X100461053Y-79727814D01*
X100477826Y-79726162D01*
X100493960Y-79721267D01*
X100508827Y-79713321D01*
X100521936Y-79702562D01*
X100646242Y-79578256D01*
X100657001Y-79565147D01*
X100664947Y-79550280D01*
X100669842Y-79534146D01*
X100671494Y-79517373D01*
X100669842Y-79500600D01*
X100664947Y-79484466D01*
X100657001Y-79469599D01*
X100646242Y-79456490D01*
X99938572Y-78748820D01*
X99925463Y-78738061D01*
X99910596Y-78730115D01*
X99894462Y-78725220D01*
X99877689Y-78723568D01*
X99860916Y-78725220D01*
X99844782Y-78730115D01*
X99829915Y-78738061D01*
X99816806Y-78748820D01*
X99692500Y-78873126D01*
X99681741Y-78886235D01*
X99673795Y-78901102D01*
X99668900Y-78917236D01*
X99667248Y-78934009D01*
X99654146Y-78934009D01*
X99654146Y-78933813D01*
X99655401Y-78921076D01*
X99655477Y-78920692D01*
X99659190Y-78908450D01*
X99659340Y-78908087D01*
X99665375Y-78896797D01*
X99665593Y-78896471D01*
X99675123Y-78884858D01*
X99675255Y-78884713D01*
X99828393Y-78731575D01*
X99828538Y-78731443D01*
X99840151Y-78721913D01*
X99840477Y-78721695D01*
X99851767Y-78715660D01*
X99852130Y-78715510D01*
X99864372Y-78711797D01*
X99864756Y-78711721D01*
X99877493Y-78710466D01*
X99877885Y-78710466D01*
X99890622Y-78711721D01*
G37*
G36*
X106961691Y-78358168D02*
G01*
X106962075Y-78358244D01*
X106974317Y-78361957D01*
X106974680Y-78362107D01*
X106985970Y-78368142D01*
X106986296Y-78368360D01*
X106997909Y-78377890D01*
X106998054Y-78378022D01*
X107151192Y-78531160D01*
X107151324Y-78531305D01*
X107160854Y-78542918D01*
X107161072Y-78543244D01*
X107167107Y-78554534D01*
X107167257Y-78554897D01*
X107170970Y-78567139D01*
X107171046Y-78567523D01*
X107172301Y-78580260D01*
X107172301Y-78580652D01*
X107171046Y-78593389D01*
X107170970Y-78593773D01*
X107167257Y-78606015D01*
X107167107Y-78606378D01*
X107161072Y-78617668D01*
X107160854Y-78617994D01*
X107151324Y-78629607D01*
X107151192Y-78629752D01*
X106414690Y-79366254D01*
X106414545Y-79366386D01*
X106402932Y-79375916D01*
X106402606Y-79376134D01*
X106391316Y-79382169D01*
X106390953Y-79382319D01*
X106378711Y-79386032D01*
X106378327Y-79386108D01*
X106365590Y-79387363D01*
X106365198Y-79387363D01*
X106352461Y-79386108D01*
X106352077Y-79386032D01*
X106339835Y-79382319D01*
X106339472Y-79382169D01*
X106328182Y-79376134D01*
X106327856Y-79375916D01*
X106316243Y-79366386D01*
X106316098Y-79366254D01*
X106162960Y-79213116D01*
X106162828Y-79212971D01*
X106153298Y-79201358D01*
X106153080Y-79201032D01*
X106147045Y-79189742D01*
X106146895Y-79189379D01*
X106143182Y-79177137D01*
X106143106Y-79176753D01*
X106141851Y-79164016D01*
X106141851Y-79163820D01*
X106154953Y-79163820D01*
X106156605Y-79180593D01*
X106161500Y-79196727D01*
X106169446Y-79211594D01*
X106180205Y-79224703D01*
X106304511Y-79349009D01*
X106317620Y-79359768D01*
X106332487Y-79367714D01*
X106348621Y-79372609D01*
X106365394Y-79374261D01*
X106382167Y-79372609D01*
X106398301Y-79367714D01*
X106413168Y-79359768D01*
X106426277Y-79349009D01*
X107133947Y-78641339D01*
X107144706Y-78628230D01*
X107152652Y-78613363D01*
X107157547Y-78597229D01*
X107159199Y-78580456D01*
X107157547Y-78563683D01*
X107152652Y-78547549D01*
X107144706Y-78532682D01*
X107133947Y-78519573D01*
X107009641Y-78395267D01*
X106996532Y-78384508D01*
X106981665Y-78376562D01*
X106965531Y-78371667D01*
X106948758Y-78370015D01*
X106931985Y-78371667D01*
X106915851Y-78376562D01*
X106900984Y-78384508D01*
X106887875Y-78395267D01*
X106180205Y-79102937D01*
X106169446Y-79116046D01*
X106161500Y-79130913D01*
X106156605Y-79147047D01*
X106154953Y-79163820D01*
X106141851Y-79163820D01*
X106141851Y-79163624D01*
X106143106Y-79150887D01*
X106143182Y-79150503D01*
X106146895Y-79138261D01*
X106147045Y-79137898D01*
X106153080Y-79126608D01*
X106153298Y-79126282D01*
X106162828Y-79114669D01*
X106162960Y-79114524D01*
X106899462Y-78378022D01*
X106899607Y-78377890D01*
X106911220Y-78368360D01*
X106911546Y-78368142D01*
X106922836Y-78362107D01*
X106923199Y-78361957D01*
X106935441Y-78358244D01*
X106935825Y-78358168D01*
X106948562Y-78356913D01*
X106948954Y-78356913D01*
X106961691Y-78358168D01*
G37*
G36*
X100244175Y-78358168D02*
G01*
X100244559Y-78358244D01*
X100256801Y-78361957D01*
X100257164Y-78362107D01*
X100268454Y-78368142D01*
X100268780Y-78368360D01*
X100280393Y-78377890D01*
X100280538Y-78378022D01*
X101017040Y-79114524D01*
X101017172Y-79114669D01*
X101026702Y-79126282D01*
X101026920Y-79126608D01*
X101032955Y-79137898D01*
X101033105Y-79138261D01*
X101036818Y-79150503D01*
X101036894Y-79150887D01*
X101038149Y-79163624D01*
X101038149Y-79164016D01*
X101036894Y-79176753D01*
X101036818Y-79177137D01*
X101033105Y-79189379D01*
X101032955Y-79189742D01*
X101026920Y-79201032D01*
X101026702Y-79201358D01*
X101017172Y-79212971D01*
X101017040Y-79213116D01*
X100863902Y-79366254D01*
X100863757Y-79366386D01*
X100852144Y-79375916D01*
X100851818Y-79376134D01*
X100840528Y-79382169D01*
X100840165Y-79382319D01*
X100827923Y-79386032D01*
X100827539Y-79386108D01*
X100814802Y-79387363D01*
X100814410Y-79387363D01*
X100801673Y-79386108D01*
X100801289Y-79386032D01*
X100789047Y-79382319D01*
X100788684Y-79382169D01*
X100777394Y-79376134D01*
X100777068Y-79375916D01*
X100765455Y-79366386D01*
X100765310Y-79366254D01*
X100028808Y-78629752D01*
X100028676Y-78629607D01*
X100019146Y-78617994D01*
X100018928Y-78617668D01*
X100012893Y-78606378D01*
X100012743Y-78606015D01*
X100009030Y-78593773D01*
X100008954Y-78593389D01*
X100007699Y-78580652D01*
X100007699Y-78580456D01*
X100020801Y-78580456D01*
X100022453Y-78597229D01*
X100027348Y-78613363D01*
X100035294Y-78628230D01*
X100046053Y-78641339D01*
X100753723Y-79349009D01*
X100766832Y-79359768D01*
X100781699Y-79367714D01*
X100797833Y-79372609D01*
X100814606Y-79374261D01*
X100831379Y-79372609D01*
X100847513Y-79367714D01*
X100862380Y-79359768D01*
X100875489Y-79349009D01*
X100999795Y-79224703D01*
X101010554Y-79211594D01*
X101018500Y-79196727D01*
X101023395Y-79180593D01*
X101025047Y-79163820D01*
X101023395Y-79147047D01*
X101018500Y-79130913D01*
X101010554Y-79116046D01*
X100999795Y-79102937D01*
X100292125Y-78395267D01*
X100279016Y-78384508D01*
X100264149Y-78376562D01*
X100248015Y-78371667D01*
X100231242Y-78370015D01*
X100214469Y-78371667D01*
X100198335Y-78376562D01*
X100183468Y-78384508D01*
X100170359Y-78395267D01*
X100046053Y-78519573D01*
X100035294Y-78532682D01*
X100027348Y-78547549D01*
X100022453Y-78563683D01*
X100020801Y-78580456D01*
X100007699Y-78580456D01*
X100007699Y-78580260D01*
X100008954Y-78567523D01*
X100009030Y-78567139D01*
X100012743Y-78554897D01*
X100012893Y-78554534D01*
X100018928Y-78543244D01*
X100019146Y-78542918D01*
X100028676Y-78531305D01*
X100028808Y-78531160D01*
X100181946Y-78378022D01*
X100182091Y-78377890D01*
X100193704Y-78368360D01*
X100194030Y-78368142D01*
X100205320Y-78362107D01*
X100205683Y-78361957D01*
X100217925Y-78358244D01*
X100218309Y-78358168D01*
X100231046Y-78356913D01*
X100231438Y-78356913D01*
X100244175Y-78358168D01*
G37*
G36*
X106608137Y-78004615D02*
G01*
X106608521Y-78004691D01*
X106620763Y-78008404D01*
X106621126Y-78008554D01*
X106632416Y-78014589D01*
X106632742Y-78014807D01*
X106644355Y-78024337D01*
X106644500Y-78024469D01*
X106797638Y-78177607D01*
X106797770Y-78177752D01*
X106807300Y-78189365D01*
X106807518Y-78189691D01*
X106813553Y-78200981D01*
X106813703Y-78201344D01*
X106817416Y-78213586D01*
X106817492Y-78213970D01*
X106818747Y-78226707D01*
X106818747Y-78227099D01*
X106817492Y-78239836D01*
X106817416Y-78240220D01*
X106813703Y-78252462D01*
X106813553Y-78252825D01*
X106807518Y-78264115D01*
X106807300Y-78264441D01*
X106797770Y-78276054D01*
X106797638Y-78276199D01*
X106061136Y-79012701D01*
X106060991Y-79012833D01*
X106049378Y-79022363D01*
X106049052Y-79022581D01*
X106037762Y-79028616D01*
X106037399Y-79028766D01*
X106025157Y-79032479D01*
X106024773Y-79032555D01*
X106012036Y-79033810D01*
X106011644Y-79033810D01*
X105998907Y-79032555D01*
X105998523Y-79032479D01*
X105986281Y-79028766D01*
X105985918Y-79028616D01*
X105974628Y-79022581D01*
X105974302Y-79022363D01*
X105962689Y-79012833D01*
X105962544Y-79012701D01*
X105809406Y-78859563D01*
X105809274Y-78859418D01*
X105799744Y-78847805D01*
X105799526Y-78847479D01*
X105793491Y-78836189D01*
X105793341Y-78835826D01*
X105789628Y-78823584D01*
X105789552Y-78823200D01*
X105788297Y-78810463D01*
X105788297Y-78810267D01*
X105801399Y-78810267D01*
X105803051Y-78827040D01*
X105807946Y-78843174D01*
X105815892Y-78858041D01*
X105826651Y-78871150D01*
X105950957Y-78995456D01*
X105964066Y-79006215D01*
X105978933Y-79014161D01*
X105995067Y-79019056D01*
X106011840Y-79020708D01*
X106028613Y-79019056D01*
X106044747Y-79014161D01*
X106059614Y-79006215D01*
X106072723Y-78995456D01*
X106780393Y-78287786D01*
X106791152Y-78274677D01*
X106799098Y-78259810D01*
X106803993Y-78243676D01*
X106805645Y-78226903D01*
X106803993Y-78210130D01*
X106799098Y-78193996D01*
X106791152Y-78179129D01*
X106780393Y-78166020D01*
X106656087Y-78041714D01*
X106642978Y-78030955D01*
X106628111Y-78023009D01*
X106611977Y-78018114D01*
X106595204Y-78016462D01*
X106578431Y-78018114D01*
X106562297Y-78023009D01*
X106547430Y-78030955D01*
X106534321Y-78041714D01*
X105826651Y-78749384D01*
X105815892Y-78762493D01*
X105807946Y-78777360D01*
X105803051Y-78793494D01*
X105801399Y-78810267D01*
X105788297Y-78810267D01*
X105788297Y-78810071D01*
X105789552Y-78797334D01*
X105789628Y-78796950D01*
X105793341Y-78784708D01*
X105793491Y-78784345D01*
X105799526Y-78773055D01*
X105799744Y-78772729D01*
X105809274Y-78761116D01*
X105809406Y-78760971D01*
X106545908Y-78024469D01*
X106546053Y-78024337D01*
X106557666Y-78014807D01*
X106557992Y-78014589D01*
X106569282Y-78008554D01*
X106569645Y-78008404D01*
X106581887Y-78004691D01*
X106582271Y-78004615D01*
X106595008Y-78003360D01*
X106595400Y-78003360D01*
X106608137Y-78004615D01*
G37*
G36*
X100597729Y-78004615D02*
G01*
X100598113Y-78004691D01*
X100610355Y-78008404D01*
X100610718Y-78008554D01*
X100622008Y-78014589D01*
X100622334Y-78014807D01*
X100633947Y-78024337D01*
X100634092Y-78024469D01*
X101370594Y-78760971D01*
X101370726Y-78761116D01*
X101380256Y-78772729D01*
X101380474Y-78773055D01*
X101386509Y-78784345D01*
X101386659Y-78784708D01*
X101390372Y-78796950D01*
X101390448Y-78797334D01*
X101391703Y-78810071D01*
X101391703Y-78810463D01*
X101390448Y-78823200D01*
X101390372Y-78823584D01*
X101386659Y-78835826D01*
X101386509Y-78836189D01*
X101380474Y-78847479D01*
X101380256Y-78847805D01*
X101370726Y-78859418D01*
X101370594Y-78859563D01*
X101217456Y-79012701D01*
X101217311Y-79012833D01*
X101205698Y-79022363D01*
X101205372Y-79022581D01*
X101194082Y-79028616D01*
X101193719Y-79028766D01*
X101181477Y-79032479D01*
X101181093Y-79032555D01*
X101168356Y-79033810D01*
X101167964Y-79033810D01*
X101155227Y-79032555D01*
X101154843Y-79032479D01*
X101142601Y-79028766D01*
X101142238Y-79028616D01*
X101130948Y-79022581D01*
X101130622Y-79022363D01*
X101119009Y-79012833D01*
X101118864Y-79012701D01*
X100382362Y-78276199D01*
X100382230Y-78276054D01*
X100372700Y-78264441D01*
X100372482Y-78264115D01*
X100366447Y-78252825D01*
X100366297Y-78252462D01*
X100362584Y-78240220D01*
X100362508Y-78239836D01*
X100361253Y-78227099D01*
X100361253Y-78226903D01*
X100374355Y-78226903D01*
X100376007Y-78243676D01*
X100380902Y-78259810D01*
X100388848Y-78274677D01*
X100399607Y-78287786D01*
X101107277Y-78995456D01*
X101120386Y-79006215D01*
X101135253Y-79014161D01*
X101151387Y-79019056D01*
X101168160Y-79020708D01*
X101184933Y-79019056D01*
X101201067Y-79014161D01*
X101215934Y-79006215D01*
X101229043Y-78995456D01*
X101353349Y-78871150D01*
X101364108Y-78858041D01*
X101372054Y-78843174D01*
X101376949Y-78827040D01*
X101378601Y-78810267D01*
X101376949Y-78793494D01*
X101372054Y-78777360D01*
X101364108Y-78762493D01*
X101353349Y-78749384D01*
X100645679Y-78041714D01*
X100632570Y-78030955D01*
X100617703Y-78023009D01*
X100601569Y-78018114D01*
X100584796Y-78016462D01*
X100568023Y-78018114D01*
X100551889Y-78023009D01*
X100537022Y-78030955D01*
X100523913Y-78041714D01*
X100399607Y-78166020D01*
X100388848Y-78179129D01*
X100380902Y-78193996D01*
X100376007Y-78210130D01*
X100374355Y-78226903D01*
X100361253Y-78226903D01*
X100361253Y-78226707D01*
X100362508Y-78213970D01*
X100362584Y-78213586D01*
X100366297Y-78201344D01*
X100366447Y-78200981D01*
X100372482Y-78189691D01*
X100372700Y-78189365D01*
X100382230Y-78177752D01*
X100382362Y-78177607D01*
X100535500Y-78024469D01*
X100535645Y-78024337D01*
X100547258Y-78014807D01*
X100547584Y-78014589D01*
X100558874Y-78008554D01*
X100559237Y-78008404D01*
X100571479Y-78004691D01*
X100571863Y-78004615D01*
X100584600Y-78003360D01*
X100584992Y-78003360D01*
X100597729Y-78004615D01*
G37*
G36*
X106254584Y-77651061D02*
G01*
X106254968Y-77651137D01*
X106267210Y-77654850D01*
X106267573Y-77655000D01*
X106278863Y-77661035D01*
X106279189Y-77661253D01*
X106290802Y-77670783D01*
X106290947Y-77670915D01*
X106444085Y-77824053D01*
X106444217Y-77824198D01*
X106453747Y-77835811D01*
X106453965Y-77836137D01*
X106460000Y-77847427D01*
X106460150Y-77847790D01*
X106463863Y-77860032D01*
X106463939Y-77860416D01*
X106465194Y-77873153D01*
X106465194Y-77873545D01*
X106463939Y-77886282D01*
X106463863Y-77886666D01*
X106460150Y-77898908D01*
X106460000Y-77899271D01*
X106453965Y-77910561D01*
X106453747Y-77910887D01*
X106444217Y-77922500D01*
X106444085Y-77922645D01*
X105707583Y-78659147D01*
X105707438Y-78659279D01*
X105695825Y-78668809D01*
X105695499Y-78669027D01*
X105684209Y-78675062D01*
X105683846Y-78675212D01*
X105671604Y-78678925D01*
X105671220Y-78679001D01*
X105658483Y-78680256D01*
X105658091Y-78680256D01*
X105645354Y-78679001D01*
X105644970Y-78678925D01*
X105632728Y-78675212D01*
X105632365Y-78675062D01*
X105621075Y-78669027D01*
X105620749Y-78668809D01*
X105609136Y-78659279D01*
X105608991Y-78659147D01*
X105455853Y-78506009D01*
X105455721Y-78505864D01*
X105446191Y-78494251D01*
X105445973Y-78493925D01*
X105439938Y-78482635D01*
X105439788Y-78482272D01*
X105436075Y-78470030D01*
X105435999Y-78469646D01*
X105434744Y-78456909D01*
X105434744Y-78456713D01*
X105447846Y-78456713D01*
X105449498Y-78473486D01*
X105454393Y-78489620D01*
X105462339Y-78504487D01*
X105473098Y-78517596D01*
X105597404Y-78641902D01*
X105610513Y-78652661D01*
X105625380Y-78660607D01*
X105641514Y-78665502D01*
X105658287Y-78667154D01*
X105675060Y-78665502D01*
X105691194Y-78660607D01*
X105706061Y-78652661D01*
X105719170Y-78641902D01*
X106426840Y-77934232D01*
X106437599Y-77921123D01*
X106445545Y-77906256D01*
X106450440Y-77890122D01*
X106452092Y-77873349D01*
X106450440Y-77856576D01*
X106445545Y-77840442D01*
X106437599Y-77825575D01*
X106426840Y-77812466D01*
X106302534Y-77688160D01*
X106289425Y-77677401D01*
X106274558Y-77669455D01*
X106258424Y-77664560D01*
X106241651Y-77662908D01*
X106224878Y-77664560D01*
X106208744Y-77669455D01*
X106193877Y-77677401D01*
X106180768Y-77688160D01*
X105473098Y-78395830D01*
X105462339Y-78408939D01*
X105454393Y-78423806D01*
X105449498Y-78439940D01*
X105447846Y-78456713D01*
X105434744Y-78456713D01*
X105434744Y-78456517D01*
X105435999Y-78443780D01*
X105436075Y-78443396D01*
X105439788Y-78431154D01*
X105439938Y-78430791D01*
X105445973Y-78419501D01*
X105446191Y-78419175D01*
X105455721Y-78407562D01*
X105455853Y-78407417D01*
X106192355Y-77670915D01*
X106192500Y-77670783D01*
X106204113Y-77661253D01*
X106204439Y-77661035D01*
X106215729Y-77655000D01*
X106216092Y-77654850D01*
X106228334Y-77651137D01*
X106228718Y-77651061D01*
X106241455Y-77649806D01*
X106241847Y-77649806D01*
X106254584Y-77651061D01*
G37*
G36*
X100951282Y-77651061D02*
G01*
X100951666Y-77651137D01*
X100963908Y-77654850D01*
X100964271Y-77655000D01*
X100975561Y-77661035D01*
X100975887Y-77661253D01*
X100987500Y-77670783D01*
X100987645Y-77670915D01*
X101724147Y-78407417D01*
X101724279Y-78407562D01*
X101733809Y-78419175D01*
X101734027Y-78419501D01*
X101740062Y-78430791D01*
X101740212Y-78431154D01*
X101743925Y-78443396D01*
X101744001Y-78443780D01*
X101745256Y-78456517D01*
X101745256Y-78456909D01*
X101744001Y-78469646D01*
X101743925Y-78470030D01*
X101740212Y-78482272D01*
X101740062Y-78482635D01*
X101734027Y-78493925D01*
X101733809Y-78494251D01*
X101724279Y-78505864D01*
X101724147Y-78506009D01*
X101571009Y-78659147D01*
X101570864Y-78659279D01*
X101559251Y-78668809D01*
X101558925Y-78669027D01*
X101547635Y-78675062D01*
X101547272Y-78675212D01*
X101535030Y-78678925D01*
X101534646Y-78679001D01*
X101521909Y-78680256D01*
X101521517Y-78680256D01*
X101508780Y-78679001D01*
X101508396Y-78678925D01*
X101496154Y-78675212D01*
X101495791Y-78675062D01*
X101484501Y-78669027D01*
X101484175Y-78668809D01*
X101472562Y-78659279D01*
X101472417Y-78659147D01*
X100735915Y-77922645D01*
X100735783Y-77922500D01*
X100726253Y-77910887D01*
X100726035Y-77910561D01*
X100720000Y-77899271D01*
X100719850Y-77898908D01*
X100716137Y-77886666D01*
X100716061Y-77886282D01*
X100714806Y-77873545D01*
X100714806Y-77873349D01*
X100727908Y-77873349D01*
X100729560Y-77890122D01*
X100734455Y-77906256D01*
X100742401Y-77921123D01*
X100753160Y-77934232D01*
X101460830Y-78641902D01*
X101473939Y-78652661D01*
X101488806Y-78660607D01*
X101504940Y-78665502D01*
X101521713Y-78667154D01*
X101538486Y-78665502D01*
X101554620Y-78660607D01*
X101569487Y-78652661D01*
X101582596Y-78641902D01*
X101706902Y-78517596D01*
X101717661Y-78504487D01*
X101725607Y-78489620D01*
X101730502Y-78473486D01*
X101732154Y-78456713D01*
X101730502Y-78439940D01*
X101725607Y-78423806D01*
X101717661Y-78408939D01*
X101706902Y-78395830D01*
X100999232Y-77688160D01*
X100986123Y-77677401D01*
X100971256Y-77669455D01*
X100955122Y-77664560D01*
X100938349Y-77662908D01*
X100921576Y-77664560D01*
X100905442Y-77669455D01*
X100890575Y-77677401D01*
X100877466Y-77688160D01*
X100753160Y-77812466D01*
X100742401Y-77825575D01*
X100734455Y-77840442D01*
X100729560Y-77856576D01*
X100727908Y-77873349D01*
X100714806Y-77873349D01*
X100714806Y-77873153D01*
X100716061Y-77860416D01*
X100716137Y-77860032D01*
X100719850Y-77847790D01*
X100720000Y-77847427D01*
X100726035Y-77836137D01*
X100726253Y-77835811D01*
X100735783Y-77824198D01*
X100735915Y-77824053D01*
X100889053Y-77670915D01*
X100889198Y-77670783D01*
X100900811Y-77661253D01*
X100901137Y-77661035D01*
X100912427Y-77655000D01*
X100912790Y-77654850D01*
X100925032Y-77651137D01*
X100925416Y-77651061D01*
X100938153Y-77649806D01*
X100938545Y-77649806D01*
X100951282Y-77651061D01*
G37*
G36*
X105901030Y-77297508D02*
G01*
X105901414Y-77297584D01*
X105913656Y-77301297D01*
X105914019Y-77301447D01*
X105925309Y-77307482D01*
X105925635Y-77307700D01*
X105937248Y-77317230D01*
X105937393Y-77317362D01*
X106090531Y-77470500D01*
X106090663Y-77470645D01*
X106100193Y-77482258D01*
X106100411Y-77482584D01*
X106106446Y-77493874D01*
X106106596Y-77494237D01*
X106110309Y-77506479D01*
X106110385Y-77506863D01*
X106111640Y-77519600D01*
X106111640Y-77519992D01*
X106110385Y-77532729D01*
X106110309Y-77533113D01*
X106106596Y-77545355D01*
X106106446Y-77545718D01*
X106100411Y-77557008D01*
X106100193Y-77557334D01*
X106090663Y-77568947D01*
X106090531Y-77569092D01*
X105354029Y-78305594D01*
X105353884Y-78305726D01*
X105342271Y-78315256D01*
X105341945Y-78315474D01*
X105330655Y-78321509D01*
X105330292Y-78321659D01*
X105318050Y-78325372D01*
X105317666Y-78325448D01*
X105304929Y-78326703D01*
X105304537Y-78326703D01*
X105291800Y-78325448D01*
X105291416Y-78325372D01*
X105279174Y-78321659D01*
X105278811Y-78321509D01*
X105267521Y-78315474D01*
X105267195Y-78315256D01*
X105255582Y-78305726D01*
X105255437Y-78305594D01*
X105102299Y-78152456D01*
X105102167Y-78152311D01*
X105092637Y-78140698D01*
X105092419Y-78140372D01*
X105086384Y-78129082D01*
X105086234Y-78128719D01*
X105082521Y-78116477D01*
X105082445Y-78116093D01*
X105081190Y-78103356D01*
X105081190Y-78103160D01*
X105094292Y-78103160D01*
X105095944Y-78119933D01*
X105100839Y-78136067D01*
X105108785Y-78150934D01*
X105119544Y-78164043D01*
X105243850Y-78288349D01*
X105256959Y-78299108D01*
X105271826Y-78307054D01*
X105287960Y-78311949D01*
X105304733Y-78313601D01*
X105321506Y-78311949D01*
X105337640Y-78307054D01*
X105352507Y-78299108D01*
X105365616Y-78288349D01*
X106073286Y-77580679D01*
X106084045Y-77567570D01*
X106091991Y-77552703D01*
X106096886Y-77536569D01*
X106098538Y-77519796D01*
X106096886Y-77503023D01*
X106091991Y-77486889D01*
X106084045Y-77472022D01*
X106073286Y-77458913D01*
X105948980Y-77334607D01*
X105935871Y-77323848D01*
X105921004Y-77315902D01*
X105904870Y-77311007D01*
X105888097Y-77309355D01*
X105871324Y-77311007D01*
X105855190Y-77315902D01*
X105840323Y-77323848D01*
X105827214Y-77334607D01*
X105119544Y-78042277D01*
X105108785Y-78055386D01*
X105100839Y-78070253D01*
X105095944Y-78086387D01*
X105094292Y-78103160D01*
X105081190Y-78103160D01*
X105081190Y-78102964D01*
X105082445Y-78090227D01*
X105082521Y-78089843D01*
X105086234Y-78077601D01*
X105086384Y-78077238D01*
X105092419Y-78065948D01*
X105092637Y-78065622D01*
X105102167Y-78054009D01*
X105102299Y-78053864D01*
X105838801Y-77317362D01*
X105838946Y-77317230D01*
X105850559Y-77307700D01*
X105850885Y-77307482D01*
X105862175Y-77301447D01*
X105862538Y-77301297D01*
X105874780Y-77297584D01*
X105875164Y-77297508D01*
X105887901Y-77296253D01*
X105888293Y-77296253D01*
X105901030Y-77297508D01*
G37*
G36*
X101304836Y-77297508D02*
G01*
X101305220Y-77297584D01*
X101317462Y-77301297D01*
X101317825Y-77301447D01*
X101329115Y-77307482D01*
X101329441Y-77307700D01*
X101341054Y-77317230D01*
X101341199Y-77317362D01*
X102077701Y-78053864D01*
X102077833Y-78054009D01*
X102087363Y-78065622D01*
X102087581Y-78065948D01*
X102093616Y-78077238D01*
X102093766Y-78077601D01*
X102097479Y-78089843D01*
X102097555Y-78090227D01*
X102098810Y-78102964D01*
X102098810Y-78103356D01*
X102097555Y-78116093D01*
X102097479Y-78116477D01*
X102093766Y-78128719D01*
X102093616Y-78129082D01*
X102087581Y-78140372D01*
X102087363Y-78140698D01*
X102077833Y-78152311D01*
X102077701Y-78152456D01*
X101924563Y-78305594D01*
X101924418Y-78305726D01*
X101912805Y-78315256D01*
X101912479Y-78315474D01*
X101901189Y-78321509D01*
X101900826Y-78321659D01*
X101888584Y-78325372D01*
X101888200Y-78325448D01*
X101875463Y-78326703D01*
X101875071Y-78326703D01*
X101862334Y-78325448D01*
X101861950Y-78325372D01*
X101849708Y-78321659D01*
X101849345Y-78321509D01*
X101838055Y-78315474D01*
X101837729Y-78315256D01*
X101826116Y-78305726D01*
X101825971Y-78305594D01*
X101089469Y-77569092D01*
X101089337Y-77568947D01*
X101079807Y-77557334D01*
X101079589Y-77557008D01*
X101073554Y-77545718D01*
X101073404Y-77545355D01*
X101069691Y-77533113D01*
X101069615Y-77532729D01*
X101068360Y-77519992D01*
X101068360Y-77519796D01*
X101081462Y-77519796D01*
X101083114Y-77536569D01*
X101088009Y-77552703D01*
X101095955Y-77567570D01*
X101106714Y-77580679D01*
X101814384Y-78288349D01*
X101827493Y-78299108D01*
X101842360Y-78307054D01*
X101858494Y-78311949D01*
X101875267Y-78313601D01*
X101892040Y-78311949D01*
X101908174Y-78307054D01*
X101923041Y-78299108D01*
X101936150Y-78288349D01*
X102060456Y-78164043D01*
X102071215Y-78150934D01*
X102079161Y-78136067D01*
X102084056Y-78119933D01*
X102085708Y-78103160D01*
X102084056Y-78086387D01*
X102079161Y-78070253D01*
X102071215Y-78055386D01*
X102060456Y-78042277D01*
X101352786Y-77334607D01*
X101339677Y-77323848D01*
X101324810Y-77315902D01*
X101308676Y-77311007D01*
X101291903Y-77309355D01*
X101275130Y-77311007D01*
X101258996Y-77315902D01*
X101244129Y-77323848D01*
X101231020Y-77334607D01*
X101106714Y-77458913D01*
X101095955Y-77472022D01*
X101088009Y-77486889D01*
X101083114Y-77503023D01*
X101081462Y-77519796D01*
X101068360Y-77519796D01*
X101068360Y-77519600D01*
X101069615Y-77506863D01*
X101069691Y-77506479D01*
X101073404Y-77494237D01*
X101073554Y-77493874D01*
X101079589Y-77482584D01*
X101079807Y-77482258D01*
X101089337Y-77470645D01*
X101089469Y-77470500D01*
X101242607Y-77317362D01*
X101242752Y-77317230D01*
X101254365Y-77307700D01*
X101254691Y-77307482D01*
X101265981Y-77301447D01*
X101266344Y-77301297D01*
X101278586Y-77297584D01*
X101278970Y-77297508D01*
X101291707Y-77296253D01*
X101292099Y-77296253D01*
X101304836Y-77297508D01*
G37*
G36*
X101658389Y-76943954D02*
G01*
X101658773Y-76944030D01*
X101671015Y-76947743D01*
X101671378Y-76947893D01*
X101682668Y-76953928D01*
X101682994Y-76954146D01*
X101694607Y-76963676D01*
X101694752Y-76963808D01*
X102431254Y-77700310D01*
X102431386Y-77700455D01*
X102440916Y-77712068D01*
X102441134Y-77712394D01*
X102447169Y-77723684D01*
X102447319Y-77724047D01*
X102451032Y-77736289D01*
X102451108Y-77736673D01*
X102452363Y-77749410D01*
X102452363Y-77749802D01*
X102451108Y-77762539D01*
X102451032Y-77762923D01*
X102447319Y-77775165D01*
X102447169Y-77775528D01*
X102441134Y-77786818D01*
X102440916Y-77787144D01*
X102431386Y-77798757D01*
X102431254Y-77798902D01*
X102278116Y-77952040D01*
X102277971Y-77952172D01*
X102266358Y-77961702D01*
X102266032Y-77961920D01*
X102254742Y-77967955D01*
X102254379Y-77968105D01*
X102242137Y-77971818D01*
X102241753Y-77971894D01*
X102229016Y-77973149D01*
X102228624Y-77973149D01*
X102215887Y-77971894D01*
X102215503Y-77971818D01*
X102203261Y-77968105D01*
X102202898Y-77967955D01*
X102191608Y-77961920D01*
X102191282Y-77961702D01*
X102179669Y-77952172D01*
X102179524Y-77952040D01*
X101443022Y-77215538D01*
X101442890Y-77215393D01*
X101433360Y-77203780D01*
X101433142Y-77203454D01*
X101427107Y-77192164D01*
X101426957Y-77191801D01*
X101423244Y-77179559D01*
X101423168Y-77179175D01*
X101421913Y-77166438D01*
X101421913Y-77166242D01*
X101435015Y-77166242D01*
X101436667Y-77183015D01*
X101441562Y-77199149D01*
X101449508Y-77214016D01*
X101460267Y-77227125D01*
X102167937Y-77934795D01*
X102181046Y-77945554D01*
X102195913Y-77953500D01*
X102212047Y-77958395D01*
X102228820Y-77960047D01*
X102245593Y-77958395D01*
X102261727Y-77953500D01*
X102276594Y-77945554D01*
X102289703Y-77934795D01*
X102414009Y-77810489D01*
X102424768Y-77797380D01*
X102432714Y-77782513D01*
X102437609Y-77766379D01*
X102439261Y-77749606D01*
X102437609Y-77732833D01*
X102432714Y-77716699D01*
X102424768Y-77701832D01*
X102414009Y-77688723D01*
X101706339Y-76981053D01*
X101693230Y-76970294D01*
X101678363Y-76962348D01*
X101662229Y-76957453D01*
X101645456Y-76955801D01*
X101628683Y-76957453D01*
X101612549Y-76962348D01*
X101597682Y-76970294D01*
X101584573Y-76981053D01*
X101460267Y-77105359D01*
X101449508Y-77118468D01*
X101441562Y-77133335D01*
X101436667Y-77149469D01*
X101435015Y-77166242D01*
X101421913Y-77166242D01*
X101421913Y-77166046D01*
X101423168Y-77153309D01*
X101423244Y-77152925D01*
X101426957Y-77140683D01*
X101427107Y-77140320D01*
X101433142Y-77129030D01*
X101433360Y-77128704D01*
X101442890Y-77117091D01*
X101443022Y-77116946D01*
X101596160Y-76963808D01*
X101596305Y-76963676D01*
X101607918Y-76954146D01*
X101608244Y-76953928D01*
X101619534Y-76947893D01*
X101619897Y-76947743D01*
X101632139Y-76944030D01*
X101632523Y-76943954D01*
X101645260Y-76942699D01*
X101645652Y-76942699D01*
X101658389Y-76943954D01*
G37*
G36*
X105547477Y-76943954D02*
G01*
X105547861Y-76944030D01*
X105560103Y-76947743D01*
X105560466Y-76947893D01*
X105571756Y-76953928D01*
X105572082Y-76954146D01*
X105583695Y-76963676D01*
X105583840Y-76963808D01*
X105736978Y-77116946D01*
X105737110Y-77117091D01*
X105746640Y-77128704D01*
X105746858Y-77129030D01*
X105752893Y-77140320D01*
X105753043Y-77140683D01*
X105756756Y-77152925D01*
X105756832Y-77153309D01*
X105758087Y-77166046D01*
X105758087Y-77166438D01*
X105756832Y-77179175D01*
X105756756Y-77179559D01*
X105753043Y-77191801D01*
X105752893Y-77192164D01*
X105746858Y-77203454D01*
X105746640Y-77203780D01*
X105737110Y-77215393D01*
X105736978Y-77215538D01*
X105000476Y-77952040D01*
X105000331Y-77952172D01*
X104988718Y-77961702D01*
X104988392Y-77961920D01*
X104977102Y-77967955D01*
X104976739Y-77968105D01*
X104964497Y-77971818D01*
X104964113Y-77971894D01*
X104951376Y-77973149D01*
X104950984Y-77973149D01*
X104938247Y-77971894D01*
X104937863Y-77971818D01*
X104925621Y-77968105D01*
X104925258Y-77967955D01*
X104913968Y-77961920D01*
X104913642Y-77961702D01*
X104902029Y-77952172D01*
X104901884Y-77952040D01*
X104748746Y-77798902D01*
X104748614Y-77798757D01*
X104739084Y-77787144D01*
X104738866Y-77786818D01*
X104732831Y-77775528D01*
X104732681Y-77775165D01*
X104728968Y-77762923D01*
X104728892Y-77762539D01*
X104727637Y-77749802D01*
X104727637Y-77749606D01*
X104740739Y-77749606D01*
X104742391Y-77766379D01*
X104747286Y-77782513D01*
X104755232Y-77797380D01*
X104765991Y-77810489D01*
X104890297Y-77934795D01*
X104903406Y-77945554D01*
X104918273Y-77953500D01*
X104934407Y-77958395D01*
X104951180Y-77960047D01*
X104967953Y-77958395D01*
X104984087Y-77953500D01*
X104998954Y-77945554D01*
X105012063Y-77934795D01*
X105719733Y-77227125D01*
X105730492Y-77214016D01*
X105738438Y-77199149D01*
X105743333Y-77183015D01*
X105744985Y-77166242D01*
X105743333Y-77149469D01*
X105738438Y-77133335D01*
X105730492Y-77118468D01*
X105719733Y-77105359D01*
X105595427Y-76981053D01*
X105582318Y-76970294D01*
X105567451Y-76962348D01*
X105551317Y-76957453D01*
X105534544Y-76955801D01*
X105517771Y-76957453D01*
X105501637Y-76962348D01*
X105486770Y-76970294D01*
X105473661Y-76981053D01*
X104765991Y-77688723D01*
X104755232Y-77701832D01*
X104747286Y-77716699D01*
X104742391Y-77732833D01*
X104740739Y-77749606D01*
X104727637Y-77749606D01*
X104727637Y-77749410D01*
X104728892Y-77736673D01*
X104728968Y-77736289D01*
X104732681Y-77724047D01*
X104732831Y-77723684D01*
X104738866Y-77712394D01*
X104739084Y-77712068D01*
X104748614Y-77700455D01*
X104748746Y-77700310D01*
X105485248Y-76963808D01*
X105485393Y-76963676D01*
X105497006Y-76954146D01*
X105497332Y-76953928D01*
X105508622Y-76947893D01*
X105508985Y-76947743D01*
X105521227Y-76944030D01*
X105521611Y-76943954D01*
X105534348Y-76942699D01*
X105534740Y-76942699D01*
X105547477Y-76943954D01*
G37*
G36*
X102011942Y-76590401D02*
G01*
X102012326Y-76590477D01*
X102024568Y-76594190D01*
X102024931Y-76594340D01*
X102036221Y-76600375D01*
X102036547Y-76600593D01*
X102048160Y-76610123D01*
X102048305Y-76610255D01*
X102784807Y-77346757D01*
X102784939Y-77346902D01*
X102794469Y-77358515D01*
X102794687Y-77358841D01*
X102800722Y-77370131D01*
X102800872Y-77370494D01*
X102804585Y-77382736D01*
X102804661Y-77383120D01*
X102805916Y-77395857D01*
X102805916Y-77396249D01*
X102804661Y-77408986D01*
X102804585Y-77409370D01*
X102800872Y-77421612D01*
X102800722Y-77421975D01*
X102794687Y-77433265D01*
X102794469Y-77433591D01*
X102784939Y-77445204D01*
X102784807Y-77445349D01*
X102631669Y-77598487D01*
X102631524Y-77598619D01*
X102619911Y-77608149D01*
X102619585Y-77608367D01*
X102608295Y-77614402D01*
X102607932Y-77614552D01*
X102595690Y-77618265D01*
X102595306Y-77618341D01*
X102582569Y-77619596D01*
X102582177Y-77619596D01*
X102569440Y-77618341D01*
X102569056Y-77618265D01*
X102556814Y-77614552D01*
X102556451Y-77614402D01*
X102545161Y-77608367D01*
X102544835Y-77608149D01*
X102533222Y-77598619D01*
X102533077Y-77598487D01*
X101796575Y-76861985D01*
X101796443Y-76861840D01*
X101786913Y-76850227D01*
X101786695Y-76849901D01*
X101780660Y-76838611D01*
X101780510Y-76838248D01*
X101776797Y-76826006D01*
X101776721Y-76825622D01*
X101775466Y-76812885D01*
X101775466Y-76812689D01*
X101788568Y-76812689D01*
X101790220Y-76829462D01*
X101795115Y-76845596D01*
X101803061Y-76860463D01*
X101813820Y-76873572D01*
X102521490Y-77581242D01*
X102534599Y-77592001D01*
X102549466Y-77599947D01*
X102565600Y-77604842D01*
X102582373Y-77606494D01*
X102599146Y-77604842D01*
X102615280Y-77599947D01*
X102630147Y-77592001D01*
X102643256Y-77581242D01*
X102767562Y-77456936D01*
X102778321Y-77443827D01*
X102786267Y-77428960D01*
X102791162Y-77412826D01*
X102792814Y-77396053D01*
X102791162Y-77379280D01*
X102786267Y-77363146D01*
X102778321Y-77348279D01*
X102767562Y-77335170D01*
X102059892Y-76627500D01*
X102046783Y-76616741D01*
X102031916Y-76608795D01*
X102015782Y-76603900D01*
X101999009Y-76602248D01*
X101982236Y-76603900D01*
X101966102Y-76608795D01*
X101951235Y-76616741D01*
X101938126Y-76627500D01*
X101813820Y-76751806D01*
X101803061Y-76764915D01*
X101795115Y-76779782D01*
X101790220Y-76795916D01*
X101788568Y-76812689D01*
X101775466Y-76812689D01*
X101775466Y-76812493D01*
X101776721Y-76799756D01*
X101776797Y-76799372D01*
X101780510Y-76787130D01*
X101780660Y-76786767D01*
X101786695Y-76775477D01*
X101786913Y-76775151D01*
X101796443Y-76763538D01*
X101796575Y-76763393D01*
X101949713Y-76610255D01*
X101949858Y-76610123D01*
X101961471Y-76600593D01*
X101961797Y-76600375D01*
X101973087Y-76594340D01*
X101973450Y-76594190D01*
X101985692Y-76590477D01*
X101986076Y-76590401D01*
X101998813Y-76589146D01*
X101999205Y-76589146D01*
X102011942Y-76590401D01*
G37*
G36*
X105193924Y-76590401D02*
G01*
X105194308Y-76590477D01*
X105206550Y-76594190D01*
X105206913Y-76594340D01*
X105218203Y-76600375D01*
X105218529Y-76600593D01*
X105230142Y-76610123D01*
X105230287Y-76610255D01*
X105383425Y-76763393D01*
X105383557Y-76763538D01*
X105393087Y-76775151D01*
X105393305Y-76775477D01*
X105399340Y-76786767D01*
X105399490Y-76787130D01*
X105403203Y-76799372D01*
X105403279Y-76799756D01*
X105404534Y-76812493D01*
X105404534Y-76812885D01*
X105403279Y-76825622D01*
X105403203Y-76826006D01*
X105399490Y-76838248D01*
X105399340Y-76838611D01*
X105393305Y-76849901D01*
X105393087Y-76850227D01*
X105383557Y-76861840D01*
X105383425Y-76861985D01*
X104646923Y-77598487D01*
X104646778Y-77598619D01*
X104635165Y-77608149D01*
X104634839Y-77608367D01*
X104623549Y-77614402D01*
X104623186Y-77614552D01*
X104610944Y-77618265D01*
X104610560Y-77618341D01*
X104597823Y-77619596D01*
X104597431Y-77619596D01*
X104584694Y-77618341D01*
X104584310Y-77618265D01*
X104572068Y-77614552D01*
X104571705Y-77614402D01*
X104560415Y-77608367D01*
X104560089Y-77608149D01*
X104548476Y-77598619D01*
X104548331Y-77598487D01*
X104395193Y-77445349D01*
X104395061Y-77445204D01*
X104385531Y-77433591D01*
X104385313Y-77433265D01*
X104379278Y-77421975D01*
X104379128Y-77421612D01*
X104375415Y-77409370D01*
X104375339Y-77408986D01*
X104374084Y-77396249D01*
X104374084Y-77396053D01*
X104387186Y-77396053D01*
X104388838Y-77412826D01*
X104393733Y-77428960D01*
X104401679Y-77443827D01*
X104412438Y-77456936D01*
X104536744Y-77581242D01*
X104549853Y-77592001D01*
X104564720Y-77599947D01*
X104580854Y-77604842D01*
X104597627Y-77606494D01*
X104614400Y-77604842D01*
X104630534Y-77599947D01*
X104645401Y-77592001D01*
X104658510Y-77581242D01*
X105366180Y-76873572D01*
X105376939Y-76860463D01*
X105384885Y-76845596D01*
X105389780Y-76829462D01*
X105391432Y-76812689D01*
X105389780Y-76795916D01*
X105384885Y-76779782D01*
X105376939Y-76764915D01*
X105366180Y-76751806D01*
X105241874Y-76627500D01*
X105228765Y-76616741D01*
X105213898Y-76608795D01*
X105197764Y-76603900D01*
X105180991Y-76602248D01*
X105164218Y-76603900D01*
X105148084Y-76608795D01*
X105133217Y-76616741D01*
X105120108Y-76627500D01*
X104412438Y-77335170D01*
X104401679Y-77348279D01*
X104393733Y-77363146D01*
X104388838Y-77379280D01*
X104387186Y-77396053D01*
X104374084Y-77396053D01*
X104374084Y-77395857D01*
X104375339Y-77383120D01*
X104375415Y-77382736D01*
X104379128Y-77370494D01*
X104379278Y-77370131D01*
X104385313Y-77358841D01*
X104385531Y-77358515D01*
X104395061Y-77346902D01*
X104395193Y-77346757D01*
X105131695Y-76610255D01*
X105131840Y-76610123D01*
X105143453Y-76600593D01*
X105143779Y-76600375D01*
X105155069Y-76594340D01*
X105155432Y-76594190D01*
X105167674Y-76590477D01*
X105168058Y-76590401D01*
X105180795Y-76589146D01*
X105181187Y-76589146D01*
X105193924Y-76590401D01*
G37*
G36*
X104840370Y-76236848D02*
G01*
X104840754Y-76236924D01*
X104852996Y-76240637D01*
X104853359Y-76240787D01*
X104864649Y-76246822D01*
X104864975Y-76247040D01*
X104876588Y-76256570D01*
X104876733Y-76256702D01*
X105029871Y-76409840D01*
X105030003Y-76409985D01*
X105039533Y-76421598D01*
X105039751Y-76421924D01*
X105045786Y-76433214D01*
X105045936Y-76433577D01*
X105049649Y-76445819D01*
X105049725Y-76446203D01*
X105050980Y-76458940D01*
X105050980Y-76459332D01*
X105049725Y-76472069D01*
X105049649Y-76472453D01*
X105045936Y-76484695D01*
X105045786Y-76485058D01*
X105039751Y-76496348D01*
X105039533Y-76496674D01*
X105030003Y-76508287D01*
X105029871Y-76508432D01*
X104293369Y-77244934D01*
X104293224Y-77245066D01*
X104281611Y-77254596D01*
X104281285Y-77254814D01*
X104269995Y-77260849D01*
X104269632Y-77260999D01*
X104257390Y-77264712D01*
X104257006Y-77264788D01*
X104244269Y-77266043D01*
X104243877Y-77266043D01*
X104231140Y-77264788D01*
X104230756Y-77264712D01*
X104218514Y-77260999D01*
X104218151Y-77260849D01*
X104206861Y-77254814D01*
X104206535Y-77254596D01*
X104194922Y-77245066D01*
X104194777Y-77244934D01*
X104041639Y-77091796D01*
X104041507Y-77091651D01*
X104031977Y-77080038D01*
X104031759Y-77079712D01*
X104025724Y-77068422D01*
X104025574Y-77068059D01*
X104021861Y-77055817D01*
X104021785Y-77055433D01*
X104020530Y-77042696D01*
X104020530Y-77042500D01*
X104033632Y-77042500D01*
X104035284Y-77059273D01*
X104040179Y-77075407D01*
X104048125Y-77090274D01*
X104058884Y-77103383D01*
X104183190Y-77227689D01*
X104196299Y-77238448D01*
X104211166Y-77246394D01*
X104227300Y-77251289D01*
X104244073Y-77252941D01*
X104260846Y-77251289D01*
X104276980Y-77246394D01*
X104291847Y-77238448D01*
X104304956Y-77227689D01*
X105012626Y-76520019D01*
X105023385Y-76506910D01*
X105031331Y-76492043D01*
X105036226Y-76475909D01*
X105037878Y-76459136D01*
X105036226Y-76442363D01*
X105031331Y-76426229D01*
X105023385Y-76411362D01*
X105012626Y-76398253D01*
X104888320Y-76273947D01*
X104875211Y-76263188D01*
X104860344Y-76255242D01*
X104844210Y-76250347D01*
X104827437Y-76248695D01*
X104810664Y-76250347D01*
X104794530Y-76255242D01*
X104779663Y-76263188D01*
X104766554Y-76273947D01*
X104058884Y-76981617D01*
X104048125Y-76994726D01*
X104040179Y-77009593D01*
X104035284Y-77025727D01*
X104033632Y-77042500D01*
X104020530Y-77042500D01*
X104020530Y-77042304D01*
X104021785Y-77029567D01*
X104021861Y-77029183D01*
X104025574Y-77016941D01*
X104025724Y-77016578D01*
X104031759Y-77005288D01*
X104031977Y-77004962D01*
X104041507Y-76993349D01*
X104041639Y-76993204D01*
X104778141Y-76256702D01*
X104778286Y-76256570D01*
X104789899Y-76247040D01*
X104790225Y-76246822D01*
X104801515Y-76240787D01*
X104801878Y-76240637D01*
X104814120Y-76236924D01*
X104814504Y-76236848D01*
X104827241Y-76235593D01*
X104827633Y-76235593D01*
X104840370Y-76236848D01*
G37*
G36*
X102365496Y-76236848D02*
G01*
X102365880Y-76236924D01*
X102378122Y-76240637D01*
X102378485Y-76240787D01*
X102389775Y-76246822D01*
X102390101Y-76247040D01*
X102401714Y-76256570D01*
X102401859Y-76256702D01*
X103138361Y-76993204D01*
X103138493Y-76993349D01*
X103148023Y-77004962D01*
X103148241Y-77005288D01*
X103154276Y-77016578D01*
X103154426Y-77016941D01*
X103158139Y-77029183D01*
X103158215Y-77029567D01*
X103159470Y-77042304D01*
X103159470Y-77042696D01*
X103158215Y-77055433D01*
X103158139Y-77055817D01*
X103154426Y-77068059D01*
X103154276Y-77068422D01*
X103148241Y-77079712D01*
X103148023Y-77080038D01*
X103138493Y-77091651D01*
X103138361Y-77091796D01*
X102985223Y-77244934D01*
X102985078Y-77245066D01*
X102973465Y-77254596D01*
X102973139Y-77254814D01*
X102961849Y-77260849D01*
X102961486Y-77260999D01*
X102949244Y-77264712D01*
X102948860Y-77264788D01*
X102936123Y-77266043D01*
X102935731Y-77266043D01*
X102922994Y-77264788D01*
X102922610Y-77264712D01*
X102910368Y-77260999D01*
X102910005Y-77260849D01*
X102898715Y-77254814D01*
X102898389Y-77254596D01*
X102886776Y-77245066D01*
X102886631Y-77244934D01*
X102150129Y-76508432D01*
X102149997Y-76508287D01*
X102140467Y-76496674D01*
X102140249Y-76496348D01*
X102134214Y-76485058D01*
X102134064Y-76484695D01*
X102130351Y-76472453D01*
X102130275Y-76472069D01*
X102129020Y-76459332D01*
X102129020Y-76459136D01*
X102142122Y-76459136D01*
X102143774Y-76475909D01*
X102148669Y-76492043D01*
X102156615Y-76506910D01*
X102167374Y-76520019D01*
X102875044Y-77227689D01*
X102888153Y-77238448D01*
X102903020Y-77246394D01*
X102919154Y-77251289D01*
X102935927Y-77252941D01*
X102952700Y-77251289D01*
X102968834Y-77246394D01*
X102983701Y-77238448D01*
X102996810Y-77227689D01*
X103121116Y-77103383D01*
X103131875Y-77090274D01*
X103139821Y-77075407D01*
X103144716Y-77059273D01*
X103146368Y-77042500D01*
X103144716Y-77025727D01*
X103139821Y-77009593D01*
X103131875Y-76994726D01*
X103121116Y-76981617D01*
X102413446Y-76273947D01*
X102400337Y-76263188D01*
X102385470Y-76255242D01*
X102369336Y-76250347D01*
X102352563Y-76248695D01*
X102335790Y-76250347D01*
X102319656Y-76255242D01*
X102304789Y-76263188D01*
X102291680Y-76273947D01*
X102167374Y-76398253D01*
X102156615Y-76411362D01*
X102148669Y-76426229D01*
X102143774Y-76442363D01*
X102142122Y-76459136D01*
X102129020Y-76459136D01*
X102129020Y-76458940D01*
X102130275Y-76446203D01*
X102130351Y-76445819D01*
X102134064Y-76433577D01*
X102134214Y-76433214D01*
X102140249Y-76421924D01*
X102140467Y-76421598D01*
X102149997Y-76409985D01*
X102150129Y-76409840D01*
X102303267Y-76256702D01*
X102303412Y-76256570D01*
X102315025Y-76247040D01*
X102315351Y-76246822D01*
X102326641Y-76240787D01*
X102327004Y-76240637D01*
X102339246Y-76236924D01*
X102339630Y-76236848D01*
X102352367Y-76235593D01*
X102352759Y-76235593D01*
X102365496Y-76236848D01*
G37*
G36*
X102719049Y-75883294D02*
G01*
X102719433Y-75883370D01*
X102731675Y-75887083D01*
X102732038Y-75887233D01*
X102743328Y-75893268D01*
X102743654Y-75893486D01*
X102755267Y-75903016D01*
X102755412Y-75903148D01*
X103491914Y-76639650D01*
X103492046Y-76639795D01*
X103501576Y-76651408D01*
X103501794Y-76651734D01*
X103507829Y-76663024D01*
X103507979Y-76663387D01*
X103511692Y-76675629D01*
X103511768Y-76676013D01*
X103513023Y-76688750D01*
X103513023Y-76689142D01*
X103511768Y-76701879D01*
X103511692Y-76702263D01*
X103507979Y-76714505D01*
X103507829Y-76714868D01*
X103501794Y-76726158D01*
X103501576Y-76726484D01*
X103492046Y-76738097D01*
X103491914Y-76738242D01*
X103338776Y-76891380D01*
X103338631Y-76891512D01*
X103327018Y-76901042D01*
X103326692Y-76901260D01*
X103315402Y-76907295D01*
X103315039Y-76907445D01*
X103302797Y-76911158D01*
X103302413Y-76911234D01*
X103289676Y-76912489D01*
X103289284Y-76912489D01*
X103276547Y-76911234D01*
X103276163Y-76911158D01*
X103263921Y-76907445D01*
X103263558Y-76907295D01*
X103252268Y-76901260D01*
X103251942Y-76901042D01*
X103240329Y-76891512D01*
X103240184Y-76891380D01*
X102503682Y-76154878D01*
X102503550Y-76154733D01*
X102494020Y-76143120D01*
X102493802Y-76142794D01*
X102487767Y-76131504D01*
X102487617Y-76131141D01*
X102483904Y-76118899D01*
X102483828Y-76118515D01*
X102482573Y-76105778D01*
X102482573Y-76105582D01*
X102495675Y-76105582D01*
X102497327Y-76122355D01*
X102502222Y-76138489D01*
X102510168Y-76153356D01*
X102520927Y-76166465D01*
X103228597Y-76874135D01*
X103241706Y-76884894D01*
X103256573Y-76892840D01*
X103272707Y-76897735D01*
X103289480Y-76899387D01*
X103306253Y-76897735D01*
X103322387Y-76892840D01*
X103337254Y-76884894D01*
X103350363Y-76874135D01*
X103474669Y-76749829D01*
X103485428Y-76736720D01*
X103493374Y-76721853D01*
X103498269Y-76705719D01*
X103499921Y-76688946D01*
X103498269Y-76672173D01*
X103493374Y-76656039D01*
X103485428Y-76641172D01*
X103474669Y-76628063D01*
X102766999Y-75920393D01*
X102753890Y-75909634D01*
X102739023Y-75901688D01*
X102722889Y-75896793D01*
X102706116Y-75895141D01*
X102689343Y-75896793D01*
X102673209Y-75901688D01*
X102658342Y-75909634D01*
X102645233Y-75920393D01*
X102520927Y-76044699D01*
X102510168Y-76057808D01*
X102502222Y-76072675D01*
X102497327Y-76088809D01*
X102495675Y-76105582D01*
X102482573Y-76105582D01*
X102482573Y-76105386D01*
X102483828Y-76092649D01*
X102483904Y-76092265D01*
X102487617Y-76080023D01*
X102487767Y-76079660D01*
X102493802Y-76068370D01*
X102494020Y-76068044D01*
X102503550Y-76056431D01*
X102503682Y-76056286D01*
X102656820Y-75903148D01*
X102656965Y-75903016D01*
X102668578Y-75893486D01*
X102668904Y-75893268D01*
X102680194Y-75887233D01*
X102680557Y-75887083D01*
X102692799Y-75883370D01*
X102693183Y-75883294D01*
X102705920Y-75882039D01*
X102706312Y-75882039D01*
X102719049Y-75883294D01*
G37*
G36*
X104486817Y-75883294D02*
G01*
X104487201Y-75883370D01*
X104499443Y-75887083D01*
X104499806Y-75887233D01*
X104511096Y-75893268D01*
X104511422Y-75893486D01*
X104523035Y-75903016D01*
X104523180Y-75903148D01*
X104676318Y-76056286D01*
X104676450Y-76056431D01*
X104685980Y-76068044D01*
X104686198Y-76068370D01*
X104692233Y-76079660D01*
X104692383Y-76080023D01*
X104696096Y-76092265D01*
X104696172Y-76092649D01*
X104697427Y-76105386D01*
X104697427Y-76105778D01*
X104696172Y-76118515D01*
X104696096Y-76118899D01*
X104692383Y-76131141D01*
X104692233Y-76131504D01*
X104686198Y-76142794D01*
X104685980Y-76143120D01*
X104676450Y-76154733D01*
X104676318Y-76154878D01*
X103939816Y-76891380D01*
X103939671Y-76891512D01*
X103928058Y-76901042D01*
X103927732Y-76901260D01*
X103916442Y-76907295D01*
X103916079Y-76907445D01*
X103903837Y-76911158D01*
X103903453Y-76911234D01*
X103890716Y-76912489D01*
X103890324Y-76912489D01*
X103877587Y-76911234D01*
X103877203Y-76911158D01*
X103864961Y-76907445D01*
X103864598Y-76907295D01*
X103853308Y-76901260D01*
X103852982Y-76901042D01*
X103841369Y-76891512D01*
X103841224Y-76891380D01*
X103688086Y-76738242D01*
X103687954Y-76738097D01*
X103678424Y-76726484D01*
X103678206Y-76726158D01*
X103672171Y-76714868D01*
X103672021Y-76714505D01*
X103668308Y-76702263D01*
X103668232Y-76701879D01*
X103666977Y-76689142D01*
X103666977Y-76688946D01*
X103680079Y-76688946D01*
X103681731Y-76705719D01*
X103686626Y-76721853D01*
X103694572Y-76736720D01*
X103705331Y-76749829D01*
X103829637Y-76874135D01*
X103842746Y-76884894D01*
X103857613Y-76892840D01*
X103873747Y-76897735D01*
X103890520Y-76899387D01*
X103907293Y-76897735D01*
X103923427Y-76892840D01*
X103938294Y-76884894D01*
X103951403Y-76874135D01*
X104659073Y-76166465D01*
X104669832Y-76153356D01*
X104677778Y-76138489D01*
X104682673Y-76122355D01*
X104684325Y-76105582D01*
X104682673Y-76088809D01*
X104677778Y-76072675D01*
X104669832Y-76057808D01*
X104659073Y-76044699D01*
X104534767Y-75920393D01*
X104521658Y-75909634D01*
X104506791Y-75901688D01*
X104490657Y-75896793D01*
X104473884Y-75895141D01*
X104457111Y-75896793D01*
X104440977Y-75901688D01*
X104426110Y-75909634D01*
X104413001Y-75920393D01*
X103705331Y-76628063D01*
X103694572Y-76641172D01*
X103686626Y-76656039D01*
X103681731Y-76672173D01*
X103680079Y-76688946D01*
X103666977Y-76688946D01*
X103666977Y-76688750D01*
X103668232Y-76676013D01*
X103668308Y-76675629D01*
X103672021Y-76663387D01*
X103672171Y-76663024D01*
X103678206Y-76651734D01*
X103678424Y-76651408D01*
X103687954Y-76639795D01*
X103688086Y-76639650D01*
X104424588Y-75903148D01*
X104424733Y-75903016D01*
X104436346Y-75893486D01*
X104436672Y-75893268D01*
X104447962Y-75887233D01*
X104448325Y-75887083D01*
X104460567Y-75883370D01*
X104460951Y-75883294D01*
X104473688Y-75882039D01*
X104474080Y-75882039D01*
X104486817Y-75883294D01*
G37*
G36*
X100800732Y-63843000D02*
G01*
X100801000Y-63844000D01*
X100801000Y-65396000D01*
X100800000Y-65397732D01*
X100799000Y-65398000D01*
X100726000Y-65398000D01*
X100724268Y-65397000D01*
X100724000Y-65396000D01*
X100724000Y-63844000D01*
X100725000Y-63842268D01*
X100726000Y-63842000D01*
X100799000Y-63842000D01*
X100800732Y-63843000D01*
G37*
G36*
X106475732Y-63843000D02*
G01*
X106476000Y-63844000D01*
X106476000Y-65396000D01*
X106475000Y-65397732D01*
X106474000Y-65398000D01*
X106401000Y-65398000D01*
X106399268Y-65397000D01*
X106399000Y-65396000D01*
X106399000Y-63844000D01*
X106400000Y-63842268D01*
X106401000Y-63842000D01*
X106474000Y-63842000D01*
X106475732Y-63843000D01*
G37*
M02*
