%FSLAX45Y45*%
G04 Gerber Fmt 4.5, Leading zero omitted, Abs format (unit mm)*
G04 Created by KiCad (PCBNEW (5.1.10)-1) date 2021-09-15 22:42:11*
%MOMM*%
%LPD*%
G01*
G04 APERTURE LIST*
%TA.AperFunction,Profile*%
%ADD10C,0.050000*%
%TD*%
%ADD11C,0.200000*%
%ADD12C,0.300000*%
G04 APERTURE END LIST*
D10*
X11429000Y-10802500D02*
G75*
G02*
X11379000Y-10852500I-50000J0D01*
G01*
X9349000Y-10852500D02*
G75*
G02*
X9299000Y-10802500I0J50000D01*
G01*
X9299000Y-5772500D02*
G75*
G02*
X9349000Y-5722500I50000J0D01*
G01*
X11379000Y-5722500D02*
G75*
G02*
X11429000Y-5772500I0J-50000D01*
G01*
X11429000Y-10802500D02*
X11429000Y-5772500D01*
X9349000Y-5722500D02*
X11379000Y-5722500D01*
X9299000Y-10802500D02*
X9299000Y-5772500D01*
X9349000Y-10852500D02*
X11379000Y-10852500D01*
D11*
X9759000Y-9256100D02*
X9779000Y-9276100D01*
X9779000Y-9256100D02*
X9759000Y-9276100D01*
X9873100Y-7350800D02*
X9893100Y-7370800D01*
X9893100Y-7350800D02*
X9873100Y-7370800D01*
X9932800Y-8244400D02*
X9952800Y-8264400D01*
X9952800Y-8244400D02*
X9932800Y-8264400D01*
X9953001Y-8805500D02*
X9973001Y-8825500D01*
X9973001Y-8805500D02*
X9953001Y-8825500D01*
X9953003Y-8903497D02*
X9973003Y-8923497D01*
X9973003Y-8903497D02*
X9953003Y-8923497D01*
X9961841Y-8423359D02*
X9981841Y-8443359D01*
X9981841Y-8423359D02*
X9961841Y-8443359D01*
X9966393Y-8354100D02*
X9986393Y-8374100D01*
X9986393Y-8354100D02*
X9966393Y-8374100D01*
X9994129Y-7751271D02*
X10014129Y-7771271D01*
X10014129Y-7751271D02*
X9994129Y-7771271D01*
X10088300Y-7670500D02*
X10108300Y-7690500D01*
X10108300Y-7670500D02*
X10088300Y-7690500D01*
X10132400Y-7501600D02*
X10152400Y-7521600D01*
X10152400Y-7501600D02*
X10132400Y-7521600D01*
X10135400Y-7631200D02*
X10155400Y-7651200D01*
X10155400Y-7631200D02*
X10135400Y-7651200D01*
X10148500Y-7348600D02*
X10168500Y-7368600D01*
X10168500Y-7348600D02*
X10148500Y-7368600D01*
X10168800Y-7419000D02*
X10188800Y-7439000D01*
X10188800Y-7419000D02*
X10168800Y-7439000D01*
X10174000Y-9312500D02*
X10194000Y-9332500D01*
X10194000Y-9312500D02*
X10174000Y-9332500D01*
X10188500Y-7600000D02*
X10208500Y-7620000D01*
X10208500Y-7600000D02*
X10188500Y-7620000D01*
X10251500Y-7347000D02*
X10271500Y-7367000D01*
X10271500Y-7347000D02*
X10251500Y-7367000D01*
X10274999Y-6296700D02*
X10294999Y-6316700D01*
X10294999Y-6296700D02*
X10274999Y-6316700D01*
X10292200Y-9205000D02*
X10312200Y-9225000D01*
X10312200Y-9205000D02*
X10292200Y-9225000D01*
X10324594Y-6335266D02*
X10344594Y-6355266D01*
X10344594Y-6335266D02*
X10324594Y-6355266D01*
X10330800Y-7547400D02*
X10350800Y-7567400D01*
X10350800Y-7547400D02*
X10330800Y-7567400D01*
X10351000Y-8492500D02*
X10371000Y-8512500D01*
X10371000Y-8492500D02*
X10351000Y-8512500D01*
X10374750Y-6295430D02*
X10394750Y-6315430D01*
X10394750Y-6295430D02*
X10374750Y-6315430D01*
X10426639Y-6334227D02*
X10446639Y-6354227D01*
X10446639Y-6334227D02*
X10426639Y-6354227D01*
X10490073Y-7547873D02*
X10510073Y-7567873D01*
X10510073Y-7547873D02*
X10490073Y-7567873D01*
X10498698Y-8542903D02*
X10518698Y-8562903D01*
X10518698Y-8542903D02*
X10498698Y-8562903D01*
X10574258Y-7602142D02*
X10594258Y-7622142D01*
X10594258Y-7602142D02*
X10574258Y-7622142D01*
X10595000Y-6452000D02*
X10615000Y-6472000D01*
X10615000Y-6452000D02*
X10595000Y-6472000D01*
X10595900Y-8696700D02*
X10615900Y-8716700D01*
X10615900Y-8696700D02*
X10595900Y-8716700D01*
X10684000Y-9472500D02*
X10704000Y-9492500D01*
X10704000Y-9472500D02*
X10684000Y-9492500D01*
X10708100Y-7449900D02*
X10728100Y-7469900D01*
X10728100Y-7449900D02*
X10708100Y-7469900D01*
X10774000Y-9762500D02*
X10794000Y-9782500D01*
X10794000Y-9762500D02*
X10774000Y-9782500D01*
X10804010Y-7870230D02*
X10824010Y-7890230D01*
X10824010Y-7870230D02*
X10804010Y-7890230D01*
X10834100Y-8019700D02*
X10854100Y-8039700D01*
X10854100Y-8019700D02*
X10834100Y-8039700D01*
X10908100Y-8121300D02*
X10928100Y-8141300D01*
X10928100Y-8121300D02*
X10908100Y-8141300D01*
X10978000Y-7008500D02*
X10998000Y-7028500D01*
X10998000Y-7008500D02*
X10978000Y-7028500D01*
X9725700Y-7621300D02*
G75*
G03*
X9725700Y-7621300I-17500J0D01*
G01*
X9786500Y-7690500D02*
G75*
G03*
X9786500Y-7690500I-17500J0D01*
G01*
X9846500Y-7630500D02*
G75*
G03*
X9846500Y-7630500I-17500J0D01*
G01*
X9849800Y-8199000D02*
G75*
G03*
X9849800Y-8199000I-17500J0D01*
G01*
X9913300Y-9627750D02*
G75*
G03*
X9913300Y-9627750I-17500J0D01*
G01*
X10008550Y-6859150D02*
G75*
G03*
X10008550Y-6859150I-17500J0D01*
G01*
X10116500Y-10000500D02*
G75*
G03*
X10116500Y-10000500I-17500J0D01*
G01*
X10294300Y-9989700D02*
G75*
G03*
X10294300Y-9989700I-17500J0D01*
G01*
X10350500Y-8815504D02*
G75*
G03*
X10350500Y-8815504I-17500J0D01*
G01*
X10389550Y-7011550D02*
G75*
G03*
X10389550Y-7011550I-17500J0D01*
G01*
X10511500Y-9622500D02*
G75*
G03*
X10511500Y-9622500I-17500J0D01*
G01*
X10666500Y-10020500D02*
G75*
G03*
X10666500Y-10020500I-17500J0D01*
G01*
X10884850Y-7576700D02*
G75*
G03*
X10884850Y-7576700I-17500J0D01*
G01*
X11043600Y-10002400D02*
G75*
G03*
X11043600Y-10002400I-17500J0D01*
G01*
X9928000Y-5922500D02*
X9928000Y-5982500D01*
X9898000Y-5952500D02*
X9958000Y-5952500D01*
X9948000Y-5982500D02*
X9948000Y-5922500D01*
X9908000Y-5982500D02*
X9908000Y-5922500D01*
X9948000Y-5922500D02*
G75*
G03*
X9908000Y-5922500I-20000J0D01*
G01*
X9908000Y-5982500D02*
G75*
G03*
X9948000Y-5982500I20000J0D01*
G01*
X9928000Y-6340500D02*
X9928000Y-6400500D01*
X9898000Y-6370500D02*
X9958000Y-6370500D01*
X9948000Y-6425500D02*
X9948000Y-6315500D01*
X9908000Y-6425500D02*
X9908000Y-6315500D01*
X9948000Y-6315500D02*
G75*
G03*
X9908000Y-6315500I-20000J0D01*
G01*
X9908000Y-6425500D02*
G75*
G03*
X9948000Y-6425500I20000J0D01*
G01*
X10792000Y-5922500D02*
X10792000Y-5982500D01*
X10762000Y-5952500D02*
X10822000Y-5952500D01*
X10812000Y-5982500D02*
X10812000Y-5922500D01*
X10772000Y-5982500D02*
X10772000Y-5922500D01*
X10812000Y-5922500D02*
G75*
G03*
X10772000Y-5922500I-20000J0D01*
G01*
X10772000Y-5982500D02*
G75*
G03*
X10812000Y-5982500I20000J0D01*
G01*
X10792000Y-6340500D02*
X10792000Y-6400500D01*
X10762000Y-6370500D02*
X10822000Y-6370500D01*
X10812000Y-6425500D02*
X10812000Y-6315500D01*
X10772000Y-6425500D02*
X10772000Y-6315500D01*
X10812000Y-6315500D02*
G75*
G03*
X10772000Y-6315500I-20000J0D01*
G01*
X10772000Y-6425500D02*
G75*
G03*
X10812000Y-6425500I20000J0D01*
G01*
X9339356Y-9209856D02*
X9339356Y-9139144D01*
X9268644Y-9139144D01*
X9268644Y-9209856D01*
X9339356Y-9209856D01*
X9340356Y-5907856D02*
X9340356Y-5837144D01*
X9269644Y-5837144D01*
X9269644Y-5907856D01*
X9340356Y-5907856D01*
X9340356Y-6160856D02*
X9340356Y-6090144D01*
X9269644Y-6090144D01*
X9269644Y-6160856D01*
X9340356Y-6160856D01*
X9340356Y-6415856D02*
X9340356Y-6345144D01*
X9269644Y-6345144D01*
X9269644Y-6415856D01*
X9340356Y-6415856D01*
X9340356Y-6668856D02*
X9340356Y-6598144D01*
X9269644Y-6598144D01*
X9269644Y-6668856D01*
X9340356Y-6668856D01*
X9340356Y-6923856D02*
X9340356Y-6853144D01*
X9269644Y-6853144D01*
X9269644Y-6923856D01*
X9340356Y-6923856D01*
X9340356Y-7177856D02*
X9340356Y-7107144D01*
X9269644Y-7107144D01*
X9269644Y-7177856D01*
X9340356Y-7177856D01*
X9340356Y-7431856D02*
X9340356Y-7361144D01*
X9269644Y-7361144D01*
X9269644Y-7431856D01*
X9340356Y-7431856D01*
X9340356Y-7685856D02*
X9340356Y-7615144D01*
X9269644Y-7615144D01*
X9269644Y-7685856D01*
X9340356Y-7685856D01*
X9340356Y-8193856D02*
X9340356Y-8123144D01*
X9269644Y-8123144D01*
X9269644Y-8193856D01*
X9340356Y-8193856D01*
X9340356Y-8447856D02*
X9340356Y-8377144D01*
X9269644Y-8377144D01*
X9269644Y-8447856D01*
X9340356Y-8447856D01*
X9340356Y-8701856D02*
X9340356Y-8631144D01*
X9269644Y-8631144D01*
X9269644Y-8701856D01*
X9340356Y-8701856D01*
X9340356Y-8955856D02*
X9340356Y-8885144D01*
X9269644Y-8885144D01*
X9269644Y-8955856D01*
X9340356Y-8955856D01*
X9340356Y-9463856D02*
X9340356Y-9393144D01*
X9269644Y-9393144D01*
X9269644Y-9463856D01*
X9340356Y-9463856D01*
X9340356Y-9717856D02*
X9340356Y-9647144D01*
X9269644Y-9647144D01*
X9269644Y-9717856D01*
X9340356Y-9717856D01*
X9340356Y-9971856D02*
X9340356Y-9901144D01*
X9269644Y-9901144D01*
X9269644Y-9971856D01*
X9340356Y-9971856D01*
X9340356Y-10225856D02*
X9340356Y-10155144D01*
X9269644Y-10155144D01*
X9269644Y-10225856D01*
X9340356Y-10225856D01*
X9340356Y-10479856D02*
X9340356Y-10409144D01*
X9269644Y-10409144D01*
X9269644Y-10479856D01*
X9340356Y-10479856D01*
X9340356Y-10733856D02*
X9340356Y-10663144D01*
X9269644Y-10663144D01*
X9269644Y-10733856D01*
X9340356Y-10733856D01*
X9341356Y-7939856D02*
X9341356Y-7869144D01*
X9270644Y-7869144D01*
X9270644Y-7939856D01*
X9341356Y-7939856D01*
X9510356Y-5907856D02*
X9510356Y-5837144D01*
X9439644Y-5837144D01*
X9439644Y-5907856D01*
X9510356Y-5907856D01*
X9510356Y-6161856D02*
X9510356Y-6091144D01*
X9439644Y-6091144D01*
X9439644Y-6161856D01*
X9510356Y-6161856D01*
X9510356Y-6415856D02*
X9510356Y-6345144D01*
X9439644Y-6345144D01*
X9439644Y-6415856D01*
X9510356Y-6415856D01*
X9510356Y-6669856D02*
X9510356Y-6599144D01*
X9439644Y-6599144D01*
X9439644Y-6669856D01*
X9510356Y-6669856D01*
X9510356Y-6923856D02*
X9510356Y-6853144D01*
X9439644Y-6853144D01*
X9439644Y-6923856D01*
X9510356Y-6923856D01*
X9510356Y-7177856D02*
X9510356Y-7107144D01*
X9439644Y-7107144D01*
X9439644Y-7177856D01*
X9510356Y-7177856D01*
X9510356Y-7431856D02*
X9510356Y-7361144D01*
X9439644Y-7361144D01*
X9439644Y-7431856D01*
X9510356Y-7431856D01*
X9510356Y-7685856D02*
X9510356Y-7615144D01*
X9439644Y-7615144D01*
X9439644Y-7685856D01*
X9510356Y-7685856D01*
X9510356Y-7939856D02*
X9510356Y-7869144D01*
X9439644Y-7869144D01*
X9439644Y-7939856D01*
X9510356Y-7939856D01*
X9510356Y-8193856D02*
X9510356Y-8123144D01*
X9439644Y-8123144D01*
X9439644Y-8193856D01*
X9510356Y-8193856D01*
X9510356Y-8447856D02*
X9510356Y-8377144D01*
X9439644Y-8377144D01*
X9439644Y-8447856D01*
X9510356Y-8447856D01*
X9510356Y-8701856D02*
X9510356Y-8631144D01*
X9439644Y-8631144D01*
X9439644Y-8701856D01*
X9510356Y-8701856D01*
X9510356Y-8955856D02*
X9510356Y-8885144D01*
X9439644Y-8885144D01*
X9439644Y-8955856D01*
X9510356Y-8955856D01*
X9510356Y-9209856D02*
X9510356Y-9139144D01*
X9439644Y-9139144D01*
X9439644Y-9209856D01*
X9510356Y-9209856D01*
X9510356Y-9463856D02*
X9510356Y-9393144D01*
X9439644Y-9393144D01*
X9439644Y-9463856D01*
X9510356Y-9463856D01*
X9510356Y-9717856D02*
X9510356Y-9647144D01*
X9439644Y-9647144D01*
X9439644Y-9717856D01*
X9510356Y-9717856D01*
X9510356Y-9971856D02*
X9510356Y-9901144D01*
X9439644Y-9901144D01*
X9439644Y-9971856D01*
X9510356Y-9971856D01*
X9510356Y-10225856D02*
X9510356Y-10155144D01*
X9439644Y-10155144D01*
X9439644Y-10225856D01*
X9510356Y-10225856D01*
X9510356Y-10479856D02*
X9510356Y-10409144D01*
X9439644Y-10409144D01*
X9439644Y-10479856D01*
X9510356Y-10479856D01*
X9510356Y-10733856D02*
X9510356Y-10663144D01*
X9439644Y-10663144D01*
X9439644Y-10733856D01*
X9510356Y-10733856D01*
X10146356Y-10417856D02*
X10146356Y-10347144D01*
X10075644Y-10347144D01*
X10075644Y-10417856D01*
X10146356Y-10417856D01*
X10146356Y-10671856D02*
X10146356Y-10601144D01*
X10075644Y-10601144D01*
X10075644Y-10671856D01*
X10146356Y-10671856D01*
X10400356Y-10417856D02*
X10400356Y-10347144D01*
X10329644Y-10347144D01*
X10329644Y-10417856D01*
X10400356Y-10417856D01*
X10400356Y-10671856D02*
X10400356Y-10601144D01*
X10329644Y-10601144D01*
X10329644Y-10671856D01*
X10400356Y-10671856D01*
X10654356Y-10417856D02*
X10654356Y-10347144D01*
X10583644Y-10347144D01*
X10583644Y-10417856D01*
X10654356Y-10417856D01*
X10654356Y-10671856D02*
X10654356Y-10601144D01*
X10583644Y-10601144D01*
X10583644Y-10671856D01*
X10654356Y-10671856D01*
X11290356Y-5907856D02*
X11290356Y-5837144D01*
X11219644Y-5837144D01*
X11219644Y-5907856D01*
X11290356Y-5907856D01*
X11290356Y-6161856D02*
X11290356Y-6091144D01*
X11219644Y-6091144D01*
X11219644Y-6161856D01*
X11290356Y-6161856D01*
X11290356Y-6415856D02*
X11290356Y-6345144D01*
X11219644Y-6345144D01*
X11219644Y-6415856D01*
X11290356Y-6415856D01*
X11290356Y-6669856D02*
X11290356Y-6599144D01*
X11219644Y-6599144D01*
X11219644Y-6669856D01*
X11290356Y-6669856D01*
X11290356Y-6923856D02*
X11290356Y-6853144D01*
X11219644Y-6853144D01*
X11219644Y-6923856D01*
X11290356Y-6923856D01*
X11290356Y-7177856D02*
X11290356Y-7107144D01*
X11219644Y-7107144D01*
X11219644Y-7177856D01*
X11290356Y-7177856D01*
X11290356Y-7431856D02*
X11290356Y-7361144D01*
X11219644Y-7361144D01*
X11219644Y-7431856D01*
X11290356Y-7431856D01*
X11290356Y-7685856D02*
X11290356Y-7615144D01*
X11219644Y-7615144D01*
X11219644Y-7685856D01*
X11290356Y-7685856D01*
X11290356Y-7939856D02*
X11290356Y-7869144D01*
X11219644Y-7869144D01*
X11219644Y-7939856D01*
X11290356Y-7939856D01*
X11290356Y-8193856D02*
X11290356Y-8123144D01*
X11219644Y-8123144D01*
X11219644Y-8193856D01*
X11290356Y-8193856D01*
X11290356Y-8447856D02*
X11290356Y-8377144D01*
X11219644Y-8377144D01*
X11219644Y-8447856D01*
X11290356Y-8447856D01*
X11290356Y-8701856D02*
X11290356Y-8631144D01*
X11219644Y-8631144D01*
X11219644Y-8701856D01*
X11290356Y-8701856D01*
X11290356Y-8955856D02*
X11290356Y-8885144D01*
X11219644Y-8885144D01*
X11219644Y-8955856D01*
X11290356Y-8955856D01*
X11290356Y-9209856D02*
X11290356Y-9139144D01*
X11219644Y-9139144D01*
X11219644Y-9209856D01*
X11290356Y-9209856D01*
X11290356Y-9463856D02*
X11290356Y-9393144D01*
X11219644Y-9393144D01*
X11219644Y-9463856D01*
X11290356Y-9463856D01*
X11290356Y-9717856D02*
X11290356Y-9647144D01*
X11219644Y-9647144D01*
X11219644Y-9717856D01*
X11290356Y-9717856D01*
X11290356Y-9971856D02*
X11290356Y-9901144D01*
X11219644Y-9901144D01*
X11219644Y-9971856D01*
X11290356Y-9971856D01*
X11290356Y-10225856D02*
X11290356Y-10155144D01*
X11219644Y-10155144D01*
X11219644Y-10225856D01*
X11290356Y-10225856D01*
X11290356Y-10479856D02*
X11290356Y-10409144D01*
X11219644Y-10409144D01*
X11219644Y-10479856D01*
X11290356Y-10479856D01*
X11290356Y-10733856D02*
X11290356Y-10663144D01*
X11219644Y-10663144D01*
X11219644Y-10733856D01*
X11290356Y-10733856D01*
X11460356Y-5907856D02*
X11460356Y-5837144D01*
X11389644Y-5837144D01*
X11389644Y-5907856D01*
X11460356Y-5907856D01*
X11460356Y-6161856D02*
X11460356Y-6091144D01*
X11389644Y-6091144D01*
X11389644Y-6161856D01*
X11460356Y-6161856D01*
X11460356Y-6415856D02*
X11460356Y-6345144D01*
X11389644Y-6345144D01*
X11389644Y-6415856D01*
X11460356Y-6415856D01*
X11460356Y-6669856D02*
X11460356Y-6599144D01*
X11389644Y-6599144D01*
X11389644Y-6669856D01*
X11460356Y-6669856D01*
X11460356Y-6923856D02*
X11460356Y-6853144D01*
X11389644Y-6853144D01*
X11389644Y-6923856D01*
X11460356Y-6923856D01*
X11460356Y-7177856D02*
X11460356Y-7107144D01*
X11389644Y-7107144D01*
X11389644Y-7177856D01*
X11460356Y-7177856D01*
X11460356Y-7431856D02*
X11460356Y-7361144D01*
X11389644Y-7361144D01*
X11389644Y-7431856D01*
X11460356Y-7431856D01*
X11460356Y-7685856D02*
X11460356Y-7615144D01*
X11389644Y-7615144D01*
X11389644Y-7685856D01*
X11460356Y-7685856D01*
X11460356Y-7939856D02*
X11460356Y-7869144D01*
X11389644Y-7869144D01*
X11389644Y-7939856D01*
X11460356Y-7939856D01*
X11460356Y-8193856D02*
X11460356Y-8123144D01*
X11389644Y-8123144D01*
X11389644Y-8193856D01*
X11460356Y-8193856D01*
X11460356Y-8447856D02*
X11460356Y-8377144D01*
X11389644Y-8377144D01*
X11389644Y-8447856D01*
X11460356Y-8447856D01*
X11460356Y-8701856D02*
X11460356Y-8631144D01*
X11389644Y-8631144D01*
X11389644Y-8701856D01*
X11460356Y-8701856D01*
X11460356Y-8955856D02*
X11460356Y-8885144D01*
X11389644Y-8885144D01*
X11389644Y-8955856D01*
X11460356Y-8955856D01*
X11460356Y-9209856D02*
X11460356Y-9139144D01*
X11389644Y-9139144D01*
X11389644Y-9209856D01*
X11460356Y-9209856D01*
X11460356Y-9463856D02*
X11460356Y-9393144D01*
X11389644Y-9393144D01*
X11389644Y-9463856D01*
X11460356Y-9463856D01*
X11460356Y-9717856D02*
X11460356Y-9647144D01*
X11389644Y-9647144D01*
X11389644Y-9717856D01*
X11460356Y-9717856D01*
X11460356Y-9971856D02*
X11460356Y-9901144D01*
X11389644Y-9901144D01*
X11389644Y-9971856D01*
X11460356Y-9971856D01*
X11460356Y-10225856D02*
X11460356Y-10155144D01*
X11389644Y-10155144D01*
X11389644Y-10225856D01*
X11460356Y-10225856D01*
X11460356Y-10479856D02*
X11460356Y-10409144D01*
X11389644Y-10409144D01*
X11389644Y-10479856D01*
X11460356Y-10479856D01*
X11460356Y-10733856D02*
X11460356Y-10663144D01*
X11389644Y-10663144D01*
X11389644Y-10733856D01*
X11460356Y-10733856D01*
D12*
X9582928Y-11320714D02*
X9582928Y-11020714D01*
X9654357Y-11020714D01*
X9697214Y-11035000D01*
X9725786Y-11063572D01*
X9740071Y-11092143D01*
X9754357Y-11149286D01*
X9754357Y-11192143D01*
X9740071Y-11249286D01*
X9725786Y-11277857D01*
X9697214Y-11306429D01*
X9654357Y-11320714D01*
X9582928Y-11320714D01*
X9882928Y-11320714D02*
X9882928Y-11120714D01*
X9882928Y-11177857D02*
X9897214Y-11149286D01*
X9911500Y-11135000D01*
X9940071Y-11120714D01*
X9968643Y-11120714D01*
X10068643Y-11320714D02*
X10068643Y-11120714D01*
X10068643Y-11020714D02*
X10054357Y-11035000D01*
X10068643Y-11049286D01*
X10082928Y-11035000D01*
X10068643Y-11020714D01*
X10068643Y-11049286D01*
X10254357Y-11320714D02*
X10225786Y-11306429D01*
X10211500Y-11277857D01*
X10211500Y-11020714D01*
X10411500Y-11320714D02*
X10382928Y-11306429D01*
X10368643Y-11277857D01*
X10368643Y-11020714D01*
X10754357Y-11320714D02*
X10754357Y-11020714D01*
X10854357Y-11235000D01*
X10954357Y-11020714D01*
X10954357Y-11320714D01*
X11225786Y-11320714D02*
X11225786Y-11163572D01*
X11211500Y-11135000D01*
X11182928Y-11120714D01*
X11125786Y-11120714D01*
X11097214Y-11135000D01*
X11225786Y-11306429D02*
X11197214Y-11320714D01*
X11125786Y-11320714D01*
X11097214Y-11306429D01*
X11082928Y-11277857D01*
X11082928Y-11249286D01*
X11097214Y-11220714D01*
X11125786Y-11206429D01*
X11197214Y-11206429D01*
X11225786Y-11192143D01*
X11368643Y-11120714D02*
X11368643Y-11420714D01*
X11368643Y-11135000D02*
X11397214Y-11120714D01*
X11454357Y-11120714D01*
X11482928Y-11135000D01*
X11497214Y-11149286D01*
X11511500Y-11177857D01*
X11511500Y-11263571D01*
X11497214Y-11292143D01*
X11482928Y-11306429D01*
X11454357Y-11320714D01*
X11397214Y-11320714D01*
X11368643Y-11306429D01*
X11640071Y-11292143D02*
X11654357Y-11306429D01*
X11640071Y-11320714D01*
X11625786Y-11306429D01*
X11640071Y-11292143D01*
X11640071Y-11320714D01*
X11640071Y-11135000D02*
X11654357Y-11149286D01*
X11640071Y-11163572D01*
X11625786Y-11149286D01*
X11640071Y-11135000D01*
X11640071Y-11163572D01*
X9276500Y-11805000D02*
X9296500Y-11825000D01*
X9296500Y-11805000D02*
X9276500Y-11825000D01*
X9640071Y-11650714D02*
X9668643Y-11650714D01*
X9697214Y-11665000D01*
X9711500Y-11679286D01*
X9725786Y-11707857D01*
X9740071Y-11765000D01*
X9740071Y-11836429D01*
X9725786Y-11893571D01*
X9711500Y-11922143D01*
X9697214Y-11936429D01*
X9668643Y-11950714D01*
X9640071Y-11950714D01*
X9611500Y-11936429D01*
X9597214Y-11922143D01*
X9582928Y-11893571D01*
X9568643Y-11836429D01*
X9568643Y-11765000D01*
X9582928Y-11707857D01*
X9597214Y-11679286D01*
X9611500Y-11665000D01*
X9640071Y-11650714D01*
X9868643Y-11922143D02*
X9882928Y-11936429D01*
X9868643Y-11950714D01*
X9854357Y-11936429D01*
X9868643Y-11922143D01*
X9868643Y-11950714D01*
X9997214Y-11679286D02*
X10011500Y-11665000D01*
X10040071Y-11650714D01*
X10111500Y-11650714D01*
X10140071Y-11665000D01*
X10154357Y-11679286D01*
X10168643Y-11707857D01*
X10168643Y-11736429D01*
X10154357Y-11779286D01*
X9982928Y-11950714D01*
X10168643Y-11950714D01*
X10354357Y-11650714D02*
X10382928Y-11650714D01*
X10411500Y-11665000D01*
X10425786Y-11679286D01*
X10440071Y-11707857D01*
X10454357Y-11765000D01*
X10454357Y-11836429D01*
X10440071Y-11893571D01*
X10425786Y-11922143D01*
X10411500Y-11936429D01*
X10382928Y-11950714D01*
X10354357Y-11950714D01*
X10325786Y-11936429D01*
X10311500Y-11922143D01*
X10297214Y-11893571D01*
X10282928Y-11836429D01*
X10282928Y-11765000D01*
X10297214Y-11707857D01*
X10311500Y-11679286D01*
X10325786Y-11665000D01*
X10354357Y-11650714D01*
X10640071Y-11650714D02*
X10668643Y-11650714D01*
X10697214Y-11665000D01*
X10711500Y-11679286D01*
X10725786Y-11707857D01*
X10740071Y-11765000D01*
X10740071Y-11836429D01*
X10725786Y-11893571D01*
X10711500Y-11922143D01*
X10697214Y-11936429D01*
X10668643Y-11950714D01*
X10640071Y-11950714D01*
X10611500Y-11936429D01*
X10597214Y-11922143D01*
X10582928Y-11893571D01*
X10568643Y-11836429D01*
X10568643Y-11765000D01*
X10582928Y-11707857D01*
X10597214Y-11679286D01*
X10611500Y-11665000D01*
X10640071Y-11650714D01*
X10868643Y-11950714D02*
X10868643Y-11750714D01*
X10868643Y-11779286D02*
X10882928Y-11765000D01*
X10911500Y-11750714D01*
X10954357Y-11750714D01*
X10982928Y-11765000D01*
X10997214Y-11793571D01*
X10997214Y-11950714D01*
X10997214Y-11793571D02*
X11011500Y-11765000D01*
X11040071Y-11750714D01*
X11082928Y-11750714D01*
X11111500Y-11765000D01*
X11125786Y-11793571D01*
X11125786Y-11950714D01*
X11268643Y-11950714D02*
X11268643Y-11750714D01*
X11268643Y-11779286D02*
X11282928Y-11765000D01*
X11311500Y-11750714D01*
X11354357Y-11750714D01*
X11382928Y-11765000D01*
X11397214Y-11793571D01*
X11397214Y-11950714D01*
X11397214Y-11793571D02*
X11411500Y-11765000D01*
X11440071Y-11750714D01*
X11482928Y-11750714D01*
X11511500Y-11765000D01*
X11525786Y-11793571D01*
X11525786Y-11950714D01*
X12111500Y-11636429D02*
X11854357Y-12022143D01*
X12497214Y-11650714D02*
X12525786Y-11650714D01*
X12554357Y-11665000D01*
X12568643Y-11679286D01*
X12582928Y-11707857D01*
X12597214Y-11765000D01*
X12597214Y-11836429D01*
X12582928Y-11893571D01*
X12568643Y-11922143D01*
X12554357Y-11936429D01*
X12525786Y-11950714D01*
X12497214Y-11950714D01*
X12468643Y-11936429D01*
X12454357Y-11922143D01*
X12440071Y-11893571D01*
X12425786Y-11836429D01*
X12425786Y-11765000D01*
X12440071Y-11707857D01*
X12454357Y-11679286D01*
X12468643Y-11665000D01*
X12497214Y-11650714D01*
X12725786Y-11922143D02*
X12740071Y-11936429D01*
X12725786Y-11950714D01*
X12711500Y-11936429D01*
X12725786Y-11922143D01*
X12725786Y-11950714D01*
X12925786Y-11650714D02*
X12954357Y-11650714D01*
X12982928Y-11665000D01*
X12997214Y-11679286D01*
X13011500Y-11707857D01*
X13025786Y-11765000D01*
X13025786Y-11836429D01*
X13011500Y-11893571D01*
X12997214Y-11922143D01*
X12982928Y-11936429D01*
X12954357Y-11950714D01*
X12925786Y-11950714D01*
X12897214Y-11936429D01*
X12882928Y-11922143D01*
X12868643Y-11893571D01*
X12854357Y-11836429D01*
X12854357Y-11765000D01*
X12868643Y-11707857D01*
X12882928Y-11679286D01*
X12897214Y-11665000D01*
X12925786Y-11650714D01*
X13211500Y-11650714D02*
X13240071Y-11650714D01*
X13268643Y-11665000D01*
X13282928Y-11679286D01*
X13297214Y-11707857D01*
X13311500Y-11765000D01*
X13311500Y-11836429D01*
X13297214Y-11893571D01*
X13282928Y-11922143D01*
X13268643Y-11936429D01*
X13240071Y-11950714D01*
X13211500Y-11950714D01*
X13182928Y-11936429D01*
X13168643Y-11922143D01*
X13154357Y-11893571D01*
X13140071Y-11836429D01*
X13140071Y-11765000D01*
X13154357Y-11707857D01*
X13168643Y-11679286D01*
X13182928Y-11665000D01*
X13211500Y-11650714D01*
X13411500Y-11650714D02*
X13611500Y-11650714D01*
X13482928Y-11950714D01*
X13740071Y-11950714D02*
X13797214Y-11950714D01*
X13825786Y-11936429D01*
X13840071Y-11922143D01*
X13868643Y-11879286D01*
X13882928Y-11822143D01*
X13882928Y-11707857D01*
X13868643Y-11679286D01*
X13854357Y-11665000D01*
X13825786Y-11650714D01*
X13768643Y-11650714D01*
X13740071Y-11665000D01*
X13725786Y-11679286D01*
X13711500Y-11707857D01*
X13711500Y-11779286D01*
X13725786Y-11807857D01*
X13740071Y-11822143D01*
X13768643Y-11836429D01*
X13825786Y-11836429D01*
X13854357Y-11822143D01*
X13868643Y-11807857D01*
X13882928Y-11779286D01*
X13997214Y-11650714D02*
X13997214Y-11707857D01*
X14111500Y-11650714D02*
X14111500Y-11707857D01*
X14554357Y-12065000D02*
X14540071Y-12050714D01*
X14511500Y-12007857D01*
X14497214Y-11979286D01*
X14482928Y-11936429D01*
X14468643Y-11865000D01*
X14468643Y-11807857D01*
X14482928Y-11736429D01*
X14497214Y-11693571D01*
X14511500Y-11665000D01*
X14540071Y-11622143D01*
X14554357Y-11607857D01*
X14640071Y-11650714D02*
X14825786Y-11650714D01*
X14725786Y-11765000D01*
X14768643Y-11765000D01*
X14797214Y-11779286D01*
X14811500Y-11793571D01*
X14825786Y-11822143D01*
X14825786Y-11893571D01*
X14811500Y-11922143D01*
X14797214Y-11936429D01*
X14768643Y-11950714D01*
X14682928Y-11950714D01*
X14654357Y-11936429D01*
X14640071Y-11922143D01*
X15097214Y-11650714D02*
X14954357Y-11650714D01*
X14940071Y-11793571D01*
X14954357Y-11779286D01*
X14982928Y-11765000D01*
X15054357Y-11765000D01*
X15082928Y-11779286D01*
X15097214Y-11793571D01*
X15111500Y-11822143D01*
X15111500Y-11893571D01*
X15097214Y-11922143D01*
X15082928Y-11936429D01*
X15054357Y-11950714D01*
X14982928Y-11950714D01*
X14954357Y-11936429D01*
X14940071Y-11922143D01*
X15468643Y-11950714D02*
X15468643Y-11650714D01*
X15597214Y-11950714D02*
X15597214Y-11793571D01*
X15582928Y-11765000D01*
X15554357Y-11750714D01*
X15511500Y-11750714D01*
X15482928Y-11765000D01*
X15468643Y-11779286D01*
X15782928Y-11950714D02*
X15754357Y-11936429D01*
X15740071Y-11922143D01*
X15725786Y-11893571D01*
X15725786Y-11807857D01*
X15740071Y-11779286D01*
X15754357Y-11765000D01*
X15782928Y-11750714D01*
X15825786Y-11750714D01*
X15854357Y-11765000D01*
X15868643Y-11779286D01*
X15882928Y-11807857D01*
X15882928Y-11893571D01*
X15868643Y-11922143D01*
X15854357Y-11936429D01*
X15825786Y-11950714D01*
X15782928Y-11950714D01*
X16054357Y-11950714D02*
X16025786Y-11936429D01*
X16011500Y-11907857D01*
X16011500Y-11650714D01*
X16282928Y-11936429D02*
X16254357Y-11950714D01*
X16197214Y-11950714D01*
X16168643Y-11936429D01*
X16154357Y-11907857D01*
X16154357Y-11793571D01*
X16168643Y-11765000D01*
X16197214Y-11750714D01*
X16254357Y-11750714D01*
X16282928Y-11765000D01*
X16297214Y-11793571D01*
X16297214Y-11822143D01*
X16154357Y-11850714D01*
X16411500Y-11936429D02*
X16440071Y-11950714D01*
X16497214Y-11950714D01*
X16525786Y-11936429D01*
X16540071Y-11907857D01*
X16540071Y-11893571D01*
X16525786Y-11865000D01*
X16497214Y-11850714D01*
X16454357Y-11850714D01*
X16425786Y-11836429D01*
X16411500Y-11807857D01*
X16411500Y-11793571D01*
X16425786Y-11765000D01*
X16454357Y-11750714D01*
X16497214Y-11750714D01*
X16525786Y-11765000D01*
X16640071Y-12065000D02*
X16654357Y-12050714D01*
X16682928Y-12007857D01*
X16697214Y-11979286D01*
X16711500Y-11936429D01*
X16725786Y-11865000D01*
X16725786Y-11807857D01*
X16711500Y-11736429D01*
X16697214Y-11693571D01*
X16682928Y-11665000D01*
X16654357Y-11622143D01*
X16640071Y-11607857D01*
X9296500Y-12211000D02*
G75*
G03*
X9296500Y-12211000I-17500J0D01*
G01*
X9640071Y-12046714D02*
X9668643Y-12046714D01*
X9697214Y-12061000D01*
X9711500Y-12075286D01*
X9725786Y-12103857D01*
X9740071Y-12161000D01*
X9740071Y-12232429D01*
X9725786Y-12289571D01*
X9711500Y-12318143D01*
X9697214Y-12332429D01*
X9668643Y-12346714D01*
X9640071Y-12346714D01*
X9611500Y-12332429D01*
X9597214Y-12318143D01*
X9582928Y-12289571D01*
X9568643Y-12232429D01*
X9568643Y-12161000D01*
X9582928Y-12103857D01*
X9597214Y-12075286D01*
X9611500Y-12061000D01*
X9640071Y-12046714D01*
X9868643Y-12318143D02*
X9882928Y-12332429D01*
X9868643Y-12346714D01*
X9854357Y-12332429D01*
X9868643Y-12318143D01*
X9868643Y-12346714D01*
X9982928Y-12046714D02*
X10168643Y-12046714D01*
X10068643Y-12161000D01*
X10111500Y-12161000D01*
X10140071Y-12175286D01*
X10154357Y-12189571D01*
X10168643Y-12218143D01*
X10168643Y-12289571D01*
X10154357Y-12318143D01*
X10140071Y-12332429D01*
X10111500Y-12346714D01*
X10025786Y-12346714D01*
X9997214Y-12332429D01*
X9982928Y-12318143D01*
X10440071Y-12046714D02*
X10297214Y-12046714D01*
X10282928Y-12189571D01*
X10297214Y-12175286D01*
X10325786Y-12161000D01*
X10397214Y-12161000D01*
X10425786Y-12175286D01*
X10440071Y-12189571D01*
X10454357Y-12218143D01*
X10454357Y-12289571D01*
X10440071Y-12318143D01*
X10425786Y-12332429D01*
X10397214Y-12346714D01*
X10325786Y-12346714D01*
X10297214Y-12332429D01*
X10282928Y-12318143D01*
X10640071Y-12046714D02*
X10668643Y-12046714D01*
X10697214Y-12061000D01*
X10711500Y-12075286D01*
X10725786Y-12103857D01*
X10740071Y-12161000D01*
X10740071Y-12232429D01*
X10725786Y-12289571D01*
X10711500Y-12318143D01*
X10697214Y-12332429D01*
X10668643Y-12346714D01*
X10640071Y-12346714D01*
X10611500Y-12332429D01*
X10597214Y-12318143D01*
X10582928Y-12289571D01*
X10568643Y-12232429D01*
X10568643Y-12161000D01*
X10582928Y-12103857D01*
X10597214Y-12075286D01*
X10611500Y-12061000D01*
X10640071Y-12046714D01*
X10868643Y-12346714D02*
X10868643Y-12146714D01*
X10868643Y-12175286D02*
X10882928Y-12161000D01*
X10911500Y-12146714D01*
X10954357Y-12146714D01*
X10982928Y-12161000D01*
X10997214Y-12189571D01*
X10997214Y-12346714D01*
X10997214Y-12189571D02*
X11011500Y-12161000D01*
X11040071Y-12146714D01*
X11082928Y-12146714D01*
X11111500Y-12161000D01*
X11125786Y-12189571D01*
X11125786Y-12346714D01*
X11268643Y-12346714D02*
X11268643Y-12146714D01*
X11268643Y-12175286D02*
X11282928Y-12161000D01*
X11311500Y-12146714D01*
X11354357Y-12146714D01*
X11382928Y-12161000D01*
X11397214Y-12189571D01*
X11397214Y-12346714D01*
X11397214Y-12189571D02*
X11411500Y-12161000D01*
X11440071Y-12146714D01*
X11482928Y-12146714D01*
X11511500Y-12161000D01*
X11525786Y-12189571D01*
X11525786Y-12346714D01*
X12111500Y-12032429D02*
X11854357Y-12418143D01*
X12497214Y-12046714D02*
X12525786Y-12046714D01*
X12554357Y-12061000D01*
X12568643Y-12075286D01*
X12582928Y-12103857D01*
X12597214Y-12161000D01*
X12597214Y-12232429D01*
X12582928Y-12289571D01*
X12568643Y-12318143D01*
X12554357Y-12332429D01*
X12525786Y-12346714D01*
X12497214Y-12346714D01*
X12468643Y-12332429D01*
X12454357Y-12318143D01*
X12440071Y-12289571D01*
X12425786Y-12232429D01*
X12425786Y-12161000D01*
X12440071Y-12103857D01*
X12454357Y-12075286D01*
X12468643Y-12061000D01*
X12497214Y-12046714D01*
X12725786Y-12318143D02*
X12740071Y-12332429D01*
X12725786Y-12346714D01*
X12711500Y-12332429D01*
X12725786Y-12318143D01*
X12725786Y-12346714D01*
X12925786Y-12046714D02*
X12954357Y-12046714D01*
X12982928Y-12061000D01*
X12997214Y-12075286D01*
X13011500Y-12103857D01*
X13025786Y-12161000D01*
X13025786Y-12232429D01*
X13011500Y-12289571D01*
X12997214Y-12318143D01*
X12982928Y-12332429D01*
X12954357Y-12346714D01*
X12925786Y-12346714D01*
X12897214Y-12332429D01*
X12882928Y-12318143D01*
X12868643Y-12289571D01*
X12854357Y-12232429D01*
X12854357Y-12161000D01*
X12868643Y-12103857D01*
X12882928Y-12075286D01*
X12897214Y-12061000D01*
X12925786Y-12046714D01*
X13311500Y-12346714D02*
X13140071Y-12346714D01*
X13225786Y-12346714D02*
X13225786Y-12046714D01*
X13197214Y-12089571D01*
X13168643Y-12118143D01*
X13140071Y-12132429D01*
X13411500Y-12046714D02*
X13597214Y-12046714D01*
X13497214Y-12161000D01*
X13540071Y-12161000D01*
X13568643Y-12175286D01*
X13582928Y-12189571D01*
X13597214Y-12218143D01*
X13597214Y-12289571D01*
X13582928Y-12318143D01*
X13568643Y-12332429D01*
X13540071Y-12346714D01*
X13454357Y-12346714D01*
X13425786Y-12332429D01*
X13411500Y-12318143D01*
X13768643Y-12175286D02*
X13740071Y-12161000D01*
X13725786Y-12146714D01*
X13711500Y-12118143D01*
X13711500Y-12103857D01*
X13725786Y-12075286D01*
X13740071Y-12061000D01*
X13768643Y-12046714D01*
X13825786Y-12046714D01*
X13854357Y-12061000D01*
X13868643Y-12075286D01*
X13882928Y-12103857D01*
X13882928Y-12118143D01*
X13868643Y-12146714D01*
X13854357Y-12161000D01*
X13825786Y-12175286D01*
X13768643Y-12175286D01*
X13740071Y-12189571D01*
X13725786Y-12203857D01*
X13711500Y-12232429D01*
X13711500Y-12289571D01*
X13725786Y-12318143D01*
X13740071Y-12332429D01*
X13768643Y-12346714D01*
X13825786Y-12346714D01*
X13854357Y-12332429D01*
X13868643Y-12318143D01*
X13882928Y-12289571D01*
X13882928Y-12232429D01*
X13868643Y-12203857D01*
X13854357Y-12189571D01*
X13825786Y-12175286D01*
X13997214Y-12046714D02*
X13997214Y-12103857D01*
X14111500Y-12046714D02*
X14111500Y-12103857D01*
X14554357Y-12461000D02*
X14540071Y-12446714D01*
X14511500Y-12403857D01*
X14497214Y-12375286D01*
X14482928Y-12332429D01*
X14468643Y-12261000D01*
X14468643Y-12203857D01*
X14482928Y-12132429D01*
X14497214Y-12089571D01*
X14511500Y-12061000D01*
X14540071Y-12018143D01*
X14554357Y-12003857D01*
X14825786Y-12346714D02*
X14654357Y-12346714D01*
X14740071Y-12346714D02*
X14740071Y-12046714D01*
X14711500Y-12089571D01*
X14682928Y-12118143D01*
X14654357Y-12132429D01*
X15082928Y-12146714D02*
X15082928Y-12346714D01*
X15011500Y-12032429D02*
X14940071Y-12246714D01*
X15125786Y-12246714D01*
X15468643Y-12346714D02*
X15468643Y-12046714D01*
X15597214Y-12346714D02*
X15597214Y-12189571D01*
X15582928Y-12161000D01*
X15554357Y-12146714D01*
X15511500Y-12146714D01*
X15482928Y-12161000D01*
X15468643Y-12175286D01*
X15782928Y-12346714D02*
X15754357Y-12332429D01*
X15740071Y-12318143D01*
X15725786Y-12289571D01*
X15725786Y-12203857D01*
X15740071Y-12175286D01*
X15754357Y-12161000D01*
X15782928Y-12146714D01*
X15825786Y-12146714D01*
X15854357Y-12161000D01*
X15868643Y-12175286D01*
X15882928Y-12203857D01*
X15882928Y-12289571D01*
X15868643Y-12318143D01*
X15854357Y-12332429D01*
X15825786Y-12346714D01*
X15782928Y-12346714D01*
X16054357Y-12346714D02*
X16025786Y-12332429D01*
X16011500Y-12303857D01*
X16011500Y-12046714D01*
X16282928Y-12332429D02*
X16254357Y-12346714D01*
X16197214Y-12346714D01*
X16168643Y-12332429D01*
X16154357Y-12303857D01*
X16154357Y-12189571D01*
X16168643Y-12161000D01*
X16197214Y-12146714D01*
X16254357Y-12146714D01*
X16282928Y-12161000D01*
X16297214Y-12189571D01*
X16297214Y-12218143D01*
X16154357Y-12246714D01*
X16411500Y-12332429D02*
X16440071Y-12346714D01*
X16497214Y-12346714D01*
X16525786Y-12332429D01*
X16540071Y-12303857D01*
X16540071Y-12289571D01*
X16525786Y-12261000D01*
X16497214Y-12246714D01*
X16454357Y-12246714D01*
X16425786Y-12232429D01*
X16411500Y-12203857D01*
X16411500Y-12189571D01*
X16425786Y-12161000D01*
X16454357Y-12146714D01*
X16497214Y-12146714D01*
X16525786Y-12161000D01*
X16640071Y-12461000D02*
X16654357Y-12446714D01*
X16682928Y-12403857D01*
X16697214Y-12375286D01*
X16711500Y-12332429D01*
X16725786Y-12261000D01*
X16725786Y-12203857D01*
X16711500Y-12132429D01*
X16697214Y-12089571D01*
X16682928Y-12061000D01*
X16654357Y-12018143D01*
X16640071Y-12003857D01*
X9266500Y-12577000D02*
X9266500Y-12637000D01*
X9236500Y-12607000D02*
X9296500Y-12607000D01*
X9640071Y-12442714D02*
X9668643Y-12442714D01*
X9697214Y-12457000D01*
X9711500Y-12471286D01*
X9725786Y-12499857D01*
X9740071Y-12557000D01*
X9740071Y-12628429D01*
X9725786Y-12685571D01*
X9711500Y-12714143D01*
X9697214Y-12728429D01*
X9668643Y-12742714D01*
X9640071Y-12742714D01*
X9611500Y-12728429D01*
X9597214Y-12714143D01*
X9582928Y-12685571D01*
X9568643Y-12628429D01*
X9568643Y-12557000D01*
X9582928Y-12499857D01*
X9597214Y-12471286D01*
X9611500Y-12457000D01*
X9640071Y-12442714D01*
X9868643Y-12714143D02*
X9882928Y-12728429D01*
X9868643Y-12742714D01*
X9854357Y-12728429D01*
X9868643Y-12714143D01*
X9868643Y-12742714D01*
X10140071Y-12442714D02*
X10082928Y-12442714D01*
X10054357Y-12457000D01*
X10040071Y-12471286D01*
X10011500Y-12514143D01*
X9997214Y-12571286D01*
X9997214Y-12685571D01*
X10011500Y-12714143D01*
X10025786Y-12728429D01*
X10054357Y-12742714D01*
X10111500Y-12742714D01*
X10140071Y-12728429D01*
X10154357Y-12714143D01*
X10168643Y-12685571D01*
X10168643Y-12614143D01*
X10154357Y-12585571D01*
X10140071Y-12571286D01*
X10111500Y-12557000D01*
X10054357Y-12557000D01*
X10025786Y-12571286D01*
X10011500Y-12585571D01*
X9997214Y-12614143D01*
X10354357Y-12442714D02*
X10382928Y-12442714D01*
X10411500Y-12457000D01*
X10425786Y-12471286D01*
X10440071Y-12499857D01*
X10454357Y-12557000D01*
X10454357Y-12628429D01*
X10440071Y-12685571D01*
X10425786Y-12714143D01*
X10411500Y-12728429D01*
X10382928Y-12742714D01*
X10354357Y-12742714D01*
X10325786Y-12728429D01*
X10311500Y-12714143D01*
X10297214Y-12685571D01*
X10282928Y-12628429D01*
X10282928Y-12557000D01*
X10297214Y-12499857D01*
X10311500Y-12471286D01*
X10325786Y-12457000D01*
X10354357Y-12442714D01*
X10640071Y-12442714D02*
X10668643Y-12442714D01*
X10697214Y-12457000D01*
X10711500Y-12471286D01*
X10725786Y-12499857D01*
X10740071Y-12557000D01*
X10740071Y-12628429D01*
X10725786Y-12685571D01*
X10711500Y-12714143D01*
X10697214Y-12728429D01*
X10668643Y-12742714D01*
X10640071Y-12742714D01*
X10611500Y-12728429D01*
X10597214Y-12714143D01*
X10582928Y-12685571D01*
X10568643Y-12628429D01*
X10568643Y-12557000D01*
X10582928Y-12499857D01*
X10597214Y-12471286D01*
X10611500Y-12457000D01*
X10640071Y-12442714D01*
X10868643Y-12742714D02*
X10868643Y-12542714D01*
X10868643Y-12571286D02*
X10882928Y-12557000D01*
X10911500Y-12542714D01*
X10954357Y-12542714D01*
X10982928Y-12557000D01*
X10997214Y-12585571D01*
X10997214Y-12742714D01*
X10997214Y-12585571D02*
X11011500Y-12557000D01*
X11040071Y-12542714D01*
X11082928Y-12542714D01*
X11111500Y-12557000D01*
X11125786Y-12585571D01*
X11125786Y-12742714D01*
X11268643Y-12742714D02*
X11268643Y-12542714D01*
X11268643Y-12571286D02*
X11282928Y-12557000D01*
X11311500Y-12542714D01*
X11354357Y-12542714D01*
X11382928Y-12557000D01*
X11397214Y-12585571D01*
X11397214Y-12742714D01*
X11397214Y-12585571D02*
X11411500Y-12557000D01*
X11440071Y-12542714D01*
X11482928Y-12542714D01*
X11511500Y-12557000D01*
X11525786Y-12585571D01*
X11525786Y-12742714D01*
X12111500Y-12428429D02*
X11854357Y-12814143D01*
X12497214Y-12442714D02*
X12525786Y-12442714D01*
X12554357Y-12457000D01*
X12568643Y-12471286D01*
X12582928Y-12499857D01*
X12597214Y-12557000D01*
X12597214Y-12628429D01*
X12582928Y-12685571D01*
X12568643Y-12714143D01*
X12554357Y-12728429D01*
X12525786Y-12742714D01*
X12497214Y-12742714D01*
X12468643Y-12728429D01*
X12454357Y-12714143D01*
X12440071Y-12685571D01*
X12425786Y-12628429D01*
X12425786Y-12557000D01*
X12440071Y-12499857D01*
X12454357Y-12471286D01*
X12468643Y-12457000D01*
X12497214Y-12442714D01*
X12725786Y-12714143D02*
X12740071Y-12728429D01*
X12725786Y-12742714D01*
X12711500Y-12728429D01*
X12725786Y-12714143D01*
X12725786Y-12742714D01*
X12925786Y-12442714D02*
X12954357Y-12442714D01*
X12982928Y-12457000D01*
X12997214Y-12471286D01*
X13011500Y-12499857D01*
X13025786Y-12557000D01*
X13025786Y-12628429D01*
X13011500Y-12685571D01*
X12997214Y-12714143D01*
X12982928Y-12728429D01*
X12954357Y-12742714D01*
X12925786Y-12742714D01*
X12897214Y-12728429D01*
X12882928Y-12714143D01*
X12868643Y-12685571D01*
X12854357Y-12628429D01*
X12854357Y-12557000D01*
X12868643Y-12499857D01*
X12882928Y-12471286D01*
X12897214Y-12457000D01*
X12925786Y-12442714D01*
X13140071Y-12471286D02*
X13154357Y-12457000D01*
X13182928Y-12442714D01*
X13254357Y-12442714D01*
X13282928Y-12457000D01*
X13297214Y-12471286D01*
X13311500Y-12499857D01*
X13311500Y-12528429D01*
X13297214Y-12571286D01*
X13125786Y-12742714D01*
X13311500Y-12742714D01*
X13411500Y-12442714D02*
X13597214Y-12442714D01*
X13497214Y-12557000D01*
X13540071Y-12557000D01*
X13568643Y-12571286D01*
X13582928Y-12585571D01*
X13597214Y-12614143D01*
X13597214Y-12685571D01*
X13582928Y-12714143D01*
X13568643Y-12728429D01*
X13540071Y-12742714D01*
X13454357Y-12742714D01*
X13425786Y-12728429D01*
X13411500Y-12714143D01*
X13854357Y-12442714D02*
X13797214Y-12442714D01*
X13768643Y-12457000D01*
X13754357Y-12471286D01*
X13725786Y-12514143D01*
X13711500Y-12571286D01*
X13711500Y-12685571D01*
X13725786Y-12714143D01*
X13740071Y-12728429D01*
X13768643Y-12742714D01*
X13825786Y-12742714D01*
X13854357Y-12728429D01*
X13868643Y-12714143D01*
X13882928Y-12685571D01*
X13882928Y-12614143D01*
X13868643Y-12585571D01*
X13854357Y-12571286D01*
X13825786Y-12557000D01*
X13768643Y-12557000D01*
X13740071Y-12571286D01*
X13725786Y-12585571D01*
X13711500Y-12614143D01*
X13997214Y-12442714D02*
X13997214Y-12499857D01*
X14111500Y-12442714D02*
X14111500Y-12499857D01*
X14554357Y-12857000D02*
X14540071Y-12842714D01*
X14511500Y-12799857D01*
X14497214Y-12771286D01*
X14482928Y-12728429D01*
X14468643Y-12657000D01*
X14468643Y-12599857D01*
X14482928Y-12528429D01*
X14497214Y-12485571D01*
X14511500Y-12457000D01*
X14540071Y-12414143D01*
X14554357Y-12399857D01*
X14725786Y-12442714D02*
X14754357Y-12442714D01*
X14782928Y-12457000D01*
X14797214Y-12471286D01*
X14811500Y-12499857D01*
X14825786Y-12557000D01*
X14825786Y-12628429D01*
X14811500Y-12685571D01*
X14797214Y-12714143D01*
X14782928Y-12728429D01*
X14754357Y-12742714D01*
X14725786Y-12742714D01*
X14697214Y-12728429D01*
X14682928Y-12714143D01*
X14668643Y-12685571D01*
X14654357Y-12628429D01*
X14654357Y-12557000D01*
X14668643Y-12499857D01*
X14682928Y-12471286D01*
X14697214Y-12457000D01*
X14725786Y-12442714D01*
X15182928Y-12742714D02*
X15182928Y-12442714D01*
X15311500Y-12742714D02*
X15311500Y-12585571D01*
X15297214Y-12557000D01*
X15268643Y-12542714D01*
X15225786Y-12542714D01*
X15197214Y-12557000D01*
X15182928Y-12571286D01*
X15497214Y-12742714D02*
X15468643Y-12728429D01*
X15454357Y-12714143D01*
X15440071Y-12685571D01*
X15440071Y-12599857D01*
X15454357Y-12571286D01*
X15468643Y-12557000D01*
X15497214Y-12542714D01*
X15540071Y-12542714D01*
X15568643Y-12557000D01*
X15582928Y-12571286D01*
X15597214Y-12599857D01*
X15597214Y-12685571D01*
X15582928Y-12714143D01*
X15568643Y-12728429D01*
X15540071Y-12742714D01*
X15497214Y-12742714D01*
X15768643Y-12742714D02*
X15740071Y-12728429D01*
X15725786Y-12699857D01*
X15725786Y-12442714D01*
X15997214Y-12728429D02*
X15968643Y-12742714D01*
X15911500Y-12742714D01*
X15882928Y-12728429D01*
X15868643Y-12699857D01*
X15868643Y-12585571D01*
X15882928Y-12557000D01*
X15911500Y-12542714D01*
X15968643Y-12542714D01*
X15997214Y-12557000D01*
X16011500Y-12585571D01*
X16011500Y-12614143D01*
X15868643Y-12642714D01*
X16125786Y-12728429D02*
X16154357Y-12742714D01*
X16211500Y-12742714D01*
X16240071Y-12728429D01*
X16254357Y-12699857D01*
X16254357Y-12685571D01*
X16240071Y-12657000D01*
X16211500Y-12642714D01*
X16168643Y-12642714D01*
X16140071Y-12628429D01*
X16125786Y-12599857D01*
X16125786Y-12585571D01*
X16140071Y-12557000D01*
X16168643Y-12542714D01*
X16211500Y-12542714D01*
X16240071Y-12557000D01*
X16611500Y-12628429D02*
X16840071Y-12628429D01*
X16725786Y-12742714D02*
X16725786Y-12514143D01*
X17340071Y-12542714D02*
X17340071Y-12742714D01*
X17268643Y-12428429D02*
X17197214Y-12642714D01*
X17382928Y-12642714D01*
X17711500Y-12728429D02*
X17740071Y-12742714D01*
X17797214Y-12742714D01*
X17825786Y-12728429D01*
X17840071Y-12699857D01*
X17840071Y-12685571D01*
X17825786Y-12657000D01*
X17797214Y-12642714D01*
X17754357Y-12642714D01*
X17725786Y-12628429D01*
X17711500Y-12599857D01*
X17711500Y-12585571D01*
X17725786Y-12557000D01*
X17754357Y-12542714D01*
X17797214Y-12542714D01*
X17825786Y-12557000D01*
X18011500Y-12742714D02*
X17982928Y-12728429D01*
X17968643Y-12699857D01*
X17968643Y-12442714D01*
X18168643Y-12742714D02*
X18140071Y-12728429D01*
X18125786Y-12714143D01*
X18111500Y-12685571D01*
X18111500Y-12599857D01*
X18125786Y-12571286D01*
X18140071Y-12557000D01*
X18168643Y-12542714D01*
X18211500Y-12542714D01*
X18240071Y-12557000D01*
X18254357Y-12571286D01*
X18268643Y-12599857D01*
X18268643Y-12685571D01*
X18254357Y-12714143D01*
X18240071Y-12728429D01*
X18211500Y-12742714D01*
X18168643Y-12742714D01*
X18354357Y-12542714D02*
X18468643Y-12542714D01*
X18397214Y-12442714D02*
X18397214Y-12699857D01*
X18411500Y-12728429D01*
X18440071Y-12742714D01*
X18468643Y-12742714D01*
X18554357Y-12728429D02*
X18582928Y-12742714D01*
X18640071Y-12742714D01*
X18668643Y-12728429D01*
X18682928Y-12699857D01*
X18682928Y-12685571D01*
X18668643Y-12657000D01*
X18640071Y-12642714D01*
X18597214Y-12642714D01*
X18568643Y-12628429D01*
X18554357Y-12599857D01*
X18554357Y-12585571D01*
X18568643Y-12557000D01*
X18597214Y-12542714D01*
X18640071Y-12542714D01*
X18668643Y-12557000D01*
X18782928Y-12857000D02*
X18797214Y-12842714D01*
X18825786Y-12799857D01*
X18840071Y-12771286D01*
X18854357Y-12728429D01*
X18868643Y-12657000D01*
X18868643Y-12599857D01*
X18854357Y-12528429D01*
X18840071Y-12485571D01*
X18825786Y-12457000D01*
X18797214Y-12414143D01*
X18782928Y-12399857D01*
X9281856Y-13038356D02*
X9281856Y-12967644D01*
X9211144Y-12967644D01*
X9211144Y-13038356D01*
X9281856Y-13038356D01*
X9740071Y-13138714D02*
X9568643Y-13138714D01*
X9654357Y-13138714D02*
X9654357Y-12838714D01*
X9625786Y-12881571D01*
X9597214Y-12910143D01*
X9568643Y-12924429D01*
X9868643Y-13110143D02*
X9882928Y-13124429D01*
X9868643Y-13138714D01*
X9854357Y-13124429D01*
X9868643Y-13110143D01*
X9868643Y-13138714D01*
X10068643Y-12838714D02*
X10097214Y-12838714D01*
X10125786Y-12853000D01*
X10140071Y-12867286D01*
X10154357Y-12895857D01*
X10168643Y-12953000D01*
X10168643Y-13024429D01*
X10154357Y-13081571D01*
X10140071Y-13110143D01*
X10125786Y-13124429D01*
X10097214Y-13138714D01*
X10068643Y-13138714D01*
X10040071Y-13124429D01*
X10025786Y-13110143D01*
X10011500Y-13081571D01*
X9997214Y-13024429D01*
X9997214Y-12953000D01*
X10011500Y-12895857D01*
X10025786Y-12867286D01*
X10040071Y-12853000D01*
X10068643Y-12838714D01*
X10354357Y-12838714D02*
X10382928Y-12838714D01*
X10411500Y-12853000D01*
X10425786Y-12867286D01*
X10440071Y-12895857D01*
X10454357Y-12953000D01*
X10454357Y-13024429D01*
X10440071Y-13081571D01*
X10425786Y-13110143D01*
X10411500Y-13124429D01*
X10382928Y-13138714D01*
X10354357Y-13138714D01*
X10325786Y-13124429D01*
X10311500Y-13110143D01*
X10297214Y-13081571D01*
X10282928Y-13024429D01*
X10282928Y-12953000D01*
X10297214Y-12895857D01*
X10311500Y-12867286D01*
X10325786Y-12853000D01*
X10354357Y-12838714D01*
X10640071Y-12838714D02*
X10668643Y-12838714D01*
X10697214Y-12853000D01*
X10711500Y-12867286D01*
X10725786Y-12895857D01*
X10740071Y-12953000D01*
X10740071Y-13024429D01*
X10725786Y-13081571D01*
X10711500Y-13110143D01*
X10697214Y-13124429D01*
X10668643Y-13138714D01*
X10640071Y-13138714D01*
X10611500Y-13124429D01*
X10597214Y-13110143D01*
X10582928Y-13081571D01*
X10568643Y-13024429D01*
X10568643Y-12953000D01*
X10582928Y-12895857D01*
X10597214Y-12867286D01*
X10611500Y-12853000D01*
X10640071Y-12838714D01*
X10868643Y-13138714D02*
X10868643Y-12938714D01*
X10868643Y-12967286D02*
X10882928Y-12953000D01*
X10911500Y-12938714D01*
X10954357Y-12938714D01*
X10982928Y-12953000D01*
X10997214Y-12981571D01*
X10997214Y-13138714D01*
X10997214Y-12981571D02*
X11011500Y-12953000D01*
X11040071Y-12938714D01*
X11082928Y-12938714D01*
X11111500Y-12953000D01*
X11125786Y-12981571D01*
X11125786Y-13138714D01*
X11268643Y-13138714D02*
X11268643Y-12938714D01*
X11268643Y-12967286D02*
X11282928Y-12953000D01*
X11311500Y-12938714D01*
X11354357Y-12938714D01*
X11382928Y-12953000D01*
X11397214Y-12981571D01*
X11397214Y-13138714D01*
X11397214Y-12981571D02*
X11411500Y-12953000D01*
X11440071Y-12938714D01*
X11482928Y-12938714D01*
X11511500Y-12953000D01*
X11525786Y-12981571D01*
X11525786Y-13138714D01*
X12111500Y-12824429D02*
X11854357Y-13210143D01*
X12497214Y-12838714D02*
X12525786Y-12838714D01*
X12554357Y-12853000D01*
X12568643Y-12867286D01*
X12582928Y-12895857D01*
X12597214Y-12953000D01*
X12597214Y-13024429D01*
X12582928Y-13081571D01*
X12568643Y-13110143D01*
X12554357Y-13124429D01*
X12525786Y-13138714D01*
X12497214Y-13138714D01*
X12468643Y-13124429D01*
X12454357Y-13110143D01*
X12440071Y-13081571D01*
X12425786Y-13024429D01*
X12425786Y-12953000D01*
X12440071Y-12895857D01*
X12454357Y-12867286D01*
X12468643Y-12853000D01*
X12497214Y-12838714D01*
X12725786Y-13110143D02*
X12740071Y-13124429D01*
X12725786Y-13138714D01*
X12711500Y-13124429D01*
X12725786Y-13110143D01*
X12725786Y-13138714D01*
X12925786Y-12838714D02*
X12954357Y-12838714D01*
X12982928Y-12853000D01*
X12997214Y-12867286D01*
X13011500Y-12895857D01*
X13025786Y-12953000D01*
X13025786Y-13024429D01*
X13011500Y-13081571D01*
X12997214Y-13110143D01*
X12982928Y-13124429D01*
X12954357Y-13138714D01*
X12925786Y-13138714D01*
X12897214Y-13124429D01*
X12882928Y-13110143D01*
X12868643Y-13081571D01*
X12854357Y-13024429D01*
X12854357Y-12953000D01*
X12868643Y-12895857D01*
X12882928Y-12867286D01*
X12897214Y-12853000D01*
X12925786Y-12838714D01*
X13125786Y-12838714D02*
X13311500Y-12838714D01*
X13211500Y-12953000D01*
X13254357Y-12953000D01*
X13282928Y-12967286D01*
X13297214Y-12981571D01*
X13311500Y-13010143D01*
X13311500Y-13081571D01*
X13297214Y-13110143D01*
X13282928Y-13124429D01*
X13254357Y-13138714D01*
X13168643Y-13138714D01*
X13140071Y-13124429D01*
X13125786Y-13110143D01*
X13454357Y-13138714D02*
X13511500Y-13138714D01*
X13540071Y-13124429D01*
X13554357Y-13110143D01*
X13582928Y-13067286D01*
X13597214Y-13010143D01*
X13597214Y-12895857D01*
X13582928Y-12867286D01*
X13568643Y-12853000D01*
X13540071Y-12838714D01*
X13482928Y-12838714D01*
X13454357Y-12853000D01*
X13440071Y-12867286D01*
X13425786Y-12895857D01*
X13425786Y-12967286D01*
X13440071Y-12995857D01*
X13454357Y-13010143D01*
X13482928Y-13024429D01*
X13540071Y-13024429D01*
X13568643Y-13010143D01*
X13582928Y-12995857D01*
X13597214Y-12967286D01*
X13854357Y-12938714D02*
X13854357Y-13138714D01*
X13782928Y-12824429D02*
X13711500Y-13038714D01*
X13897214Y-13038714D01*
X13997214Y-12838714D02*
X13997214Y-12895857D01*
X14111500Y-12838714D02*
X14111500Y-12895857D01*
X14554357Y-13253000D02*
X14540071Y-13238714D01*
X14511500Y-13195857D01*
X14497214Y-13167286D01*
X14482928Y-13124429D01*
X14468643Y-13053000D01*
X14468643Y-12995857D01*
X14482928Y-12924429D01*
X14497214Y-12881571D01*
X14511500Y-12853000D01*
X14540071Y-12810143D01*
X14554357Y-12795857D01*
X14711500Y-12967286D02*
X14682928Y-12953000D01*
X14668643Y-12938714D01*
X14654357Y-12910143D01*
X14654357Y-12895857D01*
X14668643Y-12867286D01*
X14682928Y-12853000D01*
X14711500Y-12838714D01*
X14768643Y-12838714D01*
X14797214Y-12853000D01*
X14811500Y-12867286D01*
X14825786Y-12895857D01*
X14825786Y-12910143D01*
X14811500Y-12938714D01*
X14797214Y-12953000D01*
X14768643Y-12967286D01*
X14711500Y-12967286D01*
X14682928Y-12981571D01*
X14668643Y-12995857D01*
X14654357Y-13024429D01*
X14654357Y-13081571D01*
X14668643Y-13110143D01*
X14682928Y-13124429D01*
X14711500Y-13138714D01*
X14768643Y-13138714D01*
X14797214Y-13124429D01*
X14811500Y-13110143D01*
X14825786Y-13081571D01*
X14825786Y-13024429D01*
X14811500Y-12995857D01*
X14797214Y-12981571D01*
X14768643Y-12967286D01*
X15082928Y-12838714D02*
X15025786Y-12838714D01*
X14997214Y-12853000D01*
X14982928Y-12867286D01*
X14954357Y-12910143D01*
X14940071Y-12967286D01*
X14940071Y-13081571D01*
X14954357Y-13110143D01*
X14968643Y-13124429D01*
X14997214Y-13138714D01*
X15054357Y-13138714D01*
X15082928Y-13124429D01*
X15097214Y-13110143D01*
X15111500Y-13081571D01*
X15111500Y-13010143D01*
X15097214Y-12981571D01*
X15082928Y-12967286D01*
X15054357Y-12953000D01*
X14997214Y-12953000D01*
X14968643Y-12967286D01*
X14954357Y-12981571D01*
X14940071Y-13010143D01*
X15468643Y-13138714D02*
X15468643Y-12838714D01*
X15597214Y-13138714D02*
X15597214Y-12981571D01*
X15582928Y-12953000D01*
X15554357Y-12938714D01*
X15511500Y-12938714D01*
X15482928Y-12953000D01*
X15468643Y-12967286D01*
X15782928Y-13138714D02*
X15754357Y-13124429D01*
X15740071Y-13110143D01*
X15725786Y-13081571D01*
X15725786Y-12995857D01*
X15740071Y-12967286D01*
X15754357Y-12953000D01*
X15782928Y-12938714D01*
X15825786Y-12938714D01*
X15854357Y-12953000D01*
X15868643Y-12967286D01*
X15882928Y-12995857D01*
X15882928Y-13081571D01*
X15868643Y-13110143D01*
X15854357Y-13124429D01*
X15825786Y-13138714D01*
X15782928Y-13138714D01*
X16054357Y-13138714D02*
X16025786Y-13124429D01*
X16011500Y-13095857D01*
X16011500Y-12838714D01*
X16282928Y-13124429D02*
X16254357Y-13138714D01*
X16197214Y-13138714D01*
X16168643Y-13124429D01*
X16154357Y-13095857D01*
X16154357Y-12981571D01*
X16168643Y-12953000D01*
X16197214Y-12938714D01*
X16254357Y-12938714D01*
X16282928Y-12953000D01*
X16297214Y-12981571D01*
X16297214Y-13010143D01*
X16154357Y-13038714D01*
X16411500Y-13124429D02*
X16440071Y-13138714D01*
X16497214Y-13138714D01*
X16525786Y-13124429D01*
X16540071Y-13095857D01*
X16540071Y-13081571D01*
X16525786Y-13053000D01*
X16497214Y-13038714D01*
X16454357Y-13038714D01*
X16425786Y-13024429D01*
X16411500Y-12995857D01*
X16411500Y-12981571D01*
X16425786Y-12953000D01*
X16454357Y-12938714D01*
X16497214Y-12938714D01*
X16525786Y-12953000D01*
X16640071Y-13253000D02*
X16654357Y-13238714D01*
X16682928Y-13195857D01*
X16697214Y-13167286D01*
X16711500Y-13124429D01*
X16725786Y-13053000D01*
X16725786Y-12995857D01*
X16711500Y-12924429D01*
X16697214Y-12881571D01*
X16682928Y-12853000D01*
X16654357Y-12810143D01*
X16640071Y-12795857D01*
M02*
